<?xml version="1.0" encoding="UTF-8"?>
<svg width="22px" height="22px" viewBox="0 0 22 22" version="1.1" xmlns="http://www.w3.org/2000/svg" xmlns:xlink="http://www.w3.org/1999/xlink">
    <!-- Generator: Sketch 42 (36781) - http://www.bohemiancoding.com/sketch -->
    <title>Alt_location</title>
    <desc>Created with Sketch.</desc>
    <defs></defs>
    <g id="Symbols" stroke="none" stroke-width="1" fill="none" fill-rule="evenodd">
        <g id="Alt_location">
            <g id="Page-1">
                <path d="M19.7755464,10.8875464 C19.7755464,15.796268 15.796268,19.7755464 10.8875464,19.7755464 C5.97882474,19.7755464 2,15.796268 2,10.8875464 C2,5.97905155 5.97905155,2 10.8877732,2 C15.7964948,2 19.7755464,5.97905155 19.7755464,10.8875464" id="Fill-1" fill="#4D4F53"></path>
                <path d="M17.6487629,10.9981629 C17.6487629,14.7145753 14.6356701,17.7272144 10.9192577,17.7272144 C7.20284536,17.7272144 4.18997938,14.7145753 4.18997938,10.9981629 C4.18997938,7.28175052 7.20284536,4.26888454 10.9192577,4.26888454 C14.6356701,4.26888454 17.6487629,7.28175052 17.6487629,10.9981629" id="Fill-3" fill="#4D4F53"></path>
                <path d="M0.602618557,10 L6.00917526,10 C6.34189691,10 6.61179381,10.2624124 6.61179381,10.5862887 L6.61179381,11.826 C6.61179381,12.1498763 6.34212371,12.4122887 6.00917526,12.4122887 L0.602618557,12.4122887 C0.269670103,12.4122887 0,12.1498763 0,11.826 L0,10.5862887 C0,10.2624124 0.269896907,10 0.602618557,10" id="Fill-5" fill="#4D4F53"></path>
                <path d="M12.1255155,0.602618557 L12.1255155,6.00917526 C12.1255155,6.34189691 11.8631031,6.61156701 11.5392268,6.61156701 L10.2995155,6.61156701 C9.97563918,6.61156701 9.7132268,6.34189691 9.7132268,6.00917526 L9.7132268,0.602618557 C9.7132268,0.269670103 9.97563918,0 10.2995155,0 L11.5392268,0 C11.8631031,0 12.1255155,0.269670103 12.1255155,0.602618557" id="Fill-7" fill="#4D4F53"></path>
                <path d="M12.1255155,15.9032784 L12.1255155,21.3100619 C12.1255155,21.6427835 11.8631031,21.9124536 11.5392268,21.9124536 L10.2995155,21.9124536 C9.97563918,21.9124536 9.7132268,21.6427835 9.7132268,21.3100619 L9.7132268,15.9032784 C9.7132268,15.5705567 9.97563918,15.3008866 10.2995155,15.3008866 L11.5392268,15.3008866 C11.8631031,15.3008866 12.1255155,15.5707835 12.1255155,15.9032784" id="Fill-9" fill="#4D4F53"></path>
                <path d="M15.6382409,10 L21.3622393,10 C21.7144964,10 22,10.2624124 22,10.5862887 L22,11.826 C22,12.1498763 21.7144964,12.4122887 21.3622393,12.4122887 L15.6382409,12.4122887 C15.2855036,12.4122887 15,12.1498763 15,11.826 L15,10.5862887 C15,10.2624124 15.2855036,10 15.6382409,10" id="Fill-11" fill="#4D4F53"></path>
                <path d="M17.8501196,10.9980495 C17.8501196,14.8258227 14.7472124,17.9287299 10.9194392,17.9287299 C7.09166598,17.9287299 3.98853196,14.8258227 3.98853196,10.9980495 C3.98853196,7.17027629 7.09166598,4.06736907 10.9194392,4.06736907 C14.7472124,4.06736907 17.8501196,7.17027629 17.8501196,10.9980495" id="Fill-13" fill="#FFFFFF"></path>
                <path d="M14.384734,10.9980495 C14.384734,12.9118227 12.833167,14.4633897 10.9193938,14.4633897 C9.00539381,14.4633897 7.45405361,12.9118227 7.45405361,10.9980495 C7.45405361,9.08427629 9.00539381,7.53270928 10.9193938,7.53270928 C12.833167,7.53270928 14.384734,9.08427629 14.384734,10.9980495" id="Fill-15" fill="#4D4F53"></path>
            </g>
        </g>
    </g>
</svg>