<?xml version="1.0" encoding="UTF-8"?>
<svg width="35px" height="44px" viewBox="0 0 35 44" version="1.1" xmlns="http://www.w3.org/2000/svg" xmlns:xlink="http://www.w3.org/1999/xlink">
    <!-- Generator: Sketch 42 (36781) - http://www.bohemiancoding.com/sketch -->
    <title>Location</title>
    <desc>Created with Sketch.</desc>
    <defs></defs>
    <g id="Symbols" stroke="none" stroke-width="1" fill="none" fill-rule="evenodd">
        <g id="Location" fill="#EB0A1E">
            <path d="M17.7058824,0 C8.43868395,0 0.882352941,7.52258065 0.882352941,16.7483871 C0.882352941,24.1290323 11.2901296,37.6129032 15.7098704,43.0064516 C16.1375872,43.5741935 16.9930209,44 17.7058824,44 C18.4187438,44 19.2741775,43.716129 19.7018943,43.0064516 C24.1216351,37.6129032 34.5294118,24.1290323 34.5294118,16.7483871 C34.5294118,7.52258065 26.9730808,0 17.7058824,0 Z M22.8384845,15.4709677 C22.8384845,18.3096774 20.557328,20.5806452 17.7058824,20.5806452 C14.8544367,20.5806452 12.5732802,18.3096774 12.5732802,15.4709677 C12.5732802,12.6322581 14.8544367,10.3612903 17.7058824,10.3612903 C20.557328,10.3612903 22.8384845,12.6322581 22.8384845,15.4709677 Z" id="Shape"></path>
        </g>
    </g>
</svg>