<?xml version="1.0" encoding="UTF-8"?>
<svg width="25px" height="25px" viewBox="0 0 25 25" version="1.1" xmlns="http://www.w3.org/2000/svg" xmlns:xlink="http://www.w3.org/1999/xlink">
    <!-- Generator: Sketch 42 (36781) - http://www.bohemiancoding.com/sketch -->
    <title>Magnifyingglass</title>
    <desc>Created with Sketch.</desc>
    <defs>
        <polygon id="path-1" points="12.4998611 25 24.9997222 25 24.9997222 0 0 0 0 12.5 0 25"></polygon>
    </defs>
    <g id="Symbols" stroke="none" stroke-width="1" fill="none" fill-rule="evenodd">
        <g id="Magnifyingglass">
            <g id="Page-1">
                <mask id="mask-2" fill="white">
                    <use xlink:href="#path-1"></use>
                </mask>
                <g id="Clip-2"></g>
                <path d="M4.83611111,16.6961111 C1.56638889,13.4263889 1.56638889,8.10583333 4.83611111,4.83611111 C6.42,3.25222222 8.52611111,2.37972222 10.7661111,2.37972222 C13.0061111,2.37972222 15.1122222,3.25194444 16.6961111,4.83611111 C19.9658333,8.10583333 19.9658333,13.4263889 16.6961111,16.6961111 C15.1122222,18.28 13.0061111,19.1525 10.7661111,19.1525 C8.52611111,19.1525 6.42027778,18.28 4.83611111,16.6961111 M24.5019444,22.0980556 L19.4855556,17.0816667 C22.5425,12.8719444 22.1744444,6.94861111 18.3788889,3.15305556 C16.2766667,1.05111111 13.5213889,0 10.7661111,0 C8.01083333,0 5.25555556,1.05111111 3.15333333,3.15333333 C-1.05111111,7.35777778 -1.05111111,14.1744444 3.15333333,18.3788889 C5.25555556,20.4811111 8.01083333,21.5322222 10.7661111,21.5322222 C12.9852778,21.5322222 15.2036111,20.8491667 17.0816667,19.4855556 L22.0980556,24.5019444 C22.4297222,24.8338889 22.865,25 23.3,25 C23.735,25 24.1702778,24.8338889 24.5019444,24.5019444 C25.1658333,23.8383333 25.1658333,22.7619444 24.5019444,22.0980556" id="Fill-1" fill="#4D4F53" mask="url(#mask-2)"></path>
            </g>
        </g>
    </g>
</svg>