<?xml version="1.0" standalone="no"?>
<!DOCTYPE svg PUBLIC "-//W3C//DTD SVG 1.1//EN" "http://www.w3.org/Graphics/SVG/1.1/DTD/svg11.dtd" >
<svg xmlns="http://www.w3.org/2000/svg">
<metadata>
This is a custom SVG webfont generated by Font Squirrel.
Copyright   : Copyright 2008 Dalton Maag Ltd This typeface is for exclusive use by Toyota Motor Corporation only The typeface may only be used in projects relating to Toyota Motor Corporation All rights reserved
Designer    : DaltonMaag Ltd
Foundry     : Dalton Maag Ltd
Foundry URL : httpwwwdaltonmaagcom
</metadata>
<defs>
<font id="ToyotaTextBoldItalic" horiz-adv-x="1216" >
<font-face units-per-em="2048" ascent="1638" descent="-410" />
<missing-glyph horiz-adv-x="368" />
<glyph unicode=" "  horiz-adv-x="368" />
<glyph unicode="&#x09;" horiz-adv-x="368" />
<glyph unicode="&#xa0;" horiz-adv-x="368" />
<glyph unicode="!" horiz-adv-x="649" d="M61 109q0 92 50.5 148t130.5 56q72 0 110.5 -46t38.5 -107q0 -92 -53 -144.5t-129 -52.5q-72 0 -110 43.5t-38 102.5zM137 457l156 1020h336l-240 -1020h-252z" />
<glyph unicode="&#x22;" horiz-adv-x="880" d="M535 885l94 592h262l-127 -592h-229zM119 885l94 592h262l-127 -592h-229z" />
<glyph unicode="#" horiz-adv-x="1523" d="M33 387l39 219h256l104 277h-205l39 219h250l100 270h269l-101 -270h244l100 270h269l-101 -270h207l-39 -219h-252l-104 -277h201l-39 -219h-244l-115 -307h-268l115 307h-244l-115 -307h-268l115 307h-213zM596 606h244l104 277h-244z" />
<glyph unicode="$" d="M-8 111l127 217q78 -51 169 -83t181 -32q117 0 182.5 44t65.5 149q0 45 -18.5 78.5t-49.5 60t-70.5 47t-84.5 41.5q-57 27 -117 57.5t-107 76.5t-77.5 110.5t-30.5 158.5q0 76 26.5 147.5t80 128t133 96.5t188.5 52l39 213h233l-37 -221q98 -20 179 -60t135 -77 l-142 -209q-66 41 -151.5 79t-171.5 38q-90 0 -135 -44t-45 -106q0 -39 20.5 -68.5t54 -55t77.5 -48t91 -47.5q55 -29 111.5 -64.5t100.5 -85t72 -115t28 -153.5q0 -92 -32 -173t-93.5 -142.5t-152.5 -100t-212 -51.5l-31 -182h-233l35 190q-113 18 -204 56.5t-134 77.5z " />
<glyph unicode="%" horiz-adv-x="1857" d="M113 967q0 100 26.5 192t78.5 163t128 113t172 42q133 0 208 -78t75 -223q0 -100 -26.5 -192.5t-78 -163t-127 -112.5t-172.5 -42q-135 0 -209.5 73.5t-74.5 227.5zM283 0l1015 1456h261l-1012 -1456h-264zM338 975q0 -72 17.5 -108t60.5 -36q47 0 77.5 40t49 96.5 t25.5 115t7 95.5q0 131 -77 131q-47 0 -78 -38t-49.5 -92.5t-25.5 -110.5t-7 -93zM1036 266q0 100 27 192.5t79 163t128 112.5t172 42q133 0 207.5 -77.5t74.5 -223.5q0 -100 -26.5 -192.5t-77.5 -163t-127 -112.5t-172 -42q-135 0 -210 73.5t-75 227.5zM1262 274 q0 -72 17 -107.5t60 -35.5q47 0 78 40t49.5 96.5t25.5 114.5t7 95q0 131 -78 131q-47 0 -77.5 -38t-49 -92t-25.5 -110.5t-7 -93.5z" />
<glyph unicode="&#x26;" horiz-adv-x="1376" d="M31 328q0 96 32.5 175t87 145.5t125 123.5t146.5 113q-33 66 -51.5 129t-18.5 125q0 63 25.5 129.5t78 119t133.5 86t191 33.5q121 0 208 -43t140 -94l-120 -174q-53 41 -116 65.5t-122 24.5q-66 0 -97.5 -39t-31.5 -84q0 -53 24.5 -113.5t53.5 -117.5l201 -387l198 254 l187 -129l-269 -344l150 -287l-256 -88l-96 182q-31 -31 -74 -60.5t-95.5 -54t-115 -40t-133.5 -15.5q-109 0 -182.5 34t-118.5 87t-64.5 118t-19.5 126zM322 360q0 -66 38.5 -113.5t112.5 -47.5q82 0 144.5 38.5t103.5 86.5l-195 356q-47 -39 -83.5 -75t-64.5 -73.5 t-42 -80t-14 -91.5z" />
<glyph unicode="'" horiz-adv-x="464" d="M119 885l94 592h262l-127 -592h-229z" />
<glyph unicode="(" horiz-adv-x="727" d="M82 438q0 166 45 325t128 302t200.5 268t263.5 223l129 -157q-102 -88 -187.5 -200t-145.5 -236.5t-93 -260t-33 -268.5q0 -152 34 -316.5t132 -318.5l-182 -135q-59 68 -111.5 154t-92.5 185t-63.5 209.5t-23.5 225.5z" />
<glyph unicode=")" horiz-adv-x="727" d="M-152 -186q102 88 187.5 199.5t146 236.5t93 260t32.5 268q0 152 -33.5 317t-132.5 318l183 135q57 -68 110 -153.5t93 -185t63.5 -210t23.5 -225.5q0 -166 -45 -324.5t-128 -302t-200.5 -268.5t-263.5 -223z" />
<glyph unicode="*" horiz-adv-x="987" d="M92 1044l94 263l230 -117l-31 287h254l-31 -287l234 117l82 -263l-250 -45l194 -188l-227 -178l-129 225l-127 -225l-231 178l176 188z" />
<glyph unicode="+" d="M137 573v246h348v355h246v-355h348v-246h-348v-354h-246v354h-348z" />
<glyph unicode="," horiz-adv-x="505" d="M-80 -268l119 499l283 -73l-232 -475z" />
<glyph unicode="-" horiz-adv-x="923" d="M115 512l41 244h620l-41 -244h-620z" />
<glyph unicode="." horiz-adv-x="505" d="M-8 109q0 92 50 148t130 56q72 0 111 -46t39 -107q0 -92 -53.5 -144.5t-129.5 -52.5q-72 0 -109.5 43.5t-37.5 102.5z" />
<glyph unicode="/" horiz-adv-x="917" d="M-156 -160l926 1723h301l-946 -1723h-281z" />
<glyph unicode="0" d="M61 508q0 170 39 343t120 312.5t205 226.5t294 87q115 0 194.5 -42t129 -114t72 -166t22.5 -199q0 -188 -38 -365t-118 -314.5t-202 -219.5t-290 -82q-133 0 -216 45.5t-130 120t-64.5 171t-17.5 196.5zM371 496q0 -63 6 -116.5t23.5 -93.5t45 -62.5t70.5 -22.5 q61 0 117.5 54t98.5 153.5t66.5 237.5t24.5 308q0 135 -30.5 214t-114.5 79q-66 0 -121 -63.5t-97 -169t-65.5 -240.5t-23.5 -278z" />
<glyph unicode="1" d="M86 0l45 246h287l164 862q8 39 -11 39q-10 0 -28 -12l-211 -142l-123 193l321 213q53 35 106.5 57.5t119.5 22.5q78 0 116.5 -41t38.5 -107q0 -27 -5 -60.5t-11 -66.5l-178 -958h309l-45 -246h-895z" />
<glyph unicode="2" d="M0 170q0 51 20.5 103.5t85.5 111.5l447 391q61 55 104 98.5t71 82t40 77.5t12 86q0 55 -34.5 93t-102.5 38q-45 0 -96 -15t-99.5 -38.5t-91.5 -48.5t-73 -43l-117 176q43 33 101.5 67.5t126 62.5t143 46.5t155.5 18.5q102 0 179 -26t127.5 -71t76 -107.5t25.5 -133.5 q0 -82 -26.5 -150.5t-68.5 -127t-94.5 -109t-105.5 -95.5l-443 -381q-10 -10 -10 -16q0 -10 19 -10h655l-49 -250h-768q-59 0 -99 14.5t-65 38t-35 54t-10 63.5z" />
<glyph unicode="3" d="M-43 129l127 199q31 -20 68.5 -42t80.5 -40.5t89.5 -29.5t95.5 -11q131 0 196.5 70.5t65.5 187.5q0 106 -60.5 155.5t-203.5 49.5h-92l32 192l392 303q6 4 12 11.5t6 17.5q0 18 -29 18h-530l47 248h688q94 0 143.5 -34.5t49.5 -118.5q0 -49 -32 -100.5t-102 -104.5 l-337 -256q178 -29 257.5 -127.5t79.5 -243.5q0 -80 -31.5 -168t-100 -160.5t-177 -121t-262.5 -48.5q-135 0 -257 41t-216 113z" />
<glyph unicode="4" d="M43 500q0 59 25.5 113.5t85.5 119.5l663 725h273l-168 -907h184l-41 -227h-180l-60 -324h-297l58 324h-336q-106 0 -156.5 51t-50.5 125zM326 586q0 -14 11 -24.5t36 -10.5h252l92 500l-365 -414q-12 -14 -19 -25.5t-7 -25.5z" />
<glyph unicode="5" d="M-2 143l121 189q82 -59 174 -92t178 -33q68 0 117 21.5t79.5 59.5t46 89t15.5 110q0 104 -47 149.5t-127 45.5q-55 0 -119.5 -19.5t-128.5 -60.5l-131 98l197 758h764l-45 -248h-535l-92 -354q41 18 93 31.5t108 13.5q76 0 143.5 -23.5t119.5 -69.5t82.5 -118t30.5 -166 q0 -119 -35.5 -219t-106.5 -174t-174 -115t-239 -41q-156 0 -278.5 48t-210.5 120z" />
<glyph unicode="6" d="M96 473q0 117 20.5 236.5t61.5 231.5t102.5 209t143.5 170t183.5 115t221.5 42q123 0 214.5 -38t148.5 -79l-123 -186q-61 41 -126.5 60t-127.5 19q-109 0 -200 -94t-144 -285q18 10 47 20.5t62.5 18t69.5 12.5t67 5q94 0 162.5 -32t113.5 -85t67.5 -124t22.5 -148 q0 -129 -42 -233.5t-114.5 -178.5t-171 -114t-208.5 -40q-227 0 -339 133.5t-112 364.5zM408 442q0 -115 31.5 -181t117.5 -66q94 0 153.5 77.5t59.5 251.5q0 98 -36 151.5t-103 53.5q-47 0 -101.5 -15.5t-93.5 -35.5q-12 -51 -20 -119t-8 -117z" />
<glyph unicode="7" d="M111 0l673 1155q12 18 13 35q0 20 -33 20h-623l47 248h830q94 0 129 -30.5t35 -94.5q0 -47 -19.5 -90t-48.5 -90l-665 -1153h-338z" />
<glyph unicode="8" d="M43 336q0 72 24.5 135.5t64.5 116.5t92 98t108 80q-59 49 -100.5 119.5t-41.5 169.5q0 82 35 158.5t99.5 135t157.5 93.5t210 35q98 0 177 -26t134.5 -72t85 -108.5t29.5 -135.5q0 -123 -71.5 -218.5t-188.5 -160.5q117 -72 167 -154t50 -188q0 -92 -40 -174 t-113.5 -143.5t-178 -97.5t-233.5 -36q-225 0 -346 99.5t-121 273.5zM334 362q0 -90 56 -138t147 -48q94 0 153.5 61.5t59.5 165.5q0 78 -66 138.5t-160 103.5q-90 -61 -140 -127t-50 -156zM500 1085q0 -41 14 -75.5t37.5 -62t52.5 -49t58 -36.5q76 47 128 108.5t52 151.5 q0 66 -45 106t-117 40q-90 0 -135 -54.5t-45 -128.5z" />
<glyph unicode="9" d="M45 92l121 178q119 -82 244 -82q57 0 104 19.5t85 62.5t69.5 114t60.5 175q-37 -20 -100.5 -36.5t-141.5 -16.5q-98 0 -168.5 30.5t-114.5 83t-64.5 123t-20.5 152.5q0 109 35.5 213t104.5 186t170 132.5t233 50.5q223 0 333.5 -138.5t110.5 -402.5q0 -94 -13.5 -201.5 t-44 -214t-82 -205t-126 -174t-177 -121t-235.5 -45.5q-145 0 -242.5 38t-140.5 79zM432 911q0 -94 37 -147t113 -53q47 0 95 11t87 32q33 113 33 270q0 113 -33 173t-111 60q-61 0 -104 -32.5t-68.5 -83.5t-37 -113t-11.5 -117z" />
<glyph unicode=":" horiz-adv-x="505" d="M-8 109q0 92 50 148t130 56q72 0 111 -46t39 -107q0 -92 -53.5 -144.5t-129.5 -52.5q-72 0 -109.5 43.5t-37.5 102.5zM125 906q0 92 50 148t130 56q72 0 111 -46t39 -107q0 -92 -53.5 -144.5t-129.5 -52.5q-72 0 -109.5 43.5t-37.5 102.5z" />
<glyph unicode=";" horiz-adv-x="505" d="M135 906q0 92 50 148t130 56q72 0 111 -46t39 -107q0 -92 -53.5 -144.5t-129.5 -52.5q-72 0 -109.5 43.5t-37.5 102.5zM-80 -268l119 499l283 -73l-232 -475z" />
<glyph unicode="&#x3c;" d="M100 668q0 74 23.5 128t61.5 92t87.5 64.5t98.5 46.5l600 246l135 -209l-643 -250q-33 -12 -58.5 -32.5t-25.5 -55.5q0 -29 18.5 -48t65.5 -40l643 -266l-135 -209l-598 242q-53 20 -102.5 43.5t-87.5 56.5t-60.5 78t-22.5 113z" />
<glyph unicode="=" d="M152 348v246h915v-246h-915zM152 799v245h915v-245h-915z" />
<glyph unicode="&#x3e;" d="M98 1040l156 203l582 -244q57 -25 106 -48t86 -58t57.5 -85t20.5 -124q0 -68 -22.5 -116t-61.5 -82.5t-88 -60.5t-100 -48l-594 -254l-140 209l643 274q47 20 65.5 40t18.5 48q0 35 -25.5 53.5t-58.5 30.5z" />
<glyph unicode="?" horiz-adv-x="1019" d="M133 1321q98 80 225 133t267 53q104 0 179 -24.5t123 -68.5t70.5 -102.5t22.5 -125.5q0 -72 -20.5 -129.5t-55.5 -105.5t-80 -88t-94 -77l-88 -65q-57 -41 -93 -88t-46 -107l-19 -96h-264l29 158q16 94 55 153.5t105 112.5l124 98q72 55 102 102.5t30 108.5q0 53 -32 87 t-100 34q-147 0 -333 -131zM182 109q0 92 50.5 148t129.5 56q72 0 111 -46t39 -107q0 -92 -53 -144.5t-129 -52.5q-72 0 -110 43.5t-38 102.5z" />
<glyph unicode="@" horiz-adv-x="2056" d="M82 338q0 221 71.5 412.5t211 332t342 221t464.5 80.5q184 0 334 -51t256.5 -142t165 -216t58.5 -275q0 -147 -49.5 -274t-139.5 -222t-216 -156.5t-282 -80.5l-81 119q-55 -47 -130 -85t-174 -38q-156 0 -244.5 91t-88.5 278q0 131 41 246.5t118.5 201.5t188 135.5 t250.5 49.5q49 0 98 -5.5t93 -13.5t81 -19.5t59 -21.5l-120 -688l38 -57q76 37 130.5 94t88 123.5t49 137.5t15.5 136q0 111 -34 207t-103.5 168t-174 113t-247.5 41q-199 0 -346.5 -68t-243.5 -181.5t-144 -262t-48 -310.5q0 -129 30.5 -240.5t98 -194.5t173 -130 t255.5 -47q72 0 135 11.5t115.5 26.5t92.5 30.5t62 25.5l74 -176q-20 -12 -224 -67.5t-315 -55.5q-182 0 -327.5 56.5t-247 161t-155.5 251t-54 328.5zM860 315q0 -174 113 -174q53 0 90 20.5t65 41.5l101 565q-20 8 -47 13t-62 5q-78 0 -128 -51t-79.5 -123.5t-41 -154 t-11.5 -142.5z" />
<glyph unicode="A" horiz-adv-x="1331" d="M-92 18l532 1242q25 57 55.5 103t71.5 79t95.5 49t128.5 16q129 0 195.5 -57t82.5 -209l139 -1231l-313 -41l-41 414h-471l-176 -418zM467 618h369l-48 506q-4 41 -13 60.5t-32 19.5t-35 -17.5t-30 -60.5z" />
<glyph unicode="B" horiz-adv-x="1261" d="M23 0l247 1477h494q98 0 179 -21.5t140.5 -65.5t92 -110t32.5 -152q0 -117 -66.5 -212t-164.5 -148q88 -41 136 -119t48 -176q0 -121 -47 -210t-129 -147.5t-192.5 -87t-237.5 -28.5h-532zM373 231h209q53 0 100 14.5t82 43t55.5 75t20.5 109.5q0 45 -16.5 77t-44 51.5 t-63.5 28.5t-75 9h-199zM481 874h166q109 0 173.5 59.5t64.5 156.5q0 74 -41 114.5t-133 40.5h-168z" />
<glyph unicode="C" horiz-adv-x="1181" d="M61 541q0 227 60.5 406t164 304t243 190.5t296.5 65.5q123 0 231.5 -34.5t194.5 -100.5l-133 -209q-70 43 -138.5 66.5t-154.5 23.5q-92 0 -169.5 -51t-134 -142t-89.5 -218t-33 -277q0 -72 11.5 -135t39 -110.5t73.5 -74t114 -26.5q84 0 160.5 23.5t177.5 79.5l88 -220 q-113 -66 -233.5 -102.5t-262.5 -36.5q-150 0 -247 47t-154 127t-81 184.5t-24 219.5z" />
<glyph unicode="D" horiz-adv-x="1411" d="M23 0l253 1477h408q340 0 496.5 -162t156.5 -453q0 -182 -54 -339.5t-158.5 -273.5t-256 -182.5t-344.5 -66.5h-501zM373 231h143q106 0 195.5 43t153 126t99 206t35.5 283q0 184 -80.5 270t-242.5 86h-129z" />
<glyph unicode="E" horiz-adv-x="1126" d="M23 0l253 1477h914l-45 -248h-598l-60 -336h459l-47 -250h-457l-67 -393h624l-43 -250h-933z" />
<glyph unicode="F" horiz-adv-x="1118" d="M23 0l253 1477h953l-45 -248h-637l-62 -357h476l-48 -249h-471l-108 -623h-311z" />
<glyph unicode="G" horiz-adv-x="1320" d="M61 559q0 215 62.5 390t168 299t248 191.5t302.5 67.5q135 0 237.5 -42t167.5 -101l-133 -201q-59 41 -126.5 64.5t-145.5 23.5q-98 0 -180 -50t-140.5 -141t-90.5 -217t-32 -278q0 -72 11.5 -135t39 -110.5t72.5 -75t113 -27.5q53 0 102 11.5t90 27.5l58 332h-254 l45 233h551l-121 -702q-31 -25 -83 -52.5t-120.5 -51t-148.5 -38t-166 -14.5q-152 0 -253.5 45t-161.5 124t-86 188.5t-26 238.5z" />
<glyph unicode="H" horiz-adv-x="1404" d="M23 0l256 1477h319l-102 -584h467l104 584h317l-256 -1477h-317l109 643h-465l-113 -643h-319z" />
<glyph unicode="I" horiz-adv-x="616" d="M20 0l261 1477h315l-258 -1477h-318z" />
<glyph unicode="J" horiz-adv-x="962" d="M-111 84l113 217q68 -39 132.5 -61.5t121.5 -22.5q90 0 131 60.5t57 156.5l181 1043h313l-184 -1088q-41 -231 -157 -328.5t-325 -97.5q-66 0 -124 11.5t-107 30t-88 40t-64 39.5z" />
<glyph unicode="K" horiz-adv-x="1286" d="M23 0l256 1477h315l-100 -598h8q31 0 59.5 7t56.5 44l441 569l299 -69l-522 -668l323 -725l-321 -62l-256 596q-23 53 -51.5 64.5t-67.5 11.5h-8l-113 -647h-319z" />
<glyph unicode="L" horiz-adv-x="1112" d="M20 0l259 1477h317l-215 -1227h637l-45 -250h-953z" />
<glyph unicode="M" horiz-adv-x="1705" d="M-8 0l317 1477h367l133 -705q6 -35 12 -55.5t23 -20.5q16 0 45 56l389 725h367l-175 -1477h-301l125 1018l-293 -522q-41 -74 -97 -115t-130 -41q-78 0 -126 51t-62 131l-88 488l-211 -1010h-295z" />
<glyph unicode="N" horiz-adv-x="1476" d="M18 0l263 1477h397l244 -1117q10 -45 30 -45q10 0 16.5 9.5t10.5 21.5l195 1131h282l-221 -1262q-20 -115 -98 -183.5t-195 -68.5q-74 0 -124 19.5t-84 52.5t-52 78t-29 96l-170 874l-188 -1083h-277z" />
<glyph unicode="O" horiz-adv-x="1431" d="M59 541q0 197 53.5 373t151.5 308t236.5 208.5t308.5 76.5q137 0 241.5 -43t174 -119.5t104.5 -182t35 -230.5q0 -205 -53.5 -382t-151.5 -307t-239.5 -204t-317.5 -74q-141 0 -244.5 43t-169 120t-97.5 182.5t-32 230.5zM395 526q0 -145 53.5 -231t167.5 -86 q98 0 176 61.5t130.5 164t80 235.5t27.5 274q0 145 -55 231.5t-174 86.5q-98 0 -174 -61.5t-127 -164t-78 -235t-27 -275.5z" />
<glyph unicode="P" horiz-adv-x="1251" d="M20 0l259 1477h491q106 0 192.5 -23.5t147.5 -72t94 -121t33 -170.5q0 -119 -40 -218.5t-119 -171t-196.5 -111.5t-271.5 -40h-170l-98 -549h-322zM481 788h152q123 0 201.5 73t78.5 208q0 92 -47 134t-143 42h-164z" />
<glyph unicode="Q" horiz-adv-x="1431" d="M59 541q0 197 53.5 373t151.5 308t236.5 208.5t308.5 76.5q137 0 241.5 -43t174 -119.5t104.5 -182t35 -230.5q0 -143 -26.5 -274.5t-77 -242t-123 -198.5t-164.5 -147l209 -285l-242 -166l-217 356q-29 -4 -59.5 -7t-61.5 -3q-141 0 -244.5 43t-169 120t-97.5 182.5 t-32 230.5zM395 526q0 -145 53.5 -231t167.5 -86q98 0 176 61.5t130.5 164t80 235.5t27.5 274q0 145 -55 231.5t-174 86.5q-98 0 -174 -61.5t-127 -164t-78 -235t-27 -275.5z" />
<glyph unicode="R" horiz-adv-x="1247" d="M20 0l259 1477h464q94 0 177.5 -18.5t144.5 -61.5t96 -114t35 -175q0 -180 -91 -283.5t-247 -150.5q47 -37 74 -107l198 -542l-294 -64l-187 512q-25 66 -56.5 90.5t-92.5 24.5h-58l-106 -588h-316zM485 823h113q57 0 107.5 17.5t88 50.5t59 81t21.5 109q0 92 -50 128 t-136 36h-131z" />
<glyph unicode="S" horiz-adv-x="1167" d="M-25 100l115 224q72 -49 171 -82t194 -33q45 0 90 11t81 36t57.5 62.5t21.5 91.5q0 88 -52.5 136t-165.5 89q-66 25 -126 56.5t-106 79.5t-73.5 114.5t-27.5 161.5q0 115 44 200.5t118.5 144t175 88t213.5 29.5q147 0 256.5 -44t171.5 -87l-125 -215q-59 37 -139.5 70 t-176.5 33q-35 0 -74.5 -7.5t-73.5 -27t-56.5 -52t-22.5 -83.5q0 -35 9 -61.5t33.5 -49t67.5 -46.5t109 -50q59 -25 117.5 -59.5t105.5 -84t76 -116t29 -154.5q0 -125 -45 -220t-123 -160.5t-182.5 -99.5t-225.5 -34q-147 0 -266 43t-195 96z" />
<glyph unicode="T" horiz-adv-x="1140" d="M106 1229l48 248h1093l-45 -248h-391l-215 -1229h-315l217 1229h-392z" />
<glyph unicode="U" horiz-adv-x="1388" d="M102 383q0 47 8.5 107.5t18.5 121.5l150 865h317l-154 -873q-10 -53 -17 -100t-7 -94q0 -41 8 -77t29.5 -62.5t56.5 -41t88 -14.5q131 0 195.5 85t95.5 265l160 912h317l-160 -922q-25 -145 -68.5 -256t-116.5 -185.5t-182.5 -112.5t-265.5 -38q-131 0 -221 32t-146 87 t-81 132t-25 169z" />
<glyph unicode="V" horiz-adv-x="1300" d="M113 1464l329 31l88 -1143q4 -47 9.5 -74.5t29.5 -27.5q23 0 37.5 23.5t30.5 62.5l463 1163l303 -53l-465 -1124q-35 -86 -72 -153t-85 -113t-111.5 -69.5t-153.5 -23.5q-88 0 -143.5 27.5t-88 80t-49 130.5t-24.5 176z" />
<glyph unicode="W" horiz-adv-x="1955" d="M131 1452l322 37l20 -1071q2 -43 5 -65.5t18 -22.5q10 0 17 15t17 46l371 1086h377l31 -1045q2 -55 5 -76.5t21 -21.5q16 0 24.5 16.5t22.5 55.5l379 1083l297 -37l-448 -1219q-49 -135 -128 -202.5t-204 -67.5q-49 0 -95 11.5t-82 41t-57.5 80.5t-23.5 129l-25 754 l-252 -758q-41 -123 -116.5 -190.5t-210.5 -67.5q-117 0 -181.5 64.5t-68.5 214.5z" />
<glyph unicode="X" horiz-adv-x="1290" d="M-98 39l520 727l-266 678l299 67l192 -514l16 -36q5 -12 19 -13q14 0 24.5 11.5t28.5 37.5l352 519l285 -60l-489 -706l272 -723l-303 -58l-201 539q-8 25 -13 34t-15 9t-16.5 -7t-22.5 -28l-396 -547z" />
<glyph unicode="Y" horiz-adv-x="1177" d="M113 1452l309 37l149 -592q10 -37 19.5 -56.5t27.5 -19.5q16 0 25.5 10.5t26.5 38.5l334 619l286 -39l-397 -719q-39 -70 -81 -106.5t-89 -57.5l-96 -567h-316l101 571q-39 23 -66 64t-49 121z" />
<glyph unicode="Z" horiz-adv-x="1187" d="M-41 156q0 78 38 137t89 119l709 817h-619l45 248h1022l-35 -217l-825 -957q-6 -6 -13.5 -16.5t-7.5 -20.5q0 -12 8.5 -15t26.5 -3h658l-41 -248h-920q-37 0 -62.5 14.5t-42 37t-23.5 50t-7 54.5z" />
<glyph unicode="[" horiz-adv-x="849" d="M-25 -297l334 1815h623l-43 -244h-314l-249 -1327h313l-43 -244h-621z" />
<glyph unicode="\" horiz-adv-x="976" d="M180 1563h283l325 -1723h-282z" />
<glyph unicode="]" horiz-adv-x="847" d="M-135 -297l43 244h313l250 1327h-313l43 244h620l-334 -1815h-622z" />
<glyph unicode="^" horiz-adv-x="1159" d="M80 774l321 512q70 111 141.5 164t176.5 53q100 0 148 -46t79 -161l146 -530l-252 -84l-119 446q-8 29 -16.5 45.5t-32.5 16.5q-27 0 -41.5 -17.5t-32.5 -46.5l-274 -444z" />
<glyph unicode="_" horiz-adv-x="983" d="M-147 0h1026v-250h-1026v250z" />
<glyph unicode="`" horiz-adv-x="1024" d="M254 1532l238 162l270 -412l-176 -123z" />
<glyph unicode="a" horiz-adv-x="1157" d="M53 356q0 156 48.5 289t137.5 230.5t215 152.5t283 55q109 0 205 -21.5t143 -39.5l-139 -791l86 -153l-231 -115l-107 131q-66 -66 -139.5 -98.5t-171.5 -32.5q-162 0 -246 100t-84 293zM369 371q0 -86 29.5 -136.5t97.5 -50.5q59 0 106 37t64 133l92 520 q-10 2 -22.5 3.5t-22.5 1.5q-80 0 -143.5 -41t-107.5 -111t-68.5 -162t-24.5 -194z" />
<glyph unicode="b" horiz-adv-x="1173" d="M27 29l262 1478h325l-98 -542q59 61 132 89.5t138 28.5q141 0 222.5 -97t81.5 -271q0 -170 -40 -308.5t-125 -236.5t-215 -152.5t-309 -54.5q-57 0 -112.5 6t-104.5 15.5t-89.5 21t-67.5 23.5zM362 190q6 -2 22.5 -4t33.5 -2q88 0 155.5 41t112.5 108.5t67.5 154.5 t22.5 180q0 84 -30.5 127t-98.5 43q-166 0 -201 -193z" />
<glyph unicode="c" horiz-adv-x="954" d="M53 385q0 135 39 262t116 223.5t192.5 154.5t269.5 58q88 0 171 -27.5t134 -62.5l-109 -184q-49 31 -99 44t-97 13q-80 0 -138.5 -44t-95.5 -110.5t-54 -146.5t-17 -151q0 -111 44 -170.5t130 -59.5q57 0 107 14.5t122 43.5l55 -189q-72 -35 -169 -62.5t-197 -27.5 q-113 0 -190 34t-125 92t-68.5 135t-20.5 161z" />
<glyph unicode="d" horiz-adv-x="1173" d="M53 356q0 160 53.5 293t146.5 230.5t222 150.5t281 53h27q13 0 38 -2l76 426h293l-227 -1276l86 -153l-232 -117l-106 137q-135 -135 -310 -135q-174 0 -261 102.5t-87 290.5zM369 399q0 -92 29.5 -153.5t101.5 -61.5q86 0 131 48.5t61 138.5l90 499q-12 2 -24.5 3 t-24.5 1q-94 0 -162.5 -43t-113.5 -110.5t-66.5 -152.5t-21.5 -169z" />
<glyph unicode="e" horiz-adv-x="1015" d="M53 375q0 131 40 258t117 227.5t189.5 161.5t257.5 61q86 0 148.5 -21.5t102.5 -58t58.5 -84t18.5 -98.5q0 -111 -50 -191.5t-136 -130.5t-201 -74q-106 -22 -225 -22h-21q-2 -10 -2 -19v-19q0 -35 8.5 -66t26.5 -54.5t48 -37.5t75 -14q55 0 129 20t139 49l60 -192 q-70 -37 -171.5 -72t-218.5 -35q-115 0 -189.5 33t-120.5 90t-64.5 131t-18.5 158zM377 582q88 2 148.5 20.5t97 48t53 64.5t16.5 69q0 43 -23.5 65.5t-56.5 22.5q-82 0 -141 -77.5t-94 -212.5z" />
<glyph unicode="f" horiz-adv-x="798" d="M-113 -233q45 16 76 35.5t52.5 50t37 76.5t27.5 120l135 768h-152l37 230h158l18 94q16 86 43 154.5t71 115.5t109.5 71.5t157.5 24.5q111 0 197 -33.5t129 -68.5l-102 -164q-37 18 -81 34.5t-91 16.5q-66 0 -93.5 -40t-46.5 -148l-10 -57h275l-37 -230h-279l-147 -817 q-14 -80 -42 -143.5t-76 -113.5t-119 -87t-173 -64z" />
<glyph unicode="g" horiz-adv-x="1183" d="M6 -352l98 192q70 -35 150 -58.5t154 -23.5q98 0 156.5 46t80.5 157l23 111q-55 -57 -117 -83t-145 -26q-76 0 -139.5 25.5t-110.5 76t-74 125t-27 170.5q0 170 48.5 304.5t127 227.5t177 142t200.5 49q78 0 137.5 -20.5t116.5 -65.5l82 103l238 -107l-105 -194 l-149 -846q-39 -217 -162 -315.5t-334 -98.5q-135 0 -250 34t-176 75zM371 383q0 -88 35.5 -142.5t117.5 -54.5q59 0 110.5 41t67.5 138l86 471q-18 16 -52 28.5t-74 12.5q-61 0 -113.5 -36t-92.5 -101.5t-62.5 -155.5t-22.5 -201z" />
<glyph unicode="h" horiz-adv-x="1196" d="M31 0l270 1507h303l-100 -565q123 141 303 141q80 0 134 -21.5t87 -59t47.5 -88t14.5 -107.5q0 -37 -4.5 -81t-12.5 -87l-115 -639h-303l109 616q6 33 11 72t5 68q0 39 -18.5 66.5t-83.5 27.5q-37 0 -72 -13.5t-65.5 -41t-54 -68.5t-33.5 -98l-119 -629h-303z" />
<glyph unicode="i" horiz-adv-x="600" d="M57 0l148 827h-139l43 220h442l-191 -1047h-303zM246 1325q0 84 55 137.5t150 53.5q47 0 78.5 -14.5t51 -37t27.5 -53.5t8 -61q0 -86 -57 -136.5t-147 -50.5q-47 0 -79 13.5t-51.5 37t-27.5 52t-8 59.5z" />
<glyph unicode="j" horiz-adv-x="589" d="M-408 -369l95 193q47 -23 103 -38t104 -15q68 0 104.5 50t52.5 152l182 1074h304l-197 -1123q-16 -90 -42 -161.5t-72 -121t-117.5 -76t-178.5 -26.5q-106 0 -194.5 27.5t-143.5 64.5zM238 1325q0 84 55 137.5t149 53.5q47 0 79 -14.5t51.5 -37t27.5 -53.5t8 -61 q0 -86 -57 -136.5t-148 -50.5q-47 0 -78.5 13.5t-51 37t-27.5 52t-8 59.5z" />
<glyph unicode="k" horiz-adv-x="1155" d="M29 0l266 1507h301l-139 -798h37q29 0 45 6t43 35l272 315l301 -43l-377 -416l264 -583l-303 -43l-190 444q-16 35 -35.5 48t-60.5 13h-37l-86 -485h-301z" />
<glyph unicode="l" horiz-adv-x="583" d="M43 0l225 1284h-125l41 223h428l-266 -1507h-303z" />
<glyph unicode="m" horiz-adv-x="1679" d="M31 0l145 807l-57 174l248 106l77 -143q57 66 125 102.5t172 36.5q78 0 147.5 -36.5t106.5 -108.5q68 68 143.5 106.5t170.5 38.5q74 0 123 -19.5t78.5 -53t43 -81.5t13.5 -106q0 -37 -5.5 -82t-13.5 -86l-114 -655h-301l118 635q14 72 15 123q0 35 -15.5 62.5 t-70.5 27.5q-57 0 -107.5 -49t-66.5 -144l-115 -655h-301l112 635q6 35 10.5 66.5t4.5 58.5q0 41 -19.5 64.5t-66.5 23.5q-63 0 -113.5 -52.5t-66.5 -140.5l-117 -655h-303z" />
<glyph unicode="n" horiz-adv-x="1185" d="M31 0l145 813l-57 168l248 106l86 -143q59 63 129.5 101t179.5 38q168 0 239.5 -86t71.5 -225q0 -41 -4 -80t-12 -80l-111 -612h-301l109 623q6 37 10 70.5t4 62.5q0 47 -20.5 74.5t-81.5 27.5q-74 0 -139.5 -56.5t-84.5 -166.5l-110 -635h-301z" />
<glyph unicode="o" horiz-adv-x="1159" d="M53 387q0 174 50.5 305t132 218t188 130t217.5 43q119 0 201 -37.5t134 -100t75.5 -141.5t23.5 -161q0 -170 -49 -297t-131 -212t-190.5 -128t-225.5 -43q-115 0 -195.5 36t-132 94.5t-75 135t-23.5 158.5zM362 401q0 -104 35 -160.5t105 -56.5q68 0 118 42t82.5 108.5 t48 150.5t15.5 168q0 104 -39 154.5t-102 50.5q-70 0 -119 -44t-81 -110.5t-47.5 -147.5t-15.5 -155z" />
<glyph unicode="p" horiz-adv-x="1171" d="M-51 -446l221 1255l-59 174l254 111l77 -152q59 66 132 103.5t171 37.5q156 0 249 -99t93 -296q0 -166 -44 -300t-126.5 -228t-201.5 -145.5t-266 -51.5q-35 0 -69 5t-61 12l-73 -426h-297zM365 195q16 -4 35.5 -6.5t39.5 -2.5q61 0 121 34t108 98.5t76.5 155.5t28.5 208 q0 90 -34.5 128t-94.5 38q-72 0 -126 -53.5t-77 -149.5z" />
<glyph unicode="q" horiz-adv-x="1148" d="M53 354q0 168 50.5 302.5t138.5 229.5t208.5 146t262.5 51q117 0 215 -26.5t157 -55.5l-258 -1447h-303l90 501q-39 -33 -101 -62.5t-140 -29.5q-168 0 -244 107.5t-76 283.5zM369 365q0 -84 26.5 -132.5t91.5 -48.5q57 0 108.5 37t74.5 144l92 507q-12 2 -24.5 3.5 t-24.5 1.5q-86 0 -150.5 -46.5t-107.5 -120t-64.5 -164.5t-21.5 -181z" />
<glyph unicode="r" horiz-adv-x="845" d="M55 0l148 821h-129l45 226h315l21 -156q53 90 119.5 131t146.5 41q55 0 93 -9.5t83 -31.5l-113 -254q-29 12 -63.5 22.5t-71.5 10.5q-90 0 -127 -52.5t-53 -146.5l-107 -602h-307z" />
<glyph unicode="s" horiz-adv-x="921" d="M-35 63l88 183q72 -33 143.5 -54.5t143.5 -21.5q31 0 60.5 6t53 20.5t38 37t14.5 55.5q0 51 -34 81.5t-107 59.5q-59 23 -108.5 47.5t-84.5 58t-53.5 81t-18.5 112.5q0 86 35 152.5t96.5 110.5t142.5 67.5t173 23.5q104 0 192 -25.5t158 -66.5l-113 -190 q-53 29 -117.5 48t-129.5 19q-23 0 -47.5 -4t-47 -15t-37 -29.5t-14.5 -47.5q0 -35 25.5 -60.5t99.5 -54.5q61 -25 112.5 -52t89.5 -64t58.5 -85t20.5 -116q0 -90 -35 -159.5t-95.5 -118t-143.5 -74t-179 -25.5q-61 0 -119.5 9.5t-108.5 22.5t-89 31.5t-62 36.5z" />
<glyph unicode="t" horiz-adv-x="815" d="M45 817l45 230h180l54 284h286l-53 -284h262l-45 -230h-258l-84 -475q-4 -14 -5 -30.5t-1 -26.5q0 -49 26.5 -67.5t67.5 -18.5t85 10t73 22l55 -192q-57 -29 -145 -52.5t-189 -23.5q-135 0 -209.5 61.5t-74.5 190.5q0 39 10 96l92 506h-172z" />
<glyph unicode="u" horiz-adv-x="1171" d="M80 250q0 35 5 86t15 102l115 609h303l-119 -646q-4 -29 -9 -55.5t-5 -58.5q0 -41 21.5 -70t87.5 -29q70 0 121 41t67 129l127 689h301l-149 -809l86 -160l-232 -115l-110 143q-53 -59 -128 -101t-184 -42q-86 0 -145.5 22.5t-96 61.5t-54 91.5t-17.5 111.5z" />
<glyph unicode="v" horiz-adv-x="1093" d="M72 1034l303 41l65 -788q2 -27 6.5 -45.5t24.5 -18.5q23 0 32 16.5t19 41.5l309 792l277 -53l-352 -846q-47 -111 -128 -161t-198 -50q-80 0 -131 17.5t-83 54.5t-47 92t-24 133z" />
<glyph unicode="w" horiz-adv-x="1646" d="M98 1034l275 35l12 -778q0 -25 2 -43.5t21 -18.5q18 0 28 16.5t19 39.5l282 762h303l35 -752q2 -18 5 -42t22 -24q16 0 23.5 13.5t15.5 36.5l278 788l238 -57l-289 -795q-47 -131 -116.5 -191.5t-190.5 -60.5q-66 0 -111 15.5t-72.5 50t-41 94t-15.5 147.5l-10 408 l-178 -488q-45 -123 -123 -175t-170 -52q-68 0 -112 20.5t-69.5 59.5t-36.5 93t-11 122z" />
<glyph unicode="x" horiz-adv-x="989" d="M-123 25l371 516l-162 458l264 64l119 -354q10 -31 16.5 -42.5t16.5 -11.5t17 9.5t20 29.5l225 367l233 -62l-297 -475l191 -497l-275 -47l-127 358q-10 27 -17 41t-21 14t-23.5 -10t-24.5 -31l-266 -379z" />
<glyph unicode="y" horiz-adv-x="1112" d="M-123 -379l84 182q31 -16 85 -37.5t126 -21.5q84 0 132 40t93 138l43 96h-24q-84 0 -139.5 20.5t-89 60.5t-48 97.5t-16.5 131.5l-21 704l297 39l17 -745q2 -72 20.5 -95.5t65.5 -23.5h16l318 866l276 -59l-438 -1129q-39 -102 -89 -168.5t-110.5 -105.5t-131.5 -55.5 t-150 -16.5q-106 0 -191.5 26.5t-124.5 55.5z" />
<glyph unicode="z" horiz-adv-x="950" d="M-16 152q0 55 20.5 95t56.5 81l474 491h-437l37 228h823l-30 -193l-529 -555q-14 -14 -18 -23.5t-4 -19.5q0 -27 35 -27h446l-41 -229h-678q-47 0 -76.5 13.5t-47 35t-24.5 48t-7 55.5z" />
<glyph unicode="{" horiz-adv-x="962" d="M33 528l35 222h139q43 0 68.5 28.5t33.5 75.5l56 307q33 186 127 276.5t270 90.5q90 0 159.5 -22.5t108.5 -41.5l-72 -184q-100 41 -155 41q-66 0 -94.5 -45t-44.5 -137l-46 -269q-16 -90 -55 -144t-129 -89q59 -29 89 -86t14 -148l-52 -272q-4 -29 -7 -52.5t-3 -43.5 q0 -72 35 -104.5t108 -32.5q31 0 61 3t60 13l13 -184q-12 -4 -38 -10.5t-58.5 -12.5t-70.5 -10t-73 -4q-166 0 -255 83t-89 228q0 23 2 46.5t6 47.5l55 303q14 57 -1 92t-58 35h-139z" />
<glyph unicode="|" horiz-adv-x="583" d="M-57 -463l372 2083h291l-373 -2083h-290z" />
<glyph unicode="}" horiz-adv-x="989" d="M-121 -244l72 185q100 -41 155 -41q66 0 94.5 45t45.5 137l45 268q16 90 55 144.5t129 89.5q-59 29 -89 86t-13 147l51 273q4 29 7 52t3 44q0 72 -34.5 104.5t-108.5 32.5q-31 0 -60.5 -3t-60.5 -13l-12 184q12 4 37.5 10t58.5 12.5t70.5 10.5t72.5 4q166 0 255 -83 t89 -228q0 -23 -2 -46.5t-6 -48.5l-55 -303q-14 -57 1 -92t58 -35h140l-35 -221h-140q-43 0 -68.5 -28.5t-33.5 -75.5l-55 -308q-33 -186 -127 -276t-271 -90q-90 0 -159.5 22.5t-108.5 40.5z" />
<glyph unicode="~" horiz-adv-x="1298" d="M100 698q33 33 78 69t96.5 65.5t105.5 49t105 19.5q47 0 92.5 -13.5t88.5 -28.5t87 -28.5t87 -13.5q61 0 127.5 40t119.5 81l125 -176q-43 -37 -91 -75t-100 -68.5t-107.5 -49t-110.5 -18.5q-53 0 -100.5 13.5t-90.5 28.5t-85 28.5t-83 13.5q-53 0 -109 -36t-106 -75z " />
<glyph unicode="&#xa1;" horiz-adv-x="608" d="M-72 -430l240 1020h252l-156 -1020h-336zM166 887q0 92 53 144t129 52q72 0 110 -43t38 -102q0 -92 -50.5 -148.5t-130.5 -56.5q-72 0 -110.5 46.5t-38.5 107.5z" />
<glyph unicode="&#xa2;" d="M197 539q0 135 34.5 248.5t98 198.5t151.5 140.5t195 75.5l61 232h234l-58 -230q59 -10 109.5 -31.5t85.5 -44.5l-104 -182q-45 27 -97.5 39t-99.5 12q-68 0 -122 -34.5t-94 -94t-61.5 -139.5t-21.5 -170q0 -117 44 -180.5t134 -63.5q57 0 107.5 14.5t121.5 43.5l60 -189 q-55 -27 -126 -50t-149 -34l-47 -221h-233l55 230q-76 18 -128 58t-86 96t-49 126t-15 150z" />
<glyph unicode="&#xa3;" d="M86 596l37 229h201l88 269q31 94 70.5 166.5t96 119.5t135.5 72t189 25q117 0 210 -37t153 -78l-115 -184q-59 39 -123.5 57t-109.5 18q-63 0 -114.5 -31.5t-86.5 -134.5l-88 -262h366l-37 -229h-405l-98 -299q-16 -51 37 -51h567l-25 -246h-708q-98 0 -153.5 41 t-55.5 109q0 37 8 73.5t22 77.5l101 295h-162z" />
<glyph unicode="&#xa4;" d="M57 418l154 151q-25 41 -38 86t-13 99q0 53 13 98t38 86l-154 152l185 174l153 -156q39 16 178 37q49 0 181 -37l153 156l185 -174l-154 -152q23 -41 37 -86t14 -98t-14 -98.5t-37 -86.5l154 -151l-185 -174l-153 155q-131 -37 -181 -37q-139 20 -178 37l-153 -155z M424 754q0 -70 39 -120t110 -50q68 0 110 46t42 124q0 70 -38 120t-114 50q-72 0 -110.5 -50t-38.5 -120z" />
<glyph unicode="&#xa5;" d="M94 260l33 197h266l25 141h-266l32 197h129l-157 657l309 37l119 -539q8 -37 18 -56.5t29 -19.5q16 0 25.5 10.5t25.5 39.5l303 565l287 -39l-361 -655h131l-32 -197h-279l-24 -141h278l-33 -197h-278l-45 -260h-316l45 260h-264z" />
<glyph unicode="&#xa6;" horiz-adv-x="585" d="M-57 -465l155 866h289l-156 -866h-288zM184 877l135 743h289l-135 -743h-289z" />
<glyph unicode="&#xa7;" horiz-adv-x="1128" d="M41 -164l100 191q25 -12 57.5 -24.5t69.5 -24t74 -17.5t72 -6t67.5 7t57 23.5t40 44t15.5 68.5q0 37 -14.5 63.5t-40 45t-60.5 32t-73 25.5q-66 18 -124.5 41t-102.5 57.5t-70.5 88t-26.5 133.5q0 106 54 181t140 134q-33 35 -56 81t-23 118q0 102 41 173.5t107.5 118 t149.5 68t167 21.5q55 0 110 -8.5t107.5 -21.5t98.5 -31.5t79 -37.5l-111 -209q-47 25 -119.5 51.5t-156.5 26.5q-72 0 -127.5 -28.5t-55.5 -98.5q0 -61 48.5 -94t126.5 -55q70 -20 131 -45t108 -59.5t75 -85t28 -121.5q0 -109 -55.5 -184t-143.5 -134q35 -39 63.5 -91 t28.5 -136q0 -96 -36 -168t-97.5 -121t-144 -73.5t-177.5 -24.5q-135 0 -240.5 32.5t-160.5 73.5zM369 627q0 -55 38.5 -80t129.5 -51q23 -8 49 -16.5t49 -14.5q41 31 65.5 65.5t24.5 81.5q0 23 -7 38.5t-25.5 28.5t-50.5 24.5t-81 27.5q-51 16 -72.5 22.5t-37.5 14.5 q-37 -29 -59.5 -64.5t-22.5 -76.5z" />
<glyph unicode="&#xa8;" horiz-adv-x="1024" d="M178 1358q0 88 44 140t116 52q66 0 99.5 -43t33.5 -100q0 -86 -47 -137t-115 -51q-63 0 -97 42t-34 97zM600 1358q0 88 44 140t116 52q66 0 99.5 -43t33.5 -100q0 -86 -47 -137t-115 -51q-63 0 -97 42t-34 97z" />
<glyph unicode="&#xa9;" horiz-adv-x="1705" d="M115 737q0 154 53 288t150.5 233.5t234.5 158t305 58.5t305 -58.5t232.5 -158t147.5 -233.5t52 -288t-53 -288t-150.5 -233t-234.5 -157.5t-305 -58.5q-172 0 -309 58.5t-232.5 157.5t-145.5 233t-50 288zM305 737q0 -117 38 -220t109.5 -180t174 -122t231.5 -45 t231.5 45t173 122t108.5 180.5t38 219.5q0 117 -38 220.5t-108.5 180t-173 121t-231.5 44.5t-231.5 -44.5t-174 -121t-109.5 -180t-38 -220.5zM494 737q0 186 98 291t287 105q57 0 113.5 -12.5t127.5 -49.5l-67 -145q-55 27 -90 34t-80 7q-84 0 -119 -53.5t-35 -176.5 q0 -127 51 -174t121 -47q39 0 85 10.5t89 32.5l60 -147q-59 -31 -124 -48.5t-139 -17.5q-182 0 -280 105.5t-98 285.5z" />
<glyph unicode="&#xaa;" horiz-adv-x="901" d="M102 831q0 117 38 212.5t104.5 163t158 104.5t199.5 37q86 0 161 -18.5t107 -31.5l-100 -550l47 -125l-182 -91l-74 107q-35 -41 -86 -67.5t-127 -26.5q-115 0 -180.5 76.5t-65.5 209.5zM348 856q0 -72 26.5 -93.5t57.5 -21.5q12 0 28.5 3.5t33 13.5t30 30.5t19.5 55.5 l63 340q-61 2 -108 -23.5t-81 -71t-51.5 -105.5t-17.5 -128z" />
<glyph unicode="&#xab;" horiz-adv-x="1101" d="M41 555q0 76 41 124t108 95l265 187l153 -117l-260 -230q-16 -14 -24.5 -24t-8.5 -25q0 -18 19 -43l182 -241l-180 -107l-193 195q-47 47 -74.5 89t-27.5 97zM514 555q0 76 41 124t108 95l265 187l153 -117l-260 -230q-16 -14 -24.5 -24t-8.5 -25q0 -18 19 -43l182 -241 l-180 -107l-193 195q-47 47 -74.5 89t-27.5 97z" />
<glyph unicode="&#xac;" d="M123 573v246h952v-526h-246v280h-706z" />
<glyph unicode="&#xad;" horiz-adv-x="866" d="M145 512l41 244h621l-41 -244h-621z" />
<glyph unicode="&#xae;" horiz-adv-x="1269" d="M135 948q0 109 37 206t106.5 170t169 115t222.5 42q129 0 228 -41t167 -113t103.5 -168t35.5 -205t-40 -205t-110.5 -166.5t-169 -111.5t-214.5 -41q-119 0 -217.5 40t-169 109.5t-109.5 164.5t-39 204zM295 948q0 -76 23.5 -143.5t70.5 -118.5t116.5 -81t164.5 -30 q100 0 170.5 31t117 82t68 120t21.5 146q0 78 -21.5 146.5t-68 121t-117 83t-170.5 30.5t-172 -31.5t-117 -85t-65.5 -123t-20.5 -147.5zM489 715v497h220q68 0 118 -38.5t50 -114.5q0 -96 -84 -137q4 -4 10 -12.5t14 -22.5l88 -150l-145 -26l-74 139q-16 29 -37 29h-22 v-164h-138zM627 987h43q37 0 52 18.5t15 47.5q0 53 -59 53h-51v-119z" />
<glyph unicode="&#xaf;" horiz-adv-x="1024" d="M203 1260l37 198h591l-36 -198h-592z" />
<glyph unicode="&#xb0;" horiz-adv-x="753" d="M113 1198q0 57 21.5 108.5t60 89.5t90 59.5t112.5 21.5t112.5 -21.5t90.5 -59.5t60.5 -89.5t21.5 -108.5t-21.5 -108.5t-60.5 -89t-90 -59t-113 -21.5q-63 0 -115.5 21.5t-90 59t-58 89t-20.5 108.5zM276 1198q0 -57 34 -92t87 -35t87 35t34 92t-33.5 92t-87.5 35 q-53 0 -87 -35t-34 -92z" />
<glyph unicode="&#xb1;" d="M137 573v246h348v355h246v-355h348v-246h-348v-327h371v-246h-942v246h325v327h-348z" />
<glyph unicode="&#xb2;" horiz-adv-x="860" d="M113 721q0 41 20.5 74.5t71.5 76.5l223 189q66 57 97.5 89t31.5 75q0 23 -16.5 41t-44.5 18q-39 0 -85 -23.5t-110 -64.5l-96 145q70 51 158 93.5t192 42.5q113 0 183.5 -56.5t70.5 -167.5q0 -59 -19.5 -106t-52 -87t-72.5 -74t-79 -64l-180 -140h356l-37 -200h-451 q-78 0 -119.5 39t-41.5 100z" />
<glyph unicode="&#xb3;" horiz-adv-x="860" d="M74 686l110 156q49 -39 103.5 -60.5t99.5 -21.5q59 0 87 29.5t28 76.5q0 59 -34 78t-81 19h-80l17 120l211 179h-322l35 196h450q127 0 127 -100q0 -47 -25.5 -83t-80.5 -83l-129 -109q86 -16 133 -71.5t47 -141.5q0 -61 -23.5 -116.5t-69.5 -97.5t-114.5 -67.5 t-156.5 -25.5q-111 0 -198 39t-134 84z" />
<glyph unicode="&#xb4;" horiz-adv-x="1024" d="M276 1292l281 387l219 -180l-344 -334z" />
<glyph unicode="&#xb5;" horiz-adv-x="1157" d="M-41 -446l260 1493h303l-116 -646q-4 -25 -8.5 -51t-4.5 -51q0 -41 19.5 -73.5t89.5 -32.5q80 0 127 49t67 166l113 639h295l-141 -814l77 -174l-215 -96l-82 105q-41 -47 -95 -76t-122 -29q-76 0 -121 26.5t-61 55.5l-86 -491h-299z" />
<glyph unicode="&#xb6;" horiz-adv-x="1218" d="M37 -289l98 191q47 -23 123 -46.5t154 -23.5q80 0 126 43t68 162l211 1192h-139l-135 -750q-96 0 -175 34t-134.5 91.5t-85 133t-29.5 159.5q0 178 58.5 290.5t144.5 177.5t184 88.5t178 23.5h637l-45 -248h-152l-213 -1202q-16 -94 -48 -173t-87 -135.5t-138 -87 t-202 -30.5q-61 0 -121.5 10t-112.5 26.5t-95 36t-70 37.5z" />
<glyph unicode="&#xb7;" horiz-adv-x="557" d="M131 707q0 92 50 148t130 56q72 0 111 -46t39 -107q0 -92 -53.5 -144.5t-129.5 -52.5q-72 0 -109.5 43.5t-37.5 102.5z" />
<glyph unicode="&#xb8;" horiz-adv-x="1024" d="M256 -416l66 125q29 -20 72.5 -36.5t94.5 -16.5q41 0 66 15.5t25 49.5q0 27 -17.5 44.5t-45.5 26.5t-61.5 12t-66.5 3l78 213h170l-41 -114q90 -4 144.5 -49t54.5 -125q0 -98 -71 -161t-210 -63q-78 0 -145.5 20.5t-112.5 55.5z" />
<glyph unicode="&#xb9;" horiz-adv-x="860" d="M127 582l39 200h180l80 432l-158 -114l-102 143l240 172q82 61 182 62q72 0 98.5 -44t11.5 -120l-94 -531h164l-37 -200h-604z" />
<glyph unicode="&#xba;" horiz-adv-x="864" d="M102 858q0 123 35 215t93.5 153.5t135 91.5t158.5 30q84 0 143.5 -26t97.5 -69t55.5 -99t17.5 -116q0 -125 -35 -217t-92.5 -153.5t-132 -92t-156.5 -30.5q-84 0 -144.5 25.5t-99.5 69.5t-57.5 100.5t-18.5 117.5zM356 846q0 -121 80 -121q33 0 60.5 26.5t46 71.5 t29 103.5t10.5 120.5q0 121 -76 120q-35 0 -62.5 -26.5t-47 -70.5t-30 -102.5t-10.5 -121.5z" />
<glyph unicode="&#xbb;" horiz-adv-x="1060" d="M-51 291l260 229q16 14 24.5 24.5t8.5 24.5q0 18 -19 43l-182 242l180 107l193 -195q47 -47 74.5 -89t27.5 -97q0 -76 -41 -124t-108 -96l-265 -186zM402 291l260 229q16 14 24.5 24.5t8.5 24.5q0 18 -19 43l-182 242l180 107l193 -195q47 -47 74.5 -89t27.5 -97 q0 -76 -41 -124t-108 -96l-265 -186z" />
<glyph unicode="&#xbc;" horiz-adv-x="2048" d="M94 582l39 200h180l80 432l-158 -114l-102 143l240 172q82 61 182 62q72 0 98.5 -44t11.5 -120l-94 -531h164l-37 -200h-604zM430 0l1016 1458h264l-1015 -1458h-265zM1196 313q0 41 22.5 79t65.5 83l404 405h219l-96 -524h110l-22 -166h-113l-33 -186h-249l32 186h-178 q-84 0 -123 34t-39 89zM1385 356h184l57 252z" />
<glyph unicode="&#xbd;" horiz-adv-x="2048" d="M86 582l39 200h180l80 432l-158 -114l-102 143l240 172q82 61 182 62q72 0 98.5 -44t11.5 -120l-94 -531h164l-37 -200h-604zM395 0l1016 1458h264l-1015 -1458h-265zM1213 143q0 41 20.5 74.5t71.5 76.5l223 189q66 57 97.5 89t31.5 75q0 23 -16.5 41t-44.5 18 q-39 0 -85 -23.5t-110 -64.5l-96 145q70 51 158 93.5t192 42.5q113 0 183.5 -56.5t70.5 -167.5q0 -59 -19.5 -106t-52 -87t-72.5 -74t-79 -64l-180 -140h356l-37 -200h-451q-78 0 -119.5 39t-41.5 100z" />
<glyph unicode="&#xbe;" horiz-adv-x="2048" d="M70 686l110 156q49 -39 103.5 -60.5t99.5 -21.5q59 0 87 29.5t28 76.5q0 59 -34 78t-81 19h-80l17 120l211 179h-322l35 196h450q127 0 127 -100q0 -47 -25.5 -83t-80.5 -83l-129 -109q86 -16 133 -71.5t47 -141.5q0 -61 -23.5 -116.5t-69.5 -97.5t-114.5 -67.5 t-156.5 -25.5q-111 0 -198 39t-134 84zM444 0l1016 1458h264l-1015 -1458h-265zM1177 313q0 41 22.5 79t65.5 83l404 405h219l-96 -524h110l-22 -166h-113l-33 -186h-249l32 186h-178q-84 0 -123 34t-39 89zM1366 356h184l57 252z" />
<glyph unicode="&#xbf;" horiz-adv-x="937" d="M-70 -139q0 72 20.5 129t55.5 105t80 88t94 77l88 66q57 41 93 88t47 106l18 96h264l-28 -157q-16 -94 -55.5 -153.5t-104.5 -112.5l-125 -99q-72 -55 -101.5 -102t-29.5 -109q0 -53 31.5 -87t99.5 -34q147 0 334 132l106 -168q-98 -80 -225 -133.5t-266 -53.5 q-104 0 -179 24.5t-123.5 68.5t-71 102.5t-22.5 126.5zM438 887q0 92 53.5 144t129.5 52q72 0 109.5 -43t37.5 -102q0 -92 -50 -148.5t-130 -56.5q-72 0 -111 46.5t-39 107.5z" />
<glyph unicode="&#xc0;" horiz-adv-x="1331" d="M-92 18l532 1242q25 57 55.5 103t71.5 79t95.5 49t128.5 16q129 0 195.5 -57t82.5 -209l139 -1231l-313 -41l-41 414h-471l-176 -418zM467 618h369l-48 506q-4 41 -13 60.5t-32 19.5t-35 -17.5t-30 -60.5zM530 1853l203 183l252 -340l-143 -125z" />
<glyph unicode="&#xc1;" horiz-adv-x="1331" d="M-92 18l532 1242q25 57 55.5 103t71.5 79t95.5 49t128.5 16q129 0 195.5 -57t82.5 -209l139 -1231l-313 -41l-41 414h-471l-176 -418zM467 618h369l-48 506q-4 41 -13 60.5t-32 19.5t-35 -17.5t-30 -60.5zM622 1696l252 340l203 -183l-311 -282z" />
<glyph unicode="&#xc2;" horiz-adv-x="1331" d="M-92 18l532 1242q25 57 55.5 103t71.5 79t95.5 49t128.5 16q129 0 195.5 -57t82.5 -209l139 -1231l-313 -41l-41 414h-471l-176 -418zM467 618h369l-48 506q-4 41 -13 60.5t-32 19.5t-35 -17.5t-30 -60.5zM488 1677l235 273h262l146 -297l-179 -70l-118 162l-211 -160z " />
<glyph unicode="&#xc3;" horiz-adv-x="1331" d="M-92 18l532 1242q25 57 55.5 103t71.5 79t95.5 49t128.5 16q129 0 195.5 -57t82.5 -209l139 -1231l-313 -41l-41 414h-471l-176 -418zM467 618h369l-48 506q-4 41 -13 60.5t-32 19.5t-35 -17.5t-30 -60.5zM404 1620q51 301 244 301q51 0 93 -16.5t74 -30.5l89 -39 q25 -10 46 -17.5t42 -7.5q53 0 73 103l144 -19q-18 -154 -78 -225.5t-164 -71.5q-49 0 -85 10.5t-69 24.5l-122 54q-16 8 -34 12t-30 4q-39 0 -53.5 -26.5t-24.5 -73.5z" />
<glyph unicode="&#xc4;" horiz-adv-x="1331" d="M-92 18l532 1242q25 57 55.5 103t71.5 79t95.5 49t128.5 16q129 0 195.5 -57t82.5 -209l139 -1231l-313 -41l-41 414h-471l-176 -418zM467 618h369l-48 506q-4 41 -13 60.5t-32 19.5t-35 -17.5t-30 -60.5zM459 1729q0 88 44 140t115 52q66 0 100 -43t34 -100 q0 -86 -47.5 -137.5t-114.5 -51.5q-63 0 -97 42.5t-34 97.5zM881 1729q0 88 44 140t115 52q66 0 99.5 -43t33.5 -100q0 -86 -47 -137.5t-114 -51.5q-63 0 -97 42.5t-34 97.5z" />
<glyph unicode="&#xc5;" horiz-adv-x="1331" d="M-92 18l532 1242q25 57 55.5 103t71.5 79t95.5 49t128.5 16q129 0 195.5 -57t82.5 -209l139 -1231l-313 -41l-41 414h-471l-176 -418zM467 618h369l-48 506q-4 41 -13 60.5t-32 19.5t-35 -17.5t-30 -60.5zM543 1823q0 55 20.5 103t56 84t84 56.5t103.5 20.5t103.5 -20.5 t84 -56.5t56 -84t20.5 -103t-20.5 -103.5t-56 -84.5t-84 -56t-103.5 -20t-103.5 20t-84 56t-56 84.5t-20.5 103.5zM707 1823q0 -43 27.5 -73t72.5 -30t72.5 30t27.5 73t-28.5 72.5t-71.5 29.5t-71.5 -29.5t-28.5 -72.5z" />
<glyph unicode="&#xc6;" horiz-adv-x="1888" d="M-92 20l751 1256q59 98 163 149.5t233 51.5h897l-45 -248h-598l-64 -367h459l-47 -250h-451l-63 -362h618l-43 -250h-934l109 612h-295l-383 -649zM735 862h201l61 355q-29 0 -51 -18.5t-39 -45.5z" />
<glyph unicode="&#xc7;" horiz-adv-x="1181" d="M61 541q0 231 60.5 411.5t164 303t243 187t296.5 64.5q123 0 231.5 -34.5t194.5 -100.5l-133 -209q-70 43 -138.5 66.5t-154.5 23.5q-92 0 -169.5 -51t-134 -142t-89.5 -218t-33 -277q0 -72 11.5 -135t39 -110.5t73.5 -74t114 -26.5q84 0 160.5 23.5t177.5 79.5l88 -220 q-98 -57 -199.5 -91t-218.5 -44l-20 -61q90 -4 144 -49t54 -125q0 -98 -70.5 -161t-209.5 -63q-78 0 -145.5 20.5t-112.5 55.5l65 125q29 -20 73 -36.5t95 -16.5q41 0 65.5 15.5t24.5 49.5q0 27 -17.5 44.5t-45 26.5t-61 12t-66.5 3l57 162q-121 14 -200.5 65.5t-127 129.5 t-67 175.5t-19.5 201.5z" />
<glyph unicode="&#xc8;" horiz-adv-x="1126" d="M23 0l253 1477h914l-45 -248h-598l-60 -336h459l-47 -250h-457l-67 -393h624l-43 -250h-933zM481 1853l203 183l252 -340l-143 -125z" />
<glyph unicode="&#xc9;" horiz-adv-x="1126" d="M23 0l253 1477h914l-45 -248h-598l-60 -336h459l-47 -250h-457l-67 -393h624l-43 -250h-933zM612 1696l252 340l203 -183l-311 -282z" />
<glyph unicode="&#xca;" horiz-adv-x="1126" d="M23 0l253 1477h914l-45 -248h-598l-60 -336h459l-47 -250h-457l-67 -393h624l-43 -250h-933zM437 1677l235 273h262l146 -297l-179 -70l-118 162l-211 -160z" />
<glyph unicode="&#xcb;" horiz-adv-x="1126" d="M23 0l253 1477h914l-45 -248h-598l-60 -336h459l-47 -250h-457l-67 -393h624l-43 -250h-933zM418 1729q0 88 44 140t115 52q66 0 100 -43t34 -100q0 -86 -47.5 -137.5t-114.5 -51.5q-63 0 -97 42.5t-34 97.5zM840 1729q0 88 44 140t115 52q66 0 99.5 -43t33.5 -100 q0 -86 -47 -137.5t-114 -51.5q-63 0 -97 42.5t-34 97.5z" />
<glyph unicode="&#xcc;" horiz-adv-x="616" d="M20 0l261 1477h315l-258 -1477h-318zM254 1853l203 183l252 -340l-143 -125z" />
<glyph unicode="&#xcd;" horiz-adv-x="616" d="M20 0l261 1477h315l-258 -1477h-318zM284 1696l252 340l203 -183l-311 -282z" />
<glyph unicode="&#xce;" horiz-adv-x="616" d="M20 0l261 1477h315l-258 -1477h-318zM148 1677l235 273h262l146 -297l-179 -70l-118 162l-211 -160z" />
<glyph unicode="&#xcf;" horiz-adv-x="616" d="M20 0l261 1477h315l-258 -1477h-318zM115 1729q0 88 44 140t115 52q66 0 100 -43t34 -100q0 -86 -47.5 -137.5t-114.5 -51.5q-63 0 -97 42.5t-34 97.5zM537 1729q0 88 44 140t115 52q66 0 99.5 -43t33.5 -100q0 -86 -47 -137.5t-114 -51.5q-63 0 -97 42.5t-34 97.5z" />
<glyph unicode="&#xd0;" horiz-adv-x="1447" d="M33 618l41 244h133l106 615h408q340 0 496.5 -162t156.5 -453q0 -182 -54 -339.5t-158.5 -273.5t-256 -182.5t-344.5 -66.5h-502l107 618h-133zM410 231h143q106 0 195.5 43t153 126t99 206t35.5 283q0 184 -81 270t-242 86h-129l-66 -383h299l-41 -244h-301z" />
<glyph unicode="&#xd1;" horiz-adv-x="1476" d="M18 0l263 1477h397l244 -1117q10 -45 30 -45q10 0 16.5 9.5t10.5 21.5l195 1131h282l-221 -1262q-20 -115 -98 -183.5t-195 -68.5q-74 0 -124 19.5t-84 52.5t-52 78t-29 96l-170 874l-188 -1083h-277zM506 1620q51 301 244 301q51 0 93 -16.5t74 -30.5l89 -39 q25 -10 46 -17.5t42 -7.5q53 0 73 103l144 -19q-18 -154 -78 -225.5t-164 -71.5q-49 0 -85 10.5t-69 24.5l-122 54q-16 8 -34 12t-30 4q-39 0 -53.5 -26.5t-24.5 -73.5z" />
<glyph unicode="&#xd2;" horiz-adv-x="1431" d="M51 541q0 197 53.5 373t151.5 308t236.5 208.5t308.5 76.5q137 0 241.5 -43t174 -119.5t104.5 -182t35 -230.5q0 -205 -53.5 -382t-151.5 -307t-239.5 -204t-317.5 -74q-141 0 -244.5 43t-169 120t-97.5 182.5t-32 230.5zM387 526q0 -145 53.5 -231t167.5 -86 q98 0 176 61.5t130.5 164t80 235.5t27.5 274q0 145 -55 231.5t-174 86.5q-98 0 -174 -61.5t-127 -164t-78 -235t-27 -275.5zM622 1853l203 183l252 -340l-143 -125z" />
<glyph unicode="&#xd3;" horiz-adv-x="1431" d="M51 541q0 197 53.5 373t151.5 308t236.5 208.5t308.5 76.5q137 0 241.5 -43t174 -119.5t104.5 -182t35 -230.5q0 -205 -53.5 -382t-151.5 -307t-239.5 -204t-317.5 -74q-141 0 -244.5 43t-169 120t-97.5 182.5t-32 230.5zM387 526q0 -145 53.5 -231t167.5 -86 q98 0 176 61.5t130.5 164t80 235.5t27.5 274q0 145 -55 231.5t-174 86.5q-98 0 -174 -61.5t-127 -164t-78 -235t-27 -275.5zM680 1696l252 340l203 -183l-311 -282z" />
<glyph unicode="&#xd4;" horiz-adv-x="1431" d="M51 541q0 197 53.5 373t151.5 308t236.5 208.5t308.5 76.5q137 0 241.5 -43t174 -119.5t104.5 -182t35 -230.5q0 -205 -53.5 -382t-151.5 -307t-239.5 -204t-317.5 -74q-141 0 -244.5 43t-169 120t-97.5 182.5t-32 230.5zM387 526q0 -145 53.5 -231t167.5 -86 q98 0 176 61.5t130.5 164t80 235.5t27.5 274q0 145 -55 231.5t-174 86.5q-98 0 -174 -61.5t-127 -164t-78 -235t-27 -275.5zM545 1677l235 273h262l146 -297l-179 -70l-118 162l-211 -160z" />
<glyph unicode="&#xd5;" horiz-adv-x="1431" d="M51 541q0 197 53.5 373t151.5 308t236.5 208.5t308.5 76.5q137 0 241.5 -43t174 -119.5t104.5 -182t35 -230.5q0 -205 -53.5 -382t-151.5 -307t-239.5 -204t-317.5 -74q-141 0 -244.5 43t-169 120t-97.5 182.5t-32 230.5zM387 526q0 -145 53.5 -231t167.5 -86 q98 0 176 61.5t130.5 164t80 235.5t27.5 274q0 145 -55 231.5t-174 86.5q-98 0 -174 -61.5t-127 -164t-78 -235t-27 -275.5zM473 1620q51 301 244 301q51 0 93 -16.5t74 -30.5l89 -39q25 -10 46 -17.5t42 -7.5q53 0 73 103l144 -19q-18 -154 -78 -225.5t-164 -71.5 q-49 0 -85 10.5t-69 24.5l-122 54q-16 8 -34 12t-30 4q-39 0 -53.5 -26.5t-24.5 -73.5z" />
<glyph unicode="&#xd6;" horiz-adv-x="1431" d="M51 541q0 197 53.5 373t151.5 308t236.5 208.5t308.5 76.5q137 0 241.5 -43t174 -119.5t104.5 -182t35 -230.5q0 -205 -53.5 -382t-151.5 -307t-239.5 -204t-317.5 -74q-141 0 -244.5 43t-169 120t-97.5 182.5t-32 230.5zM387 526q0 -145 53.5 -231t167.5 -86 q98 0 176 61.5t130.5 164t80 235.5t27.5 274q0 145 -55 231.5t-174 86.5q-98 0 -174 -61.5t-127 -164t-78 -235t-27 -275.5zM516 1729q0 88 44 140t115 52q66 0 100 -43t34 -100q0 -86 -47.5 -137.5t-114.5 -51.5q-63 0 -97 42.5t-34 97.5zM938 1729q0 88 44 140t115 52 q66 0 99.5 -43t33.5 -100q0 -86 -47 -137.5t-114 -51.5q-63 0 -97 42.5t-34 97.5z" />
<glyph unicode="&#xd7;" d="M186 451l250 245l-250 250l174 174l250 -250l248 252l174 -174l-248 -252l250 -250l-174 -174l-250 250l-250 -243z" />
<glyph unicode="&#xd8;" horiz-adv-x="1431" d="M39 -170l166 279q-74 78 -110 187.5t-36 244.5q0 197 53.5 373t151.5 308t236.5 208.5t308.5 76.5q59 0 111.5 -8t99.5 -24l82 139h264l-154 -258q76 -78 114 -186.5t38 -237.5q0 -205 -53.5 -382t-151.5 -307t-239.5 -204t-317.5 -74q-111 0 -203 29l-96 -164h-264z M395 480q0 -22 4 -44l484 811q-18 6 -39 10.5t-43 4.5q-98 0 -174 -61.5t-127 -164t-78 -234.5t-27 -276v-46zM537 221q37 -12 79 -12q98 0 176 61.5t130.5 164t80 235.5t27.5 274q0 25 -2 47.5t-6 44.5z" />
<glyph unicode="&#xd9;" horiz-adv-x="1388" d="M102 383q0 47 8.5 107.5t18.5 121.5l150 865h317l-154 -873q-10 -53 -17 -100t-7 -94q0 -41 8 -77t29.5 -62.5t56.5 -41t88 -14.5q131 0 195.5 85t95.5 265l160 912h317l-160 -922q-25 -145 -68.5 -256t-116.5 -185.5t-182.5 -112.5t-265.5 -38q-131 0 -221 32t-146 87 t-81 132t-25 169zM594 1853l203 183l252 -340l-143 -125z" />
<glyph unicode="&#xda;" horiz-adv-x="1388" d="M102 383q0 47 8.5 107.5t18.5 121.5l150 865h317l-154 -873q-10 -53 -17 -100t-7 -94q0 -41 8 -77t29.5 -62.5t56.5 -41t88 -14.5q131 0 195.5 85t95.5 265l160 912h317l-160 -922q-25 -145 -68.5 -256t-116.5 -185.5t-182.5 -112.5t-265.5 -38q-131 0 -221 32t-146 87 t-81 132t-25 169zM702 1696l252 340l203 -183l-311 -282z" />
<glyph unicode="&#xdb;" horiz-adv-x="1388" d="M102 383q0 47 8.5 107.5t18.5 121.5l150 865h317l-154 -873q-10 -53 -17 -100t-7 -94q0 -41 8 -77t29.5 -62.5t56.5 -41t88 -14.5q131 0 195.5 85t95.5 265l160 912h317l-160 -922q-25 -145 -68.5 -256t-116.5 -185.5t-182.5 -112.5t-265.5 -38q-131 0 -221 32t-146 87 t-81 132t-25 169zM533 1677l235 273h262l146 -297l-179 -70l-118 162l-211 -160z" />
<glyph unicode="&#xdc;" horiz-adv-x="1388" d="M102 383q0 47 8.5 107.5t18.5 121.5l150 865h317l-154 -873q-10 -53 -17 -100t-7 -94q0 -41 8 -77t29.5 -62.5t56.5 -41t88 -14.5q131 0 195.5 85t95.5 265l160 912h317l-160 -922q-25 -145 -68.5 -256t-116.5 -185.5t-182.5 -112.5t-265.5 -38q-131 0 -221 32t-146 87 t-81 132t-25 169zM508 1729q0 88 44 140t115 52q66 0 100 -43t34 -100q0 -86 -47.5 -137.5t-114.5 -51.5q-63 0 -97 42.5t-34 97.5zM930 1729q0 88 44 140t115 52q66 0 99.5 -43t33.5 -100q0 -86 -47 -137.5t-114 -51.5q-63 0 -97 42.5t-34 97.5z" />
<glyph unicode="&#xdd;" horiz-adv-x="1177" d="M113 1452l309 37l149 -592q10 -37 19.5 -56.5t27.5 -19.5q16 0 25.5 10.5t26.5 38.5l334 619l286 -39l-397 -719q-39 -70 -81 -106.5t-89 -57.5l-96 -567h-316l101 571q-39 23 -66 64t-49 121zM608 1696l252 340l203 -183l-311 -282z" />
<glyph unicode="&#xde;" horiz-adv-x="1243" d="M23 0l247 1477h326l-39 -211h170q106 0 192.5 -23.5t147.5 -72t94 -121t33 -170.5q0 -119 -40 -218.5t-119 -171t-196.5 -111.5t-271.5 -40h-170l-57 -338h-317zM438 578h152q123 0 201.5 72.5t78.5 207.5q0 92 -47 134t-143 42h-164z" />
<glyph unicode="&#xdf;" horiz-adv-x="1261" d="M-162 -233q45 16 76 35.5t52.5 50t36.5 76.5t28 120l184 1051q14 80 45 153.5t87 130t143.5 90t214.5 33.5q131 0 213.5 -28.5t130 -72.5t63.5 -95t16 -94q0 -88 -40.5 -148.5t-91 -109t-91.5 -89.5t-41 -90q0 -33 19.5 -58.5t48.5 -52t62.5 -56t62 -68.5t48 -91.5 t19.5 -121.5q0 -68 -26.5 -134.5t-79.5 -117.5t-134 -83t-188 -32q-86 0 -156.5 16.5t-105.5 32.5l64 187q33 -12 75.5 -21.5t90.5 -9.5q92 0 136 38t44 103q0 61 -42 102.5t-92.5 81.5t-92.5 90t-42 130q0 86 43.5 147.5t95.5 112.5t95 98t43 105q0 33 -13.5 55t-35 35.5 t-46 18.5t-48.5 5q-47 0 -80 -12t-54.5 -40t-35 -73t-25.5 -108l-192 -1059q-14 -80 -42 -143.5t-76 -113.5t-119 -87t-173 -64z" />
<glyph unicode="&#xe0;" horiz-adv-x="1157" d="M53 356q0 156 48.5 289t137.5 230.5t215 152.5t283 55q109 0 205 -21.5t143 -39.5l-139 -791l86 -153l-231 -115l-107 131q-66 -66 -139.5 -98.5t-171.5 -32.5q-162 0 -246 100t-84 293zM369 371q0 -86 29.5 -136.5t97.5 -50.5q59 0 106 37t64 133l92 520 q-10 2 -22.5 3.5t-22.5 1.5q-80 0 -143.5 -41t-107.5 -111t-68.5 -162t-24.5 -194zM432 1532l238 162l270 -412l-176 -123z" />
<glyph unicode="&#xe1;" horiz-adv-x="1157" d="M53 356q0 156 48.5 289t137.5 230.5t215 152.5t283 55q109 0 205 -21.5t143 -39.5l-139 -791l86 -153l-231 -115l-107 131q-66 -66 -139.5 -98.5t-171.5 -32.5q-162 0 -246 100t-84 293zM369 371q0 -86 29.5 -136.5t97.5 -50.5q59 0 106 37t64 133l92 520 q-10 2 -22.5 3.5t-22.5 1.5q-80 0 -143.5 -41t-107.5 -111t-68.5 -162t-24.5 -194zM522 1292l281 387l219 -180l-344 -334z" />
<glyph unicode="&#xe2;" horiz-adv-x="1157" d="M53 356q0 156 48.5 289t137.5 230.5t215 152.5t283 55q109 0 205 -21.5t143 -39.5l-139 -791l86 -153l-231 -115l-107 131q-66 -66 -139.5 -98.5t-171.5 -32.5q-162 0 -246 100t-84 293zM369 371q0 -86 29.5 -136.5t97.5 -50.5q59 0 106 37t64 133l92 520 q-10 2 -22.5 3.5t-22.5 1.5q-80 0 -143.5 -41t-107.5 -111t-68.5 -162t-24.5 -194zM395 1272l256 313h262l166 -338l-176 -69l-139 202l-232 -200z" />
<glyph unicode="&#xe3;" horiz-adv-x="1157" d="M53 356q0 156 48.5 289t137.5 230.5t215 152.5t283 55q109 0 205 -21.5t143 -39.5l-139 -791l86 -153l-231 -115l-107 131q-66 -66 -139.5 -98.5t-171.5 -32.5q-162 0 -246 100t-84 293zM369 371q0 -86 29.5 -136.5t97.5 -50.5q59 0 106 37t64 133l92 520 q-10 2 -22.5 3.5t-22.5 1.5q-80 0 -143.5 -41t-107.5 -111t-68.5 -162t-24.5 -194zM322 1233q51 301 244 301q51 0 93 -16.5t74 -30.5l89 -39q25 -10 46 -17.5t42 -7.5q53 0 73 103l144 -19q-18 -154 -78 -225.5t-164 -71.5q-49 0 -85 10.5t-69 24.5l-122 53q-16 8 -34 12.5 t-30 4.5q-39 0 -53.5 -26.5t-24.5 -74.5z" />
<glyph unicode="&#xe4;" horiz-adv-x="1157" d="M53 356q0 156 48.5 289t137.5 230.5t215 152.5t283 55q109 0 205 -21.5t143 -39.5l-139 -791l86 -153l-231 -115l-107 131q-66 -66 -139.5 -98.5t-171.5 -32.5q-162 0 -246 100t-84 293zM369 371q0 -86 29.5 -136.5t97.5 -50.5q59 0 106 37t64 133l92 520 q-10 2 -22.5 3.5t-22.5 1.5q-80 0 -143.5 -41t-107.5 -111t-68.5 -162t-24.5 -194zM375 1358q0 88 44 140t116 52q66 0 99.5 -43t33.5 -100q0 -86 -47 -137t-115 -51q-63 0 -97 42t-34 97zM797 1358q0 88 44 140t116 52q66 0 99.5 -43t33.5 -100q0 -86 -47 -137t-115 -51 q-63 0 -97 42t-34 97z" />
<glyph unicode="&#xe5;" horiz-adv-x="1157" d="M53 356q0 156 48.5 289t137.5 230.5t215 152.5t283 55q109 0 205 -21.5t143 -39.5l-139 -791l86 -153l-231 -115l-107 131q-66 -66 -139.5 -98.5t-171.5 -32.5q-162 0 -246 100t-84 293zM369 371q0 -86 29.5 -136.5t97.5 -50.5q59 0 106 37t64 133l92 520 q-10 2 -22.5 3.5t-22.5 1.5q-80 0 -143.5 -41t-107.5 -111t-68.5 -162t-24.5 -194zM465 1454q0 55 20.5 103.5t56 84t84 56t103.5 20.5t103.5 -20.5t84 -56t56 -84t20.5 -103.5t-20.5 -103t-56 -84t-84 -56.5t-103.5 -20.5t-103.5 20.5t-84 56.5t-56 84t-20.5 103zM629 1454 q0 -43 27.5 -72.5t72.5 -29.5t72.5 29.5t27.5 72.5t-28.5 72.5t-71.5 29.5t-71.5 -29.5t-28.5 -72.5z" />
<glyph unicode="&#xe6;" horiz-adv-x="1650" d="M53 356q0 156 48.5 289t137.5 230.5t215 152.5t283 55q76 0 146.5 -11t111.5 -28l-20 -104q66 72 159 107.5t183 35.5q84 0 141.5 -21.5t93 -58t52 -84t16.5 -98.5q0 -111 -56.5 -190.5t-146.5 -130.5t-202.5 -74t-227.5 -18q-4 -39 0 -78t22.5 -70t50.5 -49t83 -18 q55 0 129 20t139 49l59 -192q-70 -37 -171 -72t-218 -35q-131 0 -210.5 43t-122.5 115q-82 -86 -169 -122t-196 -36q-162 0 -246 100t-84 293zM369 371q0 -86 29.5 -136.5t97.5 -50.5q59 0 106 37t64 133l92 520q-10 2 -22.5 3.5t-22.5 1.5q-80 0 -143.5 -41t-107.5 -111 t-68.5 -162t-24.5 -194zM1012 582q88 2 148.5 20.5t97 48t53 64.5t16.5 69q0 43 -23.5 65.5t-56.5 22.5q-82 0 -141 -77.5t-94 -212.5z" />
<glyph unicode="&#xe7;" horiz-adv-x="954" d="M53 385q0 135 39 262t116 223.5t192.5 154.5t269.5 58q88 0 171 -27.5t134 -62.5l-109 -184q-49 31 -99 44t-97 13q-80 0 -138.5 -44t-95.5 -110.5t-54 -146.5t-17 -151q0 -111 44 -170.5t130 -59.5q57 0 107 14.5t122 43.5l55 -189q-63 -29 -144 -53.5t-167 -32.5 l-20 -61q90 -4 144 -49t54 -125q0 -98 -70.5 -161t-209.5 -63q-78 0 -145.5 20.5t-112.5 55.5l65 125q29 -20 73 -36.5t95 -16.5q41 0 65.5 15.5t24.5 49.5q0 27 -17.5 44.5t-45 26.5t-61.5 12t-66 3l59 166q-80 16 -136 55.5t-90 94.5t-49.5 121.5t-15.5 140.5z" />
<glyph unicode="&#xe8;" horiz-adv-x="1015" d="M53 375q0 131 40 258t117 227.5t189.5 161.5t257.5 61q86 0 148.5 -21.5t102.5 -58t58.5 -84t18.5 -98.5q0 -111 -50 -191.5t-136 -130.5t-201 -74q-106 -22 -225 -22h-21q-2 -10 -2 -19v-19q0 -35 8.5 -66t26.5 -54.5t48 -37.5t75 -14q55 0 129 20t139 49l60 -192 q-70 -37 -171.5 -72t-218.5 -35q-115 0 -189.5 33t-120.5 90t-64.5 131t-18.5 158zM377 582q88 2 148.5 20.5t97 48t53 64.5t16.5 69q0 43 -23.5 65.5t-56.5 22.5q-82 0 -141 -77.5t-94 -212.5zM332 1532l238 162l270 -412l-176 -123z" />
<glyph unicode="&#xe9;" horiz-adv-x="1015" d="M53 375q0 131 40 258t117 227.5t189.5 161.5t257.5 61q86 0 148.5 -21.5t102.5 -58t58.5 -84t18.5 -98.5q0 -111 -50 -191.5t-136 -130.5t-201 -74q-106 -22 -225 -22h-21q-2 -10 -2 -19v-19q0 -35 8.5 -66t26.5 -54.5t48 -37.5t75 -14q55 0 129 20t139 49l60 -192 q-70 -37 -171.5 -72t-218.5 -35q-115 0 -189.5 33t-120.5 90t-64.5 131t-18.5 158zM377 582q88 2 148.5 20.5t97 48t53 64.5t16.5 69q0 43 -23.5 65.5t-56.5 22.5q-82 0 -141 -77.5t-94 -212.5zM471 1292l281 387l219 -180l-344 -334z" />
<glyph unicode="&#xea;" horiz-adv-x="1015" d="M53 375q0 131 40 258t117 227.5t189.5 161.5t257.5 61q86 0 148.5 -21.5t102.5 -58t58.5 -84t18.5 -98.5q0 -111 -50 -191.5t-136 -130.5t-201 -74q-106 -22 -225 -22h-21q-2 -10 -2 -19v-19q0 -35 8.5 -66t26.5 -54.5t48 -37.5t75 -14q55 0 129 20t139 49l60 -192 q-70 -37 -171.5 -72t-218.5 -35q-115 0 -189.5 33t-120.5 90t-64.5 131t-18.5 158zM377 582q88 2 148.5 20.5t97 48t53 64.5t16.5 69q0 43 -23.5 65.5t-56.5 22.5q-82 0 -141 -77.5t-94 -212.5zM315 1272l256 313h262l166 -338l-176 -69l-139 202l-232 -200z" />
<glyph unicode="&#xeb;" horiz-adv-x="1015" d="M53 375q0 131 40 258t117 227.5t189.5 161.5t257.5 61q86 0 148.5 -21.5t102.5 -58t58.5 -84t18.5 -98.5q0 -111 -50 -191.5t-136 -130.5t-201 -74q-106 -22 -225 -22h-21q-2 -10 -2 -19v-19q0 -35 8.5 -66t26.5 -54.5t48 -37.5t75 -14q55 0 129 20t139 49l60 -192 q-70 -37 -171.5 -72t-218.5 -35q-115 0 -189.5 33t-120.5 90t-64.5 131t-18.5 158zM377 582q88 2 148.5 20.5t97 48t53 64.5t16.5 69q0 43 -23.5 65.5t-56.5 22.5q-82 0 -141 -77.5t-94 -212.5zM309 1358q0 88 44 140t116 52q66 0 99.5 -43t33.5 -100q0 -86 -47 -137 t-115 -51q-63 0 -97 42t-34 97zM731 1358q0 88 44 140t116 52q66 0 99.5 -43t33.5 -100q0 -86 -47 -137t-115 -51q-63 0 -97 42t-34 97z" />
<glyph unicode="&#xec;" horiz-adv-x="600" d="M57 0l148 827h-139l43 220h442l-191 -1047h-303zM88 1532l238 162l270 -412l-176 -123z" />
<glyph unicode="&#xed;" horiz-adv-x="600" d="M57 0l148 827h-139l43 220h442l-191 -1047h-303zM151 1292l281 387l219 -180l-344 -334z" />
<glyph unicode="&#xee;" horiz-adv-x="600" d="M57 0l148 827h-139l43 220h442l-191 -1047h-303zM28 1272l256 313h262l166 -338l-176 -69l-139 202l-232 -200z" />
<glyph unicode="&#xef;" horiz-adv-x="600" d="M57 0l148 827h-139l43 220h442l-191 -1047h-303zM24 1358q0 88 44 140t116 52q66 0 99.5 -43t33.5 -100q0 -86 -47 -137t-115 -51q-63 0 -97 42t-34 97zM446 1358q0 88 44 140t116 52q66 0 99.5 -43t33.5 -100q0 -86 -47 -137t-115 -51q-63 0 -97 42t-34 97z" />
<glyph unicode="&#xf0;" horiz-adv-x="1124" d="M41 397q0 137 38 244t104.5 180.5t156.5 111.5t195 38q72 0 117.5 -13.5t88.5 -39.5q-8 49 -23.5 103t-43.5 99l-152 -90l-110 172l112 74q-35 16 -82 34.5t-84 28.5l84 195q82 -18 159 -49t130 -74l205 133l117 -176l-170 -108q127 -233 127 -486q0 -186 -33 -336.5 t-100.5 -256t-172 -162t-245.5 -56.5q-207 0 -312.5 114.5t-105.5 319.5zM350 393q0 -94 29 -150.5t100 -56.5q63 0 105.5 48.5t68 124t37.5 167.5t17 181q-20 23 -57.5 40t-86.5 17q-43 0 -81 -19.5t-67.5 -64.5t-47 -116t-17.5 -171z" />
<glyph unicode="&#xf1;" horiz-adv-x="1185" d="M31 0l145 813l-57 168l248 106l86 -143q59 63 129.5 101t179.5 38q168 0 239.5 -86t71.5 -225q0 -41 -4 -80t-12 -80l-111 -612h-301l109 623q6 37 10 70.5t4 62.5q0 47 -20.5 74.5t-81.5 27.5q-74 0 -139.5 -56.5t-84.5 -166.5l-110 -635h-301zM301 1233q51 301 244 301 q51 0 93 -16.5t74 -30.5l89 -39q25 -10 46 -17.5t42 -7.5q53 0 73 103l144 -19q-18 -154 -78 -225.5t-164 -71.5q-49 0 -85 10.5t-69 24.5l-122 53q-16 8 -34 12.5t-30 4.5q-39 0 -53.5 -26.5t-24.5 -74.5z" />
<glyph unicode="&#xf2;" horiz-adv-x="1159" d="M53 387q0 174 50.5 305t132 218t188 130t217.5 43q119 0 201 -37.5t134 -100t75.5 -141.5t23.5 -161q0 -170 -49 -297t-131 -212t-190.5 -128t-225.5 -43q-115 0 -195.5 36t-132 94.5t-75 135t-23.5 158.5zM362 401q0 -104 35 -160.5t105 -56.5q68 0 118 42t82.5 108.5 t48 150.5t15.5 168q0 104 -39 154.5t-102 50.5q-70 0 -119 -44t-81 -110.5t-47.5 -147.5t-15.5 -155zM334 1532l238 162l270 -412l-176 -123z" />
<glyph unicode="&#xf3;" horiz-adv-x="1159" d="M53 387q0 174 50.5 305t132 218t188 130t217.5 43q119 0 201 -37.5t134 -100t75.5 -141.5t23.5 -161q0 -170 -49 -297t-131 -212t-190.5 -128t-225.5 -43q-115 0 -195.5 36t-132 94.5t-75 135t-23.5 158.5zM362 401q0 -104 35 -160.5t105 -56.5q68 0 118 42t82.5 108.5 t48 150.5t15.5 168q0 104 -39 154.5t-102 50.5q-70 0 -119 -44t-81 -110.5t-47.5 -147.5t-15.5 -155zM481 1292l281 387l219 -180l-344 -334z" />
<glyph unicode="&#xf4;" horiz-adv-x="1159" d="M53 387q0 174 50.5 305t132 218t188 130t217.5 43q119 0 201 -37.5t134 -100t75.5 -141.5t23.5 -161q0 -170 -49 -297t-131 -212t-190.5 -128t-225.5 -43q-115 0 -195.5 36t-132 94.5t-75 135t-23.5 158.5zM362 401q0 -104 35 -160.5t105 -56.5q68 0 118 42t82.5 108.5 t48 150.5t15.5 168q0 104 -39 154.5t-102 50.5q-70 0 -119 -44t-81 -110.5t-47.5 -147.5t-15.5 -155zM338 1272l256 313h262l166 -338l-176 -69l-139 202l-232 -200z" />
<glyph unicode="&#xf5;" horiz-adv-x="1159" d="M53 387q0 174 50.5 305t132 218t188 130t217.5 43q119 0 201 -37.5t134 -100t75.5 -141.5t23.5 -161q0 -170 -49 -297t-131 -212t-190.5 -128t-225.5 -43q-115 0 -195.5 36t-132 94.5t-75 135t-23.5 158.5zM362 401q0 -104 35 -160.5t105 -56.5q68 0 118 42t82.5 108.5 t48 150.5t15.5 168q0 104 -39 154.5t-102 50.5q-70 0 -119 -44t-81 -110.5t-47.5 -147.5t-15.5 -155zM279 1233q51 301 244 301q51 0 93 -16.5t74 -30.5l89 -39q25 -10 46 -17.5t42 -7.5q53 0 73 103l144 -19q-18 -154 -78 -225.5t-164 -71.5q-49 0 -85 10.5t-69 24.5 l-122 53q-16 8 -34 12.5t-30 4.5q-39 0 -53.5 -26.5t-24.5 -74.5z" />
<glyph unicode="&#xf6;" horiz-adv-x="1159" d="M53 387q0 174 50.5 305t132 218t188 130t217.5 43q119 0 201 -37.5t134 -100t75.5 -141.5t23.5 -161q0 -170 -49 -297t-131 -212t-190.5 -128t-225.5 -43q-115 0 -195.5 36t-132 94.5t-75 135t-23.5 158.5zM362 401q0 -104 35 -160.5t105 -56.5q68 0 118 42t82.5 108.5 t48 150.5t15.5 168q0 104 -39 154.5t-102 50.5q-70 0 -119 -44t-81 -110.5t-47.5 -147.5t-15.5 -155zM303 1358q0 88 44 140t116 52q66 0 99.5 -43t33.5 -100q0 -86 -47 -137t-115 -51q-63 0 -97 42t-34 97zM725 1358q0 88 44 140t116 52q66 0 99.5 -43t33.5 -100 q0 -86 -47 -137t-115 -51q-63 0 -97 42t-34 97z" />
<glyph unicode="&#xf7;" d="M160 573v246h942v-246h-942zM457 326q0 72 35.5 116.5t113.5 44.5q76 0 111 -45t35 -116q0 -72 -35 -118t-111 -46q-78 0 -113.5 46t-35.5 118zM457 1075q0 72 35.5 117t113.5 45q76 0 111 -45t35 -117t-35 -118t-111 -46q-78 0 -113.5 46t-35.5 118z" />
<glyph unicode="&#xf8;" horiz-adv-x="1159" d="M53 387q0 174 50.5 305t132 218t188 130t217.5 43q35 0 65.5 -4t59.5 -10l78 143h203l-121 -219q78 -66 113.5 -158t35.5 -192q0 -170 -49 -297t-131 -212t-190.5 -128t-225.5 -43q-31 0 -58.5 3t-53.5 7l-103 -186h-203l142 258q-78 59 -114 149.5t-36 192.5zM362 371 q0 -14 3 -29l282 514q-4 0 -10 1t-12 1q-70 0 -119 -44t-81 -110.5t-47.5 -147.5t-15.5 -155v-30zM483 184h19q68 0 118 42t82.5 108.5t48 150.5t15.5 168q0 10 -1 21.5t-1 21.5z" />
<glyph unicode="&#xf9;" horiz-adv-x="1171" d="M80 250q0 35 5 86t15 102l115 609h303l-119 -646q-4 -29 -9 -55.5t-5 -58.5q0 -41 21.5 -70t87.5 -29q70 0 121 41t67 129l127 689h301l-149 -809l86 -160l-232 -115l-110 143q-53 -59 -128 -101t-184 -42q-86 0 -145.5 22.5t-96 61.5t-54 91.5t-17.5 111.5zM395 1532 l238 162l270 -412l-176 -123z" />
<glyph unicode="&#xfa;" horiz-adv-x="1171" d="M80 250q0 35 5 86t15 102l115 609h303l-119 -646q-4 -29 -9 -55.5t-5 -58.5q0 -41 21.5 -70t87.5 -29q70 0 121 41t67 129l127 689h301l-149 -809l86 -160l-232 -115l-110 143q-53 -59 -128 -101t-184 -42q-86 0 -145.5 22.5t-96 61.5t-54 91.5t-17.5 111.5zM507 1292 l281 387l219 -180l-344 -334z" />
<glyph unicode="&#xfb;" horiz-adv-x="1171" d="M80 250q0 35 5 86t15 102l115 609h303l-119 -646q-4 -29 -9 -55.5t-5 -58.5q0 -41 21.5 -70t87.5 -29q70 0 121 41t67 129l127 689h301l-149 -809l86 -160l-232 -115l-110 143q-53 -59 -128 -101t-184 -42q-86 0 -145.5 22.5t-96 61.5t-54 91.5t-17.5 111.5zM340 1272 l256 313h262l166 -338l-176 -69l-139 202l-232 -200z" />
<glyph unicode="&#xfc;" horiz-adv-x="1171" d="M80 250q0 35 5 86t15 102l115 609h303l-119 -646q-4 -29 -9 -55.5t-5 -58.5q0 -41 21.5 -70t87.5 -29q70 0 121 41t67 129l127 689h301l-149 -809l86 -160l-232 -115l-110 143q-53 -59 -128 -101t-184 -42q-86 0 -145.5 22.5t-96 61.5t-54 91.5t-17.5 111.5zM350 1358 q0 88 44 140t116 52q66 0 99.5 -43t33.5 -100q0 -86 -47 -137t-115 -51q-63 0 -97 42t-34 97zM772 1358q0 88 44 140t116 52q66 0 99.5 -43t33.5 -100q0 -86 -47 -137t-115 -51q-63 0 -97 42t-34 97z" />
<glyph unicode="&#xfd;" horiz-adv-x="1112" d="M-123 -379l84 182q31 -16 85 -37.5t126 -21.5q84 0 132 40t93 138l43 96h-24q-84 0 -139.5 20.5t-89 60.5t-48 97.5t-16.5 131.5l-21 704l297 39l17 -745q2 -72 20.5 -95.5t65.5 -23.5h16l318 866l276 -59l-438 -1129q-39 -102 -89 -168.5t-110.5 -105.5t-131.5 -55.5 t-150 -16.5q-106 0 -191.5 26.5t-124.5 55.5zM487 1292l281 387l219 -180l-344 -334z" />
<glyph unicode="&#xfe;" horiz-adv-x="1167" d="M-74 -446l344 1953h312l-103 -565q41 49 113 95t166 46q307 0 307 -395q0 -166 -44 -300t-127 -228t-202 -145.5t-266 -51.5q-35 0 -68.5 5t-60.5 12l-74 -426h-297zM342 195q16 -4 35.5 -6.5t40.5 -2.5q61 0 120.5 34t107.5 98.5t77 155.5t29 208q0 90 -35 128t-94 38 q-72 0 -126.5 -53.5t-76.5 -149.5z" />
<glyph unicode="&#xff;" horiz-adv-x="1112" d="M-123 -379l84 182q31 -16 85 -37.5t126 -21.5q84 0 132 40t93 138l43 96h-24q-84 0 -139.5 20.5t-89 60.5t-48 97.5t-16.5 131.5l-21 704l297 39l17 -745q2 -72 20.5 -95.5t65.5 -23.5h16l318 866l276 -59l-438 -1129q-39 -102 -89 -168.5t-110.5 -105.5t-131.5 -55.5 t-150 -16.5q-106 0 -191.5 26.5t-124.5 55.5zM293 1358q0 88 44 140t116 52q66 0 99.5 -43t33.5 -100q0 -86 -47 -137t-115 -51q-63 0 -97 42t-34 97zM715 1358q0 88 44 140t116 52q66 0 99.5 -43t33.5 -100q0 -86 -47 -137t-115 -51q-63 0 -97 42t-34 97z" />
<glyph unicode="&#x131;" horiz-adv-x="600" d="M57 0l148 827h-139l43 220h442l-191 -1047h-303z" />
<glyph unicode="&#x152;" horiz-adv-x="1972" d="M59 541q0 197 48.5 373t139.5 308t223 208.5t302 76.5q117 0 201 -41t133 -96l20 107h910l-45 -248h-598l-60 -336h459l-47 -250h-457l-67 -393h624l-43 -250h-934l19 106q-57 -59 -141 -101t-211 -42t-217.5 43t-147.5 120t-84 183.5t-27 231.5zM395 526 q0 -145 55.5 -231t180.5 -86q104 0 184 63.5t127 153.5l117 682q-12 27 -36 54.5t-56.5 49t-74.5 36t-91 14.5q-98 0 -174 -61.5t-127 -164t-78 -235t-27 -275.5z" />
<glyph unicode="&#x153;" horiz-adv-x="1695" d="M53 387q0 174 48.5 305t129 218t185 130t215.5 43q125 0 209 -49t125 -129q63 72 159.5 125t225.5 53q82 0 141 -21.5t98 -58t57.5 -84t18.5 -98.5q0 -111 -52 -190.5t-140.5 -130.5t-202 -74t-238.5 -18q-4 -39 0 -78t22.5 -70t50.5 -49t83 -18q55 0 129 20t139 49 l60 -192q-70 -37 -164.5 -72t-208.5 -35q-63 0 -114.5 14.5t-91.5 38t-67.5 51t-42.5 56.5q-68 -78 -162 -119t-196 -41q-115 0 -194.5 36t-129 94.5t-71 135t-21.5 158.5zM362 401q0 -104 35 -160.5t105 -56.5q68 0 118 42t82.5 108.5t48 150.5t15.5 168q0 104 -39 154.5 t-102 50.5q-70 0 -119 -44t-81 -110.5t-47.5 -147.5t-15.5 -155zM1057 582q88 2 148.5 20.5t97 48t53 64.5t16.5 69q0 43 -23.5 65.5t-56.5 22.5q-82 0 -141 -77.5t-94 -212.5z" />
<glyph unicode="&#x178;" horiz-adv-x="1177" d="M113 1452l309 37l149 -592q10 -37 19.5 -56.5t27.5 -19.5q16 0 25.5 10.5t26.5 38.5l334 619l286 -39l-397 -719q-39 -70 -81 -106.5t-89 -57.5l-96 -567h-316l101 571q-39 23 -66 64t-49 121zM389 1729q0 88 44 140t115 52q66 0 100 -43t34 -100q0 -86 -47.5 -137.5 t-114.5 -51.5q-63 0 -97 42.5t-34 97.5zM811 1729q0 88 44 140t115 52q66 0 99.5 -43t33.5 -100q0 -86 -47 -137.5t-114 -51.5q-63 0 -97 42.5t-34 97.5z" />
<glyph unicode="&#x2c6;" horiz-adv-x="1024" d="M178 1272l256 313h262l166 -338l-176 -69l-139 202l-232 -200z" />
<glyph unicode="&#x2da;" horiz-adv-x="1024" d="M248 1454q0 55 20.5 103.5t56 84t84 56t103.5 20.5t103.5 -20.5t84 -56t56 -84t20.5 -103.5t-20.5 -103t-56 -84t-84 -56.5t-103.5 -20.5t-103.5 20.5t-84 56.5t-56 84t-20.5 103zM412 1454q0 -43 27.5 -72.5t72.5 -29.5t72.5 29.5t27.5 72.5t-28.5 72.5t-71.5 29.5 t-71.5 -29.5t-28.5 -72.5z" />
<glyph unicode="&#x2dc;" horiz-adv-x="1024" d="M121 1233q51 301 244 301q51 0 93 -16.5t74 -30.5l89 -39q25 -10 46 -17.5t42 -7.5q53 0 73 103l144 -19q-18 -154 -78 -225.5t-164 -71.5q-49 0 -85 10.5t-69 24.5l-122 53q-16 8 -34 12.5t-30 4.5q-39 0 -53.5 -26.5t-24.5 -74.5z" />
<glyph unicode="&#x2000;" horiz-adv-x="1042" />
<glyph unicode="&#x2001;" horiz-adv-x="2086" />
<glyph unicode="&#x2002;" horiz-adv-x="1042" />
<glyph unicode="&#x2003;" horiz-adv-x="2086" />
<glyph unicode="&#x2004;" horiz-adv-x="694" />
<glyph unicode="&#x2005;" horiz-adv-x="520" />
<glyph unicode="&#x2006;" horiz-adv-x="346" />
<glyph unicode="&#x2007;" horiz-adv-x="346" />
<glyph unicode="&#x2008;" horiz-adv-x="260" />
<glyph unicode="&#x2009;" horiz-adv-x="415" />
<glyph unicode="&#x200a;" horiz-adv-x="114" />
<glyph unicode="&#x2010;" horiz-adv-x="923" d="M115 512l41 244h620l-41 -244h-620z" />
<glyph unicode="&#x2011;" horiz-adv-x="923" d="M115 512l41 244h620l-41 -244h-620z" />
<glyph unicode="&#x2012;" horiz-adv-x="923" d="M115 512l41 244h620l-41 -244h-620z" />
<glyph unicode="&#x2013;" horiz-adv-x="1024" d="M-18 512l36 213h1024l-38 -213h-1022z" />
<glyph unicode="&#x2014;" horiz-adv-x="2048" d="M-18 512l36 213h2048l-38 -213h-2046z" />
<glyph unicode="&#x2018;" horiz-adv-x="460" d="M121 1083q0 25 5 48.5t17.5 51t34 62.5t53.5 82l119 180l123 -57l-80 -233q29 -16 47.5 -49t18.5 -68q0 -72 -43 -118t-127 -46q-82 0 -125 44t-43 103z" />
<glyph unicode="&#x2019;" horiz-adv-x="471" d="M154 993l79 234q-29 16 -47 49t-18 67q0 72 43 118t127 46q82 0 125 -44t43 -103q0 -25 -5 -48.5t-17.5 -51t-34 -62.5t-54.5 -82l-119 -180z" />
<glyph unicode="&#x201a;" horiz-adv-x="432" d="M-61 -258l79 234q-29 16 -47 49t-18 67q0 72 43 118t127 46q82 0 125 -44t43 -103q0 -25 -5 -48.5t-17.5 -51t-34 -62.5t-54.5 -82l-119 -180z" />
<glyph unicode="&#x201c;" horiz-adv-x="890" d="M551 1083q0 25 5 48.5t17.5 51t34 62.5t53.5 82l119 180l123 -57l-80 -233q29 -16 47.5 -49t18.5 -68q0 -72 -43 -118t-127 -46q-82 0 -125 44t-43 103zM121 1083q0 25 5 48.5t17.5 51t34 62.5t53.5 82l119 180l123 -57l-80 -233q29 -16 47.5 -49t18.5 -68 q0 -72 -43 -118t-127 -46q-82 0 -125 44t-43 103z" />
<glyph unicode="&#x201d;" horiz-adv-x="901" d="M584 993l79 234q-29 16 -47 49t-18 67q0 72 43 118t127 46q82 0 125 -44t43 -103q0 -25 -5 -48.5t-17.5 -51t-34 -62.5t-54.5 -82l-119 -180zM154 993l79 234q-29 16 -47 49t-18 67q0 72 43 118t127 46q82 0 125 -44t43 -103q0 -25 -5 -48.5t-17.5 -51t-34 -62.5 t-54.5 -82l-119 -180z" />
<glyph unicode="&#x201e;" horiz-adv-x="862" d="M-61 -258l79 234q-29 16 -47 49t-18 67q0 72 43 118t127 46q82 0 125 -44t43 -103q0 -25 -5 -48.5t-17.5 -51t-34 -62.5t-54.5 -82l-119 -180zM365 -258l79 234q-29 16 -47 49t-18 67q0 72 43 118t127 46q82 0 125 -44t43 -103q0 -25 -5 -48.5t-17.5 -51t-34 -62.5 t-54.5 -82l-119 -180z" />
<glyph unicode="&#x2022;" horiz-adv-x="1024" d="M238 698q0 121 64.5 198t203.5 77q135 0 198.5 -76t63.5 -199t-63.5 -199.5t-198.5 -76.5q-141 0 -204.5 76.5t-63.5 199.5z" />
<glyph unicode="&#x2026;" horiz-adv-x="1626" d="M-8 109q0 92 50 148t130 56q72 0 111 -46t39 -107q0 -92 -53.5 -144.5t-129.5 -52.5q-72 0 -109.5 43.5t-37.5 102.5zM551 109q0 92 50 148t130 56q72 0 111 -46t39 -107q0 -92 -53.5 -144.5t-129.5 -52.5q-72 0 -109.5 43.5t-37.5 102.5zM1112 109q0 92 50 148t130 56 q72 0 111 -46t39 -107q0 -92 -53.5 -144.5t-129.5 -52.5q-72 0 -109.5 43.5t-37.5 102.5z" />
<glyph unicode="&#x202f;" horiz-adv-x="415" />
<glyph unicode="&#x2039;" horiz-adv-x="628" d="M41 555q0 76 41 124t108 95l265 187l153 -117l-260 -230q-16 -14 -24.5 -24t-8.5 -25q0 -18 19 -43l182 -241l-180 -107l-193 195q-47 47 -74.5 89t-27.5 97z" />
<glyph unicode="&#x203a;" horiz-adv-x="608" d="M-51 291l260 229q16 14 24.5 24.5t8.5 24.5q0 18 -19 43l-182 242l180 107l193 -195q47 -47 74.5 -89t27.5 -97q0 -76 -41 -124t-108 -96l-265 -186z" />
<glyph unicode="&#x2044;" horiz-adv-x="296" d="M-492 0l1016 1458h264l-1015 -1458h-265z" />
<glyph unicode="&#x205f;" horiz-adv-x="520" />
<glyph unicode="&#x2074;" horiz-adv-x="860" d="M57 891q0 41 22.5 79t65.5 83l404 405h219l-96 -524h110l-22 -166h-113l-33 -186h-249l32 186h-178q-84 0 -123 34t-39 89zM246 934h184l57 252z" />
<glyph unicode="&#x20ac;" d="M86 449l35 204h819l-35 -204h-379q0 -117 42 -182.5t141 -65.5q72 0 144.5 20.5t158.5 65.5l75 -203q-92 -59 -197.5 -89t-215.5 -30q-121 0 -206 35t-137 98.5t-76 152.5t-24 198h-145zM135 782l41 207h125q55 229 208 358.5t386 129.5q125 0 222 -41t157 -90l-117 -183 q-49 33 -122.5 59.5t-141.5 26.5q-43 0 -85 -10t-80 -40t-69.5 -80t-52.5 -130h387l-32 -207h-826z" />
<glyph unicode="&#x2122;" horiz-adv-x="1918" d="M150 1298v179h700v-179h-232v-661h-237v661h-231zM936 637l49 840h209l170 -387q10 -20 20 -21q6 0 10.5 3t10.5 18l168 387h203l51 -840h-219l-23 465l-74 -156q-25 -51 -51 -72.5t-80 -21.5q-53 0 -82.5 23.5t-52.5 70.5l-76 168l-18 -477h-215z" />
<glyph unicode="&#xe000;" horiz-adv-x="1065" d="M0 1065h1065v-1065h-1065v1065z" />
<glyph unicode="&#xfb01;" horiz-adv-x="1239" d="M-113 -233q45 16 76 35.5t52.5 50t37 76.5t27.5 120l135 768h-152l37 230h158l18 94q35 174 137.5 270t301.5 96q139 0 233 -36.5t170 -86.5l-102 -167q-57 29 -127 52t-139 23q-80 0 -121 -40t-60 -148l-10 -57h604l-190 -1047h-303l147 817h-299l-147 -817 q-14 -80 -42 -143.5t-76 -113.5t-119 -87t-173 -64z" />
<glyph unicode="&#xfb02;" horiz-adv-x="1243" d="M-113 -233q45 16 76 35.5t52.5 50t37 76.5t27.5 120l135 768h-152l37 230h158l18 94q16 86 48 154.5t87.5 115.5t139.5 71.5t205 24.5q104 0 224 -28.5t245 -102.5l-248 -1376h-303l143 817h-299l-147 -817q-14 -80 -42 -143.5t-76 -113.5t-119 -87t-173 -64zM559 1047 h299l39 221q-35 10 -73 17t-74 7q-80 0 -121 -40t-60 -148z" />
<glyph unicode="&#xfb03;" horiz-adv-x="1853" d="M-113 -233q45 16 76 35.5t52.5 50t37 76.5t27.5 120l135 768h-152l37 230h158l18 94q16 86 43 154.5t71 115.5t109.5 71.5t157.5 24.5q96 0 167 -25.5t112 -56.5l-105 -165q-29 14 -60.5 23t-65.5 9q-33 0 -54.5 -9t-37 -30.5t-25.5 -58.5t-19 -90l-10 -57h313l19 94 q35 174 137 270t301 96q139 0 233.5 -36.5t170.5 -86.5l-103 -167q-57 29 -126.5 52t-139.5 23q-80 0 -121 -40t-59 -148l-10 -57h604l-191 -1047h-303l148 817h-299l-148 -817q-14 -80 -42 -143.5t-76 -113.5t-118.5 -87t-173.5 -64l-73 175q45 16 75.5 35.5t52 50t37 76.5 t27.5 120l135 768h-311l-147 -817q-14 -80 -42 -143.5t-76 -113.5t-119 -87t-173 -64z" />
<glyph unicode="&#xfb04;" horiz-adv-x="1861" d="M-113 -233q45 16 76 35.5t52.5 50t37 76.5t27.5 120l135 768h-152l37 230h158l18 94q16 86 43 154.5t71 115.5t109.5 71.5t157.5 24.5q96 0 167 -25.5t112 -56.5l-105 -165q-29 14 -60.5 23t-65.5 9q-33 0 -54.5 -9t-37 -30.5t-25.5 -58.5t-19 -90l-10 -57h318l18 94 q16 86 48 154.5t87 115.5t139 71.5t205 24.5q104 0 224 -28.5t245 -102.5l-248 -1376h-303l144 817h-299l-148 -817q-14 -80 -41.5 -143.5t-76 -113.5t-119 -87t-172.5 -64l-74 175q45 16 75.5 35.5t52 50t37 76.5t27.5 120l136 768h-316l-147 -817q-14 -80 -42 -143.5 t-76 -113.5t-119 -87t-173 -64zM1178 1047h299l39 221q-35 10 -73 17t-75 7q-80 0 -121 -40t-59 -148z" />
<glyph horiz-adv-x="1024" d="M311 1853l203 183l252 -340l-143 -125z" />
<glyph horiz-adv-x="1024" d="M311 1696l252 340l203 -183l-311 -282z" />
<glyph horiz-adv-x="1024" d="M195 1677l235 273h262l146 -297l-179 -70l-118 162l-211 -160z" />
<glyph horiz-adv-x="1024" d="M248 1823q0 55 20.5 103t56 84t84 56.5t103.5 20.5t103.5 -20.5t84 -56.5t56 -84t20.5 -103t-20.5 -103.5t-56 -84.5t-84 -56t-103.5 -20t-103.5 20t-84 56t-56 84.5t-20.5 103.5zM412 1823q0 -43 27.5 -73t72.5 -30t72.5 30t27.5 73t-28.5 72.5t-71.5 29.5t-71.5 -29.5 t-28.5 -72.5z" />
<glyph horiz-adv-x="1024" d="M158 1729q0 88 44 140t115 52q66 0 100 -43t34 -100q0 -86 -47.5 -137.5t-114.5 -51.5q-63 0 -97 42.5t-34 97.5zM580 1729q0 88 44 140t115 52q66 0 99.5 -43t33.5 -100q0 -86 -47 -137.5t-114 -51.5q-63 0 -97 42.5t-34 97.5z" />
<glyph horiz-adv-x="1024" d="M121 1620q51 301 244 301q51 0 93 -16.5t74 -30.5l89 -39q25 -10 46 -17.5t42 -7.5q53 0 73 103l144 -19q-18 -154 -78 -225.5t-164 -71.5q-49 0 -85 10.5t-69 24.5l-122 54q-16 8 -34 12t-30 4q-39 0 -53.5 -26.5t-24.5 -73.5z" />
</font>
</defs>
</svg>
