<?xml version="1.0" standalone="no"?>
<!DOCTYPE svg PUBLIC "-//W3C//DTD SVG 1.1//EN" "http://www.w3.org/Graphics/SVG/1.1/DTD/svg11.dtd" >
<svg xmlns="http://www.w3.org/2000/svg">
<metadata>
This is a custom SVG webfont generated by Font Squirrel.
Copyright   : Copyright 2008 Dalton Maag Ltd This typeface is for exclusive use by Toyota Motor Corporation only The typeface may only be used in projects relating to Toyota Motor Corporation All rights reserved
Designer    : DaltonMaag Ltd
Foundry     : Dalton Maag Ltd
Foundry URL : httpwwwdaltonmaagcom
</metadata>
<defs>
<font id="ToyotaDisplayRegular" horiz-adv-x="1044" >
<font-face units-per-em="2048" ascent="1638" descent="-410" />
<missing-glyph horiz-adv-x="417" />
<glyph unicode=" "  horiz-adv-x="417" />
<glyph unicode="&#x09;" horiz-adv-x="417" />
<glyph unicode="&#xa0;" horiz-adv-x="417" />
<glyph unicode="!" horiz-adv-x="587" d="M156 109q0 63 33.5 103t105.5 40q70 0 103.5 -40t33.5 -103t-33.5 -103.5t-103.5 -40.5q-72 0 -105 39q-34 42 -34 105zM180 1505h234l-35 -1077h-164z" />
<glyph unicode="&#x22;" horiz-adv-x="724" d="M109 903v602h180v-602h-180zM439 903v602h180v-602h-180z" />
<glyph unicode="#" horiz-adv-x="1486" d="M74 416v155h270l78 373h-236v160h269l61 295h180l-61 -295h360l62 295h178l-61 -295h251v-160h-284l-78 -373h248v-155h-279l-69 -334h-177l66 334h-358l-68 -334h-182l69 334h-239zM526 571h359l78 373h-359z" />
<glyph unicode="$" horiz-adv-x="1325" d="M84 82l51 166q111 -45 227.5 -69.5t241.5 -24.5q203 0 299 72.5t96 191.5q0 74 -33.5 120t-88 73.5t-125 44t-148.5 34.5q-80 14 -164 38t-152.5 67t-112.5 112.5t-44 177.5q0 80 25.5 151t79 126t136.5 91t201 48v201h183v-195q127 -6 226 -29.5t187 -58.5l-47 -157 q-109 39 -207 62.5t-217 23.5q-180 0 -270 -65.5t-90 -178.5q0 -66 30.5 -107t81 -66.5t116 -42t136.5 -30.5q86 -18 175.5 -40.5t163 -69t120.5 -120t47 -192.5q0 -178 -115.5 -293.5t-336.5 -144.5v-215h-183v205q-180 4 -304 35.5t-185 58.5z" />
<glyph unicode="%" horiz-adv-x="2091" d="M98 1087q0 88 24.5 164t74 132.5t124 88t173.5 31.5q88 0 155.5 -30.5t113.5 -86t69.5 -132t23.5 -164.5q0 -86 -24.5 -163t-72.5 -131.5t-120 -85t-162 -30.5q-100 0 -173 31.5t-118 87.5q-45 55 -66.5 129.5t-21.5 158.5zM279 1090q0 -121 51 -195t151 -74 q92 0 145.5 67.5t53.5 201.5q0 135 -53.5 203.5t-145.5 68.5q-100 0 -151 -73.5t-51 -198.5zM369 0l1155 1487h200l-1155 -1487h-200zM1235 393q0 86 24.5 161t73.5 131t124 89t173 33q86 0 154.5 -32t115 -87t70 -130t23.5 -163q0 -90 -24.5 -166.5t-73 -131t-120 -85 t-163.5 -30.5q-100 0 -171 31.5t-116 86.5q-47 55 -68.5 131t-21.5 162zM1413 395q0 -123 52.5 -197.5t150.5 -74.5q197 0 196 272q0 131 -50 200t-146 69q-98 0 -150.5 -75t-52.5 -194z" />
<glyph unicode="&#x26;" horiz-adv-x="1554" d="M115 373q0 76 27.5 146.5t76.5 134t118 125t152 124.5q-59 72 -80.5 139.5t-21.5 141.5t29.5 137t85 110.5t132.5 75t171 27.5q111 0 190.5 -26.5t153.5 -59.5l-66 -152q-66 37 -127 56.5t-141 19.5q-43 0 -82 -11t-70.5 -36t-51 -60.5t-19.5 -86.5q0 -66 26.5 -118 t79.5 -114l396 -450l247 313l142 -107l-266 -350l231 -260l-139 -125l-217 242q-113 -119 -235 -182.5t-273 -63.5q-133 0 -222.5 37t-144.5 96.5t-78.5 133t-23.5 143.5zM324 383q0 -45 13 -90t46 -80t84 -57.5t127 -22.5q100 0 189 52.5t188 160.5l-369 422 q-74 -53 -126 -99t-86 -90t-50 -92.5t-16 -103.5z" />
<glyph unicode="'" horiz-adv-x="395" d="M109 903v602h180v-602h-180z" />
<glyph unicode="(" horiz-adv-x="811" d="M100 602q0 86 40 169t85 157l381 612l154 -100l-352 -580q-37 -59 -71 -124.5t-34 -131.5q0 -70 34 -135.5t69 -124.5l354 -577l-154 -101l-381 610q-47 72 -86 156t-39 170z" />
<glyph unicode=")" horiz-adv-x="808" d="M49 -233l354 577q37 59 71 125t34 135q0 66 -34 131.5t-71 124.5l-354 580l156 100l381 -612q43 -74 83 -157t40 -169t-39 -170t-84 -156l-381 -610z" />
<glyph unicode="*" horiz-adv-x="1081" d="M104 1133l52 157l307 -112l-6 327h168l-4 -327l305 112l51 -157l-315 -97l208 -260l-135 -100l-194 270l-195 -270l-135 100l209 260z" />
<glyph unicode="+" horiz-adv-x="1398" d="M193 627v168h417v428h176v-428h420v-168h-420v-428h-176v428h-417z" />
<glyph unicode="," horiz-adv-x="448" d="M78 -274l98 491l197 -43l-135 -483z" />
<glyph unicode="-" horiz-adv-x="966" d="M156 563v187h655v-187h-655z" />
<glyph unicode="." horiz-adv-x="528" d="M125 109q0 63 34 103t107 40q70 0 103.5 -40t33.5 -103t-33.5 -103.5t-103.5 -40.5q-74 0 -106 39q-35 42 -35 105z" />
<glyph unicode="/" horiz-adv-x="966" d="M25 -164l718 1759h199l-719 -1759h-198z" />
<glyph unicode="0" horiz-adv-x="1427" d="M100 733q0 166 35 306.5t108.5 243.5t190.5 162.5t281 59.5q162 0 279.5 -59.5t191.5 -162.5t108.5 -243.5t34.5 -306.5t-34.5 -304t-108.5 -239.5t-191.5 -159t-279.5 -57.5q-164 0 -281 57.5t-192 157.5q-72 102 -107 240.5t-35 304.5zM317 737q0 -141 21.5 -251.5 t69 -189.5t122.5 -120q78 -41 185 -41q106 0 182 41t124 120t70.5 189.5t22.5 251.5q0 139 -22.5 253t-70.5 192t-124 119.5t-182 41.5t-183 -41.5t-124.5 -119.5t-69 -192t-21.5 -253z" />
<glyph unicode="1" horiz-adv-x="1114" d="M84 1198l338 242q45 33 89 49t95 16q57 0 97 -35.5t40 -121.5v-1182h363v-166h-940v166h379v1085q0 45 -23 45q-12 0 -21 -6t-20 -12l-293 -209z" />
<glyph unicode="2" horiz-adv-x="1232" d="M45 170q0 41 23.5 87t83.5 93l493 391q66 51 115 93.5t81.5 85.5t51 88t18.5 102q0 66 -27.5 110t-69.5 69.5t-94 35.5t-104 10q-125 0 -221 -36.5t-186 -88.5l-82 138q43 31 99.5 59.5t122 50t137 34.5t145.5 13q227 0 357 -104.5t130 -280.5q0 -139 -81 -252.5 t-212 -218.5l-520 -405q-18 -16 -25.5 -24.5t-7.5 -20.5q0 -31 50 -31h827v-168h-913q-84 0 -137.5 44t-53.5 126z" />
<glyph unicode="3" horiz-adv-x="1161" d="M0 66l53 167q111 -45 205 -67.5t219 -22.5q74 0 144.5 17.5t126 53.5t87 93.5t31.5 136.5q0 47 -15 96.5t-57 89.5t-116 65.5t-191 25.5h-131v129l416 397q29 25 29 45q0 29 -43 29h-674v166h750q104 0 147 -43t43 -107q0 -45 -25.5 -94t-78.5 -96l-310 -283 q141 -4 232.5 -47t143.5 -105.5t71.5 -134t19.5 -131.5q0 -100 -38 -185t-113.5 -150.5t-187 -101.5t-257.5 -36q-96 0 -172 9.5t-134 22.5t-101 31t-74 30z" />
<glyph unicode="4" horiz-adv-x="1361" d="M59 573q0 55 22.5 107.5t84.5 114.5l694 692h187v-942h251v-168h-251v-377h-197v377h-555q-117 0 -176.5 55t-59.5 141zM256 604q0 -23 19.5 -41t62.5 -18h512v684l-539 -531q-25 -27 -40 -47t-15 -47z" />
<glyph unicode="5" horiz-adv-x="1212" d="M41 68l53 163q113 -45 212.5 -68.5t223.5 -23.5q180 0 275.5 91.5t95.5 242.5q0 78 -26.5 134.5t-72.5 92t-109.5 51t-141.5 15.5q-70 0 -138.5 -12.5t-142.5 -42.5l-106 63l24 713h859v-166h-672l-19 -414q53 16 113.5 23.5t144.5 7.5q88 0 177.5 -24.5t161 -81 t116.5 -142.5t45 -207q0 -104 -33.5 -197t-104.5 -162t-182.5 -110t-271.5 -41q-96 0 -171 9.5t-133 23.5t-101 32t-76 30z" />
<glyph unicode="6" horiz-adv-x="1323" d="M104 643q0 164 33 319.5t111 276.5t207 193.5t319 72.5q129 0 221 -21.5t172 -62.5l-61 -151q-90 37 -165 53t-165 16q-123 0 -203.5 -38.5t-133 -105.5t-79 -156t-38.5 -187q94 68 194 95.5t201 27.5q117 0 211 -35t159.5 -99.5t101.5 -151.5t36 -191q0 -115 -40 -211.5 t-112 -167t-171 -108.5t-216 -38q-270 0 -426 170t-156 500zM315 659q0 -92 15.5 -183t56.5 -167t113 -123t188 -47q154 0 239 92.5t85 253.5q0 80 -25.5 141.5t-71 100.5t-106.5 58.5t-137 19.5q-53 0 -106.5 -14.5t-100.5 -35t-86 -46t-64 -50.5z" />
<glyph unicode="7" horiz-adv-x="1185" d="M41 1321v166h926q84 0 131 -37t47 -98q0 -29 -9.5 -57.5t-31.5 -69.5l-674 -1225h-221l694 1257q4 10 9.5 20.5t5.5 20.5q0 23 -33 23h-844z" />
<glyph unicode="8" horiz-adv-x="1325" d="M98 383q0 66 22.5 125t60.5 109.5t86 91.5t102 69q-88 51 -143.5 132t-55.5 198q0 86 35 159.5t102.5 127t160.5 82t214 28.5q125 0 216 -28.5t153.5 -79.5t92.5 -119t30 -143q0 -119 -61.5 -212.5t-147.5 -158.5q119 -47 190 -135q72 -86 72 -219q0 -94 -40 -175 t-115 -139.5t-184.5 -90.5t-248.5 -32q-143 0 -245.5 31t-168 86t-96.5 131t-31 162zM307 389q0 -106 85 -179t253 -73q174 0 270.5 78t98.5 197q0 106 -70 159.5t-190 83.5l-213 56q-102 -61 -168 -134t-66 -188zM369 1116q0 -94 58 -154.5t185 -95.5l166 -43 q82 47 136.5 127t56.5 172q0 43 -17.5 83t-54.5 71t-92 49t-133 18q-143 0 -224 -64.5t-81 -162.5z" />
<glyph unicode="9" horiz-adv-x="1327" d="M98 979q0 115 41 212t113 168t171 108.5t216 37.5q131 0 237.5 -42t183.5 -127t118 -210t41 -290q0 -164 -31 -320t-105.5 -276.5t-204.5 -193.5t-331 -73q-127 0 -230.5 21.5t-181.5 62.5l62 154q90 -37 171 -54.5t171 -17.5q127 0 213 40t137 106.5t75.5 153.5 t36.5 182q-80 -63 -187 -90t-208 -27q-117 0 -211 34.5t-159.5 98t-101.5 151t-36 191.5zM311 995q0 -82 24.5 -142t70.5 -101q45 -39 106 -58.5t137 -19.5q55 0 108.5 14t100.5 34.5t85 46.5t65 50q0 90 -15.5 181.5t-55.5 167t-111.5 122.5t-186.5 47q-154 0 -241 -91 t-87 -251z" />
<glyph unicode=":" horiz-adv-x="528" d="M125 109q0 63 34 103t107 40q70 0 103.5 -40t33.5 -103t-33.5 -103.5t-103.5 -40.5q-74 0 -106 39q-35 42 -35 105zM125 918q0 61 34 102t107 41q70 0 103.5 -41t33.5 -102t-33.5 -103.5t-103.5 -42.5q-74 0 -106 43q-35 42 -35 103z" />
<glyph unicode=";" horiz-adv-x="526" d="M63 -274l93 495l198 -47l-145 -483zM125 918q0 61 32.5 102t106.5 41q70 0 103.5 -41t33.5 -102t-33.5 -103.5t-103.5 -42.5q-74 0 -108 43q-31 42 -31 103z" />
<glyph unicode="&#x3c;" horiz-adv-x="1398" d="M178 705q0 88 59.5 142t168.5 97l778 322l67 -164l-784 -326q-43 -18 -63.5 -32.5t-20.5 -38.5q0 -33 25.5 -45.5t64.5 -28.5l778 -326l-67 -170l-778 328q-109 47 -168.5 98.5t-59.5 143.5z" />
<glyph unicode="=" horiz-adv-x="1398" d="M199 457v168h1013v-168h-1013zM199 795v166h1013v-166h-1013z" />
<glyph unicode="&#x3e;" horiz-adv-x="1398" d="M147 305l781 326q37 16 63.5 28.5t26.5 45.5q0 25 -21.5 39t-64.5 32l-785 326l68 164l780 -322q109 -43 168.5 -97t59.5 -142q0 -92 -59.5 -143.5t-168.5 -98.5l-780 -328z" />
<glyph unicode="?" horiz-adv-x="1200" d="M84 1372q41 31 100.5 59.5t129 50t143 36t145.5 14.5q133 0 230.5 -31t161 -82t94 -118.5t30.5 -145.5q0 -121 -58.5 -205t-152.5 -151l-114 -84q-41 -29 -68 -51.5t-44 -44t-24.5 -47t-7.5 -58.5v-86h-192v109q0 51 12 86.5t31.5 65.5t48.5 54.5t61 51.5l150 116 q74 55 110.5 109.5t36.5 116.5q0 109 -79.5 166t-239.5 57q-121 0 -222.5 -38t-195.5 -95zM418 109q0 63 33.5 103t105.5 40t105.5 -40t33.5 -103t-33.5 -103.5t-105.5 -40.5t-106 39q-33 42 -33 105z" />
<glyph unicode="@" horiz-adv-x="2052" d="M94 471q0 213 73 388t202 298t304 191.5t378 68.5q205 0 371.5 -57t285.5 -161.5t184.5 -251t65.5 -329.5q0 -147 -45 -262.5t-130 -193.5t-204 -120t-264 -42h-332q-72 0 -134.5 15.5t-109.5 49t-73.5 87t-26.5 127.5q0 98 43 155.5t110.5 85t149.5 34.5t162 7h110v35 q0 100 -42 142t-138 42q-68 0 -127 -12t-141 -41l-53 135q66 29 149.5 48.5t190.5 19.5q106 0 172.5 -26.5t103.5 -75t49.5 -114t12.5 -147.5v-413q172 6 268 123.5t96 336.5q0 141 -45 258t-135 200t-221 129t-303 46q-170 0 -307.5 -54t-234.5 -155.5t-149.5 -246 t-52.5 -320.5q0 -193 59.5 -335t166 -236.5t256 -140.5t329.5 -46q94 0 166 8.5t128 20.5t99 26.5t78 26.5l58 -139q-25 -12 -76 -29.5t-122 -34t-157 -27.5t-182 -11q-217 0 -403.5 56t-322.5 171t-213 286t-77 404zM821 289q0 -41 14.5 -66.5t39 -41t54 -23.5t62.5 -8h228 v270h-232q-66 0 -116 -31.5t-50 -99.5z" />
<glyph unicode="A" horiz-adv-x="1488" d="M25 25l393 1245q18 61 43.5 109t63.5 82t91.5 53.5t128.5 19.5q76 0 129.5 -19.5t92.5 -52t64.5 -82t43.5 -108.5l389 -1247l-196 -45l-160 505h-731l-160 -505zM428 655h627l-183 582q-23 74 -51 99.5t-78 25.5q-49 0 -78.5 -25.5t-52.5 -99.5z" />
<glyph unicode="B" horiz-adv-x="1378" d="M156 0v1505h546q104 0 198.5 -19.5t166.5 -65.5t114 -119.5t42 -182.5q0 -53 -17.5 -101t-44 -88t-63.5 -72t-74 -50q45 -14 95 -43t91 -75t69 -110.5t28 -150.5q0 -102 -37 -181t-102.5 -134.5t-157.5 -84t-205 -28.5h-649zM360 166h420q139 0 226.5 60.5t87.5 203.5 q0 55 -15.5 96t-40 73t-58.5 51.5t-69 31.5q-47 14 -91 16t-97 2h-363v-534zM360 868h349q63 0 119.5 14.5t97.5 43t64.5 76t23.5 114.5q0 127 -96.5 176t-266.5 49h-291v-473z" />
<glyph unicode="C" horiz-adv-x="1441" d="M100 750q0 170 48.5 313t143.5 248.5t236.5 164t329.5 58.5q164 0 281.5 -29.5t212.5 -66.5l-62 -160q-66 25 -121 42t-105 26.5t-98 13.5t-102 4q-266 0 -406.5 -161t-140.5 -453q0 -311 134.5 -466t396.5 -155q72 0 129 6t109.5 18.5t105.5 31t117 42.5l55 -151 q-121 -55 -243 -84t-279 -29q-209 0 -351.5 59.5t-228.5 164t-124 250t-38 313.5z" />
<glyph unicode="D" horiz-adv-x="1568" d="M156 0v1505h579q178 0 314.5 -54t229.5 -152.5t141 -235.5t48 -305q0 -164 -44 -303.5t-134 -240.5t-227 -157.5t-328 -56.5h-579zM360 170h359q252 0 392 135t140 443q0 307 -140 448t-392 141h-359v-1167z" />
<glyph unicode="E" horiz-adv-x="1286" d="M156 0v1505h1036v-168h-834v-467h648v-168h-648v-532h852v-170h-1054z" />
<glyph unicode="F" horiz-adv-x="1232" d="M156 0v1505h1036v-168h-834v-467h648v-168h-648v-702h-202z" />
<glyph unicode="G" horiz-adv-x="1574" d="M100 750q0 170 48.5 313t143.5 248.5t235.5 164t328.5 58.5q164 0 282.5 -29.5t213.5 -66.5l-62 -160q-66 25 -121 42t-105 26.5t-99.5 13.5t-102.5 4q-264 0 -404.5 -161t-140.5 -453q0 -311 134.5 -465t388.5 -154q131 0 226 26.5t157 57.5v416h-420v170h624v-678 q-49 -35 -114.5 -64.5t-143 -50t-160.5 -33t-169 -12.5q-207 0 -349.5 59.5t-228.5 164t-124 250t-38 313.5z" />
<glyph unicode="H" horiz-adv-x="1499" d="M156 0v1505h204v-635h779v635h204v-1505h-204v700h-779v-700h-204z" />
<glyph unicode="I" horiz-adv-x="526" d="M162 0v1505h203v-1505h-203z" />
<glyph unicode="J" horiz-adv-x="1032" d="M14 37l76 162q43 -23 125 -45.5t178 -22.5q133 0 210 75t77 261v1038h203v-1046q0 -242 -123 -369t-367 -127q-145 0 -236.5 24.5t-142.5 49.5z" />
<glyph unicode="K" horiz-adv-x="1402" d="M156 0v1505h204v-647h119q63 0 93 13.5t61 52.5l504 610l153 -111l-536 -641l628 -690l-147 -123l-571 627q-23 25 -41.5 42t-39 29.5t-45 16.5t-57.5 4h-121v-688h-204z" />
<glyph unicode="L" horiz-adv-x="1249" d="M156 0v1505h204v-1335h850v-170h-1054z" />
<glyph unicode="M" horiz-adv-x="1744" d="M156 0v1505h204l418 -723q33 -53 52.5 -73.5t43.5 -20.5q27 0 47.5 19.5t51.5 72.5l418 725h198v-1505h-200v1149l-269 -473q-35 -57 -65.5 -95t-61 -58.5t-60.5 -28t-63 -7.5q-31 0 -61.5 8.5t-60 29t-60.5 57t-61 92.5l-271 473v-1147h-200z" />
<glyph unicode="N" horiz-adv-x="1550" d="M156 0v1505h227l754 -1274q10 -16 17 -27t20 -11q16 0 20 14t4 47v1251h197v-1249q0 -78 -16.5 -130t-44 -84t-64.5 -45t-76 -13q-47 0 -82 12t-61.5 37.5t-51 60.5t-51.5 80l-594 1006v-1180h-198z" />
<glyph unicode="O" horiz-adv-x="1611" d="M100 748q0 156 42 297t127 249.5t219.5 174t318.5 65.5q188 0 322.5 -65.5t219.5 -174t123.5 -250t38.5 -296.5q0 -154 -40.5 -296.5t-127 -251t-220.5 -173t-316 -64.5q-188 0 -323.5 64.5t-219.5 173.5t-124 251t-40 296zM317 748q0 -129 31 -242t91.5 -196t152.5 -130 q92 -49 215 -49t215 48t152.5 131t90 195.5t29.5 242.5q0 129 -29.5 242.5t-90 195.5t-152.5 130t-215 48t-215 -48t-152.5 -130t-91.5 -195.5t-31 -242.5z" />
<glyph unicode="P" horiz-adv-x="1298" d="M156 0v1505h557q104 0 197.5 -25.5t163 -84t110.5 -149.5t41 -218q0 -104 -41 -190t-110.5 -147.5t-166 -96.5t-209.5 -35h-338v-559h-204zM360 723h304q63 0 125.5 14.5t110.5 50t80 94t32 146.5q0 102 -30 164.5t-79 96.5t-111.5 44t-129.5 10h-302v-620z" />
<glyph unicode="Q" horiz-adv-x="1611" d="M100 739q0 154 40 296.5t124 253t219 178t324 67.5q188 0 321.5 -67.5t219.5 -178t124.5 -253t38.5 -296.5q0 -190 -61 -355t-193 -275l228 -279l-148 -121l-252 299q-59 -20 -129.5 -32.5t-148.5 -12.5q-188 0 -323.5 63.5t-219.5 170t-124 247.5t-40 295zM317 743 q0 -129 31 -240.5t91.5 -194.5t152.5 -130t215 -47q127 0 220 47t152.5 130t87 194.5t27.5 240.5t-29.5 243t-91 198t-153.5 132t-213 48q-123 0 -215 -48t-152.5 -132t-91.5 -198t-31 -243z" />
<glyph unicode="R" horiz-adv-x="1359" d="M156 0v1505h540q104 0 195.5 -22.5t161 -73.5t110.5 -136t41 -208q0 -82 -32.5 -153.5t-85 -128t-118 -94.5t-134.5 -50q43 -27 81.5 -62.5t83.5 -84.5l342 -402l-145 -123l-387 449q-53 59 -90 95t-70 56.5t-65.5 26.5t-71.5 6h-152v-600h-204zM360 764h289 q70 0 132.5 18.5t109.5 54t75.5 90t28.5 128.5q0 90 -25.5 146t-71.5 88t-109.5 43t-141.5 11h-287v-579z" />
<glyph unicode="S" horiz-adv-x="1318" d="M61 59l56 168q231 -94 487 -94q215 0 316.5 75t101.5 200q0 76 -33 120.5t-88 75.5t-128 47.5t-152 34.5q-86 16 -176.5 40t-162 69t-117.5 116.5t-46 186.5q0 92 33.5 172t105.5 138t186.5 92t280.5 34q147 0 264 -27.5t217 -62.5l-53 -164q-109 41 -213 63.5t-229 22.5 q-190 0 -285.5 -66.5t-95.5 -185.5q0 -68 31.5 -109.5t84 -68.5t122 -43t145.5 -31q90 -16 182 -40.5t169 -72t125 -125t48 -198.5q0 -213 -161 -338t-472 -125q-197 0 -336 32.5t-207 63.5z" />
<glyph unicode="T" horiz-adv-x="1255" d="M41 1339v166h1173v-166h-487v-1339h-205v1339h-481z" />
<glyph unicode="U" horiz-adv-x="1515" d="M150 627v878h204v-831q0 -125 15.5 -225.5t59.5 -170t122 -108.5t205 -39t206.5 38t123.5 107.5t59.5 168t15.5 219.5v841h205v-850q0 -150 -24.5 -276.5t-93 -218.5t-187.5 -144.5t-305 -52.5q-188 0 -306 48t-184.5 134t-91 209t-24.5 273z" />
<glyph unicode="V" horiz-adv-x="1488" d="M25 1481l194 45l397 -1268q23 -74 51.5 -100.5t77.5 -26.5t78 26.5t51 100.5l398 1268l192 -45l-389 -1260q-18 -57 -42.5 -105t-64.5 -83t-93.5 -53.5t-129.5 -18.5t-130 17.5t-92 51t-64.5 82t-44.5 109.5z" />
<glyph unicode="W" horiz-adv-x="1994" d="M94 1489l203 31l129 -1108q10 -86 36.5 -139.5t63.5 -82t81 -40t93 -11.5q121 0 197 70v1296h203v-1296q37 -35 89 -52.5t111 -17.5q47 0 91.5 11.5t80 40t61.5 82t36 139.5l129 1108l203 -31l-136 -1114q-10 -94 -39.5 -169t-82 -126t-128 -79t-182.5 -28 q-203 0 -336 90q-80 -45 -157.5 -67.5t-180.5 -22.5q-211 0 -310 107.5t-120 294.5z" />
<glyph unicode="X" horiz-adv-x="1452" d="M20 78l517 696l-457 649l158 103l385 -555q39 -53 58 -75t46 -22t46.5 22t57.5 75l386 555l157 -105l-450 -645l510 -698l-160 -105l-438 600q-39 55 -59.5 76t-49.5 21t-49.5 -20.5t-59.5 -76.5l-438 -600z" />
<glyph unicode="Y" horiz-adv-x="1386" d="M25 1450l182 76l325 -690q23 -49 42.5 -79t38 -45.5t37 -20.5t42.5 -5q25 0 43.5 5t38 20.5t37.5 47.5t43 81l326 684l182 -74l-297 -606q-31 -63 -59.5 -116.5t-59.5 -93.5t-68.5 -67.5t-86.5 -40.5v-526h-207v524q-49 12 -84 36t-62.5 58.5t-53.5 83t-54 111.5z" />
<glyph unicode="Z" horiz-adv-x="1286" d="M20 156q0 33 14.5 71.5t67.5 100.5l834 1011h-817v166h1098v-127l-938 -1130q-16 -18 -24.5 -29.5t-8.5 -23.5q0 -27 43 -27h932v-168h-1006q-102 0 -148.5 41t-46.5 115z" />
<glyph unicode="[" horiz-adv-x="727" d="M154 -303v1806h534v-153h-338v-1495h338v-158h-534z" />
<glyph unicode="\" horiz-adv-x="966" d="M25 1595h202l717 -1759h-201z" />
<glyph unicode="]" horiz-adv-x="727" d="M41 -145h340v1495h-340v153h532v-1806h-532v158z" />
<glyph unicode="^" horiz-adv-x="1155" d="M106 799l234 524q51 111 100 161t138 50q86 0 135 -49t100 -160l236 -526l-160 -62l-242 541q-14 35 -27.5 51.5t-41.5 16.5q-31 0 -43.5 -16.5t-26.5 -51.5l-240 -541z" />
<glyph unicode="_" horiz-adv-x="1255" d="M104 0h1047v-166h-1047v166z" />
<glyph unicode="`" d="M319 1556l162 111l273 -393l-119 -84z" />
<glyph unicode="a" horiz-adv-x="1134" d="M80 291q0 92 35 156.5t93 106.5t132 60.5t152 18.5h296v51q0 135 -53 188.5t-180 53.5q-84 0 -158.5 -12.5t-169.5 -47.5l-49 146q72 27 169 49t231 22q129 0 208.5 -30.5t123.5 -87t59.5 -136t15.5 -178.5v-448l88 -131l-133 -107l-100 111q-31 -18 -70 -39t-86 -37 t-101.5 -26.5t-115.5 -10.5q-78 0 -148.5 18.5t-124 58.5t-84 101.5t-30.5 149.5zM283 299q0 -51 18 -85t49 -55.5t71 -29.5t85 -8q94 0 161.5 32.5t125.5 69.5v256h-291q-92 0 -155.5 -44t-63.5 -136z" />
<glyph unicode="b" horiz-adv-x="1222" d="M147 14v1491h195v-477q57 27 134 41t157 14q109 0 201 -35.5t158.5 -106.5t103.5 -175t37 -238q0 -127 -37 -231t-109 -179t-176 -115t-242 -40q-86 0 -193.5 9t-228.5 42zM342 145q49 -14 101.5 -18t134.5 -4q70 0 132 22.5t110 70.5t78 124t30 186q0 111 -28 186.5 t-73 121t-105 66t-126 20.5q-70 0 -131.5 -11.5t-122.5 -44.5v-719z" />
<glyph unicode="c" horiz-adv-x="1103" d="M92 514q0 121 36 225.5t105.5 181t173 118.5t238.5 42q125 0 218 -22.5t161 -48.5l-61 -154q-92 35 -163 49.5t-149 14.5q-88 0 -154.5 -31t-111.5 -84t-67.5 -128t-22.5 -163q0 -193 88 -291t256 -98q82 0 164 13.5t172 51.5l57 -151q-80 -33 -178 -54.5t-217 -21.5 q-150 0 -254 40t-168.5 112.5t-93.5 174t-29 224.5z" />
<glyph unicode="d" horiz-adv-x="1236" d="M92 508q0 129 39 235.5t111.5 182t178 116.5t241.5 41q76 0 122.5 -5t100.5 -13v440h194v-1302l90 -133l-133 -105l-104 111q-68 -43 -154 -78t-196 -35q-129 0 -221.5 40t-153 113.5t-88 173t-27.5 218.5zM297 508q0 -109 24.5 -182.5t67.5 -116.5t97.5 -62.5 t111.5 -19.5q104 0 174 36t113 64v670q-49 12 -99.5 19.5t-128.5 7.5q-68 0 -133 -25t-115.5 -75t-81 -127.5t-30.5 -188.5z" />
<glyph unicode="e" horiz-adv-x="1175" d="M92 518q0 115 31 217.5t95.5 179t161.5 122.5t228 46q236 0 351.5 -137t115.5 -391l-94 -92h-684q4 -156 93 -247t251 -91q53 0 94 4t82 12.5t85 21.5t102 30l53 -152q-76 -27 -176.5 -52.5t-243.5 -25.5q-150 0 -253 39t-168.5 112.5t-94.5 176t-29 227.5zM299 621h575 q0 86 -20 144t-57 94t-86 50.5t-105 14.5q-143 0 -220 -83t-87 -220z" />
<glyph unicode="f" horiz-adv-x="776" d="M53 893v154h148v137q0 76 20.5 139t66.5 110.5t118.5 74t175.5 26.5q57 0 111.5 -7t115.5 -26l-35 -145q-51 14 -93 20t-95 6q-61 0 -98 -16t-57.5 -45t-28 -68t-7.5 -84v-122h348v-154h-348v-893h-194v893h-148z" />
<glyph unicode="g" horiz-adv-x="1228" d="M92 522q0 133 41 238.5t110.5 177.5t165 108.5t201.5 36.5q76 0 157 -20.5t151 -61.5l57 97l168 -78l-66 -176v-924q0 -117 -43 -191.5t-112.5 -118.5t-159.5 -62.5t-182 -18.5q-106 0 -205 17.5t-174 43.5l45 160q63 -20 149 -39.5t187 -19.5q49 0 102 7t97 31.5 t73 66.5t29 116v94q-61 -16 -128 -29.5t-145 -13.5q-145 0 -243.5 42t-161 118t-88 178t-25.5 221zM297 522q0 -213 88 -306t229 -93q80 0 144.5 13.5t124.5 39.5v651q-45 39 -113 65t-149 26q-66 0 -124.5 -20.5t-102.5 -68t-70.5 -122t-26.5 -185.5z" />
<glyph unicode="h" horiz-adv-x="1228" d="M141 0v1505h195v-510q82 39 168 63.5t190 24.5q109 0 183.5 -31.5t119.5 -87t64.5 -130t19.5 -154.5v-680h-192v670q0 133 -66.5 190.5t-173.5 57.5q-96 0 -175 -28t-138 -56v-834h-195z" />
<glyph unicode="i" horiz-adv-x="538" d="M76 893v154h315v-1047h-194v893h-121zM150 1382q0 57 33.5 98.5t101.5 41.5q66 0 99.5 -41t33.5 -99q0 -55 -34 -95t-99 -40q-68 0 -101 39q-34 41 -34 96z" />
<glyph unicode="j" horiz-adv-x="522" d="M-262 -422l45 154q41 -14 95 -25.5t122 -11.5q66 0 101.5 16.5t55 46t24.5 69.5t5 85v1135h195v-1170q0 -74 -18.5 -137.5t-59.5 -110.5t-114.5 -73.5t-182.5 -26.5q-59 0 -137 12t-131 37zM147 1382q0 57 34 98.5t102 41.5q66 0 99.5 -41t33.5 -99q0 -55 -34 -95 t-99 -40q-68 0 -101 39q-35 41 -35 96z" />
<glyph unicode="k" horiz-adv-x="1128" d="M147 0v1505h195v-864h68q47 0 74.5 8t54.5 39l350 397l147 -108l-366 -408l460 -477l-139 -123l-422 437q-33 35 -59.5 51t-79.5 16h-88v-473h-195z" />
<glyph unicode="l" horiz-adv-x="516" d="M55 1343v162h316v-1505h-195v1343h-121z" />
<glyph unicode="m" horiz-adv-x="1781" d="M88 1020l166 78l65 -113q61 37 148.5 67.5t177.5 30.5q102 0 175 -26.5t116 -69.5q78 37 168 66.5t184 29.5q109 0 178.5 -31.5t108.5 -88t53 -131t14 -156.5v-676h-194v666q0 137 -47 194.5t-156 57.5q-74 0 -142.5 -19.5t-117.5 -44.5q6 -25 11 -74t5 -106v-674h-194 v666q0 70 -7 117.5t-29.5 77.5t-61.5 43.5t-99 13.5q-90 0 -152.5 -24t-111.5 -50v-844h-194v844z" />
<glyph unicode="n" horiz-adv-x="1222" d="M88 1020l166 78l65 -113q88 43 179.5 70.5t201.5 27.5q111 0 184.5 -31.5t118 -87t62.5 -130t18 -154.5v-680h-192v668q0 133 -63.5 191.5t-170.5 58.5q-96 0 -172.5 -28t-138.5 -56v-834h-194v844z" />
<glyph unicode="o" horiz-adv-x="1232" d="M92 522q0 119 32 222.5t98.5 179t165.5 117.5t230 42q135 0 234.5 -42t163 -117.5t95.5 -178t32 -221.5t-30 -222t-93.5 -179t-163.5 -118t-240 -42q-143 0 -243.5 42t-163.5 118q-61 76 -89 178t-28 221zM291 522q0 -197 85 -298t242 -101q156 0 240 101.5t84 297.5 q0 199 -85 300.5t-239 101.5q-160 0 -243.5 -101.5t-83.5 -300.5z" />
<glyph unicode="p" horiz-adv-x="1230" d="M88 1020l166 78l65 -113q72 37 156 67.5t191 30.5q102 0 190 -35.5t150.5 -106.5t98.5 -175t36 -240q0 -125 -34 -229t-101.5 -179t-170 -115t-239.5 -40q-55 0 -119.5 8.5t-130.5 24.5v-451h-194v1299zM346 168q31 -12 57.5 -20.5t56 -13.5t64.5 -8t82 -3q63 0 124 22.5 t106 70.5t72.5 124t27.5 186q0 109 -25.5 184.5t-66.5 121t-99.5 66t-126.5 20.5q-76 0 -137 -24t-135 -63v-663z" />
<glyph unicode="q" horiz-adv-x="1220" d="M92 518q0 133 43 238.5t119 179.5t182.5 110.5t233.5 36.5q104 0 200.5 -13t202.5 -42v-1483h-194v459q-63 -18 -136 -29.5t-133 -11.5q-135 0 -233 39t-161.5 111.5t-93.5 175t-30 229.5zM297 518q0 -111 23.5 -186.5t66.5 -121.5t100.5 -66.5t126.5 -20.5 q84 0 145.5 14.5t119.5 38.5v721q-47 12 -109.5 17.5t-101.5 5.5q-70 0 -137.5 -23t-119 -71t-83 -123.5t-31.5 -184.5z" />
<glyph unicode="r" horiz-adv-x="825" d="M76 893v154h264l25 -107q23 16 55.5 37.5t74.5 40t93 31t106 12.5q37 0 60.5 -3t52.5 -11l-35 -173q-18 4 -40.5 9.5t-69.5 5.5q-37 0 -77 -10.5t-76 -24.5t-66.5 -33.5t-51.5 -42.5v-778h-194v893h-121z" />
<glyph unicode="s" horiz-adv-x="999" d="M63 29l43 161q8 -4 44 -14t86.5 -22.5t112 -21.5t122.5 -9q131 0 191.5 46t60.5 122q0 41 -16.5 68.5t-51 45t-85 29.5t-115.5 25q-49 8 -111.5 23.5t-118 47t-93.5 86t-38 146.5q0 70 24.5 128t78 102t136.5 67.5t195 23.5q125 0 225.5 -24.5t149.5 -46.5l-59 -148 q-74 27 -152 45.5t-176 18.5q-123 0 -175 -40t-52 -108q0 -45 23.5 -72.5t64.5 -46t92 -28.5t109 -19q61 -10 122.5 -28.5t111.5 -51t81 -88t31 -143.5q0 -158 -114 -249t-347 -91q-72 0 -140.5 9.5t-124 20.5t-91.5 21.5t-44 14.5z" />
<glyph unicode="t" horiz-adv-x="829" d="M59 893v154h148v311h192v-311h351v-154h-351v-543q0 -125 46.5 -173t140.5 -48q53 0 99 7t97 24l39 -150q-72 -18 -133 -27.5t-141 -9.5q-74 0 -137.5 16.5t-108.5 56.5t-69.5 102.5t-24.5 156.5v588h-148z" />
<glyph unicode="u" horiz-adv-x="1218" d="M135 369v678h195v-668q0 -137 62.5 -193.5t168.5 -56.5q96 0 174 30.5t131 65.5v822h195v-846l90 -129l-135 -107l-105 109q-76 -49 -174 -80t-202 -31q-115 0 -192 32t-123 87t-65.5 130t-19.5 157z" />
<glyph unicode="v" horiz-adv-x="1208" d="M31 1018l184 45l289 -825q23 -63 45 -87t57 -24q31 0 54.5 23.5t46.5 85.5l288 827l183 -45l-285 -815q-23 -59 -46.5 -103.5t-57 -75t-79.5 -46t-108 -15.5q-63 0 -108 15.5t-77 47t-55.5 75.5t-44.5 104z" />
<glyph unicode="w" horiz-adv-x="1650" d="M90 1024l197 23l82 -768q6 -53 25.5 -83t48 -46.5t59 -21.5t59.5 -5q45 0 90 11t84 42v871h185v-871q39 -31 84 -42t88 -11q29 0 59.5 5t59 21.5t49 46t26.5 80.5l82 771l195 -23l-86 -772q-6 -61 -29 -113.5t-65 -92.5t-103 -61.5t-147 -21.5q-90 0 -162 21.5t-144 56.5 q-72 -35 -144.5 -56.5t-162.5 -21.5q-88 0 -150.5 21.5t-103.5 61.5t-62.5 92t-27.5 114z" />
<glyph unicode="x" horiz-adv-x="1118" d="M10 72l377 454l-330 441l140 106l297 -401q25 -33 37 -41t28 -8q18 0 30.5 8t37.5 41l297 401l139 -106l-330 -441l377 -454l-143 -107l-338 410q-27 31 -39 40t-31 9q-16 0 -28.5 -9t-38.5 -40l-340 -410z" />
<glyph unicode="y" horiz-adv-x="1157" d="M35 1026l188 45l197 -760q12 -45 25.5 -79.5t36 -58t54 -35t80.5 -11.5q33 0 82 6l246 938l178 -45l-309 -1188q-23 -90 -63.5 -150.5t-94 -94t-118 -49t-140.5 -15.5q-61 0 -136 11t-134 30l33 154q66 -16 122 -25.5t119 -9.5q84 0 139.5 33.5t82.5 123.5l32 125 q-49 -6 -92 -6q-76 0 -130 18.5t-92 57.5t-64.5 96.5t-45.5 132.5z" />
<glyph unicode="z" horiz-adv-x="1058" d="M57 160q0 43 18.5 77.5t49.5 63.5l600 584h-616v162h872v-156l-678 -662q-12 -12 -18 -20t-6 -19q0 -27 43 -26h677v-164h-751q-100 0 -145.5 47t-45.5 113z" />
<glyph unicode="{" horiz-adv-x="878" d="M100 555v156h201v551q0 63 11.5 109t40 76t74.5 44t116 14h295v-153h-260q-45 0 -67 -16.5t-22 -63.5v-1342q0 -45 21.5 -61t67.5 -16h260v-156h-295q-70 0 -116 14.5t-74.5 45t-40 76.5t-11.5 108v614h-201z" />
<glyph unicode="|" horiz-adv-x="514" d="M162 -475v2128h192v-2128h-192z" />
<glyph unicode="}" horiz-adv-x="878" d="M41 -147h262q43 0 65.5 16t22.5 61v1342q0 47 -22.5 63.5t-65.5 16.5h-262v153h293q141 0 193.5 -60.5t52.5 -182.5v-551h196v-156h-196v-614q0 -123 -52.5 -183.5t-193.5 -60.5h-293v156z" />
<glyph unicode="~" horiz-adv-x="1323" d="M133 735q23 27 59.5 57.5t80.5 55t90.5 42t89.5 17.5q55 0 104 -16.5t98.5 -33.5t98.5 -32.5t102 -15.5q66 0 121 37t94 74l109 -125q-23 -31 -61 -59.5t-81 -53.5t-89 -40t-91 -15q-53 0 -103 14t-99.5 32.5t-99.5 33t-103 14.5q-63 0 -116.5 -37t-94.5 -70z" />
<glyph unicode="&#xa1;" horiz-adv-x="557" d="M104 940q0 63 34 103t104 40q72 0 105.5 -39.5t33.5 -103.5q0 -63 -34 -103t-105 -40q-70 0 -105 39q-33 41 -33 104zM123 -457l37 1078h162l34 -1078h-233z" />
<glyph unicode="&#xa2;" horiz-adv-x="1189" d="M168 666q0 111 28.5 206t85 169.5t141.5 122.5t198 63v237h178v-231q98 -8 170.5 -28.5t130.5 -43.5l-62 -147q-47 16 -83.5 27.5t-73.5 17.5t-74 8t-80 2q-88 0 -154.5 -29.5t-111.5 -83t-67.5 -128t-22.5 -162.5q0 -190 87 -288.5t257 -98.5q82 0 164 13t172 50 l57 -149q-66 -27 -142.5 -47.5t-166.5 -28.5v-244h-178v246q-125 12 -211 56t-140.5 115.5t-78 167t-23.5 208.5z" />
<glyph unicode="&#xa3;" horiz-adv-x="1255" d="M88 645v170h258l84 297q25 94 61.5 167t92 123t133.5 76.5t186 26.5q100 0 198.5 -26.5t174.5 -65.5l-72 -151q-55 29 -131 51t-162 22q-41 0 -79.5 -5t-75.5 -26.5t-68 -62.5t-49 -111l-90 -315h463v-170h-508l-103 -362l-8 -36t-4 -32q0 -47 62 -47h723v-168h-830 q-51 0 -85 10t-53.5 29.5t-27.5 43t-8 52.5q0 41 11.5 84t21.5 84l96 342h-211z" />
<glyph unicode="&#xa4;" horiz-adv-x="1527" d="M63 170l314 317q-47 59 -69.5 124t-22.5 149q0 80 21.5 142.5t64.5 121.5l-308 311l136 125l299 -305q57 39 125.5 61.5t142.5 22.5t140.5 -21.5t125.5 -60.5l297 303l137 -125l-303 -307q43 -61 64.5 -124.5t21.5 -143.5q0 -86 -22.5 -150.5t-71.5 -124.5l311 -315 l-131 -121l-307 311q-117 -76 -262 -75q-72 0 -139.5 20.5t-122.5 56.5l-311 -313zM463 760q0 -61 24.5 -116.5t65.5 -96.5t94 -66q57 -25 119 -24q63 0 118.5 24.5t96.5 65.5t64.5 96t23.5 117q0 63 -23.5 118.5t-64.5 96.5t-96.5 64.5t-118.5 23.5q-61 0 -116.5 -23.5 t-96.5 -64.5t-65.5 -96.5t-24.5 -118.5z" />
<glyph unicode="&#xa5;" horiz-adv-x="1378" d="M74 1450l180 76l272 -578q23 -49 42.5 -78.5t38 -45t38 -20.5t43.5 -5q25 0 43.5 5t37.5 20.5t38.5 47t44.5 80.5l272 572l183 -74l-244 -496q-23 -47 -48.5 -93t-53.5 -70h204v-152h-379v-174h379v-150h-379v-315h-206v315h-365v150h365v174h-365v152h191 q-23 25 -43.5 58.5t-38.5 74.5z" />
<glyph unicode="&#xa6;" horiz-adv-x="514" d="M162 410h192v-885h-192v885zM162 895v758h192v-758h-192z" />
<glyph unicode="&#xa7;" horiz-adv-x="1263" d="M139 610q0 82 41 158t137 154q-49 37 -81.5 93t-32.5 136q0 86 38 151.5t101.5 111.5t150.5 68.5t183 22.5q135 0 236.5 -24.5t148.5 -46.5l-57 -148q-74 27 -153 45.5t-177 18.5q-51 0 -101.5 -9.5t-90.5 -33t-64.5 -59.5t-24.5 -91q0 -53 26.5 -86t72 -54.5 t104.5 -36.5t125 -30q86 -20 161.5 -42.5t132 -56.5t90.5 -86t34 -132q0 -86 -38 -167t-134 -159q45 -37 74.5 -90t29.5 -131q0 -86 -41 -152.5t-109.5 -112.5t-158.5 -70.5t-189 -24.5q-164 0 -268 28.5t-153 50.5l59 148q74 -27 157 -48.5t210 -21.5q51 0 105 10.5t98 34 t72 59.5t28 91q0 47 -27 79.5t-72 54t-104.5 37t-124.5 30.5q-82 18 -158 39.5t-132 57.5t-90 92t-34 142zM319 621q0 -43 20.5 -72t62.5 -49.5t104.5 -37t148.5 -32.5q37 -8 80 -16t86 -23q80 53 105.5 107.5t25.5 115.5q0 41 -20.5 71t-61.5 50.5t-104.5 38t-147.5 33.5 q-78 12 -153 37q-76 -51 -113 -107q-33 -53 -33 -116z" />
<glyph unicode="&#xa8;" d="M152 1397q0 57 32.5 97t100.5 40q63 0 96 -40t33 -97q0 -53 -33 -93t-96 -40q-68 0 -101 39q-32 41 -32 94zM625 1397q0 57 32.5 97t98.5 40t97.5 -40t31.5 -97q0 -53 -32 -93t-97 -40q-66 0 -101 39q-30 41 -30 94z" />
<glyph unicode="&#xa9;" horiz-adv-x="1802" d="M145 752q0 158 54.5 294t154 237t239.5 160.5t312 59.5q170 0 310.5 -59.5t237.5 -160.5t150.5 -237.5t53.5 -293.5q0 -156 -54.5 -293t-153.5 -238.5t-239.5 -161t-310.5 -59.5q-176 0 -316.5 59.5t-238.5 159.5q-96 102 -147.5 239.5t-51.5 293.5zM295 752 q0 -127 42 -240t120 -197t190 -133q115 -49 258 -49t256 49t192 133t118.5 197t39.5 240t-39.5 240.5t-118.5 196.5t-191.5 131t-256.5 48q-143 0 -256.5 -48t-191.5 -131t-120 -196.5t-42 -240.5zM487 754q0 94 28 176t82 141t136 92t187 33q98 0 167.5 -19.5t124.5 -41.5 l-51 -131q-70 25 -120 35t-117 10q-131 0 -194.5 -79t-63.5 -216q0 -139 58 -211t189 -72q63 0 128 11.5t130 39.5l46 -133q-61 -25 -136 -44t-168 -19q-117 0 -197.5 31.5t-132 88t-74 134.5t-22.5 174z" />
<glyph unicode="&#xaa;" horiz-adv-x="1058" d="M168 817q0 66 24.5 112t67.5 74.5t96.5 40t108.5 11.5h182v26q0 80 -31.5 113t-105.5 33q-59 0 -111.5 -10.5t-122.5 -34.5l-49 131q59 23 139 40t166 17q90 0 146.5 -21.5t88.5 -62.5t43 -97t11 -128v-299l72 -98l-125 -91l-68 82q-41 -23 -104.5 -49t-146.5 -26 q-55 0 -106.5 13t-90.5 41t-61.5 74t-22.5 109zM342 823q0 -57 39 -80.5t96 -23.5q55 0 96 17.5t76 39.5v150h-176q-57 0 -94 -25t-37 -78z" />
<glyph unicode="&#xab;" horiz-adv-x="1366" d="M653 571q0 72 48.5 124.5t121.5 105.5l289 205l94 -136l-278 -198q-47 -33 -64.5 -48.5t-17.5 -37.5q0 -31 20.5 -46.5t67.5 -50.5l280 -198l-96 -131l-313 209q-74 47 -113 89.5t-39 112.5zM141 571q0 72 48.5 124.5t121.5 105.5l289 205l94 -136l-278 -198 q-47 -33 -64.5 -48.5t-17.5 -37.5q0 -31 20.5 -46.5t67.5 -50.5l280 -198l-96 -131l-313 209q-74 47 -113 89.5t-39 112.5z" />
<glyph unicode="&#xac;" horiz-adv-x="1482" d="M254 627v168h973v-435h-174v267h-799z" />
<glyph unicode="&#xad;" horiz-adv-x="980" d="M166 563v187h653v-187h-653z" />
<glyph unicode="&#xae;" horiz-adv-x="1282" d="M117 987q0 106 36.5 201.5t104.5 167t165 112.5t218 41q125 0 223.5 -39.5t166 -110.5t101 -164t33.5 -200q0 -106 -39 -200.5t-108.5 -164t-165.5 -109.5t-211 -40q-117 0 -213 39t-164.5 107.5t-109.5 160.5q-37 93 -37 199zM248 987q0 -78 26.5 -149.5t76.5 -125 t124 -83.5q72 -29 166 -29q100 0 175 31t123 85t72.5 126.5t24.5 152.5t-24.5 153t-72.5 127t-123 86t-175 32t-174 -33t-122 -88t-72.5 -129t-24.5 -156zM459 745v523h196q76 0 130.5 -34t54.5 -116q0 -55 -26 -92t-73 -59l156 -170l-90 -68l-154 176q-16 20 -26.5 27.5 t-26.5 7.5h-22v-195h-119zM578 1038h55q41 0 65.5 14.5t24.5 55.5q0 39 -24.5 51t-65.5 12h-55v-133z" />
<glyph unicode="&#xaf;" d="M195 1284v170h653v-170h-653z" />
<glyph unicode="&#xb0;" horiz-adv-x="747" d="M104 1239q0 55 19.5 104.5t55.5 86t85 57t111 20.5q57 0 107 -20.5t86 -57t55.5 -86t19.5 -104.5q0 -57 -19.5 -106.5t-55.5 -85t-86 -57t-107 -21.5q-63 0 -113.5 21.5t-85.5 56.5q-35 37 -53.5 86t-18.5 106zM242 1239q0 -57 36.5 -97t96.5 -40q57 0 94 40t37 97 q0 55 -38 96t-93 41q-57 0 -95 -41t-38 -96z" />
<glyph unicode="&#xb1;" horiz-adv-x="1398" d="M193 0v168h1013v-168h-1013zM193 668v168h417v364h176v-364h420v-168h-420v-365h-176v365h-417z" />
<glyph unicode="&#xb2;" d="M182 715q0 29 17.5 60.5t50.5 60.5q68 59 144.5 113.5t142.5 109.5q61 51 100 96t39 100q0 61 -49 86t-111 25q-68 0 -119 -24.5t-108 -55.5l-68 115q55 35 133 68.5t176 33.5q143 0 226.5 -67.5t83.5 -173.5q0 -88 -44 -159t-128 -134l-293 -221q-10 -6 -10 -9 q0 -4 8 -4h485v-141h-547q-59 0 -94 32t-35 89z" />
<glyph unicode="&#xb3;" d="M186 635l41 139q74 -29 131.5 -43t130.5 -14q37 0 74 8t64.5 26.5t45 47t17.5 67.5q0 25 -8 49.5t-29.5 44t-59.5 33t-97 13.5h-97v100l242 227q4 4 4 8q0 6 -8 7h-397v139h454q70 0 99.5 -30t29.5 -77q0 -27 -20.5 -60.5t-44.5 -59.5l-148 -136q76 -8 122 -36.5 t75 -66.5t39 -79t10 -76q0 -61 -22.5 -114.5t-68.5 -92t-114.5 -62.5t-158.5 -24q-119 0 -191 22t-115 40z" />
<glyph unicode="&#xb4;" d="M334 1274l274 393l156 -111l-315 -366z" />
<glyph unicode="&#xb5;" horiz-adv-x="1224" d="M156 -455v1502h194v-668q0 -68 19.5 -116t53.5 -77.5t79 -43t100 -13.5q96 0 164 30.5t123 65.5v822h192v-846l93 -133l-138 -103l-104 109q-76 -49 -153 -80t-185 -31q-68 0 -134.5 19.5t-113.5 66.5v-504h-190z" />
<glyph unicode="&#xb6;" horiz-adv-x="1218" d="M94 1026q0 145 55.5 238.5t137.5 146.5t172 73.5t162 20.5h516v-164h-168v-1232q0 -242 -117 -370t-358 -128q-94 0 -165 15.5t-106 31.5l49 162q41 -12 105.5 -24.5t120.5 -12.5q133 0 199.5 72.5t66.5 261.5v1224h-154v-774q-252 0 -384 107.5t-132 351.5z" />
<glyph unicode="&#xb7;" horiz-adv-x="731" d="M225 775q0 63 34 103t107 40q70 0 103.5 -40t33.5 -103t-33.5 -103.5t-103.5 -40.5q-74 0 -106 39q-35 42 -35 105z" />
<glyph unicode="&#xb8;" d="M264 -434l58 129q33 -16 78.5 -33.5t99.5 -17.5q45 0 69.5 19.5t24.5 51.5q0 31 -17.5 48.5t-45 26.5t-64.5 13t-76 4l53 213h168l-30 -124q37 -4 71.5 -16.5t61 -34t43 -53.5t16.5 -79q0 -94 -65.5 -154.5t-196.5 -60.5q-66 0 -136.5 19.5t-111.5 48.5z" />
<glyph unicode="&#xb9;" d="M199 1311l215 151q27 18 58.5 29.5t59.5 11.5q45 0 73 -25.5t28 -88.5v-654h209v-141h-586v141h221v584q0 8 -4 8q-6 0 -14 -6l-168 -123z" />
<glyph unicode="&#xba;" horiz-adv-x="1075" d="M168 973q0 86 22.5 158.5t68.5 126t115.5 83t164.5 29.5q94 0 163.5 -28.5t115.5 -82t68.5 -126t22.5 -158.5q0 -84 -21.5 -157t-65.5 -126t-114.5 -82.5t-170.5 -29.5t-170 29.5t-115 82.5q-43 51 -63.5 124t-20.5 157zM344 973q0 -123 48 -186.5t147 -63.5 q98 0 146 63.5t48 186.5q0 125 -48 188.5t-146 63.5t-146.5 -63.5t-48.5 -188.5z" />
<glyph unicode="&#xbb;" horiz-adv-x="1366" d="M152 872l96 134l313 -209q74 -49 113 -92t39 -113q0 -72 -48.5 -124t-121.5 -106l-289 -202l-92 133l276 199q49 33 65.5 48t16.5 40q0 29 -19.5 44t-68.5 50zM664 872l96 134l313 -209q74 -49 113 -92t39 -113q0 -72 -48.5 -124t-121.5 -106l-289 -202l-92 133l276 199 q49 33 65.5 48t16.5 40q0 29 -19.5 44t-68.5 50z" />
<glyph unicode="&#xbc;" horiz-adv-x="2088" d="M99 1311l215 151q27 18 58.5 29.5t59.5 11.5q45 0 73 -25.5t28 -88.5v-654h209v-141h-586v141h221v584q0 8 -4 8q-6 0 -14 -6l-168 -123zM532 0l918 1505h186l-917 -1505h-187zM1235 346q0 41 18.5 75t51.5 68l397 404h140v-541h147v-141h-147v-211h-156v211h-291 q-78 0 -119 37t-41 98zM1387 369q0 -16 22 -17h277v326l-287 -289q-12 -12 -12 -20z" />
<glyph unicode="&#xbd;" horiz-adv-x="2088" d="M93 1311l215 151q27 18 58.5 29.5t59.5 11.5q45 0 73 -25.5t28 -88.5v-654h209v-141h-586v141h221v584q0 8 -4 8q-6 0 -14 -6l-168 -123zM520 0l918 1505h186l-917 -1505h-187zM1317 121q0 29 17.5 60.5t50.5 60.5q68 59 144.5 113.5t142.5 109.5q61 51 100 96t39 100 q0 61 -49 86t-111 25q-68 0 -119 -24.5t-108 -55.5l-68 115q55 35 133 68.5t176 33.5q143 0 226.5 -67.5t83.5 -173.5q0 -88 -44 -159t-128 -134l-293 -221q-10 -6 -10 -9q0 -4 8 -4h485v-141h-547q-59 0 -94 32t-35 89z" />
<glyph unicode="&#xbe;" horiz-adv-x="2088" d="M94 635l41 139q74 -29 131.5 -43t130.5 -14q37 0 74 8t64.5 26.5t45 47t17.5 67.5q0 25 -8 49.5t-29.5 44t-59.5 33t-97 13.5h-97v100l242 227q4 4 4 8q0 6 -8 7h-397v139h454q70 0 99.5 -30t29.5 -77q0 -27 -20.5 -60.5t-44.5 -59.5l-148 -136q76 -8 122 -36.5t75 -66.5 t39 -79t10 -76q0 -61 -22.5 -114.5t-68.5 -92t-114.5 -62.5t-158.5 -24q-119 0 -191 22t-115 40zM514 0l918 1505h186l-917 -1505h-187zM1243 346q0 41 18.5 75t51.5 68l397 404h140v-541h147v-141h-147v-211h-156v211h-291q-78 0 -119 37t-41 98zM1395 369q0 -16 22 -17 h277v326l-287 -289q-12 -12 -12 -20z" />
<glyph unicode="&#xbf;" horiz-adv-x="1224" d="M170 -106q0 121 58.5 204.5t152.5 151.5l115 84q39 29 66.5 51.5t44 44t23.5 46t7 59.5v86h192v-109q0 -51 -11 -87t-32.5 -65.5t-48 -54t-61.5 -51.5l-150 -117q-74 -55 -109.5 -109.5t-35.5 -115.5q0 -109 79 -166t240 -57q119 0 221.5 37.5t196.5 95.5l86 -146 q-43 -31 -102.5 -60.5t-128 -51t-143 -34.5t-144.5 -13q-135 0 -232.5 30.5t-161 82t-93 119t-29.5 145.5zM592 940q0 63 32.5 103t104.5 40q74 0 106.5 -39.5t32.5 -103.5q0 -63 -32.5 -103t-106.5 -40q-72 0 -104 39q-33 41 -33 104z" />
<glyph unicode="&#xc0;" horiz-adv-x="1488" d="M25 25l393 1245q18 61 43.5 109t63.5 82t91.5 53.5t128.5 19.5q76 0 129.5 -19.5t92.5 -52t64.5 -82t43.5 -108.5l389 -1247l-196 -45l-160 505h-731l-160 -505zM428 655h627l-183 582q-23 74 -51 99.5t-78 25.5q-49 0 -78.5 -25.5t-52.5 -99.5zM481 1884l137 125 l314 -326l-105 -90z" />
<glyph unicode="&#xc1;" horiz-adv-x="1488" d="M25 25l393 1245q18 61 43.5 109t63.5 82t91.5 53.5t128.5 19.5q76 0 129.5 -19.5t92.5 -52t64.5 -82t43.5 -108.5l389 -1247l-196 -45l-160 505h-731l-160 -505zM428 655h627l-183 582q-23 74 -51 99.5t-78 25.5q-49 0 -78.5 -25.5t-52.5 -99.5zM569 1683l313 326 l140 -125l-347 -291z" />
<glyph unicode="&#xc2;" horiz-adv-x="1488" d="M25 25l393 1245q18 61 43.5 109t63.5 82t91.5 53.5t128.5 19.5q76 0 129.5 -19.5t92.5 -52t64.5 -82t43.5 -108.5l389 -1247l-196 -45l-160 505h-731l-160 -505zM428 655h627l-183 582q-23 74 -51 99.5t-78 25.5q-49 0 -78.5 -25.5t-52.5 -99.5zM436 1688l233 241h162 l225 -239l-108 -93l-201 175l-205 -175z" />
<glyph unicode="&#xc3;" horiz-adv-x="1488" d="M25 25l393 1245q18 61 43.5 109t63.5 82t91.5 53.5t128.5 19.5q76 0 129.5 -19.5t92.5 -52t64.5 -82t43.5 -108.5l389 -1247l-196 -45l-160 505h-731l-160 -505zM428 655h627l-183 582q-23 74 -51 99.5t-78 25.5q-49 0 -78.5 -25.5t-52.5 -99.5zM354 1634q0 123 43 198 t145 77q55 0 109.5 -19.5t109.5 -42.5l56 -22q41 -16 70.5 -25.5t48.5 -9.5q35 0 48 25.5t13 93.5h150q0 -125 -44.5 -200t-148.5 -75q-43 0 -102.5 20.5t-100.5 37.5l-71 24q-39 16 -69 26.5t-46 10.5q-35 0 -49.5 -25.5t-14.5 -93.5h-147z" />
<glyph unicode="&#xc4;" horiz-adv-x="1488" d="M25 25l393 1245q18 61 43.5 109t63.5 82t91.5 53.5t128.5 19.5q76 0 129.5 -19.5t92.5 -52t64.5 -82t43.5 -108.5l389 -1247l-196 -45l-160 505h-731l-160 -505zM428 655h627l-183 582q-23 74 -51 99.5t-78 25.5q-49 0 -78.5 -25.5t-52.5 -99.5zM377 1761q0 55 32.5 95 t100.5 40q63 0 96 -39.5t33 -95.5q0 -55 -33 -95t-96 -40q-68 0 -101 39q-32 41 -32 96zM850 1761q0 55 32.5 95t98.5 40t98.5 -39.5t32.5 -95.5q0 -55 -33 -95t-98 -40q-66 0 -101 39q-30 41 -30 96z" />
<glyph unicode="&#xc5;" horiz-adv-x="1488" d="M25 25l393 1245q18 61 43.5 109t63.5 82t91.5 53.5t128.5 19.5q76 0 129.5 -19.5t92.5 -52t64.5 -82t43.5 -108.5l389 -1247l-196 -45l-160 505h-731l-160 -505zM428 655h627l-183 582q-23 74 -51 99.5t-78 25.5q-49 0 -78.5 -25.5t-52.5 -99.5zM481 1858q0 55 21.5 104 t58.5 86t85 57.5t105 20.5t105.5 -20.5t85.5 -57.5t58.5 -86t21.5 -104q0 -57 -21.5 -106.5t-58.5 -85.5t-85 -57.5t-106 -21.5q-57 0 -105 21.5t-85 57.5t-58 85q-22 50 -22 107zM616 1858q0 -57 38 -98.5t97 -41.5t97 41t38 99q0 55 -38.5 95t-96.5 40q-57 0 -96 -40 t-39 -95z" />
<glyph unicode="&#xc6;" horiz-adv-x="2119" d="M37 45l571 1196q27 55 60.5 104.5t80 85t108 55t144.5 19.5h1024v-168h-833v-501h647v-170h-647v-496h852v-170h-1055v666h-438l-334 -686zM623 836h366v501q-76 -2 -115.5 -30.5t-70.5 -94.5z" />
<glyph unicode="&#xc7;" horiz-adv-x="1431" d="M100 750q0 170 48.5 313t143.5 248.5t236.5 164t329.5 58.5q164 0 281.5 -29.5t212.5 -66.5l-62 -160q-66 25 -121 42t-105 26.5t-98 13.5t-102 4q-266 0 -406.5 -161t-140.5 -453q0 -311 134.5 -466t396.5 -155q72 0 129 6t109.5 18.5t105.5 31t117 42.5l55 -151 q-113 -51 -227.5 -80t-253.5 -33l-15 -67q39 -4 73 -16.5t60.5 -34t43 -53.5t16.5 -79q0 -94 -64.5 -154.5t-197.5 -60.5q-66 0 -136.5 19.5t-113.5 48.5l61 129q31 -16 77 -33.5t99 -17.5q45 0 70 19.5t25 51.5q0 31 -16.5 48.5t-44 26.5t-65.5 13t-79 4l43 162 q-174 16 -292 82t-190.5 169.5t-104.5 238.5t-32 291z" />
<glyph unicode="&#xc8;" horiz-adv-x="1286" d="M156 0v1505h1036v-168h-834v-467h648v-168h-648v-532h852v-170h-1054zM401 1884l137 125l314 -326l-105 -90z" />
<glyph unicode="&#xc9;" horiz-adv-x="1286" d="M156 0v1505h1036v-168h-834v-467h648v-168h-648v-532h852v-170h-1054zM524 1683l313 326l140 -125l-347 -291z" />
<glyph unicode="&#xca;" horiz-adv-x="1286" d="M156 0v1505h1036v-168h-834v-467h648v-168h-648v-532h852v-170h-1054zM385 1688l233 241h162l225 -239l-108 -93l-201 175l-205 -175z" />
<glyph unicode="&#xcb;" horiz-adv-x="1286" d="M156 0v1505h1036v-168h-834v-467h648v-168h-648v-532h852v-170h-1054zM326 1761q0 55 32.5 95t100.5 40q63 0 96 -39.5t33 -95.5q0 -55 -33 -95t-96 -40q-68 0 -101 39q-32 41 -32 96zM799 1761q0 55 32.5 95t98.5 40t98.5 -39.5t32.5 -95.5q0 -55 -33 -95t-98 -40 q-66 0 -101 39q-30 41 -30 96z" />
<glyph unicode="&#xcc;" horiz-adv-x="526" d="M162 0v1505h203v-1505h-203zM10 1884l137 125l314 -326l-105 -90z" />
<glyph unicode="&#xcd;" horiz-adv-x="526" d="M162 0v1505h203v-1505h-203zM90 1683l313 326l140 -125l-347 -291z" />
<glyph unicode="&#xce;" horiz-adv-x="526" d="M162 0v1505h203v-1505h-203zM-33 1688l233 241h162l225 -239l-108 -93l-201 175l-205 -175z" />
<glyph unicode="&#xcf;" horiz-adv-x="526" d="M162 0v1505h203v-1505h-203zM-94 1761q0 55 32.5 95t100.5 40q63 0 96 -39.5t33 -95.5q0 -55 -33 -95t-96 -40q-68 0 -101 39q-32 41 -32 96zM379 1761q0 55 32.5 95t98.5 40t98.5 -39.5t32.5 -95.5q0 -55 -33 -95t-98 -40q-66 0 -101 39q-30 41 -30 96z" />
<glyph unicode="&#xd0;" horiz-adv-x="1617" d="M53 666v170h156v669h579q176 0 312.5 -54t229.5 -152.5t141.5 -235.5t48.5 -305q0 -164 -43 -303.5t-133.5 -240.5t-228.5 -157.5t-327 -56.5h-579v666h-156zM414 168h356q254 0 393.5 136t139.5 444q0 307 -139.5 449t-393.5 142h-356v-503h417v-170h-417v-498z" />
<glyph unicode="&#xd1;" horiz-adv-x="1550" d="M156 0v1505h227l754 -1274q10 -16 17 -27t20 -11q16 0 20 14t4 47v1251h197v-1249q0 -78 -16.5 -130t-44 -84t-64.5 -45t-76 -13q-47 0 -82 12t-61.5 37.5t-51 60.5t-51.5 80l-594 1006v-1180h-198zM438 1634q0 123 43 198t145 77q55 0 109.5 -19.5t109.5 -42.5l56 -22 q41 -16 70.5 -25.5t48.5 -9.5q35 0 48 25.5t13 93.5h150q0 -125 -44.5 -200t-148.5 -75q-43 0 -102.5 20.5t-100.5 37.5l-71 24q-39 16 -69 26.5t-46 10.5q-35 0 -49.5 -25.5t-14.5 -93.5h-147z" />
<glyph unicode="&#xd2;" horiz-adv-x="1611" d="M100 748q0 156 42 297t127 249.5t219.5 174t318.5 65.5q188 0 322.5 -65.5t219.5 -174t123.5 -250t38.5 -296.5q0 -154 -40.5 -296.5t-127 -251t-220.5 -173t-316 -64.5q-188 0 -323.5 64.5t-219.5 173.5t-124 251t-40 296zM317 748q0 -129 31 -242t91.5 -196t152.5 -130 q92 -49 215 -49t215 48t152.5 131t90 195.5t29.5 242.5q0 129 -29.5 242.5t-90 195.5t-152.5 130t-215 48t-215 -48t-152.5 -130t-91.5 -195.5t-31 -242.5zM490 1884l137 125l314 -326l-105 -90z" />
<glyph unicode="&#xd3;" horiz-adv-x="1611" d="M100 748q0 156 42 297t127 249.5t219.5 174t318.5 65.5q188 0 322.5 -65.5t219.5 -174t123.5 -250t38.5 -296.5q0 -154 -40.5 -296.5t-127 -251t-220.5 -173t-316 -64.5q-188 0 -323.5 64.5t-219.5 173.5t-124 251t-40 296zM317 748q0 -129 31 -242t91.5 -196t152.5 -130 q92 -49 215 -49t215 48t152.5 131t90 195.5t29.5 242.5q0 129 -29.5 242.5t-90 195.5t-152.5 130t-215 48t-215 -48t-152.5 -130t-91.5 -195.5t-31 -242.5zM623 1683l313 326l140 -125l-347 -291z" />
<glyph unicode="&#xd4;" horiz-adv-x="1611" d="M100 748q0 156 42 297t127 249.5t219.5 174t318.5 65.5q188 0 322.5 -65.5t219.5 -174t123.5 -250t38.5 -296.5q0 -154 -40.5 -296.5t-127 -251t-220.5 -173t-316 -64.5q-188 0 -323.5 64.5t-219.5 173.5t-124 251t-40 296zM317 748q0 -129 31 -242t91.5 -196t152.5 -130 q92 -49 215 -49t215 48t152.5 131t90 195.5t29.5 242.5q0 129 -29.5 242.5t-90 195.5t-152.5 130t-215 48t-215 -48t-152.5 -130t-91.5 -195.5t-31 -242.5zM506 1688l233 241h162l225 -239l-108 -93l-201 175l-205 -175z" />
<glyph unicode="&#xd5;" horiz-adv-x="1611" d="M100 748q0 156 42 297t127 249.5t219.5 174t318.5 65.5q188 0 322.5 -65.5t219.5 -174t123.5 -250t38.5 -296.5q0 -154 -40.5 -296.5t-127 -251t-220.5 -173t-316 -64.5q-188 0 -323.5 64.5t-219.5 173.5t-124 251t-40 296zM317 748q0 -129 31 -242t91.5 -196t152.5 -130 q92 -49 215 -49t215 48t152.5 131t90 195.5t29.5 242.5q0 129 -29.5 242.5t-90 195.5t-152.5 130t-215 48t-215 -48t-152.5 -130t-91.5 -195.5t-31 -242.5zM399 1634q0 123 43 198t145 77q55 0 109.5 -19.5t109.5 -42.5l56 -22q41 -16 70.5 -25.5t48.5 -9.5q35 0 48 25.5 t13 93.5h150q0 -125 -44.5 -200t-148.5 -75q-43 0 -102.5 20.5t-100.5 37.5l-71 24q-39 16 -69 26.5t-46 10.5q-35 0 -49.5 -25.5t-14.5 -93.5h-147z" />
<glyph unicode="&#xd6;" horiz-adv-x="1611" d="M100 748q0 156 42 297t127 249.5t219.5 174t318.5 65.5q188 0 322.5 -65.5t219.5 -174t123.5 -250t38.5 -296.5q0 -154 -40.5 -296.5t-127 -251t-220.5 -173t-316 -64.5q-188 0 -323.5 64.5t-219.5 173.5t-124 251t-40 296zM317 748q0 -129 31 -242t91.5 -196t152.5 -130 q92 -49 215 -49t215 48t152.5 131t90 195.5t29.5 242.5q0 129 -29.5 242.5t-90 195.5t-152.5 130t-215 48t-215 -48t-152.5 -130t-91.5 -195.5t-31 -242.5zM443 1761q0 55 32.5 95t100.5 40q63 0 96 -39.5t33 -95.5q0 -55 -33 -95t-96 -40q-68 0 -101 39q-32 41 -32 96z M916 1761q0 55 32.5 95t98.5 40t98.5 -39.5t32.5 -95.5q0 -55 -33 -95t-98 -40q-66 0 -101 39q-30 41 -30 96z" />
<glyph unicode="&#xd7;" horiz-adv-x="1398" d="M291 995l125 125l289 -289l280 283l119 -119l-283 -282l289 -289l-125 -123l-287 289l-282 -283l-117 119l281 281z" />
<glyph unicode="&#xd8;" horiz-adv-x="1613" d="M100 739q0 154 40 296.5t125 253t219 178t325 67.5q80 0 150.5 -14.5t130.5 -36.5l86 164h204l-133 -254q139 -113 204 -287t65 -367q0 -154 -40 -295t-125 -247.5t-219.5 -170t-322.5 -63.5q-86 0 -158.5 13.5t-136.5 35.5l-96 -184h-205l143 274q-135 106 -195.5 275 t-60.5 362zM317 743q0 -137 34 -254.5t104 -201.5l551 1038q-88 41 -197 41q-123 0 -216 -49t-153.5 -133t-91.5 -198t-31 -243zM600 174q88 -45 209 -45q123 0 215 47t152.5 131t90 195.5t29.5 240.5q0 141 -35.5 263t-109.5 208z" />
<glyph unicode="&#xd9;" horiz-adv-x="1515" d="M150 627v878h204v-831q0 -125 15.5 -225.5t59.5 -170t122 -108.5t205 -39t206.5 38t123.5 107.5t59.5 168t15.5 219.5v841h205v-850q0 -150 -24.5 -276.5t-93 -218.5t-187.5 -144.5t-305 -52.5q-188 0 -306 48t-184.5 134t-91 209t-24.5 273zM475 1884l137 125l314 -326 l-105 -90z" />
<glyph unicode="&#xda;" horiz-adv-x="1515" d="M150 627v878h204v-831q0 -125 15.5 -225.5t59.5 -170t122 -108.5t205 -39t206.5 38t123.5 107.5t59.5 168t15.5 219.5v841h205v-850q0 -150 -24.5 -276.5t-93 -218.5t-187.5 -144.5t-305 -52.5q-188 0 -306 48t-184.5 134t-91 209t-24.5 273zM641 1683l313 326l140 -125 l-347 -291z" />
<glyph unicode="&#xdb;" horiz-adv-x="1515" d="M150 627v878h204v-831q0 -125 15.5 -225.5t59.5 -170t122 -108.5t205 -39t206.5 38t123.5 107.5t59.5 168t15.5 219.5v841h205v-850q0 -150 -24.5 -276.5t-93 -218.5t-187.5 -144.5t-305 -52.5q-188 0 -306 48t-184.5 134t-91 209t-24.5 273zM463 1688l233 241h162 l225 -239l-108 -93l-201 175l-205 -175z" />
<glyph unicode="&#xdc;" horiz-adv-x="1515" d="M150 627v878h204v-831q0 -125 15.5 -225.5t59.5 -170t122 -108.5t205 -39t206.5 38t123.5 107.5t59.5 168t15.5 219.5v841h205v-850q0 -150 -24.5 -276.5t-93 -218.5t-187.5 -144.5t-305 -52.5q-188 0 -306 48t-184.5 134t-91 209t-24.5 273zM410 1761q0 55 32.5 95 t100.5 40q63 0 96 -39.5t33 -95.5q0 -55 -33 -95t-96 -40q-68 0 -101 39q-32 41 -32 96zM883 1761q0 55 32.5 95t98.5 40t98.5 -39.5t32.5 -95.5q0 -55 -33 -95t-98 -40q-66 0 -101 39q-30 41 -30 96z" />
<glyph unicode="&#xdd;" horiz-adv-x="1386" d="M25 1450l182 76l325 -690q23 -49 42.5 -79t38 -45.5t37 -20.5t42.5 -5q25 0 43.5 5t38 20.5t37.5 47.5t43 81l326 684l182 -74l-297 -606q-31 -63 -59.5 -116.5t-59.5 -93.5t-68.5 -67.5t-86.5 -40.5v-526h-207v524q-49 12 -84 36t-62.5 58.5t-53.5 83t-54 111.5z M547 1683l313 326l140 -125l-347 -291z" />
<glyph unicode="&#xde;" horiz-adv-x="1306" d="M156 0v1505h204v-225h353q104 0 197.5 -25.5t163 -84t110.5 -149.5t41 -218q0 -104 -41 -190.5t-110.5 -148t-166 -96t-209.5 -34.5h-338v-334h-204zM360 498h310q63 0 124.5 14t108.5 50t78 94.5t31 146.5q0 102 -30 164.5t-77 97.5t-108.5 46t-128.5 11h-308v-624z" />
<glyph unicode="&#xdf;" horiz-adv-x="1243" d="M147 0v1130q0 86 28 160t83 128.5t140 85t202 30.5q121 0 202 -29.5t129 -74t68.5 -96.5t20.5 -95q0 -80 -36 -138.5t-78 -105.5t-76.5 -90t-34.5 -88q0 -39 27.5 -68.5t70.5 -58t93 -60.5t93 -76t71 -104.5t28 -144.5q0 -70 -22.5 -132t-73 -109.5t-128 -74 t-186.5 -26.5q-106 0 -190 21.5t-127 42.5l45 159q41 -18 115.5 -40.5t176.5 -22.5q55 0 93.5 15.5t60 40t30.5 56t9 62.5q0 55 -27.5 96t-71.5 77t-93.5 67.5t-93.5 69.5t-71.5 85t-27.5 113q0 70 36 124t81 103t81.5 97.5t36.5 109.5q0 23 -11 48.5t-38.5 45t-72.5 32.5 t-109 13q-143 0 -200.5 -77.5t-57.5 -213.5v-1087h-195z" />
<glyph unicode="&#xe0;" horiz-adv-x="1134" d="M80 291q0 92 35 156.5t93 106.5t132 60.5t152 18.5h296v51q0 135 -53 188.5t-180 53.5q-84 0 -158.5 -12.5t-169.5 -47.5l-49 146q72 27 169 49t231 22q129 0 208.5 -30.5t123.5 -87t59.5 -136t15.5 -178.5v-448l88 -131l-133 -107l-100 111q-31 -18 -70 -39t-86 -37 t-101.5 -26.5t-115.5 -10.5q-78 0 -148.5 18.5t-124 58.5t-84 101.5t-30.5 149.5zM283 299q0 -51 18 -85t49 -55.5t71 -29.5t85 -8q94 0 161.5 32.5t125.5 69.5v256h-291q-92 0 -155.5 -44t-63.5 -136zM282 1556l162 111l273 -393l-119 -84z" />
<glyph unicode="&#xe1;" horiz-adv-x="1134" d="M80 291q0 92 35 156.5t93 106.5t132 60.5t152 18.5h296v51q0 135 -53 188.5t-180 53.5q-84 0 -158.5 -12.5t-169.5 -47.5l-49 146q72 27 169 49t231 22q129 0 208.5 -30.5t123.5 -87t59.5 -136t15.5 -178.5v-448l88 -131l-133 -107l-100 111q-31 -18 -70 -39t-86 -37 t-101.5 -26.5t-115.5 -10.5q-78 0 -148.5 18.5t-124 58.5t-84 101.5t-30.5 149.5zM283 299q0 -51 18 -85t49 -55.5t71 -29.5t85 -8q94 0 161.5 32.5t125.5 69.5v256h-291q-92 0 -155.5 -44t-63.5 -136zM412 1274l274 393l156 -111l-315 -366z" />
<glyph unicode="&#xe2;" horiz-adv-x="1134" d="M80 291q0 92 35 156.5t93 106.5t132 60.5t152 18.5h296v51q0 135 -53 188.5t-180 53.5q-84 0 -158.5 -12.5t-169.5 -47.5l-49 146q72 27 169 49t231 22q129 0 208.5 -30.5t123.5 -87t59.5 -136t15.5 -178.5v-448l88 -131l-133 -107l-100 111q-31 -18 -70 -39t-86 -37 t-101.5 -26.5t-115.5 -10.5q-78 0 -148.5 18.5t-124 58.5t-84 101.5t-30.5 149.5zM283 299q0 -51 18 -85t49 -55.5t71 -29.5t85 -8q94 0 161.5 32.5t125.5 69.5v256h-291q-92 0 -155.5 -44t-63.5 -136zM238 1282l245 334h162l236 -334l-117 -82l-203 250l-205 -246z" />
<glyph unicode="&#xe3;" horiz-adv-x="1134" d="M80 291q0 92 35 156.5t93 106.5t132 60.5t152 18.5h296v51q0 135 -53 188.5t-180 53.5q-84 0 -158.5 -12.5t-169.5 -47.5l-49 146q72 27 169 49t231 22q129 0 208.5 -30.5t123.5 -87t59.5 -136t15.5 -178.5v-448l88 -131l-133 -107l-100 111q-31 -18 -70 -39t-86 -37 t-101.5 -26.5t-115.5 -10.5q-78 0 -148.5 18.5t-124 58.5t-84 101.5t-30.5 149.5zM283 299q0 -51 18 -85t49 -55.5t71 -29.5t85 -8q94 0 161.5 32.5t125.5 69.5v256h-291q-92 0 -155.5 -44t-63.5 -136zM154 1257q0 123 43 199t145 78q55 0 109.5 -20.5t109.5 -43.5l56 -20 q41 -16 70.5 -25.5t48.5 -9.5q35 0 48 24.5t13 94.5h150q0 -127 -44.5 -202t-148.5 -75q-43 0 -102.5 20.5t-100.5 39.5l-63 22q-41 16 -74 26.5t-49 10.5q-35 0 -49.5 -24.5t-14.5 -94.5h-147z" />
<glyph unicode="&#xe4;" horiz-adv-x="1134" d="M80 291q0 92 35 156.5t93 106.5t132 60.5t152 18.5h296v51q0 135 -53 188.5t-180 53.5q-84 0 -158.5 -12.5t-169.5 -47.5l-49 146q72 27 169 49t231 22q129 0 208.5 -30.5t123.5 -87t59.5 -136t15.5 -178.5v-448l88 -131l-133 -107l-100 111q-31 -18 -70 -39t-86 -37 t-101.5 -26.5t-115.5 -10.5q-78 0 -148.5 18.5t-124 58.5t-84 101.5t-30.5 149.5zM283 299q0 -51 18 -85t49 -55.5t71 -29.5t85 -8q94 0 161.5 32.5t125.5 69.5v256h-291q-92 0 -155.5 -44t-63.5 -136zM191 1397q0 57 32.5 97t100.5 40q63 0 96 -40t33 -97q0 -53 -33 -93 t-96 -40q-68 0 -101 39q-32 41 -32 94zM664 1397q0 57 32.5 97t98.5 40t97.5 -40t31.5 -97q0 -53 -32 -93t-97 -40q-66 0 -101 39q-30 41 -30 94z" />
<glyph unicode="&#xe5;" horiz-adv-x="1134" d="M80 291q0 92 35 156.5t93 106.5t132 60.5t152 18.5h296v51q0 135 -53 188.5t-180 53.5q-84 0 -158.5 -12.5t-169.5 -47.5l-49 146q72 27 169 49t231 22q129 0 208.5 -30.5t123.5 -87t59.5 -136t15.5 -178.5v-448l88 -131l-133 -107l-100 111q-31 -18 -70 -39t-86 -37 t-101.5 -26.5t-115.5 -10.5q-78 0 -148.5 18.5t-124 58.5t-84 101.5t-30.5 149.5zM283 299q0 -51 18 -85t49 -55.5t71 -29.5t85 -8q94 0 161.5 32.5t125.5 69.5v256h-291q-92 0 -155.5 -44t-63.5 -136zM289 1483q0 57 21.5 106t58.5 85t85 57.5t105 21.5t105.5 -21.5 t85.5 -57.5t58.5 -85t21.5 -106q0 -55 -21.5 -104.5t-58.5 -86.5t-85 -57.5t-106 -20.5q-57 0 -105 20.5t-85 57.5t-58 84q-22 52 -22 107zM424 1483q0 -55 38 -96t97 -41t97 40.5t38 96.5q0 57 -38.5 98t-96.5 41q-57 0 -96 -41t-39 -98z" />
<glyph unicode="&#xe6;" horiz-adv-x="1839" d="M53 291q0 92 35 154.5t93.5 102.5t133 56.5t150.5 16.5h297v63q0 135 -52.5 189.5t-177.5 54.5q-86 0 -159.5 -13.5t-167.5 -48.5l-55 146q74 27 173 49t230 22q156 0 233.5 -42t112.5 -121q59 76 151.5 119.5t221.5 43.5q246 0 357.5 -138t111.5 -390l-94 -92h-691 q4 -156 93.5 -246t250.5 -90q53 0 95.5 3t83.5 11.5t84 21.5t100 30l53 -152q-74 -27 -176 -52.5t-248 -25.5q-143 0 -242.5 37t-166.5 106q-104 -74 -214 -108.5t-227 -34.5q-80 0 -150.5 18.5t-123.5 58.5t-84 101.5t-31 149.5zM254 299q0 -51 18.5 -85t49 -54.5 t70.5 -28.5t85 -8q109 0 188.5 38t137.5 79q-43 102 -49 225h-277q-92 0 -157.5 -37t-65.5 -129zM956 621h578q0 88 -21.5 147t-56.5 96t-84 52.5t-108 15.5q-68 0 -122.5 -24.5t-93 -65.5t-63.5 -98t-29 -123z" />
<glyph unicode="&#xe7;" horiz-adv-x="1103" d="M92 514q0 121 36 225.5t105.5 181t173 118.5t238.5 42q127 0 219 -22.5t160 -48.5l-61 -150q-45 16 -83 28.5t-75 18.5t-73 8.5t-81 2.5q-88 0 -154.5 -31t-111.5 -84t-67.5 -127t-22.5 -162q0 -193 88 -291t256 -98q82 0 164 13.5t172 51.5l57 -151 q-70 -29 -154.5 -49.5t-185.5 -24.5l-18 -69q39 -4 72.5 -16.5t61.5 -34t44 -53.5t16 -79q0 -94 -65.5 -154.5t-196.5 -60.5q-66 0 -136.5 19.5t-113.5 48.5l60 129q33 -16 78 -33.5t100 -17.5q45 0 69.5 19.5t24.5 51.5q0 31 -17.5 48.5t-45 26.5t-64.5 13t-76 4l39 162 q-119 14 -200.5 59.5t-134 116t-75 164.5t-22.5 205z" />
<glyph unicode="&#xe8;" horiz-adv-x="1175" d="M92 518q0 115 31 217.5t95.5 179t161.5 122.5t228 46q236 0 351.5 -137t115.5 -391l-94 -92h-684q4 -156 93 -247t251 -91q53 0 94 4t82 12.5t85 21.5t102 30l53 -152q-76 -27 -176.5 -52.5t-243.5 -25.5q-150 0 -253 39t-168.5 112.5t-94.5 176t-29 227.5zM299 621h575 q0 86 -20 144t-57 94t-86 50.5t-105 14.5q-143 0 -220 -83t-87 -220zM331 1556l162 111l273 -393l-119 -84z" />
<glyph unicode="&#xe9;" horiz-adv-x="1175" d="M92 518q0 115 31 217.5t95.5 179t161.5 122.5t228 46q236 0 351.5 -137t115.5 -391l-94 -92h-684q4 -156 93 -247t251 -91q53 0 94 4t82 12.5t85 21.5t102 30l53 -152q-76 -27 -176.5 -52.5t-243.5 -25.5q-150 0 -253 39t-168.5 112.5t-94.5 176t-29 227.5zM299 621h575 q0 86 -20 144t-57 94t-86 50.5t-105 14.5q-143 0 -220 -83t-87 -220zM455 1274l274 393l156 -111l-315 -366z" />
<glyph unicode="&#xea;" horiz-adv-x="1175" d="M92 518q0 115 31 217.5t95.5 179t161.5 122.5t228 46q236 0 351.5 -137t115.5 -391l-94 -92h-684q4 -156 93 -247t251 -91q53 0 94 4t82 12.5t85 21.5t102 30l53 -152q-76 -27 -176.5 -52.5t-243.5 -25.5q-150 0 -253 39t-168.5 112.5t-94.5 176t-29 227.5zM299 621h575 q0 86 -20 144t-57 94t-86 50.5t-105 14.5q-143 0 -220 -83t-87 -220zM277 1282l245 334h162l236 -334l-117 -82l-203 250l-205 -246z" />
<glyph unicode="&#xeb;" horiz-adv-x="1175" d="M92 518q0 115 31 217.5t95.5 179t161.5 122.5t228 46q236 0 351.5 -137t115.5 -391l-94 -92h-684q4 -156 93 -247t251 -91q53 0 94 4t82 12.5t85 21.5t102 30l53 -152q-76 -27 -176.5 -52.5t-243.5 -25.5q-150 0 -253 39t-168.5 112.5t-94.5 176t-29 227.5zM299 621h575 q0 86 -20 144t-57 94t-86 50.5t-105 14.5q-143 0 -220 -83t-87 -220zM224 1397q0 57 32.5 97t100.5 40q63 0 96 -40t33 -97q0 -53 -33 -93t-96 -40q-68 0 -101 39q-32 41 -32 94zM697 1397q0 57 32.5 97t98.5 40t97.5 -40t31.5 -97q0 -53 -32 -93t-97 -40q-66 0 -101 39 q-30 41 -30 94z" />
<glyph unicode="&#xec;" horiz-adv-x="536" d="M-13 1556l162 111l273 -393l-119 -84zM59 893v154h332v-1047h-194v893h-138z" />
<glyph unicode="&#xed;" horiz-adv-x="536" d="M90 1274l274 393l156 -111l-315 -366zM59 893v154h332v-1047h-194v893h-138z" />
<glyph unicode="&#xee;" horiz-adv-x="538" d="M59 893v154h332v-1047h-194v893h-138zM-63 1282l245 334h162l236 -334l-117 -82l-203 250l-205 -246z" />
<glyph unicode="&#xef;" horiz-adv-x="536" d="M-118 1397q0 57 32.5 97t100.5 40q63 0 96 -40t33 -97q0 -53 -33 -93t-96 -40q-68 0 -101 39q-32 41 -32 94zM355 1397q0 57 32.5 97t98.5 40t97.5 -40t31.5 -97q0 -53 -32 -93t-97 -40q-66 0 -101 39q-30 41 -30 94zM59 893v154h332v-1047h-194v893h-138z" />
<glyph unicode="&#xf0;" horiz-adv-x="1222" d="M92 485q0 125 36 224.5t100.5 167t150.5 104.5t190 37q100 0 186.5 -35t135.5 -74q-20 88 -74.5 166t-132.5 144l-205 -140l-88 117l160 111q-111 59 -234 86l68 149q72 -14 157 -46t169 -83l217 143l88 -114l-182 -121q63 -55 117.5 -125t94 -157t63.5 -191.5t24 -224.5 q0 -141 -30 -263t-93.5 -209.5t-164 -137.5t-239.5 -50q-127 0 -223 37t-161.5 105.5t-97.5 163.5t-32 216zM301 485q0 -178 80 -270t237 -92q94 0 155 42t96.5 106.5t49 144.5t13.5 155q0 41 -3 78t-7 68q-18 18 -51 43.5t-76 47t-94.5 37t-108.5 15.5q-63 0 -115.5 -20.5 t-92.5 -65.5t-61.5 -116t-21.5 -173z" />
<glyph unicode="&#xf1;" horiz-adv-x="1222" d="M88 1020l166 78l65 -113q88 43 179.5 70.5t201.5 27.5q111 0 184.5 -31.5t118 -87t62.5 -130t18 -154.5v-680h-192v668q0 133 -63.5 191.5t-170.5 58.5q-96 0 -172.5 -28t-138.5 -56v-834h-194v844zM184 1257q0 123 43 199t145 78q55 0 109.5 -20.5t109.5 -43.5l56 -20 q41 -16 70.5 -25.5t48.5 -9.5q35 0 48 24.5t13 94.5h150q0 -127 -44.5 -202t-148.5 -75q-43 0 -102.5 20.5t-100.5 39.5l-63 22q-41 16 -74 26.5t-49 10.5q-35 0 -49.5 -24.5t-14.5 -94.5h-147z" />
<glyph unicode="&#xf2;" horiz-adv-x="1232" d="M92 522q0 119 32 222.5t98.5 179t165.5 117.5t230 42q135 0 234.5 -42t163 -117.5t95.5 -178t32 -221.5t-30 -222t-93.5 -179t-163.5 -118t-240 -42q-143 0 -243.5 42t-163.5 118q-61 76 -89 178t-28 221zM291 522q0 -197 85 -298t242 -101q156 0 240 101.5t84 297.5 q0 199 -85 300.5t-239 101.5q-160 0 -243.5 -101.5t-83.5 -300.5zM378 1556l162 111l273 -393l-119 -84z" />
<glyph unicode="&#xf3;" horiz-adv-x="1232" d="M92 522q0 119 32 222.5t98.5 179t165.5 117.5t230 42q135 0 234.5 -42t163 -117.5t95.5 -178t32 -221.5t-30 -222t-93.5 -179t-163.5 -118t-240 -42q-143 0 -243.5 42t-163.5 118q-61 76 -89 178t-28 221zM291 522q0 -197 85 -298t242 -101q156 0 240 101.5t84 297.5 q0 199 -85 300.5t-239 101.5q-160 0 -243.5 -101.5t-83.5 -300.5zM438 1274l274 393l156 -111l-315 -366z" />
<glyph unicode="&#xf4;" horiz-adv-x="1232" d="M92 522q0 119 32 222.5t98.5 179t165.5 117.5t230 42q135 0 234.5 -42t163 -117.5t95.5 -178t32 -221.5t-30 -222t-93.5 -179t-163.5 -118t-240 -42q-143 0 -243.5 42t-163.5 118q-61 76 -89 178t-28 221zM291 522q0 -197 85 -298t242 -101q156 0 240 101.5t84 297.5 q0 199 -85 300.5t-239 101.5q-160 0 -243.5 -101.5t-83.5 -300.5zM295 1282l245 334h162l236 -334l-117 -82l-203 250l-205 -246z" />
<glyph unicode="&#xf5;" horiz-adv-x="1232" d="M92 522q0 119 32 222.5t98.5 179t165.5 117.5t230 42q135 0 234.5 -42t163 -117.5t95.5 -178t32 -221.5t-30 -222t-93.5 -179t-163.5 -118t-240 -42q-143 0 -243.5 42t-163.5 118q-61 76 -89 178t-28 221zM291 522q0 -197 85 -298t242 -101q156 0 240 101.5t84 297.5 q0 199 -85 300.5t-239 101.5q-160 0 -243.5 -101.5t-83.5 -300.5zM221 1257q0 123 43 199t145 78q55 0 109.5 -20.5t109.5 -43.5l56 -20q41 -16 70.5 -25.5t48.5 -9.5q35 0 48 24.5t13 94.5h150q0 -127 -44.5 -202t-148.5 -75q-43 0 -102.5 20.5t-100.5 39.5l-63 22 q-41 16 -74 26.5t-49 10.5q-35 0 -49.5 -24.5t-14.5 -94.5h-147z" />
<glyph unicode="&#xf6;" horiz-adv-x="1232" d="M92 522q0 119 32 222.5t98.5 179t165.5 117.5t230 42q135 0 234.5 -42t163 -117.5t95.5 -178t32 -221.5t-30 -222t-93.5 -179t-163.5 -118t-240 -42q-143 0 -243.5 42t-163.5 118q-61 76 -89 178t-28 221zM291 522q0 -197 85 -298t242 -101q156 0 240 101.5t84 297.5 q0 199 -85 300.5t-239 101.5q-160 0 -243.5 -101.5t-83.5 -300.5zM248 1397q0 57 32.5 97t100.5 40q63 0 96 -40t33 -97q0 -53 -33 -93t-96 -40q-68 0 -101 39q-32 41 -32 94zM721 1397q0 57 32.5 97t98.5 40t97.5 -40t31.5 -97q0 -53 -32 -93t-97 -40q-66 0 -101 39 q-30 41 -30 94z" />
<glyph unicode="&#xf7;" horiz-adv-x="1398" d="M193 627v168h1013v-168h-1013zM557 344q0 63 34 104t107 41q70 0 104 -40.5t34 -104.5q0 -61 -34 -102t-104 -41q-74 0 -106 39q-35 43 -35 104zM557 1083q0 63 34 104.5t107 41.5q70 0 104 -41t34 -105q0 -59 -34 -101t-104 -42q-74 0 -106 41q-35 43 -35 102z" />
<glyph unicode="&#xf8;" horiz-adv-x="1216" d="M88 522q0 119 32 222.5t97.5 179t163.5 117.5t229 42q104 0 197 -28l100 182h199l-150 -270q88 -74 131 -189.5t43 -253.5q0 -119 -29.5 -222t-92 -179t-161.5 -118t-239 -42q-106 0 -188 25l-113 -205h-198l155 285q-94 74 -135 192.5t-41 261.5zM291 522 q0 -180 65 -284l369 669q-51 18 -115 19q-162 0 -240.5 -102.5t-78.5 -301.5zM500 133q45 -14 110 -14q158 0 238 103.5t80 299.5q0 176 -64 277z" />
<glyph unicode="&#xf9;" horiz-adv-x="1218" d="M135 369v678h195v-668q0 -137 62.5 -193.5t168.5 -56.5q96 0 174 30.5t131 65.5v822h195v-846l90 -129l-135 -107l-105 109q-76 -49 -174 -80t-202 -31q-115 0 -192 32t-123 87t-65.5 130t-19.5 157zM335 1556l162 111l273 -393l-119 -84z" />
<glyph unicode="&#xfa;" horiz-adv-x="1218" d="M135 369v678h195v-668q0 -137 62.5 -193.5t168.5 -56.5q96 0 174 30.5t131 65.5v822h195v-846l90 -129l-135 -107l-105 109q-76 -49 -174 -80t-202 -31q-115 0 -192 32t-123 87t-65.5 130t-19.5 157zM428 1274l274 393l156 -111l-315 -366z" />
<glyph unicode="&#xfb;" horiz-adv-x="1218" d="M135 369v678h195v-668q0 -137 62.5 -193.5t168.5 -56.5q96 0 174 30.5t131 65.5v822h195v-846l90 -129l-135 -107l-105 109q-76 -49 -174 -80t-202 -31q-115 0 -192 32t-123 87t-65.5 130t-19.5 157zM299 1282l245 334h162l236 -334l-117 -82l-203 250l-205 -246z" />
<glyph unicode="&#xfc;" horiz-adv-x="1218" d="M135 369v678h195v-668q0 -137 62.5 -193.5t168.5 -56.5q96 0 174 30.5t131 65.5v822h195v-846l90 -129l-135 -107l-105 109q-76 -49 -174 -80t-202 -31q-115 0 -192 32t-123 87t-65.5 130t-19.5 157zM246 1397q0 57 32.5 97t100.5 40q63 0 96 -40t33 -97q0 -53 -33 -93 t-96 -40q-68 0 -101 39q-32 41 -32 94zM719 1397q0 57 32.5 97t98.5 40t97.5 -40t31.5 -97q0 -53 -32 -93t-97 -40q-66 0 -101 39q-30 41 -30 94z" />
<glyph unicode="&#xfd;" horiz-adv-x="1153" d="M35 1026l188 45l197 -760q12 -45 25.5 -79.5t36 -58t54 -35t80.5 -11.5q33 0 82 6l246 938l178 -45l-309 -1188q-23 -90 -63.5 -150.5t-94 -94t-118 -49t-140.5 -15.5q-61 0 -136 11t-134 30l33 154q66 -16 122 -25.5t119 -9.5q84 0 139.5 33.5t82.5 123.5l32 125 q-49 -6 -92 -6q-76 0 -130 18.5t-92 57.5t-64.5 96.5t-45.5 132.5zM426 1274l274 393l156 -111l-315 -366z" />
<glyph unicode="&#xfe;" horiz-adv-x="1212" d="M147 -455v1960h195v-506q55 29 137 56.5t178 27.5q102 0 188.5 -35.5t148 -106.5t95 -175t33.5 -240q0 -125 -30.5 -229t-95 -178t-163 -114t-233.5 -40q-55 0 -123.5 12.5t-134.5 28.5v-461h-195zM342 178q59 -25 117.5 -39t148.5 -14q63 0 118.5 21.5t97.5 69.5t68 124 t26 186q0 109 -23 182.5t-61.5 119.5t-94 65.5t-123.5 19.5q-76 0 -138 -23.5t-136 -62.5v-649z" />
<glyph unicode="&#xff;" horiz-adv-x="1153" d="M35 1026l188 45l197 -760q12 -45 25.5 -79.5t36 -58t54 -35t80.5 -11.5q33 0 82 6l246 938l178 -45l-309 -1188q-23 -90 -63.5 -150.5t-94 -94t-118 -49t-140.5 -15.5q-61 0 -136 11t-134 30l33 154q66 -16 122 -25.5t119 -9.5q84 0 139.5 33.5t82.5 123.5l32 125 q-49 -6 -92 -6q-76 0 -130 18.5t-92 57.5t-64.5 96.5t-45.5 132.5zM240 1397q0 57 32.5 97t100.5 40q63 0 96 -40t33 -97q0 -53 -33 -93t-96 -40q-68 0 -101 39q-32 41 -32 94zM713 1397q0 57 32.5 97t98.5 40t97.5 -40t31.5 -97q0 -53 -32 -93t-97 -40q-66 0 -101 39 q-30 41 -30 94z" />
<glyph unicode="&#x131;" horiz-adv-x="538" d="M59 893v154h332v-1047h-194v893h-138z" />
<glyph unicode="&#x152;" horiz-adv-x="2332" d="M100 739q0 154 40 296.5t125 253t219 178t325 67.5q131 0 227.5 -30.5t167.5 -82.5v84h1034v-168h-833v-467h647v-165h-647v-535h852v-170h-1053v88q-76 -59 -177 -92t-234 -33q-184 0 -315.5 63.5t-214.5 170t-123 247.5t-40 295zM317 743q0 -129 31 -240.5t91.5 -194.5 t153.5 -130t216 -47q129 0 226.5 45t168.5 127v907q-72 72 -177 112t-218 40q-123 0 -216 -48t-153.5 -131t-91.5 -197t-31 -243z" />
<glyph unicode="&#x153;" horiz-adv-x="1998" d="M88 522q0 119 31 222.5t96.5 179t163.5 117.5t229 42q162 0 261.5 -64.5t152.5 -170.5q53 104 152.5 169.5t257.5 65.5q244 0 355 -138t111 -390l-96 -92h-688q4 -156 92 -246t252 -90q51 0 94 3t84 11.5t85 21.5t100 30l53 -152q-76 -27 -178.5 -52.5t-245.5 -25.5 q-176 0 -279.5 57.5t-156.5 157.5q-49 -100 -147.5 -157.5t-260.5 -57.5q-141 0 -238.5 42t-161 118t-91 178t-27.5 221zM291 522q0 -197 79 -300t240 -103q158 0 238 103.5t80 299.5q0 199 -80 301.5t-238 102.5q-162 0 -240.5 -102.5t-78.5 -301.5zM1114 621h576 q0 88 -19.5 147t-56.5 96t-86 52.5t-107 15.5q-68 0 -122 -24.5t-94 -65.5t-63.5 -98t-27.5 -123z" />
<glyph unicode="&#x178;" horiz-adv-x="1386" d="M25 1450l182 76l325 -690q23 -49 42.5 -79t38 -45.5t37 -20.5t42.5 -5q25 0 43.5 5t38 20.5t37.5 47.5t43 81l326 684l182 -74l-297 -606q-31 -63 -59.5 -116.5t-59.5 -93.5t-68.5 -67.5t-86.5 -40.5v-526h-207v524q-49 12 -84 36t-62.5 58.5t-53.5 83t-54 111.5z M334 1761q0 55 32.5 95t100.5 40q63 0 96 -39.5t33 -95.5q0 -55 -33 -95t-96 -40q-68 0 -101 39q-32 41 -32 96zM807 1761q0 55 32.5 95t98.5 40t98.5 -39.5t32.5 -95.5q0 -55 -33 -95t-98 -40q-66 0 -101 39q-30 41 -30 96z" />
<glyph unicode="&#x2c6;" d="M201 1282l245 334h162l236 -334l-117 -82l-203 250l-205 -246z" />
<glyph unicode="&#x2da;" d="M252 1483q0 57 21.5 106t58.5 85t85 57.5t105 21.5t105.5 -21.5t85.5 -57.5t58.5 -85t21.5 -106q0 -55 -21.5 -104.5t-58.5 -86.5t-85 -57.5t-106 -20.5q-57 0 -105 20.5t-85 57.5t-58 84q-22 52 -22 107zM387 1483q0 -55 38 -96t97 -41t97 40.5t38 96.5q0 57 -38.5 98 t-96.5 41q-57 0 -96 -41t-39 -98z" />
<glyph unicode="&#x2dc;" d="M125 1257q0 123 43 199t145 78q55 0 109.5 -20.5t109.5 -43.5l56 -20q41 -16 70.5 -25.5t48.5 -9.5q35 0 48 24.5t13 94.5h150q0 -127 -44.5 -202t-148.5 -75q-43 0 -102.5 20.5t-100.5 39.5l-63 22q-41 16 -74 26.5t-49 10.5q-35 0 -49.5 -24.5t-14.5 -94.5h-147z" />
<glyph unicode="&#x2000;" horiz-adv-x="1062" />
<glyph unicode="&#x2001;" horiz-adv-x="2125" />
<glyph unicode="&#x2002;" horiz-adv-x="1062" />
<glyph unicode="&#x2003;" horiz-adv-x="2125" />
<glyph unicode="&#x2004;" horiz-adv-x="708" />
<glyph unicode="&#x2005;" horiz-adv-x="530" />
<glyph unicode="&#x2006;" horiz-adv-x="354" />
<glyph unicode="&#x2007;" horiz-adv-x="354" />
<glyph unicode="&#x2008;" horiz-adv-x="264" />
<glyph unicode="&#x2009;" horiz-adv-x="423" />
<glyph unicode="&#x200a;" horiz-adv-x="116" />
<glyph unicode="&#x2010;" horiz-adv-x="966" d="M156 563v187h655v-187h-655z" />
<glyph unicode="&#x2011;" horiz-adv-x="966" d="M156 563v187h655v-187h-655z" />
<glyph unicode="&#x2012;" horiz-adv-x="966" d="M156 563v187h655v-187h-655z" />
<glyph unicode="&#x2013;" d="M0 543v176h1044v-176h-1044z" />
<glyph unicode="&#x2014;" horiz-adv-x="2088" d="M0 543v176h2089v-176h-2089z" />
<glyph unicode="&#x2018;" horiz-adv-x="530" d="M119 1108q0 14 3 35.5t14 59.5t35 95.5t65 143.5l40 88l119 -37l-86 -254q41 -10 72 -43t31 -86q0 -66 -39 -104.5t-111 -38.5q-74 0 -108.5 41t-34.5 100z" />
<glyph unicode="&#x2019;" horiz-adv-x="530" d="M119 1389q0 66 39 104.5t112 38.5q72 0 107 -41t35 -100q0 -14 -3 -36t-14.5 -60t-36 -95t-63.5 -143l-41 -88l-119 37l86 254q-41 10 -71.5 43t-30.5 86z" />
<glyph unicode="&#x201a;" horiz-adv-x="530" d="M119 109q0 66 39 103.5t112 37.5q72 0 107 -40t35 -99q0 -14 -3 -36t-14.5 -60t-36 -95t-63.5 -143l-41 -88l-119 35l86 256q-41 10 -71.5 43t-30.5 86z" />
<glyph unicode="&#x201c;" horiz-adv-x="942" d="M531 1108q0 14 3 35.5t14 59.5t35 95.5t65 143.5l40 88l119 -37l-86 -254q41 -10 72 -43t31 -86q0 -66 -39 -104.5t-111 -38.5q-74 0 -108.5 41t-34.5 100zM119 1108q0 14 3 35.5t14 59.5t35 95.5t65 143.5l40 88l119 -37l-86 -254q41 -10 72 -43t31 -86 q0 -66 -39 -104.5t-111 -38.5q-74 0 -108.5 41t-34.5 100z" />
<glyph unicode="&#x201d;" horiz-adv-x="942" d="M531 1389q0 66 39 104.5t112 38.5q72 0 107 -41t35 -100q0 -14 -3 -36t-14.5 -60t-36 -95t-63.5 -143l-41 -88l-119 37l86 254q-41 10 -71.5 43t-30.5 86zM119 1389q0 66 39 104.5t112 38.5q72 0 107 -41t35 -100q0 -14 -3 -36t-14.5 -60t-36 -95t-63.5 -143l-41 -88 l-119 37l86 254q-41 10 -71.5 43t-30.5 86z" />
<glyph unicode="&#x201e;" horiz-adv-x="942" d="M531 109q0 66 39 103.5t112 37.5q72 0 107 -40t35 -99q0 -14 -3 -36t-14.5 -60t-36 -95t-63.5 -143l-41 -88l-119 35l86 256q-41 10 -71.5 43t-30.5 86zM119 109q0 66 39 103.5t112 37.5q72 0 107 -40t35 -99q0 -14 -3 -36t-14.5 -60t-36 -95t-63.5 -143l-41 -88l-119 35 l86 256q-41 10 -71.5 43t-30.5 86z" />
<glyph unicode="&#x2022;" d="M305 692q0 100 52.5 163t166.5 63q111 0 163 -62.5t52 -163.5q0 -100 -52 -163.5t-163 -63.5q-115 0 -168 63q-51 64 -51 164z" />
<glyph unicode="&#x2026;" horiz-adv-x="1734" d="M125 109q0 63 34 103t107 40q70 0 103.5 -40t33.5 -103t-33.5 -103.5t-103.5 -40.5q-74 0 -106 39q-35 42 -35 105zM729 109q0 63 34 103t107 40q70 0 103.5 -40t33.5 -103t-33.5 -103.5t-103.5 -40.5q-74 0 -106 39q-35 42 -35 105zM1333 109q0 63 34 103t107 40 q70 0 103.5 -40t33.5 -103t-33.5 -103.5t-103.5 -40.5q-74 0 -106 39q-35 42 -35 105z" />
<glyph unicode="&#x202f;" horiz-adv-x="423" />
<glyph unicode="&#x2039;" horiz-adv-x="854" d="M141 571q0 72 48.5 124.5t121.5 105.5l289 205l94 -136l-278 -198q-47 -33 -64.5 -48.5t-17.5 -37.5q0 -31 20.5 -46.5t67.5 -50.5l280 -198l-96 -131l-313 209q-74 47 -113 89.5t-39 112.5z" />
<glyph unicode="&#x203a;" horiz-adv-x="854" d="M152 872l96 134l313 -209q74 -49 113 -92t39 -113q0 -72 -48.5 -124t-121.5 -106l-289 -202l-92 133l276 199q49 33 65.5 48t16.5 40q0 29 -19.5 44t-68.5 50z" />
<glyph unicode="&#x2044;" horiz-adv-x="196" d="M-453 0l918 1505h186l-917 -1505h-187z" />
<glyph unicode="&#x205f;" horiz-adv-x="530" />
<glyph unicode="&#x2074;" d="M143 940q0 41 18.5 75t51.5 68l397 404h140v-541h147v-141h-147v-211h-156v211h-291q-78 0 -119 37t-41 98zM295 963q0 -16 22 -17h277v326l-287 -289q-12 -12 -12 -20z" />
<glyph unicode="&#x20ac;" horiz-adv-x="1482" d="M135 487v152h930v-152h-543q35 -178 145.5 -268t288.5 -90q61 0 109.5 3t93.5 11.5t92 24.5t111 41l59 -152q-98 -49 -205.5 -71.5t-244.5 -22.5q-160 0 -276.5 39t-197.5 110.5t-128 168t-66 206.5h-168zM135 819v152h164q25 127 78 231.5t136 177t194.5 113.5t255.5 41 q74 0 134 -6t112.5 -18.5t99.5 -28t94 -33.5l-60 -156q-68 27 -117.5 41.5t-90.5 20.5t-77 8t-75 2q-209 0 -320.5 -101.5t-148.5 -291.5h551v-152h-930z" />
<glyph unicode="&#x2122;" horiz-adv-x="1918" d="M109 1360v145h667v-145h-252v-696h-166v696h-249zM901 664v841h152l221 -387q16 -31 35 -31q18 0 34 31l216 387h145v-841h-162v536l-96 -174q-39 -70 -68.5 -90.5t-70.5 -20.5q-43 0 -71 19.5t-67 85.5l-106 180v-536h-162z" />
<glyph unicode="&#xe000;" horiz-adv-x="1075" d="M0 1075h1075v-1075h-1075v1075z" />
<glyph unicode="&#xfb01;" horiz-adv-x="1214" d="M53 893v154h148v137q0 76 26.5 139t82 110.5t136 74t187.5 26.5q119 0 208 -24.5t156 -51.5l-55 -139q-68 29 -146.5 46t-148.5 17q-131 0 -191.5 -54t-60.5 -159v-122h672v-1047h-195v893h-477v-893h-194v893h-148z" />
<glyph unicode="&#xfb02;" horiz-adv-x="1224" d="M53 893v154h148v137q0 76 27.5 139t82 110.5t137 74t193.5 26.5q125 0 229.5 -23.5t206.5 -64.5v-1446h-194v1343q-61 20 -112.5 29.5t-123.5 9.5q-131 0 -191.5 -54t-60.5 -159v-122h338v-154h-338v-893h-194v893h-148z" />
<glyph unicode="&#xfb03;" horiz-adv-x="1902" d="M53 893v154h148v137q0 76 20.5 139t66.5 110.5t118.5 74t175.5 26.5q57 0 111.5 -7t115.5 -26l-35 -145q-51 14 -93 20t-95 6q-61 0 -98 -16t-57.5 -45t-28 -68t-7.5 -84v-122h494v137q0 76 25.5 139t79 110.5t134 74t187.5 26.5q119 0 210 -24.5t158 -51.5l-53 -139 q-68 29 -147.5 46t-147.5 17q-131 0 -192.5 -54t-61.5 -159v-122h674v-1047h-194v893h-480v-893h-192v893h-494v-893h-194v893h-148z" />
<glyph unicode="&#xfb04;" horiz-adv-x="1900" d="M53 893v154h148v137q0 76 20.5 139t66.5 110.5t118.5 74t175.5 26.5q57 0 111.5 -7t115.5 -26l-35 -145q-51 14 -93 20t-95 6q-61 0 -98 -16t-57.5 -45t-28 -68t-7.5 -84v-122h479v137q0 76 29 139t83 110.5t137 74t194 26.5q125 0 229.5 -23.5t206.5 -64.5v-1446h-194 v1343q-63 20 -114.5 29.5t-121.5 9.5q-133 0 -193.5 -54t-60.5 -159v-122h338v-154h-338v-893h-195v893h-479v-893h-194v893h-148z" />
<glyph d="M297 1884l137 125l314 -326l-105 -90z" />
<glyph d="M295 1683l313 326l140 -125l-347 -291z" />
<glyph d="M211 1688l233 241h162l225 -239l-108 -93l-201 175l-205 -175z" />
<glyph d="M252 1858q0 55 21.5 104t58.5 86t85 57.5t105 20.5t105.5 -20.5t85.5 -57.5t58.5 -86t21.5 -104q0 -57 -21.5 -106.5t-58.5 -85.5t-85 -57.5t-106 -21.5q-57 0 -105 21.5t-85 57.5t-58 85q-22 50 -22 107zM387 1858q0 -57 38 -98.5t97 -41.5t97 41t38 99q0 55 -38.5 95 t-96.5 40q-57 0 -96 -40t-39 -95z" />
<glyph d="M154 1761q0 55 32.5 95t100.5 40q63 0 96 -39.5t33 -95.5q0 -55 -33 -95t-96 -40q-68 0 -101 39q-32 41 -32 96zM627 1761q0 55 32.5 95t98.5 40t98.5 -39.5t32.5 -95.5q0 -55 -33 -95t-98 -40q-66 0 -101 39q-30 41 -30 96z" />
<glyph d="M125 1634q0 123 43 198t145 77q55 0 109.5 -19.5t109.5 -42.5l56 -22q41 -16 70.5 -25.5t48.5 -9.5q35 0 48 25.5t13 93.5h150q0 -125 -44.5 -200t-148.5 -75q-43 0 -102.5 20.5t-100.5 37.5l-71 24q-39 16 -69 26.5t-46 10.5q-35 0 -49.5 -25.5t-14.5 -93.5h-147z" />
</font>
</defs>
</svg>
