<?xml version="1.0" standalone="no"?>
<!DOCTYPE svg PUBLIC "-//W3C//DTD SVG 1.1//EN" "http://www.w3.org/Graphics/SVG/1.1/DTD/svg11.dtd" >
<svg xmlns="http://www.w3.org/2000/svg">
<metadata>Generated by IcoMoon</metadata>
<defs>
<font id="Toyota-Icons" horiz-adv-x="512">
<font-face units-per-em="512" ascent="480" descent="-32" />
<missing-glyph horiz-adv-x="512" />
<glyph unicode="&#x20;" d="" horiz-adv-x="256" />
<glyph unicode="&#xe600;" d="M247.984 81.829c-23.648 9.408-46.448 19.376-69.888 27.424-10.768 3.696-22.832 4.848-34.304 4.912-9.76 0.048-15.632-7.616-20.944-15.728-18.416-28.128-37.376-55.888-56.448-83.568-2.688-3.904-6.848-7.184-10.992-9.648-14.832-8.848-28.992-11.872-47.152 6.992-10.4 10.8-11.392 23.552-0.704 39.296 16.368 24.096 33.664 47.536 50.288 71.456 11.936 17.184 23.376 34.72 35.104 52.032 11.088 16.352 27.744 20.704 45.744 18.432 22.992-2.896 45.76-7.632 68.544-12.048 2.928-0.56 6.752-3.36 7.76-6.032 11.408-30.272 22.352-60.704 33.392-91.12 0.176-0.528-0.192-1.232-0.4-2.4zM305.616 326.293c-0.080 64.16-52.736 116.992-116.864 117.216-64.64 0.24-117.824-52.56-117.952-117.104-0.128-64.624 52.72-117.632 117.344-117.712 64.56-0.064 117.552 52.976 117.472 117.6zM105.232 326.469c-0.016 45.504 37.312 82.704 82.88 82.624 46.272-0.080 83.168-37.104 83.088-83.36-0.080-45.616-37.168-82.592-82.88-82.624-46.176-0.016-83.088 37.008-83.088 83.36zM334 97.813c21.136 35.296 42.976 70.208 62.928 106.16 7.616 13.728 11.824 29.632 15.856 44.992 3.28 12.512 0.88 25.744-9.040 34.544-25.296 22.432-51.152 29.84-75.536 1.344-19.376-22.64-33.376-48.32-45.024-75.424-1.248-2.928-0.016-7.552 1.36-10.864 11.664-28.032 23.648-55.936 35.52-83.888 3.024-7.104 6.048-14.208 9.504-22.352 2.112 2.592 3.488 3.904 4.432 5.488zM395.6 425.829c-27.84 0.016-51.296-23.168-51.6-51.040-0.304-28.224 23.28-52.064 51.52-52.096 27.856-0.032 51.28 23.152 51.584 51.040 0.304 28.24-23.264 52.064-51.504 52.096zM312.336-16.843c12.624 0 24.592 0 37.92 0-28.096 71.184-55.84 141.488-83.792 212.336-11.232-4.64-21.12-8.72-32.192-13.28 26.384-67.28 52.256-133.248 78.064-199.056zM434.096 279.797c25.248 14.512 49.056 28.112 72.72 41.952 2.192 1.28 4.848 4.064 4.928 6.256 0.48 12.224 0.224 24.496 0.224 38.32-32.96-19.136-64.432-37.392-96.784-56.16 6.672-10.72 12.704-20.416 18.912-30.368z" />
<glyph unicode="&#xe601;" d="M256 469.365c-141.392 0-256.032-114.64-256.032-256.032s114.624-256.032 256.032-256.032c141.408 0 256.032 114.624 256.032 256.032 0 141.392-114.624 256.032-256.032 256.032zM34.944 213.333c0 121.888 99.168 221.056 221.056 221.056v-221.056h221.056c0-121.888-99.168-221.056-221.056-221.056v221.056h-221.056z" />
<glyph unicode="&#xe602;" d="M465.216 364.613l46.8-46.768-256.016-255.792-256.032 255.792 46.8 46.768 209.232-209.024 209.216 209.024z" />
<glyph unicode="&#xe603;" d="M407.28 4.117l-46.768-46.8-255.792 256.016 255.792 256.032 46.768-46.8-209.024-209.232 209.024-209.216z" />
<glyph unicode="&#xe604;" d="M104.72 422.549l46.768 46.8 255.792-256.016-255.792-256.032-46.768 46.8 209.024 209.232-209.024 209.216z" />
<glyph unicode="&#xe605;" d="M456.144 246.757l44.784-44.736-244.928-244.72-244.928 244.72 44.784 44.736 200.144-199.968 200.144 199.968zM456.144 469.365l44.784-44.736-244.928-244.72-244.928 244.72 44.784 44.736 200.144-199.984 200.144 199.984z" />
<glyph unicode="&#xe606;" d="M55.856 179.909l-44.784 44.736 244.928 244.72 244.928-244.704-44.784-44.736-200.144 199.952-200.144-199.968zM55.856-42.699l-44.784 44.736 244.928 244.72 244.928-244.704-44.784-44.736-200.144 199.968-200.144-199.984z" />
<glyph unicode="&#xe607;" d="M510.32 447.413c-1.264-3.952-2.368-10.080-5.2-17.28-4.656-14.576-13.648-34.96-28.080-56.384-14.8-21.2-35.28-43.36-61.28-61.616-25.6-18.688-56.224-33.648-87.904-45.12-63.488-22.752-132.384-30.912-180.928-30.56-8.496-0.064-16.352-0.128-23.872-0.192l152.224 164.4-42.048 38.848-233.264-252.048 268.352-214.384 35.76 44.688-166.592 133.040c5.344 0.704 10.832 1.424 16.624 2.192 57.28 9.856 129.184 31.808 194.736 69.024 32.496 18.704 63.12 41.040 87.52 66.384 24.784 24.896 42.672 52.816 54.208 77.76 11.216 25.28 16.56 47.376 18.72 63.056 1.552 7.728 1.552 13.84 2.128 18 0.4 4.16 0.608 6.368 0.608 6.368s-0.592-2.144-1.712-6.176z" />
<glyph unicode="&#xe608;" d="M1.68 447.413c1.264-3.952 2.368-10.080 5.2-17.28 4.64-14.576 13.632-34.96 28.080-56.384 14.8-21.2 35.28-43.36 61.28-61.616 25.6-18.688 56.224-33.648 87.904-45.12 63.488-22.752 132.384-30.912 180.928-30.56 8.496-0.064 16.352-0.128 23.872-0.192l-152.256 164.4 42.048 38.848 233.296-252.048-268.352-214.384-35.76 44.688 166.592 133.040c-5.344 0.704-10.832 1.424-16.624 2.192-57.28 9.856-129.184 31.808-194.736 69.024-32.496 18.704-63.12 41.040-87.52 66.384-24.784 24.912-42.672 52.816-54.208 77.76-11.216 25.28-16.56 47.376-18.72 63.056-1.552 7.728-1.552 13.856-2.128 18-0.4 4.16-0.608 6.368-0.608 6.368s0.592-2.144 1.712-6.176z" />
<glyph unicode="&#xe609;" d="M46.784 62.053l-46.8 46.768 256.016 255.792 256.032-255.792-46.8-46.768-209.232 209.024-209.216-209.024z" />
<glyph unicode="&#xe60a;" d="M303.856 284.421c-12.048-11.808-24.032-23.584-36.432-35.744 0 26.096 0 51.664 0 77.888 12.272-14.192 24.224-28.032 36.432-42.144zM267.344 111.733c12.48 15.12 24.576 29.76 36.784 44.544-12.464 12.176-24.688 24.112-36.784 35.936 0-26.256 0-52.96 0-80.48zM512.032 213.333c0-141.392-114.624-256.032-256.032-256.032s-256.032 114.64-256.032 256.032 114.64 256.032 256.032 256.032 256.032-114.64 256.032-256.032zM273.088 221.093c21.12 20.72 42.048 41.248 63.168 61.968-30.736 35.552-61.344 70.976-91.968 106.4-0.208-0.096-0.432-0.208-0.64-0.304 0-45.856 0-91.696 0-138.384-17.072 16.816-33.488 32.992-49.68 48.944-5.184-5.232-10.576-10.672-16.512-16.656 20.688-20.224 41.568-40.64 62.608-61.2-21.28-20.88-41.856-41.056-62.672-61.488 5.808-5.568 11.376-10.928 17.056-16.384 16.112 15.792 32.352 31.712 48.608 47.648 0.24-0.096 0.48-0.208 0.72-0.304 0-48.176 0-96.336 0-145.328 31.072 37.632 61.568 74.576 92.224 111.712-20.992 21.152-41.872 42.192-62.912 63.376z" />
<glyph unicode="&#xe60b;" d="M484.336 366.197h-52.688v50.656c0 5.248-4.192 9.52-9.424 9.632-1.632 0.032-3.232 0.048-4.832 0.048-107.712 0-151.392-80.080-166.208-118.72-9.504 39.2-37.008 58.4-83.424 58.4h-140.080c-15.28 0-27.696-12.416-27.696-27.696v-249.696c0-15.264 12.432-27.68 27.696-27.68h129.6c56.416 0 68.912-22.080 87.84-55.52l1.712-3.040c0.88-1.536 2.496-2.432 4.192-2.432 0.416 0 0.848 0.064 1.264 0.176 0.112 0.032 0.208 0.112 0.336 0.144 0.112-0.048 0.208-0.112 0.336-0.144 0.416-0.112 0.832-0.176 1.264-0.176 1.696 0 3.312 0.896 4.192 2.432 18.832 33.184 37.984 58.56 97.776 58.56h128.16c15.264 0 27.696 12.416 27.696 27.68v249.68c-0.016 15.28-12.448 27.696-27.712 27.696zM53.68 130.853h122.336c6.768 0 12.288-5.504 12.288-12.272s-5.52-12.288-12.288-12.288h-122.336c-6.768 0-12.288 5.52-12.288 12.288s5.52 12.272 12.288 12.272zM176.016 159.493h-122.336c-6.768 0-12.288 5.52-12.288 12.288s5.52 12.272 12.288 12.272h122.336c6.768 0 12.288-5.504 12.288-12.272 0-6.784-5.504-12.288-12.288-12.288zM176.016 212.693h-122.336c-6.768 0-12.288 5.504-12.288 12.272s5.52 12.288 12.288 12.288h122.336c6.768 0 12.288-5.52 12.288-12.288s-5.504-12.272-12.288-12.272zM263.696 284.277c2.88 12.128 31.744 119.936 148.672 122.928v-282.864c-26.88 0.4-100.784-5.456-149.344-66.256l0.672 226.192z" />
<glyph unicode="&#xe60c;" d="M435.104 469.365h-358.208c-10.624 0-19.232-8.608-19.232-19.232v-473.6c0-10.624 8.608-19.232 19.232-19.232h358.192c10.624 0 19.232 8.608 19.232 19.232v473.6c0.016 10.608-8.608 19.232-19.216 19.232zM155.040 18.037c-17.776 0-32.192 14.4-32.192 32.176 0 17.792 14.416 32.192 32.192 32.192s32.176-14.4 32.176-32.192c0-17.776-14.4-32.176-32.176-32.176zM155.040 119.013c-17.776 0-32.192 14.4-32.192 32.176 0 17.792 14.416 32.176 32.192 32.176s32.176-14.4 32.176-32.176c0-17.776-14.4-32.176-32.176-32.176zM155.040 220.597c-17.776 0-32.192 14.416-32.192 32.208 0 17.76 14.416 32.176 32.192 32.176s32.176-14.4 32.176-32.176c0-17.792-14.4-32.208-32.176-32.208zM256 18.037c-17.776 0-32.192 14.4-32.192 32.176 0 17.792 14.416 32.192 32.192 32.192s32.192-14.4 32.192-32.192c0-17.776-14.416-32.176-32.192-32.176zM256 119.013c-17.776 0-32.192 14.4-32.192 32.176 0 17.792 14.416 32.176 32.192 32.176s32.192-14.4 32.192-32.176c0-17.776-14.416-32.176-32.192-32.176zM256 220.597c-17.776 0-32.192 14.416-32.192 32.208 0 17.76 14.416 32.176 32.192 32.176s32.192-14.4 32.192-32.176c0-17.792-14.416-32.208-32.192-32.208zM356.96 18.037c-17.776 0-32.176 14.4-32.176 32.176 0 17.792 14.4 32.192 32.176 32.192s32.192-14.4 32.192-32.192c0-17.776-14.416-32.176-32.192-32.176zM356.96 119.013c-17.776 0-32.176 14.4-32.176 32.176 0 17.792 14.4 32.176 32.176 32.176s32.192-14.4 32.192-32.176c0-17.776-14.416-32.176-32.192-32.176zM356.96 220.597c-17.776 0-32.176 14.416-32.176 32.208 0 17.76 14.4 32.176 32.176 32.176s32.192-14.4 32.192-32.176c0-17.792-14.416-32.208-32.192-32.208zM407.456 351.557c0-10.624-8.608-19.232-19.232-19.232h-264.448c-10.624 0-19.232 8.608-19.232 19.232v50.496c0 10.624 8.608 19.232 19.232 19.232h264.432c10.624 0 19.232-8.608 19.232-19.232v-50.496z" />
<glyph unicode="&#xe60d;" d="M476.944 280.661c0 0-3.696 4.464-9.488 11.488h26.416c10.016 0 18.144 8.128 18.144 18.144s-8.128 18.144-18.144 18.144h-32.656c-6.848 0-12.72-3.824-15.808-9.424-19.296 23.616-41.2 51.376-48.288 60.816-11.392 15.2-112.384 15.008-141.12 14.64-28.736 0.368-129.712 0.56-141.12-14.64-7.088-9.44-29.008-37.216-48.288-60.816-3.088 5.584-8.976 9.424-15.808 9.424h-32.672c-10.016 0-18.144-8.128-18.144-18.144s8.128-18.144 18.144-18.144h26.416c-5.776-7.024-9.488-11.488-9.488-11.488s-38.704-21.776-28.432-141.52c0 0 6.432-28.288 36.288-36.64v-41.376c0-21.376 17.328-29.024 38.704-29.024h11.488c21.376 0 38.704 7.648 38.704 29.024v37.936c45.040 0.32 98.416 0.24 119.552 0.192v-0.016c0 0 1.664 0 4.64 0.016 2.976-0.016 4.64-0.016 4.64-0.016v0.016c21.136 0.048 74.528 0.144 119.552-0.192v-37.936c0-21.376 17.328-29.024 38.704-29.024h11.488c21.376 0 38.704 7.648 38.704 29.024v41.376c29.856 8.368 36.288 36.64 36.288 36.64 10.288 119.744-28.416 141.52-28.416 141.52zM109.952 194.981c0-10.688-6.048-16.336-19.36-14.512l-35.68 9.68c-10.288 1.504-18.144 8.16-19.36 14.512l-4.832 19.952c-2.416 11.184 3.936 16.336 14.512 14.512l45.36-9.68c9.072-2.416 18.144-7.552 19.36-19.36v-15.104zM355.984 175.429h-199.968c-14.688 0-26.608 11.92-26.608 26.608s11.92 26.608 26.608 26.608h199.984c14.688 0 26.608-11.92 26.608-26.608 0-14.704-11.92-26.608-26.624-26.608zM256 293.093l-154.016 0.464c-10.688 0-29.024 2.816-19.36 19.36l31.456 41.92c10.080 13.696 14.512 19.744 25.808 20.16l123.52-0.368 108.72 0.368c11.28-0.4 15.712-6.448 25.792-20.16l31.456-41.936c9.68-16.544-8.672-19.36-19.36-19.36l-154.016-0.448zM481.28 224.613l-4.832-19.952c-1.216-6.352-9.072-13.008-19.36-14.512l-35.68-9.68c-13.312-1.808-19.36 3.824-19.36 14.512v15.12c1.216 11.792 10.288 16.928 19.36 19.36l45.36 9.68c10.576 1.792 16.928-3.344 14.512-14.528z" />
<glyph unicode="&#xe60e;" d="M512.032 213.333c0 141.392-114.624 256.032-256.032 256.032-141.392 0-256.032-114.64-256.032-256.032s114.64-256.032 256.032-256.032c141.392 0 256.032 114.64 256.032 256.032zM256-25.627c-131.968 0-238.96 106.992-238.96 238.96s106.992 238.96 238.96 238.96 238.96-106.992 238.96-238.96c0-131.968-106.992-238.96-238.96-238.96zM273.12 213.333l57.792-57.792-17.12-17.12-57.792 57.792-57.792-57.792-17.12 17.12 57.792 57.792-57.792 57.792 17.12 17.12 57.792-57.792 57.792 57.792 17.12-17.12-57.792-57.792z" />
<glyph unicode="&#xe60f;" d="M256-42.699c141.392 0 256.032 114.624 256.032 256.032s-114.64 256.032-256.032 256.032c-141.392 0-256.032-114.64-256.032-256.032s114.64-256.032 256.032-256.032zM256 452.293c131.968 0 238.96-106.992 238.96-238.96s-106.992-238.96-238.96-238.96-238.96 106.992-238.96 238.96c0 131.968 106.992 238.96 238.96 238.96zM332.656 247.525l17.168-17.152-93.904-93.808-93.904 93.808 17.168 17.152 76.736-76.656 76.736 76.656z" />
<glyph unicode="&#xe610;" d="M-0.032 213.333c0-141.392 114.624-256.016 256.032-256.016s256.032 114.624 256.032 256.016c0 141.392-114.624 256.032-256.032 256.032-141.392 0-256.032-114.64-256.032-256.032zM494.96 213.333c0-131.968-106.992-238.96-238.96-238.96s-238.96 106.992-238.96 238.96 106.992 238.96 238.96 238.96c131.968 0 238.96-106.992 238.96-238.96zM290.192 136.677l-17.152-17.168-93.808 93.904 93.808 93.904 17.152-17.168-76.656-76.736 76.656-76.736z" />
<glyph unicode="&#xe611;" d="M437.040 32.293c99.984 99.984 99.984 262.096 0 362.080s-262.096 99.984-362.080 0c-99.984-99.984-99.984-262.096 0-362.080s262.096-99.984 362.080 0zM87.024 382.293c93.312 93.312 244.624 93.312 337.936 0s93.312-244.624 0-337.936-244.624-93.312-337.936 0c-93.312 93.328-93.312 244.624 0 337.936zM349.824 225.429v-24.208h-187.648v24.208h187.648z" />
<glyph unicode="&#xe612;" d="M437.040 394.373c-99.984 99.984-262.096 99.984-362.080 0s-99.984-262.096 0-362.080 262.096-99.984 362.080 0c99.984 99.984 99.984 262.096 0 362.080zM424.96 44.357c-93.312-93.312-244.624-93.312-337.936 0s-93.312 244.624 0 337.936 244.624 93.312 337.936 0c93.328-93.312 93.328-244.608 0-337.936zM268.096 225.429h81.728v-24.208h-81.728v-81.728h-24.208v81.728h-81.728v24.208h81.728v81.728h24.208v-81.728z" />
<glyph unicode="&#xe613;" d="M512.032 213.333c0 141.392-114.624 256.016-256.032 256.016-141.392 0.016-256.032-114.624-256.032-256.016s114.624-256.032 256.032-256.032 256.032 114.64 256.032 256.032zM17.040 213.333c0 131.968 106.992 238.96 238.96 238.96s238.96-106.992 238.96-238.96-106.992-238.96-238.96-238.96c-131.968 0-238.96 106.992-238.96 238.96zM221.808 289.989l17.152 17.168 93.808-93.904-93.808-93.904-17.152 17.184 76.656 76.736-76.656 76.72z" />
<glyph unicode="&#xe614;" d="M256 469.365c-141.392 0-256.032-114.64-256.032-256.032s114.64-256.032 256.032-256.032c141.392 0 256.032 114.624 256.032 256.032s-114.64 256.032-256.032 256.032zM256-25.627c-131.968 0-238.96 106.992-238.96 238.96s106.992 238.96 238.96 238.96c131.968 0 238.96-106.992 238.96-238.96s-106.992-238.96-238.96-238.96zM332.656 213.381l17.168-17.152-93.904-93.808-93.904 93.808 17.168 17.152 76.736-76.656 76.736 76.656zM332.656 298.725l17.168-17.152-93.904-93.808-93.904 93.808 17.168 17.152 76.736-76.656 76.736 76.656z" />
<glyph unicode="&#xe615;" d="M256-42.699c141.392 0 256.032 114.624 256.032 256.032s-114.64 256.032-256.032 256.032c-141.392 0-256.032-114.64-256.032-256.032s114.64-256.032 256.032-256.032zM256 452.293c131.968 0 238.96-106.992 238.96-238.96s-106.992-238.96-238.96-238.96c-131.968 0-238.96 106.992-238.96 238.96s106.992 238.96 238.96 238.96zM179.344 213.285l-17.168 17.152 93.904 93.808 93.904-93.808-17.184-17.152-76.736 76.656-76.72-76.656zM179.344 127.941l-17.168 17.152 93.904 93.808 93.904-93.808-17.184-17.152-76.736 76.656-76.72-76.656z" />
<glyph unicode="&#xe616;" d="M273.152 181.541c0.72-2.72 1.088-5.616 1.088-8.736s-0.368-6.016-1.088-8.736c-0.72-2.704-1.808-5.056-3.264-7.040s-3.28-3.552-5.504-4.704c-2.208-1.152-4.8-1.728-7.744-1.728-2.96 0-5.552 0.576-7.76 1.728s-4.048 2.72-5.504 4.704-2.544 4.336-3.264 7.040c-0.72 2.704-1.088 5.616-1.088 8.736 0 3.104 0.368 6.016 1.088 8.736 0.72 2.704 1.808 5.056 3.264 7.040s3.28 3.552 5.504 4.704c2.208 1.152 4.8 1.728 7.76 1.728s5.536-0.576 7.744-1.728c2.208-1.152 4.048-2.72 5.504-4.704 1.456-2 2.544-4.336 3.264-7.040zM406.88 278.885c-1.456 1.984-3.28 3.552-5.504 4.704-2.208 1.152-4.8 1.728-7.744 1.728-2.96 0-5.552-0.576-7.76-1.728s-4.048-2.72-5.504-4.704c-1.456-1.984-2.544-4.32-3.264-7.040s-1.088-5.616-1.088-8.736c0-3.12 0.368-6.016 1.088-8.736 0.72-2.704 1.808-5.056 3.264-7.040s3.28-3.552 5.504-4.704c2.208-1.152 4.8-1.728 7.76-1.728s5.536 0.576 7.744 1.728c2.208 1.152 4.048 2.72 5.504 4.704s2.544 4.336 3.264 7.040c0.72 2.704 1.088 5.616 1.088 8.736 0 3.104-0.368 6.016-1.088 8.736s-1.808 5.056-3.264 7.040zM512.032 213.333c0-141.392-114.624-256.032-256.032-256.032s-256.032 114.64-256.032 256.032 114.64 256.032 256.032 256.032 256.032-114.64 256.032-256.032zM323.776 284.421h17.312v-48.24h7.376v48.24h17.536v6.016h-42.224v-6.016zM263.040 236.181h7.376v24.768h4.288c0.8 0 1.504-0.048 2.112-0.144s1.136-0.288 1.616-0.56c0.48-0.272 0.944-0.624 1.392-1.056s0.944-0.944 1.504-1.536l20.544-22.576 5.344 4.432-22.656 24.912 19.344 23.040-5.568 3.984-18.144-21.984c-0.752-0.912-1.488-1.52-2.176-1.84-0.704-0.32-1.84-0.496-3.392-0.496h-4.208v23.328h-7.376v-54.272zM209.008 263.189c0-4.064 0.448-7.84 1.36-11.328s2.4-6.48 4.48-8.992c2.080-2.512 4.832-4.48 8.24-5.904 3.424-1.424 7.632-2.144 12.656-2.144 3.76 0 7.104 0.352 10.048 1.056 2.928 0.704 5.856 1.712 8.768 3.008l-2.032 5.488c-1.504-0.608-2.896-1.136-4.176-1.584s-2.544-0.816-3.808-1.088c-1.264-0.272-2.576-0.496-3.952-0.64s-2.928-0.224-4.624-0.224c-6.32 0-11.088 1.856-14.304 5.568s-4.816 9.312-4.816 16.784c0 7.024 1.68 12.464 5.056 16.336 3.36 3.872 8.24 5.792 14.672 5.792 1.264 0 2.464-0.048 3.616-0.144s2.336-0.256 3.536-0.496c1.2-0.224 2.464-0.544 3.808-0.944s2.8-0.896 4.4-1.504l2.176 5.712c-2.256 0.912-4.8 1.712-7.632 2.416s-6.208 1.056-10.128 1.056c-4.528 0-8.48-0.704-11.888-2.112-3.424-1.408-6.256-3.376-8.544-5.904-2.272-2.528-4-5.52-5.152-8.96s-1.76-7.168-1.76-11.248zM192.208 236.181h7.376v54.272h-7.376v-54.272zM129.712 235.877c2.928 0.704 5.856 1.712 8.768 3.008l-2.048 5.488c-1.504-0.608-2.896-1.136-4.176-1.584s-2.544-0.816-3.808-1.088c-1.264-0.272-2.576-0.496-3.952-0.64s-2.928-0.224-4.624-0.224c-6.32 0-11.088 1.856-14.304 5.568s-4.816 9.312-4.816 16.784c0 7.024 1.68 12.464 5.056 16.336 3.36 3.872 8.24 5.792 14.672 5.792 1.264 0 2.464-0.048 3.616-0.144s2.336-0.256 3.536-0.496c1.2-0.224 2.464-0.544 3.808-0.944s2.8-0.896 4.4-1.504l2.176 5.712c-2.256 0.912-4.8 1.712-7.632 2.416s-6.208 1.056-10.128 1.056c-4.528 0-8.48-0.704-11.888-2.112-3.424-1.408-6.256-3.376-8.544-5.904-2.272-2.528-4-5.52-5.152-8.96s-1.728-7.184-1.728-11.248 0.448-7.84 1.36-11.328c0.912-3.488 2.4-6.48 4.48-8.992s4.832-4.48 8.24-5.904c3.424-1.424 7.632-2.144 12.656-2.144 3.744 0 7.088 0.352 10.032 1.056zM181.904 148.565l-2.032 5.488c-1.504-0.608-2.896-1.136-4.176-1.584s-2.544-0.816-3.808-1.088c-1.264-0.272-2.576-0.496-3.952-0.64s-2.928-0.224-4.624-0.224c-6.32 0-11.088 1.856-14.304 5.568s-4.816 9.312-4.816 16.784c0 7.024 1.68 12.464 5.056 16.336 3.36 3.872 8.24 5.792 14.672 5.792 1.264 0 2.464-0.048 3.616-0.144s2.336-0.256 3.536-0.496c1.2-0.224 2.464-0.544 3.808-0.944 1.328-0.4 2.8-0.896 4.4-1.504l2.176 5.712c-2.256 0.912-4.8 1.712-7.632 2.416s-6.208 1.056-10.128 1.056c-4.528 0-8.48-0.704-11.888-2.112-3.424-1.408-6.256-3.376-8.544-5.904-2.272-2.528-4-5.52-5.152-8.96s-1.728-7.184-1.728-11.248 0.448-7.84 1.36-11.328 2.4-6.48 4.48-8.992c2.080-2.512 4.832-4.48 8.24-5.904 3.424-1.424 7.632-2.144 12.656-2.144 3.76 0 7.104 0.352 10.048 1.056 2.896 0.704 5.824 1.712 8.736 3.008zM184.912 242.277h-30.56v48.176h-7.376v-54.272h37.936v6.096zM228.336 151.957h-30.56v48.176h-7.376v-54.272h37.936v6.096zM282.080 172.805c0 3.712-0.48 7.28-1.44 10.688s-2.448 6.432-4.48 9.040c-2.032 2.608-4.672 4.688-7.904 6.24-3.248 1.552-7.12 2.336-11.632 2.336-4.416 0-8.24-0.784-11.44-2.336-3.216-1.552-5.84-3.632-7.904-6.24s-3.584-5.616-4.592-9.040c-0.992-3.408-1.504-6.976-1.504-10.688s0.464-7.28 1.424-10.688c0.96-3.408 2.432-6.432 4.432-9.040 2.064-2.608 4.704-4.688 7.952-6.24 3.232-1.552 7.104-2.336 11.632-2.336 4.416 0 8.224 0.784 11.44 2.336s5.84 3.632 7.904 6.24 3.584 5.616 4.592 9.040c1.008 3.408 1.52 6.976 1.52 10.688zM329.872 161.205c0 2.912-0.576 5.296-1.728 7.152-1.168 1.856-2.656 3.344-4.48 4.48s-3.856 2-6.096 2.592c-2.24 0.592-4.432 1.104-6.592 1.504-1.808 0.352-3.552 0.72-5.232 1.088-1.68 0.384-3.152 0.896-4.4 1.536-1.264 0.656-2.256 1.488-3.008 2.48-0.752 1.008-1.136 2.304-1.136 3.92 0 2.864 1.136 5.088 3.424 6.704 2.272 1.6 5.696 2.4 10.272 2.4 3.008 0 5.776-0.272 8.272-0.832 2.512-0.56 5.072-1.312 7.68-2.256l1.888 5.872c-2.4 0.848-4.992 1.6-7.776 2.256s-5.968 0.976-9.52 0.976c-3.968 0-7.328-0.4-10.080-1.2s-5.008-1.904-6.736-3.312c-1.728-1.408-2.992-3.056-3.808-4.976-0.816-1.904-1.2-3.984-1.2-6.24 0-2.704 0.544-4.928 1.648-6.656s2.528-3.136 4.256-4.208c1.728-1.088 3.68-1.904 5.824-2.48 2.16-0.576 4.256-1.072 6.32-1.472 1.904-0.4 3.744-0.8 5.504-1.2s3.296-0.96 4.624-1.696c1.328-0.72 2.384-1.648 3.168-2.752 0.768-1.104 1.168-2.56 1.168-4.368 0-3.008-1.216-5.408-3.648-7.184s-6.24-2.672-11.408-2.672c-6.128 0-11.968 1.136-17.536 3.392l-2.032-6.096c1.648-0.704 4.16-1.456 7.488-2.256s7.36-1.2 12.080-1.2c7.472 0 13.152 1.504 17.008 4.512s5.792 7.072 5.792 12.192zM376.464 151.957h-30.64v19.184h23.264v6.096h-23.264v16.784h30.032v6.096h-37.328v-54.272h37.936v6.112zM419.072 263.125c0 3.712-0.48 7.28-1.44 10.688s-2.448 6.432-4.48 9.040c-2.032 2.608-4.672 4.688-7.904 6.24-3.248 1.552-7.12 2.336-11.632 2.336-4.416 0-8.24-0.784-11.44-2.336s-5.84-3.632-7.904-6.24c-2.064-2.608-3.584-5.616-4.592-9.040-0.992-3.408-1.504-6.976-1.504-10.688s0.464-7.28 1.424-10.688c0.96-3.408 2.432-6.432 4.432-9.040 2.064-2.608 4.704-4.688 7.952-6.24 3.232-1.552 7.104-2.336 11.632-2.336 4.416 0 8.224 0.784 11.44 2.336s5.84 3.632 7.904 6.24 3.584 5.616 4.592 9.040c1.008 3.408 1.52 6.976 1.52 10.688z" />
<glyph unicode="&#xe617;" d="M393.472 188.949c3.36-3.392 5.040-8.768 5.040-16.144s-1.68-12.704-5.040-15.952c-3.36-3.264-8.080-4.896-14.144-4.896h-12.864v42.080h12.864c6.064-0.016 10.784-1.712 14.144-5.088zM273.424 193.989c-0.704 0.624-1.632 0.944-2.784 0.944-1.2 0-2.16-0.32-2.864-0.944s-1.328-1.824-1.888-3.568l-6.624-20.928h22.576l-6.544 20.928c-0.544 1.744-1.168 2.944-1.872 3.568zM233.344 192.293c-1.184 0.8-2.528 1.328-4.032 1.584s-3.072 0.384-4.672 0.384h-10.832v-22.352h10.912c1.504 0 3.008 0.176 4.528 0.528 1.504 0.352 2.832 0.96 3.984 1.808s2.112 1.984 2.864 3.392c0.752 1.408 1.12 3.168 1.12 5.264 0 2.464-0.352 4.432-1.056 5.952-0.704 1.488-1.632 2.64-2.816 3.44zM512.032 213.333c0-141.392-114.624-256.032-256.032-256.032s-256.032 114.64-256.032 256.032 114.64 256.032 256.032 256.032 256.032-114.64 256.032-256.032zM209.008 263.189c0-4.064 0.448-7.84 1.36-11.328s2.4-6.48 4.48-8.992c2.080-2.512 4.832-4.48 8.24-5.904 3.424-1.424 7.632-2.144 12.656-2.144 3.76 0 7.104 0.352 10.048 1.056 2.928 0.704 5.856 1.712 8.768 3.008l-2.032 5.488c-1.504-0.608-2.896-1.136-4.176-1.584s-2.544-0.816-3.808-1.088c-1.264-0.272-2.576-0.496-3.952-0.64s-2.928-0.224-4.624-0.224c-6.32 0-11.088 1.856-14.304 5.568s-4.816 9.312-4.816 16.784c0 7.024 1.68 12.464 5.056 16.336 3.36 3.872 8.24 5.792 14.672 5.792 1.264 0 2.464-0.048 3.616-0.144s2.336-0.256 3.536-0.496c1.2-0.224 2.464-0.544 3.808-0.944s2.8-0.896 4.4-1.504l2.176 5.712c-2.256 0.912-4.8 1.712-7.632 2.416s-6.208 1.056-10.128 1.056c-4.528 0-8.48-0.704-11.888-2.112-3.424-1.408-6.256-3.376-8.544-5.904-2.272-2.528-4-5.52-5.152-8.96s-1.76-7.168-1.76-11.248zM192.208 236.181h7.376v54.272h-7.376v-54.272zM107.008 236.965c3.424-1.424 7.632-2.144 12.656-2.144 3.76 0 7.104 0.352 10.048 1.056 2.928 0.704 5.856 1.712 8.768 3.008l-2.048 5.488c-1.504-0.608-2.896-1.136-4.176-1.584s-2.544-0.816-3.808-1.088c-1.264-0.272-2.576-0.496-3.952-0.64s-2.928-0.224-4.624-0.224c-6.32 0-11.088 1.856-14.304 5.568s-4.816 9.312-4.816 16.784c0 7.024 1.68 12.464 5.056 16.336 3.36 3.872 8.24 5.792 14.672 5.792 1.264 0 2.464-0.048 3.616-0.144s2.336-0.256 3.536-0.496c1.2-0.224 2.464-0.544 3.808-0.944s2.8-0.896 4.4-1.504l2.176 5.712c-2.256 0.912-4.8 1.712-7.632 2.416s-6.208 1.056-10.128 1.056c-4.528 0-8.48-0.704-11.888-2.112-3.424-1.408-6.256-3.376-8.544-5.904-2.272-2.528-4-5.52-5.152-8.96s-1.728-7.184-1.728-11.248 0.448-7.84 1.36-11.328c0.912-3.488 2.4-6.48 4.48-8.992 2.064-2.496 4.816-4.48 8.224-5.904zM145.616 151.957h-30.624v19.184h23.248v6.096h-23.248v16.784h30.032v6.096h-37.344v-54.272h37.936v6.112zM146.976 236.181h37.936v6.096h-30.56v48.176h-7.376v-54.272zM200.048 148.645l-18.368 25.216 16.256 23.184-5.712 3.76-13.84-19.952c-0.96-1.312-1.664-2.208-2.112-2.704s-1.008-0.752-1.648-0.752c-0.656 0-1.2 0.256-1.664 0.752-0.448 0.496-1.152 1.408-2.096 2.704l-13.856 19.952-5.712-3.68 16.48-23.328-18.592-25.136 5.728-3.76 15.808 21.68c0.96 1.312 1.664 2.208 2.144 2.704s1.072 0.752 1.776 0.752c0.704 0 1.28-0.256 1.76-0.752s1.184-1.408 2.144-2.704l15.808-21.68 5.696 3.744zM243.424 176.037c0.976 2.064 1.472 4.336 1.472 6.848 0 3.056-0.496 5.68-1.472 7.872-0.976 2.176-2.304 3.984-3.984 5.392s-3.632 2.416-5.872 3.040c-2.24 0.624-4.608 0.944-7.12 0.944h-20.016v-54.272h7.376v20.176h12.112c2.72 0 5.216 0.416 7.52 1.248s4.304 1.984 5.984 3.456c1.696 1.472 3.024 3.232 4 5.296zM296.608 146.757l-14 44.928c-0.448 1.408-0.992 2.704-1.632 3.872-0.624 1.184-1.408 2.176-2.336 2.976s-2.032 1.424-3.312 1.888c-1.28 0.448-2.816 0.672-4.624 0.672s-3.344-0.224-4.624-0.672c-1.28-0.448-2.384-1.088-3.312-1.92s-1.696-1.824-2.288-2.976-1.136-2.464-1.584-3.92l-14.144-44.864 6.928-1.664 5.712 18.208h26.336l5.792-18.208 7.088 1.68zM301.872 235.045l5.344 4.432-22.656 24.912 19.344 23.040-5.568 3.984-18.144-21.984c-0.752-0.912-1.488-1.52-2.176-1.84-0.704-0.32-1.84-0.496-3.392-0.496h-4.208v23.328h-7.376v-54.272h7.376v24.768h4.288c0.8 0 1.504-0.048 2.112-0.144s1.136-0.288 1.616-0.56c0.48-0.272 0.944-0.624 1.392-1.056s0.944-0.944 1.504-1.536l20.544-22.576zM347.776 200.117h-7.072v-45.088c0-0.8-0.048-1.376-0.16-1.728-0.096-0.352-0.352-0.528-0.752-0.528-0.304 0-0.544 0.144-0.72 0.416s-0.384 0.608-0.64 1.008l-27.168 45.92h-8.128v-54.272h7.152v42.528l21.376-36.272c0.656-1.056 1.264-2 1.84-2.864s1.184-1.584 1.84-2.176c0.64-0.608 1.392-1.056 2.224-1.36 0.816-0.304 1.808-0.448 2.976-0.448 0.912 0 1.792 0.16 2.672 0.496 0.88 0.32 1.648 0.864 2.336 1.616 0.672 0.752 1.216 1.76 1.616 3.008s0.608 2.832 0.608 4.736v45.008zM348.48 284.421h17.536v6.016h-42.224v-6.016h17.312v-48.24h7.376v48.24zM406.352 173.173c0 4.016-0.576 7.68-1.728 10.992s-2.848 6.144-5.072 8.512c-2.24 2.352-4.992 4.192-8.272 5.488-3.296 1.296-7.056 1.952-11.328 1.952h-20.848v-54.272h20.848c4.576 0 8.512 0.672 11.824 2.032s6.048 3.248 8.208 5.68c2.16 2.432 3.76 5.312 4.816 8.656 1.024 3.344 1.552 7.008 1.552 10.96zM419.072 263.125c0 3.712-0.48 7.28-1.44 10.688s-2.448 6.432-4.48 9.040c-2.032 2.608-4.672 4.688-7.904 6.24-3.248 1.552-7.12 2.336-11.632 2.336-4.416 0-8.24-0.784-11.44-2.336s-5.84-3.632-7.904-6.24c-2.064-2.608-3.584-5.616-4.592-9.040-0.992-3.408-1.504-6.976-1.504-10.688s0.464-7.28 1.424-10.688c0.96-3.408 2.432-6.432 4.432-9.040 2.064-2.608 4.704-4.688 7.952-6.24 3.232-1.552 7.104-2.336 11.632-2.336 4.416 0 8.224 0.784 11.44 2.336s5.84 3.632 7.904 6.24 3.584 5.616 4.592 9.040c1.008 3.408 1.52 6.976 1.52 10.688zM406.88 278.885c-1.456 1.984-3.28 3.552-5.504 4.704-2.208 1.152-4.8 1.728-7.744 1.728-2.96 0-5.552-0.576-7.76-1.728s-4.048-2.72-5.504-4.704c-1.456-1.984-2.544-4.32-3.264-7.040s-1.088-5.616-1.088-8.736c0-3.12 0.368-6.016 1.088-8.736 0.72-2.704 1.808-5.056 3.264-7.040s3.28-3.552 5.504-4.704c2.208-1.152 4.8-1.728 7.76-1.728s5.536 0.576 7.744 1.728c2.208 1.152 4.048 2.72 5.504 4.704s2.544 4.336 3.264 7.040c0.72 2.704 1.088 5.616 1.088 8.736 0 3.104-0.368 6.016-1.088 8.736s-1.808 5.056-3.264 7.040z" />
<glyph unicode="&#xe618;" d="M240.112 266.325c-1.12-0.88-2.448-1.536-3.952-1.952s-3.088-0.64-4.736-0.64h-10.384v20.848h10.304c1.856 0 3.552-0.144 5.088-0.416s2.848-0.784 3.952-1.536 1.952-1.808 2.56-3.168 0.912-3.12 0.912-5.264c0-1.76-0.336-3.28-1.008-4.592s-1.6-2.4-2.736-3.28zM233.984 188.565c-1.456 1.984-3.28 3.552-5.504 4.704-2.208 1.152-4.8 1.728-7.744 1.728-2.96 0-5.552-0.576-7.76-1.728s-4.048-2.72-5.504-4.704c-1.456-1.984-2.544-4.32-3.264-7.040s-1.088-5.616-1.088-8.736c0-3.12 0.368-6.016 1.088-8.736 0.72-2.704 1.808-5.056 3.264-7.040s3.28-3.552 5.504-4.704c2.208-1.152 4.8-1.728 7.76-1.728s5.536 0.576 7.744 1.728c2.208 1.152 4.048 2.72 5.504 4.704s2.544 4.336 3.264 7.040c0.72 2.704 1.088 5.616 1.088 8.736 0 3.104-0.368 6.016-1.088 8.736s-1.808 5.056-3.264 7.040zM161.056 194.021h-12.864v-42.080h12.864c6.064 0 10.784 1.632 14.144 4.896s5.040 8.576 5.040 15.952c0 7.376-1.68 12.752-5.040 16.144s-8.080 5.088-14.144 5.088zM271.84 247.349c1.456-1.984 3.28-3.552 5.504-4.704 2.208-1.152 4.8-1.728 7.76-1.728s5.536 0.576 7.744 1.728c2.208 1.152 4.048 2.72 5.504 4.704s2.544 4.336 3.264 7.040c0.72 2.704 1.088 5.616 1.088 8.736 0 3.104-0.368 6.016-1.088 8.736-0.72 2.704-1.808 5.056-3.264 7.040s-3.28 3.552-5.504 4.704c-2.208 1.152-4.8 1.728-7.744 1.728-2.96 0-5.552-0.576-7.76-1.728s-4.048-2.72-5.504-4.704c-1.456-1.984-2.544-4.32-3.264-7.040s-1.088-5.616-1.088-8.736c0-3.12 0.368-6.016 1.088-8.736 0.72-2.704 1.808-5.056 3.264-7.040zM512.032 213.333c0-141.392-114.624-256.032-256.032-256.032s-256.032 114.64-256.032 256.032 114.64 256.032 256.032 256.032 256.032-114.64 256.032-256.032zM259.648 263.125c0-3.712 0.464-7.28 1.424-10.688s2.432-6.432 4.432-9.040c2.064-2.608 4.704-4.688 7.952-6.24 3.232-1.552 7.104-2.336 11.632-2.336 4.416 0 8.224 0.784 11.44 2.336s5.84 3.632 7.904 6.24c2.064 2.608 3.584 5.616 4.592 9.040 0.992 3.408 1.504 6.976 1.504 10.688s-0.48 7.28-1.44 10.688c-0.96 3.408-2.448 6.432-4.48 9.040s-4.672 4.688-7.904 6.24c-3.248 1.552-7.12 2.336-11.632 2.336-4.416 0-8.24-0.784-11.44-2.336s-5.84-3.632-7.904-6.24c-2.064-2.608-3.584-5.616-4.592-9.040-0.992-3.424-1.488-6.976-1.488-10.688zM159.632 263.189c0-4.064 0.448-7.84 1.36-11.328s2.4-6.48 4.48-8.992c2.080-2.512 4.832-4.48 8.24-5.904 3.424-1.424 7.632-2.144 12.656-2.144 3.76 0 7.104 0.352 10.048 1.056 2.928 0.704 5.856 1.712 8.768 3.008l-2.032 5.488c-1.504-0.608-2.896-1.136-4.176-1.584s-2.544-0.816-3.808-1.088c-1.264-0.272-2.576-0.496-3.952-0.64s-2.928-0.224-4.624-0.224c-6.32 0-11.088 1.856-14.304 5.568s-4.816 9.312-4.816 16.784c0 7.024 1.68 12.464 5.056 16.336 3.36 3.872 8.24 5.792 14.672 5.792 1.264 0 2.464-0.048 3.616-0.144s2.336-0.256 3.536-0.496c1.2-0.224 2.464-0.544 3.808-0.944s2.8-0.896 4.4-1.504l2.176 5.712c-2.256 0.912-4.8 1.712-7.632 2.416s-6.208 1.056-10.128 1.056c-4.528 0-8.48-0.704-11.888-2.112-3.424-1.408-6.256-3.376-8.544-5.904-2.272-2.528-4-5.52-5.152-8.96s-1.76-7.168-1.76-11.248zM130.192 234.821c7.472 0 13.152 1.504 17.008 4.512s5.792 7.072 5.792 12.192c0 2.912-0.576 5.296-1.728 7.152-1.168 1.856-2.656 3.344-4.48 4.48s-3.856 2-6.096 2.592c-2.24 0.592-4.432 1.104-6.592 1.504-1.808 0.352-3.552 0.72-5.232 1.088-1.68 0.384-3.152 0.896-4.4 1.536-1.264 0.656-2.256 1.488-3.008 2.48-0.752 1.008-1.136 2.304-1.136 3.92 0 2.864 1.136 5.088 3.424 6.704 2.272 1.6 5.696 2.4 10.272 2.4 3.008 0 5.776-0.272 8.272-0.832 2.512-0.56 5.072-1.312 7.68-2.256l1.888 5.872c-2.4 0.848-4.992 1.6-7.776 2.256s-5.968 0.976-9.52 0.976c-3.968 0-7.328-0.4-10.080-1.2s-5.008-1.904-6.736-3.312c-1.728-1.408-2.992-3.056-3.808-4.976-0.816-1.904-1.2-3.984-1.2-6.24 0-2.704 0.544-4.928 1.648-6.656s2.528-3.136 4.256-4.208c1.728-1.088 3.68-1.904 5.824-2.48 2.16-0.576 4.256-1.072 6.32-1.472 1.904-0.4 3.744-0.8 5.504-1.2s3.296-0.96 4.624-1.696c1.328-0.72 2.384-1.648 3.168-2.752 0.768-1.104 1.168-2.56 1.168-4.368 0-3.008-1.216-5.408-3.648-7.184s-6.24-2.672-11.408-2.672c-6.128 0-11.968 1.136-17.536 3.392l-2.032-6.096c1.648-0.704 4.16-1.456 7.488-2.256 3.344-0.8 7.376-1.2 12.080-1.2zM188.080 173.173c0 4.016-0.576 7.68-1.728 10.992s-2.848 6.144-5.072 8.512c-2.24 2.352-4.992 4.192-8.272 5.488-3.296 1.296-7.056 1.952-11.328 1.952h-20.88v-54.272h20.848c4.576 0 8.512 0.672 11.824 2.032s6.048 3.248 8.208 5.68c2.16 2.432 3.76 5.312 4.816 8.656s1.584 7.008 1.584 10.96zM246.176 172.805c0 3.712-0.48 7.28-1.44 10.688s-2.448 6.432-4.48 9.040c-2.032 2.608-4.672 4.688-7.904 6.24-3.248 1.552-7.12 2.336-11.632 2.336-4.416 0-8.24-0.784-11.44-2.336-3.216-1.552-5.84-3.632-7.904-6.24s-3.584-5.616-4.592-9.040c-0.992-3.408-1.504-6.976-1.504-10.688s0.464-7.28 1.424-10.688c0.96-3.408 2.432-6.432 4.432-9.040 2.064-2.608 4.704-4.688 7.952-6.24 3.232-1.552 7.104-2.336 11.632-2.336 4.416 0 8.224 0.784 11.44 2.336s5.84 3.632 7.904 6.24 3.584 5.616 4.592 9.040c1.008 3.408 1.52 6.976 1.52 10.688zM251.152 234.965l5.184 4.448-12.336 14.448c-1.056 1.2-2.048 2.224-2.976 3.088s-1.92 1.6-2.976 2.256c1.648 0.304 3.264 0.912 4.848 1.808 1.584 0.912 2.992 2.032 4.256 3.392 1.248 1.36 2.272 2.896 3.056 4.624 0.768 1.728 1.168 3.568 1.168 5.536 0 2.96-0.48 5.456-1.456 7.488-0.992 2.032-2.304 3.664-3.952 4.896s-3.584 2.112-5.792 2.672c-2.208 0.544-4.56 0.832-7.072 0.832h-19.424v-54.272h7.376v21.6h5.424c0.944 0 1.808-0.080 2.592-0.224s1.552-0.464 2.336-0.944c0.768-0.48 1.616-1.152 2.528-2.032 0.896-0.88 1.984-2.016 3.232-3.424l13.984-16.192zM317.536 199.525l-7.296 1.056-4.672-39.888c-0.256-2.064-0.672-3.728-1.28-5.008s-1.344-2.272-2.224-2.976c-0.88-0.704-1.84-1.184-2.896-1.424-1.056-0.256-2.128-0.384-3.232-0.384-1.456 0-2.816 0.208-4.064 0.608-1.264 0.4-2.336 1.024-3.248 1.888v46.736h-7.296v-46.736c-1.808-1.664-4.16-2.48-7.072-2.48-1.152 0-2.256 0.128-3.312 0.384s-2.032 0.72-2.944 1.424c-0.896 0.704-1.664 1.696-2.288 2.976s-1.072 2.944-1.312 5.008l-4.672 39.888-7.296-1.056 4.88-40.192c0.512-4.464 1.952-7.984 4.336-10.576 2.384-2.576 6.112-3.872 11.184-3.872 2.448 0 4.608 0.272 6.464 0.832 1.856 0.544 3.744 1.36 5.648 2.4 3.216-2.16 7.248-3.232 12.128-3.232 2.56 0 4.752 0.336 6.592 1.008 1.824 0.672 3.376 1.632 4.624 2.864s2.24 2.736 2.928 4.512c0.704 1.776 1.184 3.808 1.44 6.064l4.88 40.176zM319.792 236.181h37.936v6.096h-30.56v48.176h-7.376v-54.272zM371.2 200.117h-7.072v-45.088c0-0.8-0.048-1.376-0.16-1.728-0.096-0.352-0.352-0.528-0.752-0.528-0.304 0-0.544 0.144-0.72 0.416s-0.384 0.608-0.64 1.008l-27.168 45.92h-8.128v-54.272h7.152v42.528l21.376-36.272c0.656-1.056 1.264-2 1.84-2.864s1.184-1.584 1.84-2.176c0.64-0.608 1.392-1.056 2.224-1.36 0.816-0.304 1.808-0.448 2.976-0.448 0.912 0 1.792 0.16 2.672 0.496 0.88 0.32 1.648 0.864 2.336 1.616 0.672 0.752 1.216 1.76 1.616 3.008s0.608 2.832 0.608 4.736v45.008zM402.8 242.277h-30.56v48.176h-7.376v-54.272h37.936v6.096z" />
<glyph unicode="&#xe619;" d="M34.304 84.821c-22.88 39.216-34.336 82.064-34.336 128.512s11.44 89.28 34.336 128.512 53.952 70.288 93.168 93.168 82.080 34.352 128.528 34.352 89.28-11.456 128.512-34.352 70.288-53.952 93.168-93.168 34.336-82.064 34.336-128.512-11.44-89.28-34.336-128.512-53.952-70.288-93.168-93.168c-39.232-22.88-82.064-34.336-128.512-34.336s-89.28 11.456-128.512 34.336c-39.232 22.88-70.288 53.936-93.184 93.168zM124.4 203.477c0-4.592 1.536-8.416 4.592-11.488l92.32-92.32c3.232-3.232 7.056-4.848 11.472-4.848 4.592 0 8.496 1.616 11.728 4.848l138.48 138.48c3.056 3.056 4.592 6.88 4.592 11.488 0 4.752-1.536 8.672-4.592 11.728l-23.2 22.96c-3.232 3.232-7.056 4.848-11.472 4.848-4.432 0-8.256-1.616-11.488-4.848l-104.048-103.792-57.632 57.632c-3.232 3.232-7.056 4.848-11.472 4.848-4.432 0-8.256-1.616-11.488-4.848l-23.2-22.96c-3.056-3.056-4.592-6.976-4.592-11.728z" />
<glyph unicode="&#xe61a;" d="M256 469.365c-141.392 0-256.032-114.64-256.032-256.032s114.64-256.032 256.032-256.032c141.392 0 256.032 114.624 256.032 256.032s-114.64 256.032-256.032 256.032zM256-25.627c-131.968 0-238.96 106.992-238.96 238.96s106.992 238.96 238.96 238.96 238.96-106.992 238.96-238.96c0-131.968-106.992-238.96-238.96-238.96zM179.344 179.141l-17.168 17.152 93.904 93.808 93.904-93.808-17.184-17.152-76.736 76.656-76.72-76.656z" />
<glyph unicode="&#xe61b;" d="M80.336 237.269c-2.736-1.28-5.392-2.416-7.968-3.408s-5.216-1.824-7.968-2.496c-2.736-0.688-5.584-1.2-8.528-1.536-2.96-0.336-6.192-0.512-9.696-0.512-8.48 0-15.648 1.216-21.504 3.664-5.872 2.432-10.608 5.824-14.256 10.144s-6.288 9.44-7.968 15.344c-1.664 5.904-2.512 12.32-2.512 19.264s1.024 13.328 3.088 19.184 5.088 10.928 9.104 15.216c4.064 4.256 9.072 7.6 15.056 10s12.912 3.6 20.8 3.6c6.416 0 12.080-0.64 17.008-1.92 4.928-1.296 9.568-2.88 13.936-4.768l-5.904-15.536c-3.072 1.28-5.792 2.288-8.144 3.008s-4.512 1.28-6.48 1.664c-1.968 0.384-3.808 0.64-5.52 0.768s-3.456 0.192-5.264 0.192c-8.816 0-15.584-2.736-20.288-8.224-4.704-5.472-7.056-13.216-7.056-23.232 0-10.704 2.368-18.672 7.12-23.936s11.44-7.888 20.080-7.888c2.48 0 4.752 0.128 6.8 0.384s4.096 0.64 6.096 1.152c2 0.512 4.128 1.184 6.352 1.984 2.224 0.816 4.784 1.808 7.696 3.008l5.92-15.12zM131.936 229.317c-8.304 0-15.296 1.344-20.976 4.048-5.696 2.688-10.32 6.288-13.872 10.784s-6.096 9.648-7.632 15.472-2.32 11.808-2.32 17.968c0 6.16 0.832 12.128 2.512 17.904 1.664 5.776 4.32 10.912 7.968 15.408 3.632 4.496 8.272 8.096 13.92 10.784s12.432 4.032 20.4 4.032c8.304 0 15.296-1.344 20.992-4.048 5.696-2.688 10.288-6.288 13.792-10.784s6.048-9.632 7.632-15.408c1.584-5.776 2.368-11.744 2.368-17.904s-0.832-12.16-2.496-17.968c-1.664-5.824-4.32-10.976-7.968-15.472s-8.288-8.080-13.936-10.784c-5.616-2.688-12.416-4.032-20.384-4.032zM131.936 246.005c4.272 0 7.968 0.832 11.040 2.496 3.088 1.664 5.632 3.92 7.632 6.736 2.016 2.832 3.488 6.16 4.432 10.016s1.408 7.968 1.408 12.32c0 4.368-0.48 8.448-1.408 12.256-0.944 3.808-2.416 7.136-4.432 10.016-2.016 2.864-4.56 5.104-7.632 6.736s-6.768 2.448-11.040 2.448c-4.272 0-7.968-0.816-11.040-2.448s-5.632-3.872-7.632-6.736c-2.016-2.864-3.488-6.208-4.432-10.016s-1.408-7.888-1.408-12.256c0-4.368 0.464-8.48 1.408-12.32 0.944-3.856 2.416-7.184 4.432-10.016s4.56-5.072 7.632-6.736c3.072-1.664 6.768-2.496 11.040-2.496zM190.464 324.053h17.968l24-42.624c0.688-1.2 1.264-2.032 1.728-2.496s1.040-0.704 1.728-0.704c0.688 0 1.264 0.24 1.728 0.704s1.040 1.312 1.728 2.496l23.744 42.624h17.328v-92.56h-18.88v56.48l-9.76-16.816c-2.736-4.88-5.44-8.144-8.080-9.824-2.656-1.664-5.472-2.496-8.464-2.496-3.088 0-5.904 0.88-8.48 2.64-2.576 1.744-5.184 5.024-7.824 9.824l-9.328 16.544v-56.352h-19.12v92.56zM298.432 324.053h19.504v-92.56h-19.504v92.56zM335.904 324.053h19.632l39.792-69.056v69.056h18.608v-70.992c0-2.144-0.112-4.384-0.32-6.736s-0.48-4.128-0.832-5.328c-0.688-2.32-1.568-4.144-2.64-5.52s-2.208-2.4-3.408-3.088c-1.2-0.688-2.4-1.104-3.6-1.28s-2.272-0.256-3.216-0.256c-1.792 0-3.456 0.256-5.008 0.768s-3.040 1.344-4.496 2.496c-1.456 1.152-2.88 2.656-4.304 4.496-1.408 1.84-2.896 4.080-4.432 6.736l-27.088 44.928v-58.8h-18.736v92.576zM473.52 283.877h38.512v-43.776c-2.224-1.536-4.768-2.976-7.632-4.304s-5.952-2.48-9.248-3.472c-3.296-0.992-6.72-1.728-10.272-2.256-3.552-0.512-7.088-0.768-10.592-0.768-8.72 0-16.064 1.216-22.016 3.664s-10.736 5.824-14.368 10.144c-3.648 4.32-6.24 9.44-7.84 15.344-1.584 5.904-2.368 12.32-2.368 19.264s1.088 13.328 3.28 19.184c2.192 5.856 5.376 10.928 9.568 15.216 4.192 4.272 9.36 7.616 15.536 10.016s13.184 3.6 21.056 3.6c6.416 0 12.176-0.64 17.264-1.92s9.824-2.864 14.192-4.752l-5.904-15.536c-3.088 1.28-5.84 2.288-8.288 3.008s-4.64 1.28-6.608 1.664c-1.968 0.384-3.856 0.64-5.648 0.768s-3.6 0.192-5.392 0.192c-8.816 0-15.808-2.736-20.976-8.224-5.184-5.472-7.76-13.216-7.76-23.232 0-10.704 2.288-18.656 6.864-23.872s11.056-7.824 19.44-7.824c3.856 0 7.36 0.368 10.528 1.088s5.776 1.648 7.824 2.768v17.584h-19.12v16.432zM77.12 124.181c5.552-2.224 10.816-3.904 15.792-5.008 4.96-1.12 9.76-1.664 14.368-1.664 6.848 0 11.872 1.072 15.088 3.2 3.216 2.144 4.816 5.056 4.816 8.736 0 2.048-0.464 3.792-1.408 5.2s-2.272 2.592-3.984 3.536c-1.712 0.944-3.76 1.728-6.16 2.368s-5.088 1.216-8.080 1.728c-3.856 0.688-7.68 1.568-11.488 2.624-3.808 1.072-7.2 2.592-10.144 4.56-2.96 1.968-5.344 4.496-7.184 7.568-1.84 3.088-2.752 6.976-2.752 11.68 0 4.112 0.688 7.888 2.048 11.36s3.568 6.48 6.608 9.056c3.040 2.56 6.992 4.576 11.872 6.032s10.784 2.176 17.712 2.176c6.080 0 11.84-0.64 17.328-1.92 5.472-1.28 10.32-2.784 14.512-4.496l-4.752-15.664c-5.136 1.792-10.016 3.184-14.64 4.176-4.624 0.976-9.12 1.472-13.488 1.472-5.904 0-10.256-0.88-13.024-2.64-2.768-1.728-4.16-4.272-4.16-7.616 0-1.792 0.4-3.312 1.216-4.56s2.016-2.288 3.6-3.152c1.584-0.864 3.504-1.584 5.776-2.176 2.256-0.592 4.816-1.152 7.632-1.664 3.936-0.768 7.872-1.696 11.808-2.768s7.488-2.64 10.656-4.688c3.168-2.048 5.728-4.752 7.696-8.096 1.968-3.328 2.96-7.568 2.96-12.704 0-4.544-0.88-8.64-2.64-12.32s-4.32-6.832-7.696-9.44c-3.376-2.608-7.552-4.624-12.512-6.032s-10.704-2.128-17.2-2.128c-3.936 0-7.696 0.24-11.296 0.704s-6.912 1.056-9.952 1.728c-3.040 0.688-5.776 1.424-8.224 2.24-2.432 0.816-4.464 1.568-6.096 2.24l5.392 16.352zM201.632 100.949c-8.304 0-15.296 1.344-20.976 4.048-5.696 2.688-10.32 6.288-13.872 10.784s-6.096 9.648-7.632 15.472-2.32 11.808-2.32 17.968c0 6.16 0.832 12.128 2.512 17.904 1.664 5.776 4.32 10.912 7.968 15.408 3.632 4.496 8.272 8.096 13.92 10.784s12.448 4.048 20.416 4.048c8.304 0 15.296-1.344 20.992-4.048 5.696-2.688 10.288-6.288 13.792-10.784s6.048-9.632 7.632-15.408c1.584-5.776 2.368-11.744 2.368-17.904s-0.832-12.16-2.496-17.968c-1.664-5.824-4.32-10.976-7.968-15.472s-8.288-8.080-13.936-10.784c-5.632-2.704-12.432-4.048-20.4-4.048zM201.632 117.637c4.272 0 7.968 0.832 11.040 2.496 3.088 1.664 5.632 3.92 7.632 6.736s3.488 6.16 4.432 10.016c0.944 3.856 1.408 7.968 1.408 12.32 0 4.368-0.48 8.448-1.408 12.256-0.944 3.808-2.416 7.136-4.432 10.016-2.016 2.864-4.56 5.104-7.632 6.736s-6.768 2.448-11.040 2.448-7.968-0.816-11.040-2.448c-3.072-1.632-5.632-3.872-7.632-6.736-2.016-2.864-3.488-6.208-4.432-10.016s-1.408-7.888-1.408-12.256c0-4.368 0.464-8.48 1.408-12.32 0.944-3.856 2.416-7.184 4.432-10.016s4.56-5.072 7.632-6.736c3.088-1.664 6.768-2.496 11.040-2.496zM300.992 100.949c-8.304 0-15.296 1.344-20.976 4.048-5.696 2.688-10.32 6.288-13.872 10.784s-6.096 9.648-7.632 15.472c-1.536 5.824-2.32 11.808-2.32 17.968s0.832 12.128 2.512 17.904c1.664 5.776 4.32 10.912 7.968 15.408 3.632 4.496 8.272 8.096 13.92 10.784s12.448 4.048 20.416 4.048c8.304 0 15.296-1.344 20.992-4.048 5.696-2.688 10.288-6.288 13.792-10.784s6.048-9.632 7.632-15.408c1.584-5.776 2.368-11.744 2.368-17.904s-0.832-12.16-2.496-17.968c-1.664-5.824-4.32-10.976-7.968-15.472s-8.288-8.080-13.936-10.784c-5.632-2.704-12.432-4.048-20.4-4.048zM300.992 117.637c4.272 0 7.968 0.832 11.040 2.496 3.088 1.664 5.632 3.92 7.632 6.736 2.016 2.832 3.488 6.16 4.432 10.016s1.408 7.968 1.408 12.32c0 4.368-0.48 8.448-1.408 12.256-0.944 3.808-2.416 7.136-4.432 10.016-2.016 2.864-4.56 5.104-7.632 6.736s-6.768 2.448-11.040 2.448c-4.272 0-7.968-0.816-11.040-2.448s-5.632-3.872-7.632-6.736c-2.016-2.864-3.488-6.208-4.432-10.016s-1.408-7.888-1.408-12.256c0-4.368 0.464-8.48 1.408-12.32 0.944-3.856 2.416-7.184 4.432-10.016s4.56-5.072 7.632-6.736c3.088-1.664 6.768-2.496 11.040-2.496zM359.536 195.685h19.632l39.792-69.056v69.056h18.608v-70.992c0-2.144-0.112-4.384-0.32-6.736s-0.48-4.128-0.832-5.328c-0.688-2.32-1.568-4.144-2.64-5.52s-2.208-2.4-3.408-3.088c-1.2-0.688-2.4-1.104-3.6-1.28s-2.272-0.256-3.216-0.256c-1.792 0-3.456 0.256-5.008 0.768s-3.040 1.344-4.496 2.496c-1.456 1.152-2.88 2.656-4.304 4.496-1.408 1.84-2.896 4.080-4.432 6.736l-27.088 44.928v-58.8h-18.736v92.576z" />
<glyph unicode="&#xe61c;" d="M467.040 125.189h-96.944c-8.080 0-14.64-6.56-14.64-14.624v-96.96c0-8.080 6.56-14.624 14.64-14.624h96.944c8.080 0 14.624 6.544 14.624 14.624v96.96c0 8.064-6.544 14.624-14.624 14.624zM461.488 19.141h-85.872v85.872h85.872v-85.872zM105.072 22.757l52.592 65.264v-74.416c0-8.064-6.56-14.624-14.64-14.624h-96.944c-8.080 0-14.624 6.56-14.624 14.624v96.96c0 8.080 6.544 14.624 14.624 14.624h96.944c3.088 0 5.936-0.96 8.304-2.608-2.48-1.424-4.88-3.376-6.928-5.936l-52.992-65.712-20.72 27.936c-3.456 4.64-10.768 5.056-16.352 0.928l-2.528-1.872c-5.584-4.144-7.312-11.264-3.856-15.904l33.312-44.912c3.44-4.656 10.768-5.056 16.352-0.928l2.528 1.872c0.256 0.192 0.464 0.416 0.688 0.608 1.504 1.152 2.944 2.496 4.24 4.096zM486.8 331.509c0 0-2.672 3.216-6.848 8.272h19.040c7.2 0 13.056 5.856 13.056 13.056 0 7.248-5.856 13.12-13.056 13.12h-23.536c-4.896 0-9.168-2.8-11.36-6.8-13.872 17.008-29.664 45.536-34.768 52.352-8.24 10.944-80.928 10.816-101.632 10.544-10.16 0.128-10.048 0.224-31.504-1.008v-14.96h106.288c7.6-0.304 10.56-4.336 17.328-13.568l21.168-36.736c6.48-11.12-5.824-13.008-13.024-13.008h-131.76v-48.72h103.488c10.608 0 19.168-8.544 19.168-19.152 0-10.576-8.56-19.168-19.168-19.168h-103.488v-54.864c47.264 0.096 96.272 0.048 120.928-0.128v-27.328c0-15.392 12.464-20.896 27.872-20.896h8.272c15.392 0 27.888 5.504 27.888 20.896v29.792c21.456 6.048 26.096 26.4 26.096 26.4 7.392 86.256-20.448 101.904-20.448 101.904zM489.888 291.173l-3.488-14.368c-0.848-4.592-6.496-9.392-13.92-10.464l-25.728-6.96c-9.552-1.312-13.92 2.768-13.92 10.432v10.88c0.864 8.512 7.408 12.208 13.92 13.968l32.672 6.976c7.664 1.296 12.208-2.416 10.464-10.464zM184.32 422.037c-20.688 0.272-93.408 0.416-101.616-10.528-5.072-6.816-20.848-35.344-34.768-52.352-2.208 4.016-6.464 6.8-11.36 6.8h-23.552c-7.2 0-13.056-5.872-13.056-13.12 0-7.2 5.856-13.056 13.056-13.056h19.040c-4.16-5.056-6.816-8.272-6.816-8.272s-27.872-15.648-20.48-101.888c0 0 4.64-20.368 26.128-26.4v-29.792c0-15.392 12.48-20.896 27.856-20.896h8.272c15.424 0 27.872 5.504 27.872 20.896v27.328c24.688 0.176 73.664 0.224 120.928 0.128v54.864h-103.472c-10.624 0-19.168 8.576-19.168 19.168s8.544 19.152 19.168 19.152h103.472v48.704h-131.76c-7.168 0-19.488 1.888-12.992 13.008l21.12 36.736c6.784 9.232 9.76 13.264 17.36 13.568h106.272v14.96c-21.44 1.216-21.344 1.136-31.504 0.992zM79.152 280.693v-10.88c0-7.68-4.336-11.76-13.92-10.432l-25.696 6.96c-7.424 1.072-13.072 5.872-13.92 10.464l-3.488 14.368c-1.76 8.048 2.816 11.76 10.464 10.448l32.656-6.976c6.512-1.744 13.040-5.44 13.904-13.952zM115.344 282.869h100.48v-17.12h-100.48c-4.72 0-8.56 3.824-8.56 8.56 0 4.72 3.824 8.56 8.56 8.56zM238.048 438.565h33.616v-450.48h-33.616v450.48z" />
<glyph unicode="&#xe61d;" d="M110.064 354.069c-6.784-9.056-27.776-40.288-46.256-62.912-2.96 5.36-8.608 9.024-15.152 9.024h-31.296c-9.6 0-17.376-7.776-17.376-17.376s7.792-17.376 17.376-17.376h25.312c-5.536-6.736-9.088-11.008-9.088-11.008s-37.088-20.864-27.232-135.584c0 0 6.16-36.368 34.768-44.384v-39.632c0-20.48 16.608-27.808 37.088-27.808h11.008c20.48 0 37.088 7.328 37.088 27.808v36.352c34.48 0.24 66.512 0.24 91.36 0.208v82.224h-68.192c-14.080 0-25.488 11.424-25.488 25.488s11.424 25.488 25.488 25.488h68.192v61.808l-113.184 0.32c-15.456-3.088-31.68 4.24-22.4 20.080l30.128 40.176c9.664 13.12 13.904 19.696 24.72 20.080l80.736 2.080v19.056c-38.8-0.128-98.592-2.112-107.6-14.112zM86.8 205.349c8.688-2.32 17.376-7.248 18.544-18.544v-14.48c0-10.24-2.032-14.752-14.768-13.008l-37.952 8.368c-9.856 1.456-17.376 7.824-18.544 13.904l-4.64 19.12c-2.32 10.72 3.76 15.648 13.904 13.904l43.456-9.264zM238.704 420.149h30.896v-414.112h-30.896v414.112zM510.96 211.381c-1.456 93.584-35.344 61.648-45.36 93.104l34.848 3.152c10.64 0 10.704 22.608 10.704 33.248 0 10.656-8.928 8.432-19.584 8.432l-18.912 0.016c-15.264-0.912-7.072-19.088-15.696-23.52-22.064 53.024-35.92 82.864-49.84 89.392-8.768 4.112-53.584 3.648-115.872 5.424l0.272-16.304 90.4-2.32c7.248-0.288 19.424-2.064 24.624-11.584l24.672-51.504c9.648-20.64 3.76-19.472-16.56-20.752l-123.408 0.256v-46.096h88.352c16.368 0.768 17.856-17.648 12.576-32.336-6.64-18.48-11.28-39.328-33.136-39.856h-67.776v-28.88h108.976c4.272 0 7.744-3.472 7.744-7.744v-8.416c0-4.288-3.472-7.744-7.744-7.744h-108.976v-76.144c27.552 0.032 92.464 0.032 130.704-0.224v-33.904c0-22.704 9.008-30.848 31.728-30.848h16.992c22.704 0 32.944 8.704 32.944 31.408l1.6 85.984c10.464 18.896 5.728 87.76 5.728 87.76zM467.392 211.973l-66.544-2.336c27.808 52.736-1.152 60.848 16.24 59.952l46.96 0.032c18.896-0.688 19.504 2.48 22.24-14.832 0.016 0 3.888-41.216-18.896-42.816z" />
<glyph unicode="&#xe61e;" d="M342.592 466.373h-173.184c-93.184 0-169.44-76.24-169.44-169.44v-45.888c0-93.184 76.24-169.44 169.44-169.44h13.872v-121.312l117.552 121.312h41.76c93.184 0 169.44 76.24 169.44 169.44v45.888c0 93.184-76.256 169.44-169.44 169.44zM270.288 147.813c-5.264-5.024-12.432-7.536-21.52-7.536-8.608 0-15.552 2.512-20.8 7.536-5.264 5.024-7.888 11.712-7.888 20.080s2.624 15.008 7.888 19.904c5.264 4.896 12.192 7.344 20.8 7.344 9.088 0 16.256-2.448 21.52-7.344s7.888-11.536 7.888-19.904c0-8.368-2.64-15.072-7.888-20.080zM327.84 309.733c-3.232-8.016-7.232-14.832-12.016-20.448s-10.048-10.576-15.776-14.88c-5.744-4.304-11.008-8.912-15.776-13.808-4.784-4.896-8.848-10.576-12.192-17.040-3.344-6.448-5.024-14.704-5.024-24.752h-39.808c-1.2 12.432-0.608 23.008 1.792 31.744 2.384 8.72 5.68 16.256 9.856 22.592s8.96 11.84 14.352 16.496c5.376 4.656 10.4 9.136 15.056 13.456 4.656 4.304 8.544 8.784 11.664 13.456 3.104 4.656 4.656 10.224 4.656 16.672 0 8.368-2.336 15.056-6.992 20.080s-12.976 7.536-24.928 7.536c-3.824 0-7.888-0.416-12.192-1.264s-8.608-2.032-12.912-3.584c-4.304-1.552-8.432-3.36-12.368-5.376-3.936-2.032-7.472-4.128-10.576-6.272l-17.936 34.432c9.088 6.208 19.552 11.344 31.376 15.424 11.84 4.064 26.112 6.096 42.864 6.096 22.48 0 40.048-5.44 52.72-16.32s19.008-25.52 19.008-43.936c0-12.192-1.616-22.304-4.848-30.304z" />
<glyph unicode="&#xe61f;" d="M314.512 213.333l197.52-197.52-58.512-58.512-197.52 197.52-197.52-197.52-58.512 58.512 197.52 197.52-197.504 197.52 58.512 58.512 197.504-197.52 197.52 197.52 58.512-58.512-197.52-197.52z" />
<glyph unicode="&#xe620;" d="M256 469.365c-141.392 0-256.032-114.64-256.032-256.032s114.64-256.032 256.032-256.032 256.032 114.64 256.032 256.032-114.64 256.032-256.032 256.032zM372.112 185.845l-29.264-16.144c-27.392-15.12-72.24-39.856-99.632-54.976l-31.328-16.144c-27.408-15.12-51.888-1.888-51.888 29.408v28.448c0 31.296 0 82.496 0 113.792v28.448c0 31.296 24.48 44.528 51.888 29.408l30.304-16.144c27.392-15.12 72.752-39.856 100.144-54.976l29.632-16.144c27.392-15.12 27.552-39.856 0.144-54.976z" />
<glyph unicode="&#xe621;" d="M300.176 469.365h-219.664c-18.208 0-33.040-14.816-33.040-33.040v-445.984c0-18.224 14.816-33.040 33.040-33.040h350.944c18.224 0 33.056 14.816 33.056 33.040v314.688c0 18.416-145.904 164.336-164.336 164.336zM433.056 287.781v-3.616h-132.144c-10.56 0-19.152 8.592-19.152 19.152v134.688h0.208c17.168-5.456 145.744-134.048 151.088-150.224zM127.984 88.597h256.016c9.888 0 17.92-8.032 17.92-17.92 0-9.872-8.032-17.904-17.92-17.904h-256.016c-9.888 0-17.92 8.032-17.92 17.904 0.016 9.888 8.048 17.92 17.92 17.92zM384.016 124.165h-256.032c-9.888 0-17.92 8.048-17.92 17.92s8.032 17.904 17.92 17.904h256.016c9.888 0 17.92-8.032 17.92-17.904s-8.032-17.92-17.904-17.92z" />
<glyph unicode="&#xe622;" d="M209.104 303.141c0 29.008 14.432 54.592 36.448 70.128l1.728-0.72c0.592-0.256 1.072-0.72 1.344-1.312l5.088-11.44c0.416-0.928 0.24-2-0.448-2.752-0.288-0.32-7.152-7.776-12.288-12.272-2.88-2.528-3.216-8.96-3.056-12.352l2.528-1.264 27.28-12.688c0.224-0.112 0.432-0.24 0.608-0.4l11.008-9.792 6.832-1.952 14.224 15.36 3.744 49.344c0.048 0.56 0.272 1.088 0.64 1.504l5.728 6.352c0.336 0.368 0.784 0.64 1.28 0.768 0.176 0.048 0.656 0.144 1.376 0.144 1.968 0 6.864-0.848 9.888-8.688 2.976-7.744 10.416-27.184 11.344-29.632l10.656-16.304c0.144-0.24 0.272-0.48 0.336-0.752 0.208-0.816 5.168-20.128 5.168-29.888 0-4.688 11.44-17.056 22.336-27.168-13.568-29.536-43.328-50.080-77.952-50.080-47.424 0.032-85.84 38.464-85.84 85.856zM344.608 156.197c-15.6-5.28-32.288-8.176-49.68-8.176-85.68 0-155.12 69.456-155.12 155.12 0 15.584 2.32 30.624 6.592 44.816-2.080 1.984-4.128 4-5.76 5.632-0.912 0.896-2.352 0.992-3.36 0.208l-25.424-19.712c-0.4-0.304-0.688-0.736-0.848-1.2l-3.488-10.448-14.32-7.152c-0.544-0.288-0.976-0.752-1.216-1.312l-5.584-13.696c-3.968-7.024-8.704-14.928-9.52-15.792-2.208-1.376-23.136-7.68-41.728-12.896-0.768-0.208-1.392-0.768-1.68-1.52-0.080-0.192-7.904-19.664-22.192-21.936-4.704-0.752-8.016-2.912-9.84-6.4-4.016-7.696 1.36-19.008 1.68-19.648l11.984-20.544-9.024-4.512c-0.672-0.336-1.152-0.944-1.328-1.68-0.176-0.72-0.032-1.488 0.416-2.096l21.872-30 2.464-17.808c0.096-0.64 0.432-1.232 0.944-1.648 5.104-4.048 12.336-11.456 12.448-15.248 0.016-0.464-0.096-0.752-0.272-0.976-8.528-3.888-12.912-7.872-13.392-12.144-0.416-3.664 2.24-5.776 2.832-6.176l27.344-15.264c0.944-0.528 2.096-0.4 2.912 0.304l24 20.928 28.832-1.84c0.384-0.032 0.816 0.048 1.2 0.208 0.288 0.128 7.232 3.328 7.232 12.496 0 2.704 7.808 5.856 15.36 8.896 6.928 2.8 15.552 6.272 23.488 11.2 5.84 3.616 11.136 5.456 15.744 5.456 5.232 0 7.68-2.416 7.76-2.48 0.192-0.208 0.432-0.4 0.688-0.528l29.952-15.6 13.632-19.824c0.4-0.576 1.008-0.96 1.712-1.072 0.688-0.112 1.408 0.080 1.952 0.512l12.704 9.872-0.912-14.064c-0.048-0.784 0.272-1.552 0.848-2.064 0.592-0.512 1.376-0.736 2.16-0.592l12.224 2.336 11.52-8.912c-1.2-2.8-2.784-6.304-3.456-7.312-3.072-4.608 13.12-21.76 15.328-23.232 4.144-2.768 17.856-5.2 19.408-5.472 0.912-0.176 1.856 0.208 2.448 0.944l7.056 9.072c3.6-3.936 7.136-8.032 7.584-8.96 0.256-0.784 0.96-2.88 12.672-9.072 0.384-0.208 0.784-0.304 1.184-0.304 0.768 0 1.52 0.352 2.016 0.992l6 7.808 12.192 6.096c0.208 0.112 0.416 0.24 0.592 0.4l8.272 7.632c0.208 0.192 0.368 0.4 0.512 0.656 0.496 0.912 12.16 22.4 14.096 26.912 0.64 1.504 3.056 5.76 6.16 10.944l-39.872 39.872zM338.64 38.869c-0.368 0.112-0.752 0.16-1.136 0.112l-9.184-1.232-21.904 3.136c-0.688 0.080-1.376-0.080-1.92-0.496s-0.896-1.040-0.976-1.712l-1.264-10.8c-0.064-0.544 0.048-1.072 0.32-1.552l8.272-14.624c0.096-0.16 0.208-0.32 0.336-0.464l13.344-14.624c0.48-0.528 1.168-0.832 1.872-0.832 0.064 0 0.128 0 0.192 0 0.784 0.064 1.488 0.48 1.92 1.12l6.224 9.36c0.080 0.096 7.584 9.456 10.624 12.512 3.536 3.536 7.552 7.552 5.648 12.272-1.552 3.856-9.168 6.752-12.368 7.824zM409.136 243.797c33.936-33.936 57.184-57.664 84.544-85.040 33.28-33.28 12.256-57.696 6.448-65.168l0.16-0.16c0 0-0.336-0.32-0.96-0.848-0.528-0.624-0.848-0.96-0.848-0.96l-0.16 0.16c-7.472-5.792-31.888-26.832-65.168 6.448-27.36 27.36-50.608 51.088-84.544 85.024-48.544-23.504-108.656-15.136-148.944 25.152-50.896 50.896-50.896 133.424 0 184.32s133.408 50.896 184.304 0c40.304-40.288 48.672-100.384 25.168-148.928zM367.808 376.549c-41.952 41.952-109.984 41.952-151.952 0s-41.952-109.984 0-151.952 109.984-41.952 151.952 0 41.952 109.984 0 151.952z" />
<glyph unicode="&#xe623;" d="M313.088 240.533c0-80.608-0.496-158.304 0.768-235.984 0.128-7.552 11.072-14.928 20.272-26.528 0-2.128 0-10.416 0-20.704-107.184 0-213.456 0-321.264 0 0 10.384 0 19.264 0 29.84 8.608 1.088 16.672 2.112 27.568 3.504 0.592 11.344 1.664 22.208 1.664 33.088 0.112 130.32 0 260.64 0.128 390.96 0.064 46.048 8.336 54.336 54.016 54.464 57.184 0.16 114.384 0.384 171.568-0.144 33.68-0.304 44.896-12.224 45.12-46.224 0.256-39.376-0.688-78.784 0.736-118.112 0.272-7.632 7.44-19.296 14.096-21.712 41.104-14.848 56.656-34.384 56.272-79.168-0.304-34.656-3.344-69.296-3.712-103.952-0.368-35.232 16.208-51.984 46-49.024 28.72 2.848 42.368 24.24 36.704 57.328-12.464 72.736-24.352 145.568-37.504 218.176-7.472 41.264-27.632 75.952-63.36 98.832-15.792 10.112-18.336 22.336-8.88 34.256 3.424 4.32 21.328 1.936 29.28-2.896 44.352-26.88 77.504-64.512 99.456-111.632 5.888-12.64 11.344-22.896-4.784-36.256-8.736-7.248-9.456-29.248-7.312-43.632 7.28-48.944 16.624-97.648 26.704-146.128 13.872-66.656-31.536-118.928-93.488-106.336-35.952 7.312-60.304 36.112-60.736 73.792-0.464 40.304 0.608 80.624 0.368 120.944-0.144 23.328-1.776 24.624-29.68 33.248zM84.56 428.645c0-50.416 0-97.504 0-145.648 62.24 0 122.448 0 183.312 0 0 49.488 0 97.296 0 145.648h-183.312z" />
<glyph unicode="&#xe624;" d="M457.6 213.333c-0.544 11.024-0.8 22.080-2.912 32.944 17.296 8.4 33.808 18.176 49.584 29.296-2.304 10.256-5.632 20.192-9.456 29.968-19.552 1.232-39.712 0.288-58.672-2.048-4.88 9.872-10.608 19.408-17.2 28.224-6.304 9.072-13.84 17.184-21.456 25.152 8.72 16.64 16.368 34.304 22.88 52.864-8.224 6.432-16.432 12.976-25.264 18.56-16.928-11.12-32.096-22.672-46.32-36.096-9.808 5.136-20.016 9.312-30.512 12.816-10.56 3.072-21.232 6.16-32.208 7.44-2.72 18.896-6.88 37.904-12.608 56.224-10.448 0.72-20.864 1.040-31.312 0.192-7.168-18.368-12.576-37.248-16.208-56.416-10.976-1.28-21.648-4.352-32.192-7.44-10.496-3.504-20.704-7.68-30.496-12.816-13.408 13.904-27.552 26.096-43.248 37.984-9.136-5.152-17.12-11.984-25.552-18.144 5.2-19.312 12.096-37.952 20.064-55.168-7.584-7.968-15.136-16.096-21.456-25.168-6.576-8.816-12.336-18.352-17.184-28.224-18.48 3.168-38.224 5.248-57.408 5.456-3.616-9.84-7.536-19.6-9.824-29.856 15.472-12.576 31.456-23.456 48.656-32.8-2.096-10.88-2.336-21.92-2.896-32.944 0.544-11.008 0.784-22.064 2.896-32.944-17.296-8.4-33.808-18.16-49.584-29.296 2.32-10.256 5.648-20.176 9.472-29.968 19.552-1.216 39.696-0.288 58.672 2.048 4.864-9.872 10.608-19.408 17.184-28.208 6.32-9.088 13.856-17.2 21.472-25.168-8.704-16.624-16.384-34.304-22.864-52.864 8.208-6.448 16.432-12.976 25.264-18.56 16.912 11.104 32.096 22.672 46.32 36.080 9.792-5.136 20-9.28 30.496-12.8 10.544-3.072 21.216-6.144 32.192-7.44 2.704-18.864 6.896-37.904 12.64-56.208 10.432-0.72 20.832-1.024 31.28-0.192 7.152 18.368 12.576 37.232 16.224 56.4 10.976 1.296 21.648 4.368 32.208 7.44 10.496 3.52 20.704 7.68 30.512 12.8 13.392-13.904 27.536-26.080 43.216-37.968 9.152 5.152 17.12 11.984 25.568 18.144-5.216 19.296-12.128 37.936-20.096 55.168 7.616 7.968 15.152 16.080 21.456 25.168 6.592 8.8 12.32 18.336 17.2 28.208 18.496-3.168 38.224-5.248 57.392-5.456 3.616 9.856 7.536 19.616 9.824 29.872-15.488 12.576-31.456 23.472-48.672 32.816 2.128 10.848 2.384 21.904 2.928 32.928zM389.056 299.685c-0.88-18.992-13.792-110.912-82.624-171.152-25.92-22.672-79.648-39.936-125.104-8.304-36.416 25.392-44.864 2.736-49.248-7.104-3.888-8.752-12.016-8.704-8.592 9.68 3.456 18.4 31.936 55.088 66.496 69.504 34.592 14.448 112.976-0.288 162.048 69.648 3.024 4.32 2.144 11.392-4.496 2.144-6.624-9.216-36.768-34.048-60.496-41.872-22.864-7.568-52.864-12.208-76.592-15.472-26.112-3.6-54.64-20.784-63.616-34.704-5.248-8.128-11.6-12.928-8.336 3.504 8.4 42.272 48.112 110.656 125.84 111.12 64.896 0.416 89.040 6.32 106.352 26.32 18.368 21.248 19.36 7.808 18.368-13.312z" />
<glyph unicode="&#xe625;" d="M325.856 109.221c0-8.112-6.576-14.688-14.688-14.688h-110.336c-8.112 0-14.688 6.576-14.688 14.688s6.576 14.688 14.688 14.688h110.32c8.128 0 14.704-6.576 14.704-14.688zM132.64 294.501h37.184c1.52 0 2.752 1.232 2.752 2.752v42.432c0 46.016 37.424 83.44 83.44 83.44s83.44-37.44 83.44-83.44v-42.432c0-1.52 1.232-2.752 2.752-2.752h37.184c1.52 0 2.752 1.232 2.752 2.752v50.464c0 68.208-55.392 121.648-126.112 121.648s-126.112-53.44-126.112-121.648v-50.464c-0.032-1.52 1.2-2.752 2.72-2.752zM351.648 170.405l-17.344 23.136c-5.552 7.552-8 10.896-14.24 11.12l-68.144-0.208-59.984 0.208c-6.224-0.224-8.672-3.568-14.24-11.12l-17.344-23.136c-5.344-9.12 4.784-10.672 10.672-10.672l84.976-0.256 84.976 0.256c5.888-0.016 16.016 1.536 10.672 10.672zM164.736 124.357l-25.024 5.344c-5.84 1.008-9.344-1.84-8-8.016l2.672-11.008c0.672-3.504 5.008-7.168 10.672-8l19.68-5.344c7.344-1.008 10.672 2.112 10.672 8.016v8.336c-0.656 6.496-5.664 9.328-10.672 10.672zM347.264 124.357c-5.008-1.328-10.016-4.176-10.672-10.672v-8.336c0-5.904 3.344-9.008 10.672-8.016l19.68 5.344c5.68 0.832 10.016 4.496 10.672 8l2.672 11.008c1.328 6.176-2.176 9.008-8 8.016l-25.024-5.344zM452.176 229.685v-230.048c0-23.392-18.96-42.336-42.336-42.336h-307.68c-23.376 0-42.336 18.96-42.336 42.336v230.048c0 23.392 18.96 42.336 42.336 42.336h307.664c23.392 0 42.352-18.944 42.352-42.336zM372.672 158.949h14.576c5.536 0 10.016 4.48 10.016 10.016s-4.48 10.016-10.016 10.016h-18.016c-3.776 0-7.024-2.112-8.72-5.2-10.64 13.024-22.736 28.352-26.64 33.552-6.288 8.384-62 8.272-77.856 8.080-15.856 0.208-71.568 0.304-77.856-8.080-3.904-5.216-16-20.528-26.64-33.552-1.712 3.088-4.96 5.2-8.72 5.2h-18.048c-5.52 0-10.016-4.48-10.016-10.016s4.48-10.016 10.016-10.016h14.576c-3.184-3.872-5.232-6.336-5.232-6.336s-21.36-12.016-15.68-78.080c0 0 3.552-15.6 20.016-20.224v-22.832c0-11.792 9.568-16.016 21.36-16.016h6.336c11.792 0 21.36 4.224 21.36 16.016v20.928c24.848 0.176 54.304 0.128 65.952 0.096v-0.016c0 0 0.912 0 2.56 0s2.56 0 2.56 0v0.016c11.664 0.032 41.12 0.080 65.952-0.096v-20.928c0-11.792 9.568-16.016 21.36-16.016h6.336c11.792 0 21.36 4.224 21.36 16.016v22.832c16.464 4.608 20.016 20.224 20.016 20.224 5.68 66.064-15.68 78.080-15.68 78.080s-2.048 2.448-5.232 6.336z" />
<glyph unicode="&#xe626;" d="M409.84 272.021h-307.68c-23.376 0-42.336-18.96-42.336-42.336v-230.048c0-23.392 18.96-42.336 42.336-42.336h307.664c23.392 0 42.336 18.96 42.336 42.336v230.048c0.016 23.392-18.944 42.336-42.32 42.336zM198.64 171.957c2.208 34.768 27.024 62.208 57.36 62.208s55.152-27.44 57.36-62.208c4.080-1.36 7.184-7.456 7.184-14.832 0-8.352-3.984-15.104-8.88-15.104-0.512 0-0.992 0.112-1.472 0.256-7.952-30.624-29.184-60.048-54.192-60.048s-46.24 29.408-54.192 60.032c-0.48-0.128-0.96-0.24-1.472-0.24-4.896 0-8.88 6.752-8.88 15.104 0.016 7.36 3.104 13.472 7.184 14.832zM392.768-4.811h-273.536c-3.216 49.264 22.4 57.584 22.4 57.584 65.264 29.76 71.648 37.424 71.648 37.424 3.248-22.704 30.768-31.968 42.736-34.944 11.968 2.976 39.488 12.224 42.736 34.944 0 0 6.4-7.68 71.648-37.424-0.016-0.016 25.568-8.32 22.368-57.584zM129.888 297.253v50.464c0 68.208 55.392 121.648 126.112 121.648s126.112-53.44 126.112-121.648v-50.464c0-1.52-1.232-2.752-2.752-2.752h-37.184c-1.52 0-2.752 1.232-2.752 2.752v42.432c0 46.016-37.424 83.44-83.44 83.44s-83.44-37.44-83.44-83.44v-42.432c0-1.52-1.232-2.752-2.752-2.752h-37.152c-1.52 0-2.752 1.232-2.752 2.752z" />
<glyph unicode="&#xe627;" d="M129.888 297.253v50.464c0 68.208 55.392 121.648 126.112 121.648s126.112-53.44 126.112-121.648v-50.464c0-1.52-1.232-2.752-2.752-2.752h-37.184c-1.52 0-2.752 1.232-2.752 2.752v42.432c0 46.016-37.424 83.44-83.44 83.44s-83.44-37.44-83.44-83.44v-42.432c0-1.52-1.232-2.752-2.752-2.752h-37.152c-1.52 0-2.752 1.232-2.752 2.752zM452.176 229.685v-230.048c0-23.392-18.96-42.336-42.336-42.336h-307.68c-23.376 0-42.336 18.96-42.336 42.336v230.048c0 23.392 18.96 42.336 42.336 42.336h307.664c23.392 0 42.352-18.944 42.352-42.336zM332.304 83.157c0 10.24-1.968 18.704-5.888 25.36-3.936 6.656-9.056 12.048-15.376 16.144s-13.408 7.216-21.264 9.36c-7.856 2.128-15.712 3.968-23.568 5.504-5.632 1.024-10.72 2.128-15.248 3.328s-8.368 2.64-11.536 4.352c-3.168 1.712-5.552 3.792-7.168 6.272-1.632 2.48-2.432 5.504-2.432 9.088 0 6.656 2.768 11.744 8.32 15.248s14.224 5.248 26 5.248c8.704 0 17.68-0.992 26.896-2.944 9.216-1.968 18.96-4.736 29.216-8.336l9.488 31.264c-8.368 3.408-18.032 6.4-28.944 8.96-6.72 1.568-13.68 2.608-20.848 3.216v26.544h-36.992v-27.568c-4.336-0.688-8.384-1.584-12.112-2.688-9.728-2.912-17.632-6.912-23.696-12.048-6.064-5.12-10.464-11.152-13.2-18.064s-4.096-14.48-4.096-22.672c0-9.392 1.84-17.168 5.504-23.312s8.448-11.184 14.352-15.12c5.888-3.936 12.64-6.96 20.24-9.088 7.6-2.144 15.248-3.888 22.928-5.248 5.984-1.024 11.36-2.176 16.144-3.456s8.88-2.864 12.304-4.736c3.408-1.872 6.064-4.224 7.936-7.040s2.816-6.272 2.816-10.384c0-7.344-3.2-13.152-9.616-17.424-6.4-4.272-16.448-6.4-30.112-6.4-9.216 0-18.8 1.104-28.704 3.328s-20.416 5.552-31.52 10l-10.768-32.544c3.248-1.376 7.296-2.864 12.176-4.48 4.864-1.632 10.336-3.12 16.4-4.48s12.688-2.512 19.856-3.456c4.256-0.56 8.64-0.928 13.136-1.152v-31.632h36.992v34c2.32 0.48 4.592 1.008 6.752 1.616 9.904 2.816 18.224 6.832 24.976 12.048 6.752 5.2 11.872 11.488 15.376 18.832 3.52 7.296 5.28 15.504 5.28 24.56z" />
<glyph unicode="&#xe628;" d="M432.256 17.989c2.336-5.824-2.608-10.768-6.96-15.12-3.744-3.744-12.992-15.28-13.072-15.408l-7.664-11.52c-0.528-0.8-1.408-1.312-2.368-1.392-0.080 0-0.16 0-0.24 0-0.88 0-1.712 0.368-2.304 1.024l-16.448 18c-0.16 0.176-0.304 0.368-0.416 0.576l-10.176 18c-0.32 0.576-0.464 1.248-0.384 1.904l1.568 13.312c0.096 0.832 0.528 1.6 1.2 2.112s1.504 0.72 2.352 0.624l26.976-3.856 11.312 1.504c0.48 0.048 0.944 0.016 1.408-0.128 3.936-1.312 13.312-4.88 15.216-9.632zM511.408 212.405c-0.96-3.136-2.128-9.104-3.456-16.016-3.808-19.68-6.848-33.952-11.408-38.512-5.744-5.744-28.24-42.704-30.656-48.336-2.384-5.552-16.736-32.016-17.344-33.136-0.16-0.304-0.384-0.576-0.624-0.8l-10.176-9.392c-0.224-0.208-0.464-0.368-0.72-0.496l-15.008-7.504-7.392-9.616c-0.608-0.8-1.536-1.216-2.48-1.216-0.496 0-0.992 0.112-1.456 0.368-14.416 7.632-15.28 10.208-15.6 11.168-0.56 1.152-4.912 6.192-9.344 11.040l-8.704-11.184c-0.72-0.912-1.888-1.376-3.008-1.168-1.904 0.336-18.8 3.344-23.904 6.736-2.72 1.824-22.656 22.928-18.88 28.608 0.832 1.248 2.768 5.552 4.256 9.008l-14.192 10.976-15.056-2.864c-0.96-0.176-1.936 0.096-2.656 0.72-0.72 0.64-1.12 1.584-1.056 2.544l1.12 17.328-15.664-12.176c-0.688-0.528-1.552-0.752-2.4-0.624s-1.616 0.608-2.096 1.328l-16.784 24.416-36.88 19.216c-0.32 0.16-0.608 0.384-0.848 0.656-0.096 0.096-3.088 3.056-9.552 3.056-5.68 0-12.208-2.256-19.392-6.72-9.776-6.064-20.384-10.336-28.928-13.792-9.296-3.744-18.928-7.616-18.928-10.96 0-11.296-8.544-15.216-8.912-15.392-0.464-0.208-0.992-0.304-1.472-0.256l-35.504 2.272-29.552-25.792c-0.992-0.864-2.432-1.024-3.584-0.368l-33.664 18.784c-0.72 0.512-3.984 3.088-3.488 7.616 0.592 5.264 5.984 10.16 16.496 14.96 0.224 0.288 0.352 0.64 0.336 1.216-0.144 4.672-9.056 13.792-15.328 18.784-0.624 0.496-1.040 1.232-1.152 2.032l-3.024 21.92-26.944 36.912c-0.544 0.752-0.736 1.696-0.512 2.592s0.816 1.648 1.648 2.064l11.104 5.552-14.752 25.296c-0.4 0.8-7.024 14.72-2.080 24.208 2.24 4.288 6.32 6.944 12.112 7.872 17.6 2.816 27.232 26.784 27.328 27.024 0.368 0.912 1.12 1.6 2.064 1.872 22.88 6.432 48.656 14.192 51.376 15.888 1.008 1.072 6.832 10.784 11.728 19.44l6.864 16.848c0.288 0.704 0.816 1.28 1.504 1.616l17.632 8.816 4.288 12.864c0.192 0.576 0.56 1.104 1.056 1.472l31.312 24.272c1.232 0.96 3.008 0.848 4.128-0.256 5.648-5.648 15.568-15.184 18.192-16.752 0 0 0.352-0.192 1.376-0.192 4.208 0 10.432 2.816 11.344 4.112 0.656 2.832 7.952 20.144 9.408 23.584 0.16 0.368 0.384 0.704 0.672 0.992l10.176 10.176c0.4 0.384 0.88 0.672 1.424 0.816l17.248 4.496 9.6 8.864c0.736 0.688 1.776 0.96 2.768 0.768l33.664-7.040 15.44-6.448c0.736-0.304 1.328-0.88 1.648-1.616l6.256-14.096c0.512-1.136 0.288-2.464-0.56-3.392-0.352-0.384-8.8-9.584-15.12-15.12-3.536-3.088-3.936-11.008-3.76-15.2l3.104-1.552 33.584-15.616c0.272-0.128 0.528-0.288 0.752-0.496l13.552-12.048 8.416-2.4 17.52 18.928 4.608 60.752c0.048 0.688 0.336 1.344 0.8 1.856l7.040 7.824c0.416 0.464 0.96 0.784 1.568 0.944 0.224 0.048 0.816 0.176 1.68 0.176 2.416 0 8.448-1.040 12.176-10.704 3.664-9.536 12.816-33.472 13.968-36.496l13.12-20.080c0.192-0.288 0.32-0.592 0.416-0.928 0.256-1.008 6.368-24.8 6.368-36.8 0-7.104 21.328-28.528 36.48-41.456 1.056-0.912 1.392-2.4 0.816-3.664-0.064-0.144-6.304-14.496 0.8-17.792 11.040-5.088 26.336-22.176 28.896-27.28 0.272-0.544 0.704-1.344 1.248-2.368 7.264-13.504 14.288-28.544 11.52-37.536z" />
<glyph unicode="&#xe629;" d="M432.256 17.989c2.336-5.824-2.608-10.768-6.96-15.12-3.744-3.744-12.992-15.28-13.072-15.408l-7.664-11.52c-0.528-0.8-1.408-1.312-2.368-1.392-0.080 0-0.16 0-0.24 0-0.88 0-1.712 0.368-2.304 1.024l-16.448 18c-0.16 0.176-0.304 0.368-0.416 0.576l-10.176 18c-0.32 0.576-0.464 1.248-0.384 1.904l1.568 13.312c0.096 0.832 0.528 1.6 1.2 2.112s1.504 0.72 2.352 0.624l26.976-3.856 11.312 1.504c0.48 0.048 0.944 0.016 1.408-0.128 3.936-1.312 13.312-4.88 15.216-9.632zM511.408 212.405c-0.96-3.136-2.128-9.104-3.456-16.016-3.808-19.68-6.848-33.952-11.408-38.512-5.744-5.744-28.24-42.704-30.656-48.336-2.384-5.552-16.736-32.016-17.344-33.136-0.16-0.304-0.384-0.576-0.624-0.8l-10.176-9.392c-0.224-0.208-0.464-0.368-0.72-0.496l-15.008-7.504-7.392-9.616c-0.608-0.8-1.536-1.216-2.48-1.216-0.496 0-0.992 0.112-1.456 0.368-14.416 7.632-15.28 10.208-15.6 11.168-0.56 1.152-4.912 6.192-9.344 11.040l-8.704-11.184c-0.72-0.912-1.888-1.376-3.008-1.168-1.904 0.336-18.8 3.344-23.904 6.736-2.72 1.824-22.656 22.928-18.88 28.608 0.832 1.248 2.768 5.552 4.256 9.008l-14.192 10.976-15.056-2.864c-0.96-0.176-1.936 0.096-2.656 0.72-0.72 0.64-1.12 1.584-1.056 2.544l1.12 17.328-15.664-12.176c-0.688-0.528-1.552-0.752-2.4-0.624s-1.616 0.608-2.096 1.328l-16.784 24.416-36.88 19.216c-0.32 0.16-0.608 0.384-0.848 0.656-0.096 0.096-3.088 3.056-9.552 3.056-5.68 0-12.208-2.256-19.392-6.72-9.776-6.064-20.384-10.336-28.928-13.792-9.296-3.744-18.928-7.616-18.928-10.96 0-11.296-8.544-15.216-8.912-15.392-0.464-0.208-0.992-0.304-1.472-0.256l-35.504 2.272-29.552-25.792c-0.992-0.864-2.432-1.024-3.584-0.368l-33.664 18.784c-0.72 0.512-3.984 3.088-3.488 7.616 0.592 5.264 5.984 10.16 16.496 14.96 0.224 0.288 0.352 0.64 0.336 1.216-0.144 4.672-9.056 13.792-15.328 18.784-0.624 0.496-1.040 1.232-1.152 2.032l-3.024 21.92-26.944 36.912c-0.544 0.752-0.736 1.696-0.512 2.592s0.816 1.648 1.648 2.064l11.104 5.552-14.752 25.296c-0.4 0.8-7.024 14.72-2.080 24.208 2.24 4.288 6.32 6.944 12.112 7.872 17.6 2.816 27.232 26.784 27.328 27.024 0.368 0.912 1.12 1.6 2.064 1.872 22.88 6.432 48.656 14.192 51.376 15.888 1.008 1.072 6.832 10.784 11.728 19.44l6.864 16.848c0.288 0.704 0.816 1.28 1.504 1.616l17.632 8.816 4.288 12.864c0.192 0.576 0.56 1.104 1.056 1.472l31.312 24.272c1.232 0.96 3.008 0.848 4.128-0.256 5.648-5.648 15.568-15.184 18.192-16.752 0 0 0.352-0.192 1.376-0.192 4.208 0 10.432 2.816 11.344 4.112 0.656 2.832 7.952 20.144 9.408 23.584 0.16 0.368 0.384 0.704 0.672 0.992l10.176 10.176c0.4 0.384 0.88 0.672 1.424 0.816l17.248 4.496 9.6 8.864c0.736 0.688 1.776 0.96 2.768 0.768l33.664-7.040 15.44-6.448c0.736-0.304 1.328-0.88 1.648-1.616l6.256-14.096c0.512-1.136 0.288-2.464-0.56-3.392-0.352-0.384-8.8-9.584-15.12-15.12-3.536-3.088-3.936-11.008-3.76-15.2l3.104-1.552 33.584-15.616c0.272-0.128 0.528-0.288 0.752-0.496l13.552-12.048 8.416-2.4 17.52 18.928 4.608 60.752c0.048 0.688 0.336 1.344 0.8 1.856l7.040 7.824c0.416 0.464 0.96 0.784 1.568 0.944 0.224 0.048 0.816 0.176 1.68 0.176 2.416 0 8.448-1.040 12.176-10.704 3.664-9.536 12.816-33.472 13.968-36.496l13.12-20.080c0.192-0.288 0.32-0.592 0.416-0.928 0.256-1.008 6.368-24.8 6.368-36.8 0-7.104 21.328-28.528 36.48-41.456 1.056-0.912 1.392-2.4 0.816-3.664-0.064-0.144-6.304-14.496 0.8-17.792 11.040-5.088 26.336-22.176 28.896-27.28 0.272-0.544 0.704-1.344 1.248-2.368 7.264-13.504 14.288-28.544 11.52-37.536zM314.448 317.237l-106.496-49.392c-17.712-8.224-16.912-19.568 1.776-25.216l2.4-0.72c18.688-5.648 38.736-24.752 44.544-42.448s17.488-17.776 25.968-0.176l48.608 100.896c8.48 17.6 0.912 25.28-16.8 17.056z" />
<glyph unicode="&#xe62a;" d="M512.032 246.357v-66.048h-512.064v66.048h512.064z" />
<glyph unicode="&#xe62b;" d="M499.904 27.973l-185.36 185.36 185.36 185.36c16.16 16.16 16.16 42.368 0 58.544-16.16 16.16-42.368 16.16-58.544 0l-185.36-185.36-185.36 185.36c-16.16 16.16-42.368 16.16-58.544 0s-16.16-42.368 0-58.544l185.36-185.36-185.36-185.36c-16.16-16.16-16.16-42.368 0-58.544 16.16-16.16 42.368-16.16 58.544 0l185.36 185.376 185.36-185.36c16.16-16.16 42.368-16.16 58.544 0 16.16 16.144 16.16 42.352 0 58.528z" />
<glyph unicode="&#xe62c;" d="M30.704 244.053h450.608c16.976 0 30.72-13.76 30.72-30.72v0c0-16.976-13.76-30.72-30.72-30.72h-450.608c-16.96 0-30.72 13.76-30.72 30.72v0c-0.016 16.96 13.744 30.72 30.72 30.72zM30.704 387.429h450.608c16.976 0 30.72-13.76 30.72-30.72v0c0-16.976-13.76-30.72-30.72-30.72h-450.608c-16.96 0-30.72 13.76-30.72 30.72v0c-0.016 16.96 13.744 30.72 30.72 30.72zM30.704 100.677h450.608c16.976 0 30.72-13.76 30.72-30.72v0c0-16.976-13.76-30.72-30.72-30.72h-450.608c-16.96 0-30.72 13.76-30.72 30.72v0c-0.016 16.976 13.744 30.72 30.72 30.72z" />
<glyph unicode="&#xe62d;" d="M141.824 340.517c0 71.12 54.208 128.848 121.104 128.848s121.104-57.728 121.104-128.848-54.208-128.848-121.104-128.848c-66.896 0-121.104 57.728-121.104 128.848zM267.072 188.597c-3.696 0-7.36-0.816-11.088-0.96-3.728 0.144-7.376 0.96-11.088 0.96-71.344 0-138.352-26.016-196.496-71.68v-138.768c0-11.456 9.376-20.832 20.832-20.832h373.504c11.456 0 20.832 9.376 20.832 20.832v138.768c-58.128 45.664-125.136 71.68-196.496 71.68z" />
<glyph unicode="&#xe62e;" d="M361.712 286.597c0.384 0.336 0.368 1.056 0.256 1.376-0.24 0.72-1.136 0.896-1.136 0.896s0.656 0.608 0.448 1.488c-0.256 1.136-1.664 0.992-1.664 0.992s0.544 1.296 0.096 2.064c-0.256 0.432-1.088 0.736-1.728 0.592-0.384-0.080-0.8-0.192-1.232-0.336v0c-0.112 0.528-0.656 1.456-1.6 0.384-0.816-0.928-2.656-2.704-3.392-4-1.456-2.352-1.232-5.248-3.056-5.616-6.912-1.36-20.736-1.488-24.208-1.664-3.472-0.16-7.76-1.344-10.032-1.824-3.728-0.8-11.072-1.008-17.84-0.864-3.888 0.080-9.392 1.76-13.408 2.128-4.208 0.384-8.368-0.176-9.616 0.336-0.192 0.080-0.352 0.176-0.512 0.288 0.672 0.384 1.264 0.912 1.792 1.488 0.672 0.752 1.232 1.6 1.68 2.512 0.832 1.648 1.312 3.44 1.6 5.264 0.544 0.992 0.944 1.952 1.072 2.832 0.224 1.568 0.16 2.624 0.192 3.728 0.24 0.624 0.448 1.248 0.608 1.904 0.192 0.848 0.288 1.744 0.224 2.624 0.336 1.232 0.656 2.592 0.72 4 0.016-0.064 0.032-0.128 0.064-0.176 0.192-0.512 0.384-1.024 0.672-1.488 0.272-0.48 0.72-0.848 1.264-0.976-0.528 0.128-0.96 0.512-1.216 0.992-0.272 0.464-0.448 0.976-0.624 1.504-0.048 0.144-0.080 0.288-0.128 0.432 0 0.048 0 0.080 0 0.128 0 0.064 0 0.144 0 0.224 0.48-0.752 1.104-1.408 1.888-1.824-0.848 0.528-1.472 1.312-1.904 2.16-0.080 1.216-0.48 2.672-1.344 4.048 0.176-0.096 0.352-0.192 0.544-0.24 0.432-0.128 0.88-0.176 1.328-0.16-0.432 0.048-0.864 0.16-1.264 0.336-0.192 0.096-0.384 0.208-0.544 0.336-0.080 0.064-0.16 0.144-0.224 0.224 0.208-0.128 0.416-0.24 0.64-0.336 0.4-0.176 0.816-0.336 1.264-0.336-0.432 0.032-0.832 0.208-1.2 0.416s-0.736 0.448-1.072 0.704c-0.048 0.032-0.080 0.080-0.128 0.112-0.416 0.656-0.896 1.28-1.44 1.84-0.96 0.992-2.16 1.808-3.504 2.144-0.080 0.048-0.176 0.096-0.256 0.16s-0.16 0.128-0.24 0.192h0.016c-0.448 0.464-0.96 0.8-1.52 1.072s-1.152 0.448-1.744 0.544c-0.608 0.096-1.216 0.096-1.808 0.016-1.024 0.16-2.048 0.208-3.072 0.144 0.896 0.016 1.792-0.064 2.672-0.224-0.336-0.064-0.672-0.144-1.008-0.24-1.168-0.032-2.32-0.24-3.456-0.496-0.896-0.208-1.776-0.48-2.64-0.816-0.304-0.128-0.608-0.256-0.896-0.384-0.096 0.128-0.16 0.256-0.224 0.4 0.032-0.144 0.096-0.288 0.176-0.416-0.032-0.016-0.048-0.016-0.080-0.032-0.064 0.176-0.144 0.336-0.208 0.512-0.128 0.4-0.256 0.816-0.368 1.232 0.064 0.352 0.16 0.688 0.352 1.008-0.176-0.272-0.288-0.576-0.384-0.88-0.208 0.832-0.368 1.664-0.48 2.512 0.048-1.056 0.16-2.128 0.384-3.184-0.016-0.256-0.016-0.496 0-0.752-0.304 0.352-0.56 0.752-0.752 1.184 0.176-0.496 0.448-0.96 0.784-1.376 0.016-0.192 0.048-0.384 0.096-0.56-0.032-0.016-0.048-0.032-0.080-0.048-0.192 0.16-0.368 0.336-0.528 0.544 0.112-0.224 0.272-0.416 0.448-0.592-0.224-0.144-0.432-0.288-0.64-0.464 0.208 0.176 0.416 0.32 0.656 0.448 0.080-0.080 0.144-0.16 0.24-0.24 0.064-0.24 0.128-0.464 0.208-0.688 0-0.112 0.016-0.224 0.016-0.336-0.080 0.032-0.176 0.080-0.272 0.112-0.016 0.096-0.016 0.192-0.048 0.288 0.016-0.096 0.016-0.192 0.032-0.272-0.304 0.112-0.624 0.192-0.96 0.224 0.336-0.064 0.656-0.176 0.96-0.32 0.016-0.144 0.016-0.304 0.016-0.448-0.112 0.064-0.24 0.144-0.368 0.192-0.72 0.336-1.52 0.512-2.304 0.48 0.96-0.032 1.888-0.384 2.656-0.928-0.048-0.512-0.176-1.024-0.368-1.504-0.192-0.512-0.464-0.992-0.736-1.472-0.352 0-0.72-0.016-1.072-0.112-0.4-0.096-0.8-0.288-1.040-0.64-0.032-0.048-0.064-0.112-0.096-0.16-0.416-0.192-0.8-0.496-0.944-0.976-0.080-0.32-0.080-0.656-0.048-0.96-0.032-0.064-0.080-0.112-0.112-0.176-0.208-0.464-0.144-0.976-0.032-1.44 0.144-0.464 0.464-0.88 0.88-1.152 0.16-0.096 0.336-0.176 0.512-0.24 0.208-0.864 0.336-1.76 0.32-2.64 0-0.048 0-0.112-0.016-0.176-0.672-0.384-1.168-0.864-1.392-1.52-0.944 0.288-0.368 0.96-1.232 1.84-1.216 1.232 0.080 1.872-2.56 5.808-1.616 2.4-1.536 14.56-1.536 18.432 0 4.352-1.2 6.4-1.872 11.952-0.608 4.88-1.232 19.168-1.232 19.168 0.64 2.8 6.896 4.736 7.76 6.256 0.864 1.504-0.224 1.728 0 4.96 0.224 3.248-2.144 2.576-2.144 2.576s-0.256 0.976-1.184 0.976c-1.296 0-1.408-1.616-4.416-3.776-1.12-0.8-0.704-2.528-0.704-2.528-2.56-2.080-3.136-2.672-4.048-4.16-0.944-1.568-0.672-3.664-0.672-3.664-0.448-3.76-3.248-18.496-3.456-26.608-0.608-23.744 3.152-34.864 3.152-37.888 0-4.048 1.2-11.424-2.256-16.544-3.456-5.104-7.984-8.096-6.688-14.544 0.384-1.904-1.872-11.008-2.48-17.632-0.592-6.608 1.056-12.928 0.304-18.64s-1.2-9.024 0.304-8.72c0 0-1.792-1.456-1.792-4.048s0.864-6.256-0.864-8.624-7.984-7.76-12.928-12.496c-4.96-4.736-15.072-16.816-16.592-20.032-1.52-3.232-1.52-5.392-1.52-9.264 0-3.888 1.936-7.328 9.92-9.488 7.968-2.16 20.912-5.392 24.56-6.464 3.664-1.072 4.896-2.56 6.624-2.992s2 0.832 3.504 0.624c1.504-0.224 2.688-4.464 5.264-4.464 1.68 0 2.928 1.456 2.928 1.456s0.64-2.256 3.12-2.912c2.48-0.64 1.84 0.64 4.416-1.408s5.168-4.192 6.784-5.6c1.616-1.392 4.176-3.008 5.92-5.808 1.616-2.592 2.256-5.28 4.208-5.28 1.248 0 1.824 1.184 2.096 2.672 0.096-4.736 4.544-8.752 6.608-8.752 2.096 0 3.168 0.992 3.168 5.168s0.944 12.4 1.728 18.288c1.36 1.968 5.152 5.616 5.152 6.912s-1.36 3.040-1.36 3.040 0.832 2.224 2.208 3.808c3.44 3.936 2.864 6.992 2.864 6.992 4.368 6.784 8.176 21.328 8.176 25.536s-0.56 5.856-4.928 10.816c-4.368 4.944-15.44 11.856-19.024 14.464s-3.648 5.536-5.088 7.040c-0.816 0.864-1.376 0.976-1.952 1.264-0.24 3.392-2.192 5.84-3.36 7.008-0.048 0.352-0.112 0.72-0.16 1.104-0.464 3.136-4.112 6.656-4.56 8.992-0.448 2.352 0.976 2.208 1.952 3.776s0.064 2.544 0.4 4.304c0.88 4.736 6.832 9.328 9.424 12.992 2.576 3.664 3.744 6.672 6.752 7.744 3.024 1.088 6.784 0.656 13.088 1.136 5.872 0.448 16.864 4.064 21.984 5.328 0.96 0.24 2.336 0 7.92 0.816 5.584 0.8 15.344 2.096 21.008 4.928 2.176 1.088 3.824 0.24 5.232 0.8 0.672 0.272 1.984 0.992 4.528 3.184 0.528 0.464 0.944 0.864 1.296 1.184 0.448-0.176 1.248-0.080 1.872 0.576 1.136 1.2 1.552 1.696 1.552 2.208-0.032 0.944-0.736 1.152-0.736 1.152zM279.904 300.597c-0.096-0.576-0.24-1.152-0.416-1.728 0.016 0.688 0.080 1.424 0.288 2.304 0.080 0.32 0.176 0.672 0.272 1.024 0-0.528-0.048-1.072-0.144-1.6zM279.248 312.853c0 0 0 0.016-0.016 0.032 0.016-0.016 0.016-0.016 0.016-0.032v0zM277.424 314.965c0.272-0.304 0.528-0.624 0.768-0.96v0c-1.104 1.008-2.464 2.192-4.032 3.168 1.264-0.416 2.384-1.232 3.264-2.208zM255.6 309.301c0.016 0.016 0.032 0.032 0.048 0.032-0.064-0.32-0.096-0.688-0.096-1.104 0-0.128 0-0.256 0.016-0.368-0.032 0.112-0.080 0.224-0.112 0.336-0.064 0.224-0.112 0.464-0.128 0.688 0.064 0.16 0.16 0.288 0.272 0.416zM256.080 310.357c0.016 0.112 0.048 0.224 0.080 0.336 0.128 0.064 0.272 0.128 0.416 0.176 0.080 0.016 0.16 0.032 0.224 0.048-0.304-0.128-0.544-0.32-0.72-0.56zM255.184 308.517c0.016-0.112 0.048-0.24 0.080-0.352 0.048-0.16 0.112-0.32 0.176-0.48-0.192 0.208-0.304 0.448-0.288 0.736 0 0.032 0.016 0.064 0.032 0.096zM259.568 316.757c-0.016 0.032-0.016 0.080-0.032 0.128 0.016 0 0.048 0.016 0.064 0.032 0.048-0.16 0.096-0.32 0.16-0.48-0.032 0.016-0.064 0.032-0.096 0.064-0.032 0.080-0.064 0.16-0.096 0.256zM261.488 315.733c-0.304 0.064-0.592 0.16-0.88 0.272-0.032 0.016-0.080 0.032-0.112 0.048-0.080 0.128-0.16 0.272-0.224 0.416 0.4-0.272 0.832-0.512 1.296-0.672-0.032-0.016-0.064-0.032-0.080-0.064zM259.904 316.117c0.064-0.16 0.128-0.32 0.208-0.48 0.128-0.224 0.288-0.464 0.464-0.688-0.032 0.016-0.048 0.048-0.080 0.064-0.096 0.064-0.192 0.112-0.288 0.176-0.176 0.336-0.32 0.688-0.448 1.040 0.048-0.032 0.096-0.080 0.144-0.112zM260.4 314.869c0.048-0.032 0.096-0.080 0.144-0.128-0.016-0.016-0.032-0.032-0.048-0.064-0.032 0.064-0.080 0.144-0.096 0.192-0.016 0.016-0.016 0 0 0zM260.24 314.485c-0.128 0.096-0.24 0.192-0.368 0.272 0 0.16 0 0.32-0.016 0.496 0.016-0.016 0.032-0.016 0.064-0.032 0.080-0.256 0.192-0.496 0.32-0.736zM260.096 314.213c-0.112-0.128-0.224-0.272-0.32-0.4 0.032 0.208 0.064 0.416 0.080 0.624 0.080-0.064 0.16-0.144 0.24-0.224zM261.072 315.317c-0.096 0.096-0.192 0.192-0.288 0.304 0.144-0.064 0.272-0.128 0.416-0.176-0.048-0.048-0.096-0.096-0.128-0.128zM262.736 316.821c-0.48-0.16-0.992-0.256-1.488-0.224-0.24 0.016-0.48 0.096-0.704 0.224 1.136 0.192 2.256 0.48 3.36 0.816-0.416-0.256-0.8-0.528-1.168-0.816zM267.776 318.965c0.048 0.016 0.096 0.016 0.16 0.032-0.016 0-0.032-0.016-0.048-0.016-0.048-0.016-0.080-0.016-0.112-0.016zM268.896 318.981c-0.096 0-0.192 0.016-0.288 0.016 0.064 0 0.128 0.016 0.192 0.016 0.032-0.016 0.064-0.032 0.096-0.032zM269.824 318.933c0.352-0.048 0.688-0.128 1.024-0.224 0.32-0.096 0.624-0.208 0.912-0.352-0.4 0.144-0.816 0.272-1.248 0.384-0.224 0.080-0.464 0.128-0.688 0.192zM269.408 319.077c-0.016 0-0.032 0-0.048 0 0.016 0.016 0.032 0.016 0.048 0zM268.56 319.061c-0.144-0.016-0.272-0.016-0.416-0.048 0.128 0.016 0.256 0.032 0.384 0.048 0.016 0 0.016 0 0.032 0zM261.024 317.493c0.864 0.304 1.76 0.544 2.64 0.736 0.56 0.112 1.136 0.192 1.712 0.256-1.584-0.672-3.184-1.264-4.864-1.664-0.032 0.016-0.080 0.032-0.112 0.048-0.112 0.064-0.192 0.16-0.272 0.272 0.304 0.128 0.592 0.24 0.896 0.352zM260.080 317.125c0.080-0.112 0.16-0.224 0.272-0.32l0.016-0.016c-0.016 0-0.032 0-0.032-0.016 0.016 0 0.032 0 0.048 0 0.24-0.192 0.528-0.32 0.832-0.368 0.32-0.064 0.656-0.064 0.992-0.032-0.128-0.112-0.24-0.224-0.368-0.336-0.624 0.144-1.232 0.4-1.744 0.768-0.032 0.080-0.064 0.176-0.096 0.256 0.016 0.032 0.048 0.048 0.080 0.064zM259.376 317.765c0.016-0.064 0.032-0.144 0.048-0.208s0.048-0.128 0.064-0.208c-0.016 0.016-0.032 0.032-0.048 0.064-0.032 0.112-0.064 0.224-0.064 0.352zM259.472 317.157c0.032-0.032 0.064-0.048 0.096-0.080 0.016-0.032 0.016-0.080 0.032-0.112-0.016-0.016-0.032-0.016-0.064-0.032-0.032 0.064-0.048 0.144-0.064 0.224zM259.312 316.757c0.016 0.016 0.032 0.016 0.064 0.032 0-0.032 0-0.048 0.016-0.080v-0.016c-0.016 0.016-0.048 0.048-0.080 0.064zM259.824 315.413c0-0.016 0-0.016 0 0 0-0.016 0-0.016 0 0 0-0.016 0-0.016 0 0zM259.456 315.461c0.080-0.032 0.16-0.080 0.256-0.128 0-0.144 0-0.304-0.016-0.448-0.064 0.032-0.128 0.080-0.176 0.112-0.016 0.144-0.048 0.304-0.064 0.464zM259.504 314.725c0.048-0.032 0.096-0.080 0.144-0.128-0.064-0.512-0.208-1.008-0.4-1.488-0.048-0.064-0.080-0.112-0.128-0.176 0.032 0.096 0.080 0.176 0.112 0.272 0.144 0.496 0.256 1.008 0.272 1.52zM256.304 310.997c0.208 0.32 0.592 0.512 0.96 0.608 0.32 0.080 0.672 0.112 1.008 0.128-0.080-0.144-0.176-0.272-0.256-0.416-0.512-0.016-1.024-0.096-1.52-0.256-0.064-0.016-0.144-0.064-0.208-0.080l0.016 0.016zM255.376 309.861c0.080 0.32 0.32 0.544 0.608 0.72-0.048-0.176-0.080-0.352-0.080-0.528-0.032-0.080-0.080-0.16-0.112-0.24-0.176-0.176-0.336-0.352-0.496-0.544 0 0.208 0.016 0.4 0.080 0.592zM255.952 306.357c-0.4 0.208-0.704 0.576-0.848 1.024-0.128 0.432-0.192 0.928 0.032 1.328 0 0 0 0 0.016 0.016-0.032-0.096-0.064-0.192-0.064-0.304-0.016-0.384 0.176-0.688 0.448-0.912 0.064-0.128 0.128-0.272 0.208-0.384 0.128-0.288 0.304-0.4 0.48-0.576h-0.016c0.016-0.096 0.032-0.208 0.064-0.304-0.112 0.032-0.224 0.064-0.32 0.112zM256.736 305.637c0.128-0.48 0.224-1.2 0.224-2.352-0.032-0.016-0.080-0.032-0.128-0.064 0 0.016 0 0.032 0 0.064 0.064 0.784 0.016 1.584-0.096 2.352zM272.272 220.421c-0.064 0.080-0.128 0.16-0.192 0.256-0.848 1.184-1.28 2.304-1.584 3.744l1.776-4zM283.456 179.301c0 0-1.824-3.184-3.136-7.52-1.456-4.832-0.864-8.48-2.208-13.872 0 0-0.608-0.128-0.736-2.704-0.112-2.576-1.472-2.448-1.472-2.448s-2.208 0.976-4.048-0.736c-1.84-1.728-0.992-6.848 0.48-9.424 1.136-1.984 2.656-6.432 3.296-12.208-1.568 5.776-6.336 15.104-7.056 16.272-0.864 1.408-0.416 3.344-0.416 3.344-2.16 8.832-5.712 9.264-5.712 9.264-1.616 0-4.848-2.688-4.848-2.688s-0.64 1.296-1.728 1.184c-1.072-0.096-1.616-1.408-2.368-1.408s-0.544 1.296-1.504 1.504c-0.976 0.208-1.84-1.728-1.84-1.728s0.432 1.392-2.48 3.12c-2.912 1.728-12.4 6.464-15.728 7.872-3.344 1.408-9.040 2.048-9.040 2.048s7.76 4.528 13.36 8.832c5.6 4.304 15.504 11.856 21.12 11.856 5.584 0 23.904-8.4 26.064-10.56zM277.536 290.965c-0.24-1.376-0.592-2.736-1.168-4.016-0.4-0.896-0.912-1.776-1.536-2.528-0.496-0.592-1.056-1.136-1.712-1.552-0.816 0.608-1.088 1.568-1.088 1.568s3.328 3.2 5.504 6.528zM18.832 40.053c-2.672-0.352-5.072-0.176-7.152 0.496s-3.856 1.76-5.312 3.28c-1.456 1.504-2.64 3.36-3.536 5.568s-1.52 4.672-1.888 7.392c-0.544 4.272-0.56 8.384-0.048 12.336s1.52 7.488 3.008 10.592c1.488 3.104 3.456 5.664 5.856 7.68 2.416 2 5.232 3.216 8.448 3.632 2.608 0.336 4.96 0.16 7.072-0.512s3.936-1.76 5.472-3.264c1.536-1.488 2.784-3.344 3.744-5.552s1.616-4.656 1.968-7.376c0.576-4.432 0.608-8.64 0.096-12.64-0.512-3.984-1.52-7.488-3.024-10.56-1.488-3.056-3.488-5.568-5.968-7.52-2.48-1.92-5.392-3.12-8.736-3.552zM19.024 82.997c-1.872-0.24-3.44-1.12-4.704-2.64s-2.24-3.456-2.928-5.808c-0.672-2.352-1.088-4.992-1.232-7.936-0.128-2.928 0-5.952 0.4-9.056 0.4-3.152 1.232-5.6 2.48-7.344 1.264-1.744 2.976-2.464 5.152-2.176 1.872 0.24 3.456 1.136 4.752 2.656 1.312 1.536 2.304 3.456 3.008 5.808s1.136 5.008 1.28 7.968c0.144 2.96 0.016 5.968-0.368 9.040-0.4 3.152-1.264 5.6-2.544 7.328-1.264 1.728-3.040 2.448-5.296 2.16zM60.208 74.149c-0.704-0.080-1.376-0.288-2-0.656-0.624-0.352-1.216-0.864-1.744-1.536-0.512-0.656-0.96-1.456-1.312-2.4s-0.56-2.048-0.624-3.312l-1.248-20.88-8.656-0.912 2.56 50.032 8.656 0.912-0.928-18.752c2.016 3.312 4.736 5.152 8.176 5.52 1.52 0.16 2.816 0.064 3.904-0.304 1.072-0.352 1.984-0.912 2.688-1.68 0.704-0.752 1.264-1.664 1.648-2.736 0.384-1.056 0.656-2.224 0.784-3.472 0.080-0.8 0.128-1.696 0.16-2.656 0.016-0.96 0-1.92-0.048-2.88l-1.088-21.2-8.656-0.912 0.992 20.448c0.048 0.72 0.064 1.52 0.080 2.368 0 0.864-0.016 1.6-0.080 2.224-0.096 0.848-0.336 1.552-0.752 2.112-0.432 0.592-1.264 0.8-2.512 0.672zM122.096 50.293c-1.264-0.096-2.32 0-3.2 0.272-0.896 0.272-1.632 0.768-2.208 1.488-0.592 0.72-1.056 1.728-1.408 3.008s-0.608 2.88-0.8 4.8l-1.264 13.296-3.936-16.32c-0.656-2.752-1.696-4.736-3.104-6-1.408-1.248-2.976-1.936-4.736-2.064-1.296-0.096-2.368 0.048-3.248 0.432s-1.584 0.992-2.128 1.792c-0.56 0.816-0.976 1.808-1.28 2.976s-0.512 2.496-0.608 3.968l-2.224 25.392 7.776 1.712 2.224-25.456c0.032-0.528 0.096-1.008 0.16-1.408s0.272-0.592 0.624-0.56c0.352 0.016 0.608 0.224 0.784 0.592s0.32 0.816 0.448 1.312l6.256 25.536 8.688 0.64 2.8-24.528c0.064-0.4 0.144-0.848 0.256-1.36 0.096-0.512 0.32-0.752 0.672-0.72 0.304 0.032 0.512 0.176 0.64 0.48 0.112 0.304 0.24 0.704 0.352 1.2l6.080 26.4 6.944-1.376-6.352-26.624c-0.688-2.928-1.664-5.104-2.88-6.512-1.264-1.408-3.024-2.208-5.328-2.368zM158.336 81.605c-0.704-0.032-1.376-0.208-2.032-0.544-0.656-0.32-1.248-0.8-1.808-1.44s-1.040-1.408-1.44-2.336c-0.4-0.912-0.672-2.016-0.8-3.28l-2.384-20.768-8.688-0.432 5.248 49.808 8.688 0.432-1.936-18.672c2.192 3.2 5.008 4.896 8.464 5.072 1.536 0.080 2.816-0.096 3.888-0.512 1.056-0.416 1.92-1.024 2.592-1.824s1.168-1.744 1.504-2.816c0.32-1.088 0.512-2.256 0.592-3.504 0.032-0.8 0.048-1.696 0.016-2.656-0.032-0.976-0.112-1.92-0.208-2.864l-2.224-21.12-8.688-0.448 2.080 20.368c0.080 0.72 0.16 1.504 0.208 2.368s0.064 1.6 0.032 2.224c-0.048 0.848-0.256 1.568-0.64 2.16-0.4 0.576-1.216 0.832-2.464 0.784zM195.984 58.293c-1.216-1.472-2.496-2.592-3.888-3.36-1.392-0.752-3.024-1.168-4.896-1.232-3.104-0.096-5.488 0.912-7.168 3.056s-2.576 5.328-2.72 9.536c-0.112 3.408 0.24 6.576 1.072 9.52 0.816 2.944 2.048 5.504 3.696 7.696 1.632 2.176 3.632 3.92 6.016 5.216 2.368 1.28 5.072 1.984 8.080 2.080 2.080 0.064 4.032-0.096 5.904-0.512 1.856-0.416 3.248-0.8 4.16-1.168l-3.152-26.064 2.64-4.96-6.512-3.984-3.232 4.176zM196.976 83.941c-0.192 0.048-0.416 0.064-0.656 0.080-0.224 0.016-0.448 0.016-0.64 0.016-1.536-0.048-2.88-0.544-4.080-1.472-1.184-0.944-2.176-2.176-2.976-3.728-0.784-1.552-1.392-3.344-1.792-5.376s-0.576-4.176-0.496-6.4c0.064-1.888 0.4-3.36 0.992-4.432 0.608-1.088 1.552-1.6 2.848-1.552 1.136 0.032 2.144 0.464 3.024 1.312 0.864 0.832 1.424 2.304 1.68 4.416l2.096 17.136zM212.912 90.021l5.168 0.096 1.376 9.376 8.24 0.144-1.36-9.376 7.536 0.128-1.168-7.552-7.408-0.128-2.144-15.632c-0.080-0.32-0.112-0.656-0.128-1.008s-0.016-0.64-0.016-0.88c0.016-1.072 0.272-1.808 0.8-2.208 0.512-0.4 1.168-0.576 1.952-0.576 0.784 0.016 1.6 0.144 2.432 0.384s1.536 0.496 2.080 0.784l1.696-6.304c-1.072-0.64-2.464-1.248-4.144-1.792s-3.472-0.832-5.392-0.864c-2.592-0.048-4.608 0.592-6.064 1.904-1.456 1.328-2.208 3.392-2.256 6.224-0.016 0.848 0.064 1.904 0.224 3.168l2.368 16.656-4.944-0.080 1.152 7.536zM268.176 59.205c-1.264-1.424-2.592-2.496-4.016-3.216-1.408-0.704-3.056-1.056-4.944-1.056-3.104 0.016-5.44 1.136-7.040 3.328s-2.384 5.408-2.368 9.616c0.016 3.408 0.496 6.56 1.424 9.472 0.944 2.912 2.256 5.424 3.984 7.536 1.728 2.128 3.776 3.792 6.208 4.976 2.4 1.2 5.136 1.792 8.144 1.776 2.080-0.016 4.032-0.256 5.888-0.736 1.84-0.48 3.216-0.928 4.112-1.328l-4.128-25.936 2.448-5.056-6.672-3.728-3.040 4.352zM270.128 84.821c-0.192 0.048-0.416 0.080-0.64 0.096-0.24 0.016-0.448 0.032-0.656 0.032-1.536 0-2.896-0.432-4.128-1.328-1.216-0.896-2.256-2.096-3.104-3.616s-1.52-3.28-2-5.296c-0.48-2.016-0.72-4.144-0.736-6.384 0-1.888 0.272-3.376 0.832-4.464 0.56-1.104 1.488-1.648 2.784-1.664 1.136-0.016 2.16 0.4 3.056 1.2 0.912 0.8 1.52 2.256 1.856 4.352l2.736 17.072zM302.096 82.517l-4.352 0.096 1.248 7.504 4.528-0.112 0.592 3.072c0.368 1.872 0.816 3.552 1.36 5.040s1.248 2.736 2.112 3.744 1.936 1.776 3.2 2.272c1.28 0.512 2.784 0.736 4.544 0.704 2.128-0.048 3.984-0.464 5.632-1.248 1.632-0.784 2.832-1.568 3.648-2.336l-3.072-5.312c-0.688 0.416-1.456 0.816-2.288 1.2s-1.712 0.576-2.608 0.608c-1.248 0.016-2.144-0.384-2.704-1.248s-1.024-2.48-1.44-4.848l-0.352-1.856 7.872-0.192-1.232-7.504-8 0.192-4.88-26.72c-0.32-1.744-0.768-3.296-1.312-4.672-0.576-1.376-1.328-2.592-2.272-3.68-0.944-1.072-2.112-2-3.472-2.768-1.376-0.784-3.056-1.44-5.024-1.968l-1.984 5.76c0.88 0.336 1.6 0.704 2.208 1.12 0.592 0.416 1.12 0.944 1.536 1.616 0.416 0.656 0.8 1.488 1.12 2.496s0.608 2.304 0.896 3.92l4.496 25.12zM347.664 81.205c-0.096-2.416-0.656-4.496-1.68-6.224-1.024-1.744-2.384-3.12-4.064-4.16-1.696-1.040-3.632-1.776-5.856-2.208-2.208-0.432-4.576-0.576-7.088-0.448-0.032-0.224-0.064-0.432-0.080-0.64 0-0.192-0.016-0.416-0.032-0.64-0.032-0.752 0.032-1.472 0.16-2.16s0.368-1.28 0.688-1.808c0.336-0.528 0.784-0.96 1.344-1.296 0.544-0.336 1.264-0.512 2.128-0.544 1.056-0.032 2.304 0.144 3.728 0.528s2.784 0.88 4.064 1.472l1.472-6.384c-1.36-0.752-3.024-1.488-4.992-2.16-1.968-0.688-4.080-0.992-6.304-0.912-2.192 0.080-4 0.512-5.408 1.28-1.392 0.768-2.512 1.808-3.36 3.088-0.832 1.296-1.392 2.736-1.696 4.368-0.288 1.632-0.4 3.36-0.336 5.2 0.112 2.864 0.592 5.68 1.456 8.432s2.080 5.2 3.632 7.328c1.552 2.144 3.424 3.84 5.632 5.104s4.688 1.84 7.472 1.744c1.648-0.064 3.056-0.352 4.24-0.864s2.128-1.2 2.864-2.032c0.736-0.832 1.264-1.776 1.584-2.816 0.336-1.056 0.464-2.128 0.432-3.248zM337.024 83.269c-1.568 0.064-2.944-0.736-4.16-2.4-1.2-1.664-2.192-3.968-2.96-6.896 1.68-0.016 3.12 0.144 4.288 0.512 1.168 0.352 2.112 0.848 2.848 1.472s1.264 1.312 1.616 2.064c0.336 0.752 0.512 1.504 0.544 2.272 0.032 0.944-0.16 1.664-0.592 2.176s-0.96 0.784-1.584 0.8zM378.88 79.573c-0.128-2.416-0.72-4.48-1.776-6.192s-2.432-3.088-4.128-4.096c-1.712-1.008-3.664-1.712-5.888-2.112s-4.576-0.512-7.088-0.336c-0.048-0.208-0.080-0.432-0.096-0.64-0.016-0.192-0.032-0.4-0.032-0.624-0.032-0.768 0-1.488 0.128-2.16s0.336-1.296 0.672-1.824c0.32-0.528 0.768-0.976 1.312-1.312s1.248-0.544 2.112-0.576c1.056-0.064 2.304 0.096 3.744 0.464s2.8 0.832 4.080 1.392l1.36-6.4c-1.376-0.736-3.056-1.44-5.040-2.096-1.968-0.656-4.080-0.928-6.32-0.8-2.192 0.112-3.984 0.576-5.376 1.36s-2.496 1.84-3.312 3.136c-0.816 1.296-1.36 2.768-1.616 4.384-0.272 1.632-0.352 3.36-0.256 5.2 0.144 2.864 0.688 5.664 1.6 8.4s2.16 5.168 3.744 7.28c1.584 2.112 3.488 3.792 5.712 5.024s4.72 1.776 7.504 1.616c1.648-0.080 3.056-0.4 4.224-0.928 1.168-0.544 2.112-1.232 2.832-2.080s1.232-1.792 1.536-2.848c0.304-1.040 0.432-2.112 0.368-3.232zM368.288 81.813c-1.568 0.080-2.96-0.688-4.192-2.336-1.216-1.648-2.24-3.92-3.072-6.832 1.68-0.048 3.12 0.096 4.288 0.448 1.184 0.336 2.128 0.816 2.88 1.44 0.736 0.608 1.296 1.28 1.648 2.032 0.352 0.736 0.544 1.504 0.592 2.256 0.048 0.944-0.128 1.664-0.56 2.176-0.448 0.512-0.96 0.784-1.584 0.816zM389.84 51.813l-8.688 0.576 9.232 41.632-3.584 0.24 1.664 7.232 12.272-0.816-10.896-48.864zM408.592 50.453l-8.672 0.672 6.304 26.752-4 0.304 1.776 7.088 12.672-0.96-8.080-33.856zM412.96 88.421c-0.896 0.064-1.632 0.272-2.224 0.608s-1.040 0.768-1.36 1.312c-0.336 0.544-0.544 1.136-0.656 1.776s-0.128 1.296-0.080 1.968c0.144 1.84 0.784 3.296 1.936 4.368 1.136 1.088 2.608 1.552 4.416 1.408 0.896-0.064 1.648-0.272 2.224-0.64s1.040-0.8 1.376-1.328c0.336-0.528 0.56-1.12 0.656-1.808s0.128-1.36 0.080-2.032c-0.144-1.888-0.8-3.328-1.984-4.336-1.2-0.992-2.656-1.424-4.384-1.296zM424.528 75.973l-1.136 5.648 7.408 2.832 2.032-4.912c1.264 1.28 2.592 2.256 4.032 2.96 1.424 0.704 3.168 0.96 5.232 0.768 3.2-0.288 5.408-1.44 6.592-3.44s1.648-4.512 1.376-7.552c-0.080-0.896-0.208-1.76-0.368-2.608-0.16-0.832-0.352-1.696-0.592-2.576l-4.992-19.728-8.608 0.8 4.976 20.064c0.192 0.784 0.352 1.552 0.496 2.288s0.256 1.408 0.304 2.032c0.096 1.024-0.016 1.856-0.352 2.496s-1.088 1.008-2.256 1.12c-1.392 0.128-2.784-0.368-4.144-1.472-1.376-1.12-2.336-2.848-2.912-5.232l-5.072-20.464-8.608 0.784 6.592 26.192zM463.168 37.397c1.872-0.208 3.424 0.112 4.64 0.992 1.232 0.88 2.192 2.496 2.88 4.848l1.056 3.536c-1.2-1.136-2.4-1.904-3.648-2.336-1.232-0.416-2.64-0.544-4.24-0.368-1.44 0.16-2.736 0.592-3.872 1.296-1.152 0.688-2.112 1.632-2.88 2.832-0.768 1.184-1.312 2.624-1.648 4.32-0.32 1.68-0.352 3.568-0.112 5.664 0.416 3.696 1.248 6.944 2.48 9.76 1.248 2.816 2.736 5.136 4.464 7.008 1.728 1.856 3.6 3.216 5.584 4.080 1.984 0.848 3.968 1.168 5.92 0.944 1.472-0.16 2.752-0.528 3.84-1.104s2.112-1.408 3.088-2.512l2.72 3.072 6.384-4.24-3.696-6.016-7.392-27.104c-1.28-4.64-3.2-7.888-5.792-9.76-2.576-1.872-5.872-2.576-9.888-2.128-2.576 0.288-4.896 0.928-7.008 1.92-2.112 0.976-3.68 1.984-4.752 3.008l3.52 5.968c1.232-0.912 2.592-1.712 4.048-2.384 1.472-0.72 2.912-1.136 4.304-1.296zM474.56 73.045c-1.168 0.128-2.288-0.128-3.376-0.8s-2.096-1.68-3.008-3.008c-0.912-1.344-1.712-2.96-2.352-4.88-0.656-1.92-1.12-4.064-1.392-6.48-0.208-1.92-0.048-3.504 0.496-4.752 0.544-1.264 1.6-1.984 3.152-2.144 1.136-0.128 2.224 0.192 3.312 0.976 1.072 0.784 1.888 2.192 2.432 4.256l4.192 15.088c-0.304 0.4-0.768 0.768-1.392 1.104-0.592 0.352-1.296 0.56-2.064 0.64zM493.584 40.533c-1.36 0.176-2.336 0.784-2.928 1.808-0.608 1.024-0.816 2.176-0.64 3.472 0.256 2 0.944 3.552 2.064 4.64 1.104 1.104 2.432 1.552 3.952 1.344 1.36-0.176 2.336-0.816 2.944-1.92s0.832-2.32 0.656-3.648c-0.256-2-0.976-3.504-2.128-4.512-1.168-0.96-2.48-1.376-3.92-1.184zM502.448 89.477l9.552-1.248-11.168-32.304-7.168 0.944 8.784 32.608z" />
</font>
</defs>
</svg>
