<?xml version="1.0" standalone="no"?>
<!DOCTYPE svg PUBLIC "-//W3C//DTD SVG 1.1//EN" "http://www.w3.org/Graphics/SVG/1.1/DTD/svg11.dtd" >
<svg xmlns="http://www.w3.org/2000/svg">
<metadata>
This is a custom SVG webfont generated by Font Squirrel.
Copyright   : Copyright 2008 Dalton Maag Ltd This typeface is for exclusive use by Toyota Motor Corporation only The typeface may only be used in projects relating to Toyota Motor Corporation All rights reserved
Designer    : DaltonMaag Ltd
Foundry     : Dalton Maag Ltd
Foundry URL : httpwwwdaltonmaagcom
</metadata>
<defs>
<font id="ToyotaDisplayBold" horiz-adv-x="1003" >
<font-face units-per-em="2048" ascent="1638" descent="-410" />
<missing-glyph horiz-adv-x="401" />
<glyph unicode=" "  horiz-adv-x="401" />
<glyph unicode="&#x09;" horiz-adv-x="401" />
<glyph unicode="&#xa0;" horiz-adv-x="401" />
<glyph unicode="!" horiz-adv-x="575" d="M121 141q0 74 41 122t127 48q84 0 125 -48t41 -122q0 -78 -41 -126t-125 -48q-86 0 -127 48t-41 126zM135 1448h320l-43 -1012h-248z" />
<glyph unicode="&#x22;" horiz-adv-x="784" d="M88 827v621h252v-621h-252zM446 827v621h252v-621h-252z" />
<glyph unicode="#" horiz-adv-x="1427" d="M68 348v238h243l49 241h-192v238h244l51 266h270l-51 -266h219l53 266h269l-54 -266h205v-238h-252l-51 -241h203v-238h-250l-57 -280h-275l62 280h-217l-64 -280h-270l57 280h-192zM586 586h215l51 241h-217z" />
<glyph unicode="$" horiz-adv-x="1273" d="M59 96l84 256q115 -49 223.5 -74.5t215.5 -25.5q147 0 212.5 47t65.5 131q0 47 -24.5 80t-66.5 53.5t-100.5 34.5t-123.5 27q-76 14 -151 37.5t-135 67.5t-98 112.5t-38 173.5q0 154 96 268.5t295 149.5v202h250v-192q115 -8 209 -31.5t178 -56.5l-74 -240 q-121 39 -214 59.5t-191 20.5q-111 0 -174.5 -38t-63.5 -114q0 -47 20.5 -74.5t58.5 -46t87 -31.5t107 -26q78 -16 160.5 -40.5t150 -69.5t110.5 -119t43 -186q0 -170 -103 -286t-304 -153v-221h-250v207q-158 6 -271.5 37.5t-183.5 60.5z" />
<glyph unicode="%" horiz-adv-x="1986" d="M57 1036q0 86 26 160t75 130t122.5 89t172.5 33q88 0 155.5 -32t113.5 -86t70.5 -129t24.5 -163q0 -86 -25.5 -160.5t-73.5 -129t-119 -84t-161 -29.5q-100 0 -171.5 30.5t-118 85t-69 128t-22.5 157.5zM299 0l1112 1427h293l-1108 -1427h-297zM299 1038q0 -90 36 -144 t107 -54q63 0 100.5 49t37.5 149q0 102 -37 152.5t-101 50.5q-72 0 -107.5 -53.5t-35.5 -149.5zM1169 375q0 84 26 159.5t75 131t121.5 87t171.5 31.5q90 0 156.5 -30.5t112.5 -86t70.5 -130t24.5 -160.5q0 -88 -25.5 -162t-73.5 -128t-119 -85t-161 -31q-100 0 -171.5 32 t-117 87t-68 128t-22.5 157zM1409 377q0 -92 36 -146.5t107 -54.5q63 0 100.5 49t37.5 152q0 102 -36 150t-102 48q-72 0 -107.5 -51t-35.5 -147z" />
<glyph unicode="&#x26;" horiz-adv-x="1464" d="M68 342q0 76 20.5 142.5t60 127t101 118.5t143.5 120q-94 117 -94 260q0 74 34 140.5t94 116.5t144 78t185 28q55 0 100 -6.5t86 -17.5t81 -27.5t83 -37.5l-96 -229q-76 41 -134.5 58.5t-107.5 17.5q-74 0 -120 -36t-46 -95q0 -47 21.5 -89t54.5 -81l315 -367l207 262 l215 -155l-241 -316l192 -215l-201 -184l-182 201q-96 -92 -205.5 -141.5t-253.5 -49.5q-133 0 -220 36t-140 91t-74.5 121t-21.5 129zM373 385q0 -31 10 -60.5t32.5 -52t57.5 -38t84 -15.5q70 0 129 33t123 102l-258 299q-90 -70 -134 -129t-44 -139z" />
<glyph unicode="'" horiz-adv-x="425" d="M88 827v621h252v-621h-252z" />
<glyph unicode="(" horiz-adv-x="837" d="M80 567q0 84 37 161t80 144l372 603l230 -144l-353 -575q-29 -43 -52 -89t-23 -94q0 -53 27.5 -103t54.5 -97l346 -559l-228 -152l-381 598q-47 78 -78.5 150.5t-31.5 156.5z" />
<glyph unicode=")" horiz-adv-x="837" d="M41 -186l344 559q29 47 55.5 97t26.5 103q0 47 -22.5 93.5t-51.5 89.5l-352 575l227 144l375 -603q41 -68 78 -144.5t37 -160.5t-31 -156.5t-78 -150.5l-383 -598z" />
<glyph unicode="*" d="M63 1051l74 221l256 -94l-10 270h242l-11 -270l252 94l74 -223l-260 -76l176 -219l-197 -142l-155 226l-160 -226l-197 142l177 219z" />
<glyph unicode="+" horiz-adv-x="1343" d="M205 559v240h346v356h244v-356h344v-240h-344v-348h-244v348h-346z" />
<glyph unicode="," horiz-adv-x="487" d="M47 -276l103 528l264 -57l-150 -521z" />
<glyph unicode="-" horiz-adv-x="942" d="M143 492v256h662v-256h-662z" />
<glyph unicode="." horiz-adv-x="512" d="M90 141q0 74 40 122t126 48q88 0 128 -48t40 -122q0 -78 -40 -126t-128 -48q-86 0 -126 48t-40 126z" />
<glyph unicode="/" horiz-adv-x="942" d="M-16 -156l686 1688h276l-688 -1688h-274z" />
<glyph unicode="0" horiz-adv-x="1396" d="M78 702q0 152 38 289t117.5 237.5t199.5 160t286 59.5q150 0 261.5 -56.5t187 -154.5t112.5 -233.5t37 -290.5q0 -158 -40 -293t-119 -233.5t-194.5 -155t-271.5 -56.5q-168 0 -285.5 56.5t-189.5 154t-105.5 230t-33.5 286.5zM383 707q0 -227 76 -357.5t237 -130.5 q164 0 239 122t75 372t-75 369.5t-239 119.5q-82 0 -140 -34.5t-97 -100.5t-57.5 -156.5t-18.5 -203.5z" />
<glyph unicode="1" horiz-adv-x="1173" d="M90 1143l330 229q104 76 211 76q76 0 127 -44t51 -147v-1011h311v-246h-938v246h330v833q0 33 -18 33q-10 0 -29 -12l-215 -154z" />
<glyph unicode="2" horiz-adv-x="1187" d="M33 199q0 45 23.5 96t86.5 100l478 381q82 66 121.5 123t39.5 131q0 43 -16 75t-44 51.5t-63.5 28.5t-72.5 9q-102 0 -197.5 -40t-179.5 -85l-121 209q49 31 108.5 60.5t128 54t142.5 40t147 15.5q115 0 202 -29.5t146.5 -82t90 -124t30.5 -159.5q0 -78 -20.5 -141.5 t-60 -121t-94 -109.5t-120.5 -106l-354 -280q-14 -12 -14 -27q0 -20 31 -20h663v-248h-864q-96 0 -156.5 51.5t-60.5 147.5z" />
<glyph unicode="3" horiz-adv-x="1173" d="M31 76l75 250q121 -49 212.5 -74t189.5 -25q53 0 103.5 11.5t90 37t63 65.5t23.5 99q0 37 -11 73t-40.5 62.5t-83 43t-137.5 16.5h-168v184l318 307q16 16 16 29q0 18 -31 19h-538v256h696q127 0 180 -49.5t53 -127.5q0 -109 -112 -209l-236 -210q119 -8 196 -47 t122 -95.5t63.5 -124t18.5 -129.5q0 -96 -38 -181t-113 -147.5t-183.5 -99.5t-247.5 -37q-88 0 -162 10.5t-133 27t-105 33t-81 32.5z" />
<glyph unicode="4" horiz-adv-x="1341" d="M66 549q0 102 108 219l621 662h256v-857h215v-247h-215v-326h-297v326h-428q-129 0 -194.5 62.5t-65.5 160.5zM346 604q0 -12 8 -21.5t31 -9.5h369v474l-394 -406q-14 -21 -14 -37z" />
<glyph unicode="5" horiz-adv-x="1208" d="M45 74l76 250q121 -51 216 -75t198 -24q127 0 200.5 61.5t73.5 170.5q0 111 -70.5 164t-179.5 53q-53 0 -111.5 -12.5t-134.5 -45.5l-147 89l24 725h857v-256h-596l-11 -291q39 14 94.5 21t110.5 7q92 0 178 -24.5t151.5 -77.5t104.5 -137t39 -205q0 -102 -33.5 -191.5 t-104.5 -157t-182.5 -106.5t-262.5 -39q-180 0 -302 36t-188 65z" />
<glyph unicode="6" horiz-adv-x="1312" d="M119 631q0 150 30.5 296t106.5 262t203 187.5t319 71.5q106 0 204.5 -21.5t195.5 -70.5l-91 -223q-102 41 -174.5 53t-138.5 12q-160 0 -238.5 -93t-95.5 -257q68 41 149 65.5t165 24.5q111 0 198.5 -34t147 -93t92.5 -144t33 -188q0 -111 -40 -204t-112 -159.5 t-170 -104.5t-217 -38q-276 0 -421.5 174.5t-145.5 483.5zM432 608q0 -76 10.5 -146.5t40 -123.5t78.5 -84t127 -31q109 0 167 65.5t58 178.5q0 119 -65.5 174t-169.5 55q-74 0 -141.5 -28.5t-104.5 -59.5z" />
<glyph unicode="7" horiz-adv-x="1134" d="M49 1174v256h866q98 0 152.5 -42t54.5 -114q0 -70 -49 -156l-616 -1118h-336l622 1112q12 29 13 39q0 23 -31 23h-676z" />
<glyph unicode="8" horiz-adv-x="1294" d="M90 377q0 109 60.5 204t164.5 167q-84 51 -126 128.5t-42 167.5q0 86 34 159t100.5 127t161 86t212.5 32q127 0 220.5 -29.5t155 -80t92 -117t30.5 -144.5q0 -109 -49 -189.5t-125 -139.5q225 -109 225 -340q0 -92 -38 -172t-110.5 -137.5t-180 -91.5t-244.5 -34 q-141 0 -242.5 32t-168 86t-98.5 127t-32 159zM397 397q0 -74 60.5 -124t185.5 -50q121 0 185.5 53.5t64.5 137.5q0 74 -48 114.5t-132 61.5l-162 43q-66 -45 -110 -101.5t-44 -134.5zM444 1044q0 -61 40 -105t126 -67l125 -30q49 39 82 93t33 118q0 53 -48 101t-151 48 q-100 0 -153.5 -47.5t-53.5 -110.5z" />
<glyph unicode="9" horiz-adv-x="1304" d="M104 932q0 115 40 210t113 161.5t172 105.5t218 39q133 0 238.5 -46t178.5 -130t109.5 -205t36.5 -276q0 -154 -27.5 -301.5t-101 -262t-200.5 -184.5t-328 -70q-104 0 -214 20.5t-200 65.5l90 234q90 -41 172 -55.5t152 -14.5q170 0 245.5 91.5t94.5 250.5 q-63 -41 -146 -63.5t-174 -22.5q-113 0 -199.5 33t-147 91.5t-91.5 142.5t-31 186zM416 954q0 -119 65.5 -176t169.5 -57q74 0 141.5 28.5t106.5 59.5q0 74 -11 144.5t-40 125t-78 86t-127 31.5q-109 0 -168 -65.5t-59 -176.5z" />
<glyph unicode=":" horiz-adv-x="501" d="M84 141q0 74 40 122t126 48q88 0 128 -48t40 -122q0 -78 -40 -126t-128 -48q-86 0 -126 48t-40 126zM84 850q0 74 40 123t126 49q88 0 128 -49t40 -123q0 -76 -40 -125t-128 -49q-86 0 -126 49t-40 125z" />
<glyph unicode=";" horiz-adv-x="530" d="M49 -276l103 530l266 -59l-156 -521zM119 850q0 74 40 123t126 49q84 0 125 -49t41 -123q0 -76 -41 -125t-125 -49q-86 0 -126 49t-40 125z" />
<glyph unicode="&#x3c;" horiz-adv-x="1343" d="M145 659q0 92 56.5 148.5t158.5 99.5l746 307l94 -243l-680 -281q-27 -12 -26 -31q0 -16 28 -28l678 -287l-94 -248l-746 314q-51 23 -92 45t-68.5 52t-41 66.5t-13.5 85.5z" />
<glyph unicode="=" horiz-adv-x="1343" d="M205 367v245h934v-245h-934zM205 750v245h934v-245h-934z" />
<glyph unicode="&#x3e;" horiz-adv-x="1343" d="M145 344l678 283q29 12 29 28q0 18 -27 31l-680 285l95 243l743 -307q100 -43 158.5 -96t58.5 -141q0 -102 -55 -159.5t-162 -100.5l-743 -314z" />
<glyph unicode="?" horiz-adv-x="1175" d="M63 1298q98 68 229.5 119t299.5 51q125 0 221 -27.5t162.5 -77.5t101.5 -117.5t35 -145.5q0 -63 -17.5 -115.5t-48 -96.5t-72.5 -82t-91 -73l-101 -74q-29 -20 -48 -36.5t-32.5 -34t-19.5 -37t-6 -49.5v-66h-285v101q0 84 24.5 145t108.5 121l125 90q63 47 103.5 88 t40.5 92q0 72 -65.5 105.5t-168.5 33.5q-96 0 -181 -35.5t-185 -97.5zM367 141q0 74 42 122t128 48q84 0 124.5 -48t40.5 -122q0 -78 -40.5 -126t-124.5 -48q-86 0 -128 48t-42 126z" />
<glyph unicode="@" horiz-adv-x="1904" d="M84 463q0 197 72.5 361.5t196.5 283.5t292 184.5t361 65.5q195 0 347 -54.5t255.5 -153.5t158 -237.5t54.5 -302.5q0 -133 -38 -241.5t-108.5 -186.5t-171 -124t-223.5 -54q-27 -2 -63.5 -3t-63.5 -1h-233q-72 0 -136.5 15.5t-110.5 48t-74 86t-28 129.5q0 92 37 147 t94.5 85t129 38t141.5 8h102v12q0 59 -23.5 90t-88.5 31q-51 0 -109.5 -11t-138.5 -38l-72 190q70 29 161 51.5t200 22.5q102 0 165.5 -26.5t96 -72.5t44 -109.5t11.5 -141.5v-322q109 16 174.5 104.5t65.5 264.5q0 244 -138.5 382t-416.5 138q-152 0 -272 -46t-205 -132 t-131 -206t-46 -269q0 -156 47 -279.5t134.5 -209.5t213 -132.5t289.5 -46.5q158 0 266.5 29t176.5 57l77 -215q-25 -14 -78 -31.5t-125.5 -34t-159.5 -27.5t-183 -11q-205 0 -376 59.5t-292 174t-189.5 281.5t-68.5 380zM821 297q0 -47 30 -66.5t77 -19.5h149v168h-153 q-43 0 -73 -18.5t-30 -63.5z" />
<glyph unicode="A" horiz-adv-x="1474" d="M25 37l348 1151q20 68 49 121t73 90t105.5 55.5t147.5 18.5q82 0 140 -17.5t99 -53.5t66.5 -86t46.5 -114l352 -1165l-301 -68l-131 443h-569l-134 -443zM520 666h426l-137 485q-12 39 -30.5 52.5t-41.5 13.5q-27 0 -44 -14.5t-29 -51.5z" />
<glyph unicode="B" horiz-adv-x="1349" d="M139 0v1448h572q104 0 194 -20.5t157.5 -64.5t105.5 -114.5t38 -169.5q0 -109 -52 -184.5t-116 -120.5q47 -18 90 -48t78 -72t54.5 -98t19.5 -124q0 -104 -37 -185t-104.5 -136.5t-160.5 -83t-206 -27.5h-633zM436 250h309q45 0 86 10t72 33.5t48.5 58.5t17.5 86 q0 55 -20.5 92t-57.5 58.5t-87 30t-106 8.5h-262v-377zM436 864h250q90 0 152.5 39t62.5 133q0 98 -66.5 129t-197.5 31h-201v-332z" />
<glyph unicode="C" horiz-adv-x="1392" d="M76 723q0 162 48 299t142 237.5t235.5 157t325.5 56.5q150 0 265.5 -30t218.5 -75l-92 -242q-72 29 -127.5 46.5t-101.5 26.5t-87 12t-82 3q-207 0 -317.5 -129t-110.5 -362q0 -252 111.5 -375t314.5 -123q57 0 105.5 6.5t95.5 17.5t99 30.5t122 48.5l92 -238 q-66 -31 -125 -53.5t-123.5 -38.5t-134 -24.5t-151.5 -8.5q-199 0 -336 57.5t-223 159t-125 239.5t-39 302z" />
<glyph unicode="D" horiz-adv-x="1527" d="M139 0v1448h598q170 0 303.5 -52.5t224.5 -146.5t140 -227t49 -293t-44 -293t-132 -230t-223 -151.5t-318 -54.5h-598zM440 254h283q199 0 306.5 109.5t107.5 355.5t-108.5 359.5t-305.5 113.5h-283v-938z" />
<glyph unicode="E" horiz-adv-x="1267" d="M139 0v1448h1039v-256h-742v-309h574v-256h-574v-373h758v-254h-1055z" />
<glyph unicode="F" horiz-adv-x="1247" d="M139 0v1448h1039v-256h-740v-309h572v-256h-572v-627h-299z" />
<glyph unicode="G" horiz-adv-x="1525" d="M76 723q0 162 51 299t149.5 237.5t243 157t330.5 56.5q150 0 269.5 -30t221.5 -75l-92 -242q-74 29 -131 46.5t-103 26.5t-88 12t-83 3q-207 0 -329 -129t-122 -362q0 -252 107.5 -374t304.5 -122q90 0 164.5 16.5t122.5 43.5v274h-299v258h602v-684q-51 -37 -119 -67.5 t-145.5 -54t-160.5 -36t-165 -12.5q-205 0 -344 57.5t-224 159t-123 239.5t-38 302z" />
<glyph unicode="H" horiz-adv-x="1480" d="M139 0v1448h312v-580h581v580h311v-1448h-311v606h-581v-606h-312z" />
<glyph unicode="I" horiz-adv-x="589" d="M143 0v1448h306v-1448h-306z" />
<glyph unicode="J" horiz-adv-x="1075" d="M20 61l115 246q51 -33 132 -56.5t163 -23.5q43 0 83 10.5t69.5 35t47 68.5t17.5 114v993h299v-999q0 -244 -129 -364t-375 -120q-139 0 -252 31.5t-170 64.5z" />
<glyph unicode="K" horiz-adv-x="1384" d="M139 0v1448h301v-592h58q41 0 68.5 13.5t49.5 41.5l455 557l229 -168l-464 -555l538 -587l-221 -193l-530 576q-29 29 -54.5 45t-72.5 16h-56v-602h-301z" />
<glyph unicode="L" horiz-adv-x="1228" d="M139 0v1448h299v-1194h756v-254h-1055z" />
<glyph unicode="M" horiz-adv-x="1683" d="M139 0v1448h281l375 -668q16 -27 27.5 -38t27.5 -11q14 0 25.5 11.5t27.5 37.5l371 668h272v-1448h-295v883l-153 -262q-63 -115 -126 -154t-132 -39q-74 0 -133.5 41t-122.5 154l-146 258v-881h-299z" />
<glyph unicode="N" horiz-adv-x="1497" d="M139 0v1448h307l621 -1081v1081h291v-1110q0 -51 -4 -106.5t-13 -81.5q-16 -55 -41.5 -87t-53 -48.5t-56.5 -20.5t-49 -4q-43 0 -79 12t-71 39t-67.5 70t-69.5 106l-422 703v-920h-293z" />
<glyph unicode="O" horiz-adv-x="1552" d="M76 721q0 143 39 279.5t125 242t218 168t318 62.5q195 0 329 -62.5t216 -168t119 -242t37 -279.5q0 -145 -39 -281.5t-124 -242t-218 -169t-320 -63.5q-195 0 -328 63.5t-215.5 169t-119.5 242t-37 281.5zM393 721q0 -102 22.5 -192.5t69.5 -157t119 -105.5t172 -39 t173 39t120 105.5t68.5 156.5t21.5 193q0 102 -21.5 191t-68.5 157t-119.5 105.5t-173.5 37.5q-100 0 -172 -37.5t-119 -105.5t-69.5 -157t-22.5 -191z" />
<glyph unicode="P" horiz-adv-x="1275" d="M139 0v1448h553q104 0 197.5 -26.5t164 -84t111.5 -147.5t41 -217q0 -111 -40 -199t-110.5 -149.5t-166.5 -94t-209 -32.5h-242v-498h-299zM438 752h215q45 0 89 9t79 35.5t56.5 68.5t21.5 106q0 74 -20.5 119t-55.5 69.5t-79 32.5t-93 8h-213v-448z" />
<glyph unicode="Q" horiz-adv-x="1556" d="M76 721q0 143 39 279.5t125 242t218 168t318 62.5q195 0 329 -62.5t216 -168t119 -242t37 -279.5q0 -166 -51.5 -318.5t-163.5 -259.5l221 -272l-223 -178l-248 305q-53 -16 -111.5 -24.5t-124.5 -8.5q-195 0 -328 63.5t-215.5 169t-119.5 242t-37 281.5zM393 721 q0 -102 22.5 -192.5t69.5 -157t119 -105.5t172 -39t173 39t120 105.5t68.5 156.5t21.5 193q0 102 -21.5 191t-68.5 157t-119.5 105.5t-173.5 37.5q-100 0 -172 -37.5t-119 -105.5t-69.5 -157t-22.5 -191z" />
<glyph unicode="R" horiz-adv-x="1337" d="M139 0v1448h551q104 0 195.5 -21.5t159 -70.5t105.5 -128t38 -196q0 -78 -24.5 -146.5t-67.5 -122.5t-98.5 -92t-116.5 -59q35 -16 61.5 -41.5t56.5 -62.5l320 -371l-232 -168l-356 420q-37 43 -63.5 70.5t-51 45t-49 24t-55.5 6.5h-72v-535h-301zM440 784h195 q113 0 180.5 52.5t67.5 154.5q0 63 -17.5 105.5t-50.5 65t-79 30.5t-101 8h-195v-416z" />
<glyph unicode="S" horiz-adv-x="1294" d="M41 74l84 256q129 -53 245.5 -79t225.5 -26q160 0 235.5 50.5t75.5 136.5q0 47 -22.5 80.5t-62.5 55t-96 37t-126 27.5q-90 16 -179 41t-158.5 71t-113 118.5t-43.5 183.5q0 96 32 177t103.5 141.5t186.5 94.5t277 34q143 0 271 -30t226 -71l-74 -244q-121 41 -229 65 t-211 24q-137 0 -202.5 -41t-65.5 -121q0 -41 18.5 -71t56 -49.5t91 -33.5t119.5 -27q92 -18 184 -42.5t166.5 -72.5t121 -127t46.5 -198q0 -106 -41 -193t-121 -147.5t-195.5 -94.5t-269.5 -34q-92 0 -176 11.5t-155.5 27.5t-129 35t-94.5 35z" />
<glyph unicode="T" horiz-adv-x="1222" d="M31 1192v256h1163v-256h-432v-1192h-301v1192h-430z" />
<glyph unicode="U" horiz-adv-x="1468" d="M133 600v848h301v-805q0 -98 10.5 -177t44 -133t92 -83t154.5 -29q94 0 152.5 29t91.5 82t44 130t11 171v815h303v-821q0 -145 -25.5 -266t-92 -209.5t-184 -137.5t-300.5 -49q-186 0 -304 44t-184.5 127t-90 200t-23.5 264z" />
<glyph unicode="V" horiz-adv-x="1466" d="M20 1407l293 63l351 -1173q14 -47 29.5 -61.5t41.5 -14.5q25 0 40.5 14.5t29.5 61.5l356 1173l287 -63l-352 -1171q-35 -117 -119 -194t-242 -77q-166 0 -247.5 72t-118.5 196z" />
<glyph unicode="W" horiz-adv-x="1906" d="M66 1425l296 41l125 -1040q12 -104 56.5 -149.5t130.5 -45.5q31 0 64.5 7.5t62.5 21.5v1188h303v-1186q29 -14 63.5 -21.5t71.5 -7.5q76 0 121 41t57 150l123 1042l301 -41l-129 -1048q-12 -92 -42 -167t-84 -128t-134 -83t-188 -30q-90 0 -172 18.5t-142 57.5 q-72 -37 -145.5 -56.5t-161.5 -19.5q-115 0 -194.5 30t-133 83t-81 128t-39.5 167z" />
<glyph unicode="X" horiz-adv-x="1486" d="M27 119l452 624l-393 582l252 145l340 -507q16 -25 28.5 -37.5t34.5 -12.5q20 0 31.5 11.5t28.5 38.5l332 503l247 -143l-379 -569l459 -635l-233 -154l-414 561q-23 29 -36 41.5t-32 12.5q-20 0 -34.5 -12.5t-36.5 -41.5l-412 -561z" />
<glyph unicode="Y" horiz-adv-x="1359" d="M20 1356l269 112l303 -651q23 -47 41 -60.5t45 -13.5q31 0 49 14.5t39 61.5l305 649l270 -108l-276 -592q-49 -106 -101.5 -176t-138.5 -103v-489h-303v487q-82 29 -131 94.5t-98 172.5z" />
<glyph unicode="Z" horiz-adv-x="1329" d="M59 193q0 35 17.5 78.5t70.5 107.5l676 813h-671v256h1099v-188l-800 -953q-6 -8 -10.5 -13t-4.5 -15q0 -25 33 -25h778v-254h-942q-121 0 -183.5 50.5t-62.5 142.5z" />
<glyph unicode="[" horiz-adv-x="765" d="M137 -291v1739h590v-240h-307v-1259h307v-240h-590z" />
<glyph unicode="\" horiz-adv-x="956" d="M2 1532h297l684 -1688h-297z" />
<glyph unicode="]" horiz-adv-x="765" d="M41 -51h307v1259h-307v240h590v-1739h-590v240z" />
<glyph unicode="^" horiz-adv-x="1134" d="M74 758l227 502q49 106 109.5 159.5t162.5 53.5q51 0 88 -10.5t67 -35t55.5 -62.5t50.5 -95l227 -512l-238 -90l-194 438q-12 29 -23.5 44t-36.5 15t-36 -16t-23 -45l-193 -436z" />
<glyph unicode="_" horiz-adv-x="1204" d="M100 0h1006v-246h-1006v246z" />
<glyph unicode="`" d="M250 1501l231 158l267 -404l-175 -118z" />
<glyph unicode="a" horiz-adv-x="1103" d="M55 295q0 92 36 156.5t95.5 103.5t133 56.5t151.5 17.5h215v35q0 86 -46 120.5t-126 34.5q-63 0 -127.5 -10t-165.5 -45l-78 213q82 33 185.5 55.5t224.5 22.5q129 0 212 -30t130 -85t64.5 -132t17.5 -173v-391l98 -144l-209 -147l-86 102q-51 -29 -139 -59.5t-190 -30.5 q-84 0 -155 18.5t-124 57.5t-85 101.5t-32 152.5zM352 305q0 -61 38 -93t106 -32q59 0 107 16.5t87 43.5v186h-198q-63 0 -101.5 -33t-38.5 -88z" />
<glyph unicode="b" horiz-adv-x="1181" d="M123 25v1423h293v-426q41 16 99 24.5t118 8.5q106 0 193 -34t150.5 -101.5t98.5 -168t35 -231.5q0 -125 -36 -227.5t-106.5 -174t-172 -112.5t-234.5 -41q-82 0 -199.5 11.5t-238.5 48.5zM416 221q33 -8 66.5 -11t80.5 -3q51 0 96.5 17.5t78 54t52 95t19.5 140.5 q0 160 -65.5 227.5t-161.5 67.5q-88 0 -166 -31v-557z" />
<glyph unicode="c" horiz-adv-x="1101" d="M72 504q0 117 39 218t110.5 175t176 116t237.5 42q119 0 216 -19.5t173 -54.5l-92 -227q-55 18 -95 30.5t-72 17.5t-60.5 6t-57.5 1q-68 0 -118 -23.5t-84.5 -63.5t-53 -95.5t-18.5 -120.5q0 -143 78.5 -219t199.5 -76q29 0 60.5 3t66.5 11t77 22.5t95 37.5l86 -232 q-88 -39 -188 -63.5t-211 -24.5q-147 0 -254 41t-175.5 111.5t-102 169t-33.5 217.5z" />
<glyph unicode="d" horiz-adv-x="1206" d="M72 496q0 125 36.5 228t106.5 176t172 114t234 41q43 0 79.5 -2t69.5 -6v403h293v-1206l100 -148l-209 -145l-88 98q-59 -33 -138 -58.5t-171 -25.5q-127 0 -218 41t-150.5 111.5t-88 167t-28.5 211.5zM373 496q0 -156 62.5 -219.5t162.5 -63.5q47 0 94 16.5t78 34.5v533 q-31 6 -64.5 10t-68.5 4q-57 0 -105.5 -18.5t-83 -56.5t-55 -97t-20.5 -143z" />
<glyph unicode="e" horiz-adv-x="1159" d="M72 508q0 106 34.5 205.5t102 175.5t166 121t229.5 45q123 0 211 -38t146.5 -108.5t86 -172t27.5 -226.5l-84 -80h-604q4 -94 76 -155.5t199 -61.5q78 0 158.5 18.5t174.5 51.5l78 -226q-80 -33 -191.5 -62.5t-244.5 -29.5q-156 0 -263.5 41t-174 112.5t-97 171 t-30.5 218.5zM391 623h375q-2 102 -50 148t-118 46q-82 0 -141.5 -55t-65.5 -139z" />
<glyph unicode="f" horiz-adv-x="802" d="M45 782v240h127v104q0 74 24.5 139.5t76 111.5t128 73t183.5 27q57 0 114.5 -9.5t135.5 -25.5l-48 -223q-51 14 -90 21t-80 7q-150 0 -149 -143v-82h301v-240h-301v-782h-295v782h-127z" />
<glyph unicode="g" horiz-adv-x="1202" d="M78 510q0 129 40 231.5t109.5 171t162.5 105.5t200 37q63 0 129.5 -13.5t122.5 -42.5l53 78l250 -94l-74 -201v-839q0 -117 -43 -194t-114.5 -122t-166 -62.5t-192.5 -17.5q-109 0 -207 17.5t-184 50.5l65 238q74 -23 152 -42.5t164 -19.5q35 0 76 6t76.5 21.5t57 43 t21.5 75.5v55q-41 -10 -88 -18.5t-98 -8.5q-141 0 -239.5 42t-158 115t-87 172t-27.5 216zM379 510q0 -158 61.5 -230.5t171.5 -72.5q43 0 85 7t81 19v527q-31 20 -77 32.5t-89 12.5q-47 0 -89 -16.5t-73.5 -51.5t-51 -91t-19.5 -136z" />
<glyph unicode="h" horiz-adv-x="1196" d="M123 0v1448h293v-449q63 25 124.5 40.5t143.5 15.5q111 0 188.5 -31t123.5 -85t66.5 -125t20.5 -152v-662h-295v643q0 86 -46 125t-111 39q-70 0 -125 -17.5t-92 -35.5v-754h-291z" />
<glyph unicode="i" horiz-adv-x="598" d="M45 782v240h430v-1022h-295v782h-135zM131 1303q0 70 45 120t135 50q86 0 131 -50.5t45 -119.5q0 -70 -45 -119t-131 -49q-90 0 -135 49t-45 119z" />
<glyph unicode="j" horiz-adv-x="585" d="M-242 -387l70 225q39 -16 92 -31.5t107 -15.5q141 0 141 135v1096h295v-1120q0 -74 -21.5 -138.5t-69.5 -112.5t-127 -75t-190 -27q-55 0 -137 14.5t-160 49.5zM141 1303q0 70 45 120t136 50q86 0 131 -50.5t45 -119.5q0 -70 -45 -119t-131 -49q-90 0 -135.5 49 t-45.5 119z" />
<glyph unicode="k" horiz-adv-x="1171" d="M123 0v1450h295v-795h39q23 0 42 7.5t36 27.5l325 381l223 -174l-321 -348l391 -404l-213 -186l-375 389q-27 27 -48 42.5t-56 15.5h-43v-406h-295z" />
<glyph unicode="l" horiz-adv-x="559" d="M27 1208v240h411v-1448h-295v1208h-116z" />
<glyph unicode="m" horiz-adv-x="1746" d="M57 963l248 114l60 -104q59 33 134.5 57.5t168.5 24.5q90 0 156.5 -22.5t109.5 -61.5q66 31 153 57.5t177 26.5q111 0 182.5 -31t113.5 -86t59 -129t17 -158v-651h-293v627q0 100 -32.5 139t-102.5 39q-45 0 -96 -12.5t-90 -32.5q8 -27 10 -60.5t2 -66.5v-633h-295v627 q0 100 -28.5 139t-104.5 39q-51 0 -97 -15.5t-85 -35.5v-754h-293v772z" />
<glyph unicode="n" horiz-adv-x="1202" d="M57 963l252 114l58 -104q72 35 146.5 58.5t174.5 23.5q113 0 189.5 -31t125 -86t68 -129t19.5 -158v-651h-295v629q0 98 -38 137t-118 39q-63 0 -114.5 -15.5t-98.5 -35.5v-754h-295v772z" />
<glyph unicode="o" horiz-adv-x="1206" d="M72 512q0 115 35.5 214t102 172t166 115t230.5 42q139 0 239.5 -42t164 -115t95.5 -172t32 -214t-34 -214t-99.5 -174t-165 -117t-232.5 -42q-137 0 -237.5 42t-166 117t-98 174t-32.5 214zM375 512q0 -152 59.5 -228.5t171.5 -76.5q113 0 170.5 76.5t57.5 228.5 q0 303 -228 303q-113 0 -172 -76.5t-59 -226.5z" />
<glyph unicode="p" horiz-adv-x="1193" d="M57 969l238 108l67 -100q57 29 133 53.5t171 24.5q207 0 331.5 -138.5t124.5 -402.5q0 -119 -30.5 -219t-93 -173t-161 -114t-237.5 -41q-39 0 -85 6.5t-89 16.5v-430h-291v1212zM426 236q33 -12 72 -19.5t88 -7.5t91 16.5t72.5 52t49 94t18.5 142.5q0 156 -56 222.5 t-153 66.5q-45 0 -88 -11.5t-94 -37.5v-518z" />
<glyph unicode="q" horiz-adv-x="1177" d="M72 506q0 131 43 233.5t118.5 172t178 106.5t221.5 37q100 0 201.5 -12.5t220.5 -49.5v-1433h-295v430q-41 -10 -91.5 -17.5t-86.5 -7.5q-131 0 -228.5 40t-159 109.5t-92 170t-30.5 221.5zM375 512q0 -162 61.5 -232.5t161.5 -70.5q47 0 85 6t77 21v557q-29 8 -60.5 11 t-60.5 3q-113 0 -188.5 -72.5t-75.5 -222.5z" />
<glyph unicode="r" horiz-adv-x="862" d="M45 782v240h313l41 -94q78 59 146.5 86.5t142.5 27.5q35 0 75 -3t81 -17l-45 -238q-31 8 -52.5 10.5t-56.5 2.5q-76 0 -130 -27t-85 -55v-715h-295v782h-135z" />
<glyph unicode="s" horiz-adv-x="997" d="M47 43l68 240q12 -6 47 -18.5t83 -25t104.5 -21.5t109.5 -9q80 0 125 24.5t45 65.5q0 25 -13.5 40t-41 26.5t-70.5 20.5t-101 24q-49 12 -103 27.5t-102 48t-81 87t-33 142.5q0 70 26.5 132t80 108t136.5 73t197 27q131 0 236.5 -27t165.5 -55l-82 -217q-80 29 -157 45 t-150 16q-158 0 -158 -82q0 -29 16.5 -46t42 -28.5t61.5 -18.5t72 -15q66 -14 128.5 -31.5t113.5 -50.5t83 -88.5t32 -143.5q0 -158 -122 -253t-360 -95q-68 0 -132 9.5t-117.5 21.5t-93.5 25.5t-56 21.5z" />
<glyph unicode="t" horiz-adv-x="866" d="M37 782v240h135v283h289v-283h305v-240h-305v-432q0 -84 41 -112.5t98 -28.5q39 0 84 7t109 24l55 -220q-29 -10 -66 -20t-78.5 -18.5t-85 -12.5t-79.5 -4q-84 0 -150.5 18.5t-115 58.5t-75 105.5t-26.5 161.5v473h-135z" />
<glyph unicode="u" horiz-adv-x="1204" d="M113 371v651h293v-633q0 -100 47 -137t120 -37q61 0 107.5 16.5t91.5 36.5v754h293v-789l92 -133l-211 -153l-104 104q-66 -33 -141.5 -59.5t-186.5 -26.5t-187.5 32t-124.5 86t-68.5 128t-20.5 160z" />
<glyph unicode="v" horiz-adv-x="1200" d="M31 977l280 74l236 -760q8 -31 21.5 -40t31.5 -9q20 0 33.5 10t21.5 41l230 758l284 -74l-247 -774q-37 -115 -112 -176.5t-214 -61.5q-137 0 -211 62.5t-111 175.5z" />
<glyph unicode="w" horiz-adv-x="1636" d="M80 993l297 35l80 -729q2 -31 15 -48.5t31.5 -26.5t38 -12t38.5 -3q27 0 52 6t46 18v789h285v-789q18 -12 45.5 -18t52.5 -6q14 0 34.5 3t38 12t30 24.5t16.5 44.5l82 735l294 -35l-88 -733q-8 -59 -31.5 -113.5t-66.5 -94.5t-109.5 -63.5t-158.5 -23.5 q-76 0 -149.5 18.5t-133.5 53.5q-59 -33 -132 -52.5t-148 -19.5q-92 0 -159 21.5t-111 60.5t-68.5 93.5t-32.5 119.5z" />
<glyph unicode="x" horiz-adv-x="1196" d="M31 109l344 413l-301 379l225 162l264 -348q23 -31 41 -31q12 0 19.5 6t19.5 23l279 348l213 -160l-306 -373l336 -407l-219 -166l-305 377q-25 29 -41 28q-10 0 -18.5 -6t-24.5 -22l-311 -377z" />
<glyph unicode="y" horiz-adv-x="1177" d="M31 985l286 66l170 -678q23 -84 47.5 -118t79.5 -34h33l213 830l289 -68l-297 -1153q-41 -152 -144.5 -216.5t-258.5 -64.5q-72 0 -157 13.5t-155 36.5l45 237q57 -16 115.5 -30.5t122.5 -14.5q49 0 88 21.5t53 85.5l21 71q-84 0 -145.5 17.5t-105.5 53.5t-73 90t-47 130 z" />
<glyph unicode="z" horiz-adv-x="1069" d="M59 172q0 59 28 102t77 93l407 413h-481v242h887v-205l-520 -528q-12 -14 -13 -27q0 -18 27 -18h528v-244h-708q-115 0 -173.5 47t-58.5 125z" />
<glyph unicode="{" horiz-adv-x="874" d="M70 479v236h170v469q0 68 12 117t44 81.5t83 49t127 16.5h330v-238h-246q-39 0 -55.5 -18t-16.5 -57v-1112q0 -41 15.5 -58.5t56.5 -17.5h246v-238h-330q-76 0 -127 16.5t-83 49t-44 83t-12 115.5v506h-170z" />
<glyph unicode="|" horiz-adv-x="571" d="M143 -453v2040h285v-2040h-285z" />
<glyph unicode="}" horiz-adv-x="874" d="M41 -53h244q43 0 57 17.5t14 58.5v1112q0 39 -15 57t-56 18h-244v238h326q156 0 213 -66.5t57 -197.5v-469h168v-236h-168v-506q0 -133 -57.5 -198.5t-212.5 -65.5h-326v238z" />
<glyph unicode="~" horiz-adv-x="1271" d="M104 684q27 33 65 67.5t83 64.5t95 48.5t102 18.5q45 0 91 -13.5t91 -28t90 -27.5t88 -13q31 0 60.5 11t58 27.5t55.5 38t49 42.5l152 -172q-33 -37 -75 -74t-88 -68t-97.5 -48t-104.5 -17t-101 12t-93 27.5t-88 29t-84 13.5q-51 0 -100.5 -35t-92.5 -74z" />
<glyph unicode="&#xa1;" horiz-adv-x="567" d="M119 -428l43 1012h248l30 -1012h-321zM119 879q0 76 41 125t125 49q86 0 127 -49.5t41 -124.5q0 -74 -41 -122t-127 -48q-84 0 -125 48t-41 122z" />
<glyph unicode="&#xa2;" horiz-adv-x="1175" d="M147 641q0 98 26 186t77 158t126 119t175 67v236h250v-225q86 -10 159.5 -31t131.5 -45l-93 -227q-53 20 -96 33.5t-75.5 20.5t-61.5 9t-59 2q-66 0 -114 -22.5t-80 -62.5t-47 -95t-15 -121q0 -141 62 -216t183 -75q59 0 132 13.5t180 60.5l88 -233q-68 -29 -142.5 -49.5 t-152.5 -30.5v-236h-250v240q-109 18 -186.5 63t-126 112.5t-70 157t-21.5 191.5z" />
<glyph unicode="&#xa3;" horiz-adv-x="1255" d="M82 571v250h235l70 248q25 90 61.5 160.5t93 119t134.5 74t182 25.5q102 0 200.5 -29.5t192.5 -75.5l-106 -223q-63 31 -131 54.5t-133 23.5q-80 0 -127 -28.5t-72 -114.5l-66 -234h379v-250h-444l-70 -237q-10 -35 -10 -49q0 -37 59 -37h603v-248h-775q-61 0 -101 13.5 t-64.5 36t-33.5 54t-9 66.5q0 37 8 75t18 74l74 252h-168z" />
<glyph unicode="&#xa4;" horiz-adv-x="1441" d="M41 1208l195 176l264 -268q100 57 225 58q115 0 221 -56l262 266l195 -176l-270 -272q25 -49 42 -106.5t17 -120.5q0 -70 -16.5 -125.5t-49.5 -108.5q63 -66 141.5 -142.5t135.5 -137.5l-189 -170l-272 274q-100 -51 -217 -51q-59 0 -115.5 12t-103.5 41 q-63 -66 -140 -140.5t-137 -135.5l-186 172l276 280q-66 100 -65 232q0 61 16.5 118.5t42.5 104.5zM512 709q0 -45 17.5 -83t45 -67t66.5 -45t84 -16q43 0 82 16t66.5 45t45 67t17.5 83t-17.5 83.5t-45 66.5t-66.5 45.5t-82 17.5q-90 0 -151.5 -61.5t-61.5 -151.5z" />
<glyph unicode="&#xa5;" horiz-adv-x="1361" d="M29 1356l268 112l285 -614q23 -45 42 -59.5t44 -14.5q31 0 49 15.5t39 60.5l284 612l269 -108l-242 -504q-25 -53 -51 -82h108v-227h-311v-98h311v-230h-311v-219h-303v219h-299v230h299v98h-299v227h102q-14 16 -28.5 39t-26.5 47z" />
<glyph unicode="&#xa6;" horiz-adv-x="571" d="M143 393h285v-846h-285v846zM143 858v729h285v-729h-285z" />
<glyph unicode="&#xa7;" horiz-adv-x="1198" d="M94 569q0 82 45 153t115 128q-39 37 -66.5 90t-27.5 129q0 92 35.5 163t98 119t148.5 72.5t187 24.5q61 0 122.5 -8t115 -20.5t96.5 -28t73 -29.5l-90 -219q-82 27 -155.5 46t-163.5 19q-33 0 -65 -6t-57.5 -20.5t-39.5 -37t-14 -54.5q0 -59 48 -89t120.5 -46.5 t156.5 -33t158 -49t122 -94t48 -168.5q0 -76 -34 -145.5t-109 -134.5q35 -41 58 -94.5t23 -126.5q0 -92 -39.5 -163t-106.5 -118t-156 -70.5t-189 -23.5q-68 0 -131.5 8t-118.5 21.5t-101 28.5t-73 30l90 223q78 -31 160 -52.5t176 -21.5q33 0 67.5 6.5t64.5 20.5t48.5 35.5 t18.5 56.5q0 61 -49.5 90t-122 46.5t-157.5 31.5t-159 48t-122 94t-48 169zM389 608q0 -74 107 -100q82 -23 145.5 -35t97.5 -20q27 23 47.5 53.5t20.5 66.5q0 35 -23.5 59.5t-89.5 41.5q-35 8 -70.5 17t-69.5 17.5t-61.5 14.5t-41.5 10q-20 -18 -41 -54t-21 -71z" />
<glyph unicode="&#xa8;" d="M109 1350q0 68 40.5 115.5t120.5 47.5q78 0 119 -48t41 -115q0 -70 -41 -117t-119 -47q-80 0 -120.5 47t-40.5 117zM557 1350q0 68 40 115.5t122 47.5q78 0 118 -48t40 -115q0 -70 -40 -117t-118 -47q-82 0 -122 47t-40 117z" />
<glyph unicode="&#xa9;" horiz-adv-x="1691" d="M121 723q0 150 52 282t147.5 229t229.5 154.5t300 57.5q164 0 298 -57.5t227 -154.5t144.5 -229.5t51.5 -281.5q0 -152 -52.5 -283t-147.5 -228t-229 -154.5t-298 -57.5q-170 0 -304 57.5t-227.5 154.5t-142.5 228t-49 283zM297 723q0 -117 38 -218.5t109.5 -177 t174 -119.5t231.5 -44q127 0 229.5 44t174 119.5t108.5 177t37 218.5q0 115 -37 216t-108.5 176t-174 119t-229.5 44q-129 0 -231.5 -44t-174 -119t-109.5 -176t-38 -216zM457 723q0 88 26.5 163t77.5 130t127 87t174 32q92 0 167 -20.5t126 -49.5l-72 -195 q-74 29 -118.5 39.5t-98.5 10.5q-84 0 -121.5 -53.5t-37.5 -143.5q0 -190 157 -191q51 0 102.5 11.5t118.5 42.5l68 -197q-72 -29 -142.5 -47t-154.5 -18q-109 0 -185.5 28.5t-123.5 80.5t-68.5 127t-21.5 163z" />
<glyph unicode="&#xaa;" horiz-adv-x="1005" d="M135 786q0 68 24.5 113t66.5 71.5t96.5 38t111.5 11.5h146v24q0 53 -26 76t-75 23q-45 0 -97 -9.5t-128 -33.5l-55 160q59 23 142 40t167 17q92 0 149.5 -21.5t88 -59.5t42 -92t11.5 -120v-268l73 -103l-157 -106l-66 76q-35 -23 -95 -46.5t-134 -23.5q-61 0 -113.5 13.5 t-90.5 43t-59.5 73.5t-21.5 103zM360 801q0 -82 97 -82q72 0 125 37v121h-131q-43 0 -67 -20.5t-24 -55.5z" />
<glyph unicode="&#xab;" horiz-adv-x="1404" d="M699 541q0 76 46 127t117 104l304 225l139 -194l-297 -213q-25 -16 -25 -35q0 -16 19 -29l311 -225l-139 -197l-326 222q-74 49 -111.5 95t-37.5 120zM113 541q0 76 46 127t117 104l304 225l139 -194l-297 -213q-25 -16 -25 -35q0 -16 19 -29l311 -225l-139 -197 l-326 222q-74 49 -111.5 95t-37.5 120z" />
<glyph unicode="&#xac;" horiz-adv-x="1396" d="M231 561v238h932v-477h-229v239h-703z" />
<glyph unicode="&#xad;" horiz-adv-x="942" d="M143 492v256h662v-256h-662z" />
<glyph unicode="&#xae;" horiz-adv-x="1241" d="M106 936q0 104 36 197.5t102.5 163t162 110.5t214.5 41q123 0 218 -40t160.5 -108.5t100.5 -160.5t35 -197q0 -106 -39 -198.5t-106.5 -160t-162 -106.5t-206.5 -39q-115 0 -210.5 38t-163 105.5t-104.5 159t-37 195.5zM244 936q0 -78 24.5 -145.5t72.5 -118.5t118.5 -81 t161.5 -30q96 0 166.5 31t118.5 83t70.5 120.5t22.5 146.5t-22.5 146.5t-70.5 121t-118.5 83t-166.5 30.5t-168 -31.5t-118 -84t-68.5 -123t-22.5 -148.5zM432 696v508h211q76 0 129 -32.5t53 -114.5q0 -51 -28.5 -85t-65.5 -52q8 -4 14 -13l15 -14l110 -133l-108 -82 l-135 166q-14 14 -25.5 19t-30.5 5v-172h-139zM571 985h54q55 0 55 53q0 31 -14.5 40t-40.5 9h-54v-102z" />
<glyph unicode="&#xaf;" d="M186 1214v216h629v-216h-629z" />
<glyph unicode="&#xb0;" horiz-adv-x="716" d="M92 1190q0 57 19.5 105t54.5 84t84 56.5t108 20.5q61 0 110.5 -20.5t84.5 -56.5t54.5 -84t19.5 -105q0 -55 -19.5 -103.5t-54.5 -85t-84 -57t-111 -20.5q-61 0 -110 20.5t-84 57t-53.5 85t-18.5 103.5zM250 1190q0 -45 30.5 -81t77.5 -36q49 0 80 36t31 81q0 47 -31.5 82 t-79.5 35q-45 0 -76.5 -35t-31.5 -82z" />
<glyph unicode="&#xb1;" horiz-adv-x="1343" d="M199 573v240h346v342h243v-342h345v-240h-345v-335h359v-238h-934v238h332v335h-346z" />
<glyph unicode="&#xb2;" horiz-adv-x="903" d="M119 705q0 68 71 129l275 221q41 31 65.5 62.5t24.5 70.5q0 41 -31.5 61.5t-72.5 20.5q-45 0 -102.5 -21.5t-117.5 -54.5l-86 152q61 35 149.5 68.5t186.5 33.5q135 0 210 -65.5t75 -174.5q0 -94 -47 -162.5t-131 -132.5l-185 -141q-8 -6 -8 -12q0 -8 15 -8h374v-181 h-522q-66 0 -104.5 35.5t-38.5 98.5z" />
<glyph unicode="&#xb3;" horiz-adv-x="903" d="M121 621l55 170q76 -31 133.5 -43.5t114.5 -12.5q55 0 98 23.5t43 83.5q0 45 -24.5 65.5t-63.5 28.5q-16 4 -42.5 5t-43.5 1h-80v121l174 162q8 8 9 14q0 10 -15 10h-305v183h432q84 0 116 -32t32 -81q0 -39 -20.5 -68.5t-55.5 -60.5l-123 -113q63 -8 107.5 -31.5 t70 -57.5t37.5 -72.5t12 -75.5q0 -61 -23.5 -112.5t-68.5 -90.5t-111.5 -61.5t-152.5 -22.5q-96 0 -178 21.5t-127 46.5z" />
<glyph unicode="&#xb4;" d="M324 1255l262 404l227 -158l-319 -364z" />
<glyph unicode="&#xb5;" horiz-adv-x="1216" d="M137 -438v1456h293v-631q0 -100 45 -136t117 -36q59 0 107.5 16.5t93.5 36.5v750h292v-785l93 -133l-213 -153l-105 104q-57 -37 -118.5 -61.5t-135.5 -24.5q-68 0 -119 20.5t-67 37.5v-461h-283z" />
<glyph unicode="&#xb6;" horiz-adv-x="1198" d="M63 965q0 141 51.5 233t129.5 147.5t169 79t169 23.5h563v-238h-144v-1104q0 -479 -489 -479q-111 0 -188.5 17.5t-133.5 42.5l70 247q47 -23 114.5 -36t131.5 -13q47 0 83 10.5t61.5 36t38.5 70.5t13 113v1095h-106v-704h-35q-240 0 -369 114t-129 345z" />
<glyph unicode="&#xb7;" horiz-adv-x="720" d="M194 719q0 74 40 122t126 48q88 0 128 -48t40 -122q0 -78 -40 -126t-128 -48q-86 0 -126 48t-40 126z" />
<glyph unicode="&#xb8;" d="M203 -440l73 157q6 -4 24.5 -11t44.5 -16t54.5 -15.5t55.5 -6.5q74 0 73 56q0 27 -18 41t-45 21t-60.5 10t-64.5 3l57 221h189l-27 -114q92 -12 144.5 -57.5t52.5 -129.5q0 -106 -70 -170.5t-209 -64.5q-31 0 -68.5 5t-74.5 14.5t-70.5 25t-60.5 31.5z" />
<glyph unicode="&#xb9;" horiz-adv-x="903" d="M121 1247l223 156q33 25 67.5 35t67.5 10q53 0 88 -29.5t35 -97.5v-571h180v-179h-583v179h192v428q0 20 -12 20q-8 0 -19 -8l-122 -86z" />
<glyph unicode="&#xba;" horiz-adv-x="1021" d="M129 934q0 80 25.5 150.5t77 121.5t124 81t166.5 30q92 0 162 -28.5t117 -79t70.5 -119t23.5 -148.5q0 -84 -21.5 -153.5t-69.5 -122t-121 -82t-173 -29.5t-173 29.5t-119 80t-67.5 119t-21.5 150.5zM367 934q0 -193 145 -193q70 0 106.5 46.5t36.5 146.5q0 98 -36.5 147 t-104.5 49q-147 1 -147 -196z" />
<glyph unicode="&#xbb;" horiz-adv-x="1404" d="M94 801l139 196l324 -221q76 -49 114 -95t38 -120q0 -76 -46.5 -127t-117.5 -104l-303 -226l-140 195l299 219q25 16 25 35q0 16 -18 29zM680 801l139 196l324 -221q76 -49 114 -95t38 -120q0 -76 -46.5 -127t-117.5 -104l-303 -226l-140 195l299 219q25 16 25 35 q0 16 -18 29z" />
<glyph unicode="&#xbc;" horiz-adv-x="2043" d="M533 0l872 1430h256l-870 -1430h-258zM103 1247l223 156q33 25 67.5 35t67.5 10q53 0 88 -29.5t35 -97.5v-571h180v-179h-583v179h192v428q0 20 -12 20q-8 0 -19 -8l-122 -86zM1212 334q0 66 68 141l366 388h174v-506h127v-168h-127v-187h-209v187h-233q-84 0 -125 41 t-41 104zM1392 369q0 -12 17 -12h202v241l-209 -213q-10 -8 -10 -16z" />
<glyph unicode="&#xbd;" horiz-adv-x="2043" d="M500 0l872 1430h256l-870 -1430h-258zM84 1247l223 156q33 25 67.5 35t67.5 10q53 0 88 -29.5t35 -97.5v-571h180v-179h-583v179h192v428q0 20 -12 20q-8 0 -19 -8l-122 -86zM1297 136q0 68 71 129l275 221q41 31 65.5 62.5t24.5 70.5q0 41 -31.5 61.5t-72.5 20.5 q-45 0 -102.5 -21.5t-117.5 -54.5l-86 152q61 35 149.5 68.5t186.5 33.5q135 0 210 -65.5t75 -174.5q0 -94 -47 -162.5t-131 -132.5l-185 -141q-8 -6 -8 -12q0 -8 15 -8h374v-181h-522q-66 0 -104.5 35.5t-38.5 98.5z" />
<glyph unicode="&#xbe;" horiz-adv-x="2043" d="M492 0l872 1430h256l-870 -1430h-258zM1192 334q0 66 68 141l366 388h174v-506h127v-168h-127v-187h-209v187h-233q-84 0 -125 41t-41 104zM1372 369q0 -12 17 -12h202v241l-209 -213q-10 -8 -10 -16zM119 621l55 170q76 -31 133.5 -43.5t114.5 -12.5q55 0 98 23.5 t43 83.5q0 45 -24.5 65.5t-63.5 28.5q-16 4 -42.5 5t-43.5 1h-80v121l174 162q8 8 9 14q0 10 -15 10h-305v183h432q84 0 116 -32t32 -81q0 -39 -20.5 -68.5t-55.5 -60.5l-123 -113q63 -8 107.5 -31.5t70 -57.5t37.5 -72.5t12 -75.5q0 -61 -23.5 -112.5t-68.5 -90.5 t-111.5 -61.5t-152.5 -22.5q-96 0 -178 21.5t-127 46.5z" />
<glyph unicode="&#xbf;" horiz-adv-x="1175" d="M102 -80q0 129 65.5 213t164.5 154l100 71q55 43 81 72t26 88v66h284v-101q0 -84 -24.5 -145.5t-108.5 -120.5l-125 -90q-63 -47 -103 -88t-40 -92q0 -72 65.5 -106t165.5 -34q98 0 183.5 36t185.5 98l129 -220q-98 -70 -229 -121t-299 -51q-125 0 -221.5 29t-163 79 t-101.5 117.5t-35 145.5zM512 879q0 76 41 125t125 49q86 0 128 -49.5t42 -124.5q0 -74 -42 -122t-128 -48q-84 0 -125 48t-41 122z" />
<glyph unicode="&#xc0;" horiz-adv-x="1449" d="M15 37l348 1151q20 68 49 121t73 90t105.5 55.5t147.5 18.5q82 0 140 -17.5t99 -53.5t66.5 -86t46.5 -114l352 -1165l-301 -68l-131 443h-569l-134 -443zM510 666h426l-137 485q-12 39 -30.5 52.5t-41.5 13.5q-27 0 -44 -14.5t-29 -51.5zM432 1835l191 178l323 -350 l-149 -131z" />
<glyph unicode="&#xc1;" horiz-adv-x="1449" d="M15 37l348 1151q20 68 49 121t73 90t105.5 55.5t147.5 18.5q82 0 140 -17.5t99 -53.5t66.5 -86t46.5 -114l352 -1165l-301 -68l-131 443h-569l-134 -443zM510 666h426l-137 485q-12 39 -30.5 52.5t-41.5 13.5q-27 0 -44 -14.5t-29 -51.5zM516 1663l328 350l188 -178 l-362 -303z" />
<glyph unicode="&#xc2;" horiz-adv-x="1449" d="M15 37l348 1151q20 68 49 121t73 90t105.5 55.5t147.5 18.5q82 0 140 -17.5t99 -53.5t66.5 -86t46.5 -114l352 -1165l-301 -68l-131 443h-569l-134 -443zM510 666h426l-137 485q-12 39 -30.5 52.5t-41.5 13.5q-27 0 -44 -14.5t-29 -51.5zM391 1651l242 256h203l231 -254 l-153 -119l-185 170l-182 -170z" />
<glyph unicode="&#xc3;" horiz-adv-x="1449" d="M15 37l348 1151q20 68 49 121t73 90t105.5 55.5t147.5 18.5q82 0 140 -17.5t99 -53.5t66.5 -86t46.5 -114l352 -1165l-301 -68l-131 443h-569l-134 -443zM510 666h426l-137 485q-12 39 -30.5 52.5t-41.5 13.5q-27 0 -44 -14.5t-29 -51.5zM336 1567q0 137 38.5 214 t126.5 89q12 2 25 2h25q47 -4 97 -22.5t99 -34.5l49 -19q29 -10 52.5 -17t38.5 -7q43 0 52 29.5t9 72.5h178q0 -150 -48 -228.5t-140 -78.5q-53 0 -110.5 20.5t-108.5 38.5l-54 21q-31 8 -56.5 16t-39.5 8q-41 0 -50 -27.5t-9 -76.5h-174z" />
<glyph unicode="&#xc4;" horiz-adv-x="1449" d="M15 37l348 1151q20 68 49 121t73 90t105.5 55.5t147.5 18.5q82 0 140 -17.5t99 -53.5t66.5 -86t46.5 -114l352 -1165l-301 -68l-131 443h-569l-134 -443zM510 666h426l-137 485q-12 39 -30.5 52.5t-41.5 13.5q-27 0 -44 -14.5t-29 -51.5zM347 1720q0 68 40.5 116 t120.5 48q78 0 120 -48t42 -116t-42 -116t-120 -48q-80 0 -120.5 48t-40.5 116zM797 1720q0 68 40 116t120 48q78 0 118 -48t40 -116t-40 -116t-118 -48q-80 0 -120 48t-40 116z" />
<glyph unicode="&#xc5;" horiz-adv-x="1449" d="M15 37l348 1151q20 68 49 121t73 90t105.5 55.5t147.5 18.5q82 0 140 -17.5t99 -53.5t66.5 -86t46.5 -114l352 -1165l-301 -68l-131 443h-569l-134 -443zM510 666h426l-137 485q-12 39 -30.5 52.5t-41.5 13.5q-27 0 -44 -14.5t-29 -51.5zM454 1817q0 57 21.5 108t60.5 90 t90 60.5t109 21.5q57 0 108.5 -21.5t90 -60.5t60 -90t21.5 -108q0 -59 -21.5 -110.5t-60 -89.5t-90 -59.5t-108.5 -21.5t-108.5 21.5t-90.5 59.5t-60.5 89.5t-21.5 110.5zM624 1817q0 -47 30 -81t81 -34t80.5 33.5t29.5 81.5q0 45 -29.5 79.5t-80.5 34.5q-49 0 -80 -34.5 t-31 -79.5z" />
<glyph unicode="&#xc6;" horiz-adv-x="2062" d="M10 49l539 1131q29 63 60.5 112t75.5 83t104.5 53.5t148.5 19.5h1040v-256h-741v-340h571v-254h-571v-344h756v-254h-1055v526h-367l-264 -557zM666 782h272v422q-41 -2 -69.5 -29.5t-61.5 -95.5z" />
<glyph unicode="&#xc7;" horiz-adv-x="1372" d="M76 723q0 162 48 299t142 237.5t235.5 157t325.5 56.5q150 0 265.5 -30t218.5 -75l-92 -242q-72 29 -127.5 46.5t-101.5 26.5t-87 12t-82 3q-207 0 -317.5 -129t-110.5 -362q0 -252 111.5 -375t314.5 -123q57 0 105.5 6.5t95.5 17.5t99 30.5t122 48.5l92 -238 q-115 -53 -222 -84t-243 -39l-12 -61q92 -12 144.5 -57.5t52.5 -129.5q0 -106 -70 -170.5t-209 -64.5q-63 0 -142 19.5t-132 56.5l75 157q6 -4 24.5 -11t43.5 -16t53.5 -15.5t57.5 -6.5q74 0 73 56q0 27 -20.5 41t-50 21t-66.5 10t-67 3l43 174q-160 18 -272.5 82 t-182.5 163t-102.5 227t-32.5 278z" />
<glyph unicode="&#xc8;" horiz-adv-x="1263" d="M139 0v1448h1039v-256h-742v-309h574v-256h-574v-373h758v-254h-1055zM346 1835l191 178l323 -350l-149 -131z" />
<glyph unicode="&#xc9;" horiz-adv-x="1263" d="M139 0v1448h1039v-256h-742v-309h574v-256h-574v-373h758v-254h-1055zM491 1663l328 350l188 -178l-362 -303z" />
<glyph unicode="&#xca;" horiz-adv-x="1263" d="M139 0v1448h1039v-256h-742v-309h574v-256h-574v-373h758v-254h-1055zM325 1651l242 256h203l231 -254l-153 -119l-185 170l-182 -170z" />
<glyph unicode="&#xcb;" horiz-adv-x="1263" d="M139 0v1448h1039v-256h-742v-309h574v-256h-574v-373h758v-254h-1055zM285 1720q0 68 40.5 116t120.5 48q78 0 120 -48t42 -116t-42 -116t-120 -48q-80 0 -120.5 48t-40.5 116zM735 1720q0 68 40 116t120 48q78 0 118 -48t40 -116t-40 -116t-118 -48q-80 0 -120 48 t-40 116z" />
<glyph unicode="&#xcc;" horiz-adv-x="589" d="M143 0v1448h306v-1448h-306zM10 1835l191 178l323 -350l-149 -131z" />
<glyph unicode="&#xcd;" horiz-adv-x="589" d="M143 0v1448h306v-1448h-306zM78 1663l328 350l188 -178l-362 -303z" />
<glyph unicode="&#xce;" horiz-adv-x="589" d="M143 0v1448h306v-1448h-306zM-37 1651l242 256h203l231 -254l-153 -119l-185 170l-182 -170z" />
<glyph unicode="&#xcf;" horiz-adv-x="589" d="M143 0v1448h306v-1448h-306zM-81 1720q0 68 40.5 116t120.5 48q78 0 120 -48t42 -116t-42 -116t-120 -48q-80 0 -120.5 48t-40.5 116zM369 1720q0 68 40 116t120 48q78 0 118 -48t40 -116t-40 -116t-118 -48q-80 0 -120 48t-40 116z" />
<glyph unicode="&#xd0;" horiz-adv-x="1574" d="M45 594v258h143v596h603q170 0 303 -52.5t223 -146.5t136 -227t46 -293t-42 -293t-128 -230t-221 -151.5t-317 -54.5h-603v594h-143zM489 254h287q199 0 306.5 109.5t107.5 355.5t-108.5 359.5t-305.5 113.5h-287v-340h351v-258h-351v-340z" />
<glyph unicode="&#xd1;" horiz-adv-x="1497" d="M139 0v1448h307l621 -1081v1081h291v-1110q0 -51 -4 -106.5t-13 -81.5q-16 -55 -41.5 -87t-53 -48.5t-56.5 -20.5t-49 -4q-43 0 -79 12t-71 39t-67.5 70t-69.5 106l-422 703v-920h-293zM387 1567q0 137 38.5 214t126.5 89q12 2 25 2h25q47 -4 97 -22.5t99 -34.5l49 -19 q29 -10 52.5 -17t38.5 -7q43 0 52 29.5t9 72.5h178q0 -150 -48 -228.5t-140 -78.5q-53 0 -110.5 20.5t-108.5 38.5l-54 21q-31 8 -56.5 16t-39.5 8q-41 0 -50 -27.5t-9 -76.5h-174z" />
<glyph unicode="&#xd2;" horiz-adv-x="1550" d="M76 721q0 143 39 279.5t125 242t218 168t318 62.5q195 0 329 -62.5t216 -168t119 -242t37 -279.5q0 -145 -39 -281.5t-124 -242t-218 -169t-320 -63.5q-195 0 -328 63.5t-215.5 169t-119.5 242t-37 281.5zM393 721q0 -102 22.5 -192.5t69.5 -157t119 -105.5t172 -39 t173 39t120 105.5t68.5 156.5t21.5 193q0 102 -21.5 191t-68.5 157t-119.5 105.5t-173.5 37.5q-100 0 -172 -37.5t-119 -105.5t-69.5 -157t-22.5 -191zM491 1835l191 178l323 -350l-149 -131z" />
<glyph unicode="&#xd3;" horiz-adv-x="1550" d="M76 721q0 143 39 279.5t125 242t218 168t318 62.5q195 0 329 -62.5t216 -168t119 -242t37 -279.5q0 -145 -39 -281.5t-124 -242t-218 -169t-320 -63.5q-195 0 -328 63.5t-215.5 169t-119.5 242t-37 281.5zM393 721q0 -102 22.5 -192.5t69.5 -157t119 -105.5t172 -39 t173 39t120 105.5t68.5 156.5t21.5 193q0 102 -21.5 191t-68.5 157t-119.5 105.5t-173.5 37.5q-100 0 -172 -37.5t-119 -105.5t-69.5 -157t-22.5 -191zM569 1663l328 350l188 -178l-362 -303z" />
<glyph unicode="&#xd4;" horiz-adv-x="1550" d="M76 721q0 143 39 279.5t125 242t218 168t318 62.5q195 0 329 -62.5t216 -168t119 -242t37 -279.5q0 -145 -39 -281.5t-124 -242t-218 -169t-320 -63.5q-195 0 -328 63.5t-215.5 169t-119.5 242t-37 281.5zM393 721q0 -102 22.5 -192.5t69.5 -157t119 -105.5t172 -39 t173 39t120 105.5t68.5 156.5t21.5 193q0 102 -21.5 191t-68.5 157t-119.5 105.5t-173.5 37.5q-100 0 -172 -37.5t-119 -105.5t-69.5 -157t-22.5 -191zM452 1651l242 256h203l231 -254l-153 -119l-185 170l-182 -170z" />
<glyph unicode="&#xd5;" horiz-adv-x="1550" d="M76 721q0 143 39 279.5t125 242t218 168t318 62.5q195 0 329 -62.5t216 -168t119 -242t37 -279.5q0 -145 -39 -281.5t-124 -242t-218 -169t-320 -63.5q-195 0 -328 63.5t-215.5 169t-119.5 242t-37 281.5zM393 721q0 -102 22.5 -192.5t69.5 -157t119 -105.5t172 -39 t173 39t120 105.5t68.5 156.5t21.5 193q0 102 -21.5 191t-68.5 157t-119.5 105.5t-173.5 37.5q-100 0 -172 -37.5t-119 -105.5t-69.5 -157t-22.5 -191zM394 1567q0 137 38.5 214t126.5 89q12 2 25 2h25q47 -4 97 -22.5t99 -34.5l49 -19q29 -10 52.5 -17t38.5 -7 q43 0 52 29.5t9 72.5h178q0 -150 -48 -228.5t-140 -78.5q-53 0 -110.5 20.5t-108.5 38.5l-54 21q-31 8 -56.5 16t-39.5 8q-41 0 -50 -27.5t-9 -76.5h-174z" />
<glyph unicode="&#xd6;" horiz-adv-x="1550" d="M76 721q0 143 39 279.5t125 242t218 168t318 62.5q195 0 329 -62.5t216 -168t119 -242t37 -279.5q0 -145 -39 -281.5t-124 -242t-218 -169t-320 -63.5q-195 0 -328 63.5t-215.5 169t-119.5 242t-37 281.5zM393 721q0 -102 22.5 -192.5t69.5 -157t119 -105.5t172 -39 t173 39t120 105.5t68.5 156.5t21.5 193q0 102 -21.5 191t-68.5 157t-119.5 105.5t-173.5 37.5q-100 0 -172 -37.5t-119 -105.5t-69.5 -157t-22.5 -191zM396 1720q0 68 40.5 116t120.5 48q78 0 120 -48t42 -116t-42 -116t-120 -48q-80 0 -120.5 48t-40.5 116zM846 1720 q0 68 40 116t120 48q78 0 118 -48t40 -116t-40 -116t-118 -48q-80 0 -120 48t-40 116z" />
<glyph unicode="&#xd7;" horiz-adv-x="1343" d="M250 930l176 174l252 -252l244 242l165 -168l-241 -244l246 -246l-172 -176l-248 250l-244 -244l-168 168l244 242z" />
<glyph unicode="&#xd8;" horiz-adv-x="1544" d="M72 713q0 143 40 280t123.5 245t216 171.5t320.5 63.5q70 0 129.5 -9.5t114.5 -25.5l76 143h274l-137 -258q63 -55 109 -124t77 -148.5t44.5 -165.5t13.5 -172q0 -150 -38 -285t-122 -237.5t-218 -164t-323 -61.5q-70 0 -130 9.5t-114 25.5l-86 -164h-276l147 275 q-127 104 -184 262t-57 340zM389 715q0 -92 18.5 -172t57.5 -144l420 793q-45 20 -113 20q-98 0 -170 -38.5t-119 -107.5t-70.5 -159t-23.5 -192zM657 248q49 -20 115 -21q98 0 171 38t121 103.5t70.5 154.5t22.5 192q0 92 -19.5 174t-60.5 145z" />
<glyph unicode="&#xd9;" horiz-adv-x="1468" d="M133 600v848h301v-805q0 -98 10.5 -177t44 -133t92 -83t154.5 -29q94 0 152.5 29t91.5 82t44 130t11 171v815h303v-821q0 -145 -25.5 -266t-92 -209.5t-184 -137.5t-300.5 -49q-186 0 -304 44t-184.5 127t-90 200t-23.5 264zM432 1835l191 178l323 -350l-149 -131z" />
<glyph unicode="&#xda;" horiz-adv-x="1468" d="M133 600v848h301v-805q0 -98 10.5 -177t44 -133t92 -83t154.5 -29q94 0 152.5 29t91.5 82t44 130t11 171v815h303v-821q0 -145 -25.5 -266t-92 -209.5t-184 -137.5t-300.5 -49q-186 0 -304 44t-184.5 127t-90 200t-23.5 264zM569 1663l328 350l188 -178l-362 -303z" />
<glyph unicode="&#xdb;" horiz-adv-x="1468" d="M133 600v848h301v-805q0 -98 10.5 -177t44 -133t92 -83t154.5 -29q94 0 152.5 29t91.5 82t44 130t11 171v815h303v-821q0 -145 -25.5 -266t-92 -209.5t-184 -137.5t-300.5 -49q-186 0 -304 44t-184.5 127t-90 200t-23.5 264zM420 1651l242 256h203l231 -254l-153 -119 l-185 170l-182 -170z" />
<glyph unicode="&#xdc;" horiz-adv-x="1468" d="M133 600v848h301v-805q0 -98 10.5 -177t44 -133t92 -83t154.5 -29q94 0 152.5 29t91.5 82t44 130t11 171v815h303v-821q0 -145 -25.5 -266t-92 -209.5t-184 -137.5t-300.5 -49q-186 0 -304 44t-184.5 127t-90 200t-23.5 264zM371 1720q0 68 40.5 116t120.5 48 q78 0 120 -48t42 -116t-42 -116t-120 -48q-80 0 -120.5 48t-40.5 116zM821 1720q0 68 40 116t120 48q78 0 118 -48t40 -116t-40 -116t-118 -48q-80 0 -120 48t-40 116z" />
<glyph unicode="&#xdd;" horiz-adv-x="1339" d="M12 1356l269 112l303 -651q23 -47 41 -60.5t45 -13.5q31 0 49 14.5t39 61.5l305 649l270 -108l-276 -592q-49 -106 -101.5 -176t-138.5 -103v-489h-303v487q-82 29 -131 94.5t-98 172.5zM489 1663l328 350l188 -178l-362 -303z" />
<glyph unicode="&#xde;" horiz-adv-x="1286" d="M139 0v1448h299v-205h254q104 0 197.5 -26.5t164 -83t111.5 -147.5t41 -220q0 -104 -40 -191.5t-110.5 -150t-166.5 -96t-209 -33.5h-242v-295h-299zM438 547h215q45 0 89 10t79 37t56.5 69t21.5 103q0 76 -20.5 121t-55.5 68.5t-79 31.5t-93 8h-213v-448z" />
<glyph unicode="&#xdf;" horiz-adv-x="1249" d="M123 0v1059q0 188 114.5 301t356.5 113q135 0 222 -27t138.5 -71t72 -97t20.5 -107q0 -66 -28 -120t-58.5 -99t-58.5 -83t-28 -74q0 -33 24 -60.5t59.5 -57.5t75.5 -63.5t77 -75.5t59.5 -98.5t22.5 -128.5t-20.5 -134t-69.5 -108t-125 -74t-186 -28q-72 0 -150 15.5 t-121 33.5l47 238q47 -16 99.5 -30.5t115.5 -14.5q70 0 95.5 30.5t25.5 71.5t-23.5 72t-59.5 58.5t-75.5 55t-75.5 61.5t-59.5 76t-23.5 101t27.5 107.5t59.5 92.5t58.5 86t26.5 89q0 49 -41 88t-125 39q-92 0 -138 -55.5t-46 -147.5v-1034h-285z" />
<glyph unicode="&#xe0;" horiz-adv-x="1107" d="M59 295q0 92 36 156.5t95.5 103.5t133 56.5t151.5 17.5h215v35q0 86 -46 120.5t-126 34.5q-63 0 -127.5 -10t-165.5 -45l-78 213q82 33 185.5 55.5t224.5 22.5q129 0 212 -30t130 -85t64.5 -132t17.5 -173v-391l98 -144l-209 -147l-86 102q-51 -29 -139 -59.5t-190 -30.5 q-84 0 -155 18.5t-124 57.5t-85 101.5t-32 152.5zM356 305q0 -61 38 -93t106 -32q59 0 107 16.5t87 43.5v186h-198q-63 0 -101.5 -33t-38.5 -88zM254 1501l231 158l267 -404l-175 -118z" />
<glyph unicode="&#xe1;" horiz-adv-x="1107" d="M59 295q0 92 36 156.5t95.5 103.5t133 56.5t151.5 17.5h215v35q0 86 -46 120.5t-126 34.5q-63 0 -127.5 -10t-165.5 -45l-78 213q82 33 185.5 55.5t224.5 22.5q129 0 212 -30t130 -85t64.5 -132t17.5 -173v-391l98 -144l-209 -147l-86 102q-51 -29 -139 -59.5t-190 -30.5 q-84 0 -155 18.5t-124 57.5t-85 101.5t-32 152.5zM356 305q0 -61 38 -93t106 -32q59 0 107 16.5t87 43.5v186h-198q-63 0 -101.5 -33t-38.5 -88zM390 1255l262 404l227 -158l-319 -364z" />
<glyph unicode="&#xe2;" horiz-adv-x="1107" d="M59 295q0 92 36 156.5t95.5 103.5t133 56.5t151.5 17.5h215v35q0 86 -46 120.5t-126 34.5q-63 0 -127.5 -10t-165.5 -45l-78 213q82 33 185.5 55.5t224.5 22.5q129 0 212 -30t130 -85t64.5 -132t17.5 -173v-391l98 -144l-209 -147l-86 102q-51 -29 -139 -59.5t-190 -30.5 q-84 0 -155 18.5t-124 57.5t-85 101.5t-32 152.5zM356 305q0 -61 38 -93t106 -32q59 0 107 16.5t87 43.5v186h-198q-63 0 -101.5 -33t-38.5 -88zM201 1251l258 336h188l248 -336l-159 -112l-185 219l-186 -217z" />
<glyph unicode="&#xe3;" horiz-adv-x="1107" d="M59 295q0 92 36 156.5t95.5 103.5t133 56.5t151.5 17.5h215v35q0 86 -46 120.5t-126 34.5q-63 0 -127.5 -10t-165.5 -45l-78 213q82 33 185.5 55.5t224.5 22.5q129 0 212 -30t130 -85t64.5 -132t17.5 -173v-391l98 -144l-209 -147l-86 102q-51 -29 -139 -59.5t-190 -30.5 q-84 0 -155 18.5t-124 57.5t-85 101.5t-32 152.5zM356 305q0 -61 38 -93t106 -32q59 0 107 16.5t87 43.5v186h-198q-63 0 -101.5 -33t-38.5 -88zM150 1204q0 137 38.5 214t126.5 89q12 2 25 2h25q47 -4 98 -21.5t98 -35.5l49 -18q29 -10 52.5 -17.5t38.5 -7.5q43 0 52 28.5 t9 73.5h178q0 -152 -48 -229.5t-140 -77.5q-53 0 -110.5 20.5t-108.5 37.5l-54 20q-31 10 -56.5 18.5t-39.5 8.5q-41 0 -50 -28t-9 -77h-174z" />
<glyph unicode="&#xe4;" horiz-adv-x="1107" d="M59 295q0 92 36 156.5t95.5 103.5t133 56.5t151.5 17.5h215v35q0 86 -46 120.5t-126 34.5q-63 0 -127.5 -10t-165.5 -45l-78 213q82 33 185.5 55.5t224.5 22.5q129 0 212 -30t130 -85t64.5 -132t17.5 -173v-391l98 -144l-209 -147l-86 102q-51 -29 -139 -59.5t-190 -30.5 q-84 0 -155 18.5t-124 57.5t-85 101.5t-32 152.5zM356 305q0 -61 38 -93t106 -32q59 0 107 16.5t87 43.5v186h-198q-63 0 -101.5 -33t-38.5 -88zM158 1350q0 68 40.5 115.5t120.5 47.5q78 0 119 -48t41 -115q0 -70 -41 -117t-119 -47q-80 0 -120.5 47t-40.5 117zM606 1350 q0 68 40 115.5t122 47.5q78 0 118 -48t40 -115q0 -70 -40 -117t-118 -47q-82 0 -122 47t-40 117z" />
<glyph unicode="&#xe5;" horiz-adv-x="1107" d="M59 295q0 92 36 156.5t95.5 103.5t133 56.5t151.5 17.5h215v35q0 86 -46 120.5t-126 34.5q-63 0 -127.5 -10t-165.5 -45l-78 213q82 33 185.5 55.5t224.5 22.5q129 0 212 -30t130 -85t64.5 -132t17.5 -173v-391l98 -144l-209 -147l-86 102q-51 -29 -139 -59.5t-190 -30.5 q-84 0 -155 18.5t-124 57.5t-85 101.5t-32 152.5zM356 305q0 -61 38 -93t106 -32q59 0 107 16.5t87 43.5v186h-198q-63 0 -101.5 -33t-38.5 -88zM262 1425q0 57 21.5 108.5t60.5 89.5t90 60.5t109 22.5q57 0 108.5 -22.5t90 -60.5t60 -89t21.5 -109q0 -59 -21.5 -110 t-60 -89t-90 -59.5t-108.5 -21.5t-108.5 21.5t-90.5 59.5t-60.5 89t-21.5 110zM432 1425q0 -47 30 -81.5t81 -34.5t80.5 34.5t29.5 81.5q0 45 -29.5 80t-80.5 35q-49 0 -80 -35t-31 -80z" />
<glyph unicode="&#xe6;" horiz-adv-x="1736" d="M59 295q0 92 36 155.5t95.5 102.5t133 56.5t151.5 17.5h213v39q0 86 -39 118.5t-114 32.5q-68 0 -137.5 -9t-172.5 -44l-78 213q82 31 193 54.5t233 23.5q121 0 194 -32t118 -108q55 55 135 97.5t205 42.5q109 0 191.5 -38t138 -108.5t84 -171t28.5 -225.5l-84 -80h-586 q4 -92 66.5 -155.5t177.5 -63.5q37 0 74 3t77 10t87 19.5t106 33.5l78 -228q-84 -33 -198.5 -59.5t-247.5 -26.5q-125 0 -215.5 31t-153.5 84q-102 -63 -200.5 -89t-194.5 -26q-82 0 -153 18.5t-124 57.5t-85 101.5t-32 152.5zM356 305q0 -125 152 -125q70 0 124 21.5 t95 46.5q-16 39 -25.5 84t-13.5 92h-192q-63 0 -101.5 -33t-38.5 -86zM1001 625h355q-4 102 -49 148t-117 46q-82 0 -132.5 -55t-56.5 -139z" />
<glyph unicode="&#xe7;" horiz-adv-x="1073" d="M72 504q0 117 37.5 218t108.5 175t175.5 116t237.5 42q121 0 215 -19.5t170 -54.5l-92 -227q-55 18 -95.5 30.5t-71 17.5t-58 6t-56.5 1q-68 0 -118 -23.5t-83.5 -63.5t-51 -95.5t-17.5 -120.5q0 -143 76.5 -219t197.5 -76q29 0 59.5 3t65.5 11t76 22.5t94 37.5l86 -232 q-162 -78 -354 -86l-12 -61q92 -12 144 -57.5t52 -129.5q0 -106 -69.5 -170.5t-208.5 -64.5q-29 0 -67 5t-75 14.5t-71.5 24.5t-61.5 32l76 157q6 -4 24.5 -11t43 -16t53 -15.5t55.5 -6.5q76 0 76 56q0 27 -20.5 41t-50.5 21t-66.5 10t-65.5 3l43 181q-104 20 -179 67 t-124 115.5t-73.5 155t-24.5 186.5z" />
<glyph unicode="&#xe8;" horiz-adv-x="1134" d="M72 508q0 106 34.5 205.5t102 175.5t166 121t229.5 45q123 0 211 -38t146.5 -108.5t86 -172t27.5 -226.5l-84 -80h-604q4 -94 76 -155.5t199 -61.5q78 0 158.5 18.5t174.5 51.5l78 -226q-80 -33 -191.5 -62.5t-244.5 -29.5q-156 0 -263.5 41t-174 112.5t-97 171 t-30.5 218.5zM391 623h375q-2 102 -50 148t-118 46q-82 0 -141.5 -55t-65.5 -139zM285 1501l231 158l267 -404l-175 -118z" />
<glyph unicode="&#xe9;" horiz-adv-x="1134" d="M72 508q0 106 34.5 205.5t102 175.5t166 121t229.5 45q123 0 211 -38t146.5 -108.5t86 -172t27.5 -226.5l-84 -80h-604q4 -94 76 -155.5t199 -61.5q78 0 158.5 18.5t174.5 51.5l78 -226q-80 -33 -191.5 -62.5t-244.5 -29.5q-156 0 -263.5 41t-174 112.5t-97 171 t-30.5 218.5zM391 623h375q-2 102 -50 148t-118 46q-82 0 -141.5 -55t-65.5 -139zM373 1255l262 404l227 -158l-319 -364z" />
<glyph unicode="&#xea;" horiz-adv-x="1134" d="M72 508q0 106 34.5 205.5t102 175.5t166 121t229.5 45q123 0 211 -38t146.5 -108.5t86 -172t27.5 -226.5l-84 -80h-604q4 -94 76 -155.5t199 -61.5q78 0 158.5 18.5t174.5 51.5l78 -226q-80 -33 -191.5 -62.5t-244.5 -29.5q-156 0 -263.5 41t-174 112.5t-97 171 t-30.5 218.5zM391 623h375q-2 102 -50 148t-118 46q-82 0 -141.5 -55t-65.5 -139zM242 1251l258 336h188l248 -336l-159 -112l-185 219l-186 -217z" />
<glyph unicode="&#xeb;" horiz-adv-x="1134" d="M72 508q0 106 34.5 205.5t102 175.5t166 121t229.5 45q123 0 211 -38t146.5 -108.5t86 -172t27.5 -226.5l-84 -80h-604q4 -94 76 -155.5t199 -61.5q78 0 158.5 18.5t174.5 51.5l78 -226q-80 -33 -191.5 -62.5t-244.5 -29.5q-156 0 -263.5 41t-174 112.5t-97 171 t-30.5 218.5zM391 623h375q-2 102 -50 148t-118 46q-82 0 -141.5 -55t-65.5 -139zM209 1350q0 68 40.5 115.5t120.5 47.5q78 0 119 -48t41 -115q0 -70 -41 -117t-119 -47q-80 0 -120.5 47t-40.5 117zM657 1350q0 68 40 115.5t122 47.5q78 0 118 -48t40 -115q0 -70 -40 -117 t-118 -47q-82 0 -122 47t-40 117z" />
<glyph unicode="&#xec;" horiz-adv-x="598" d="M-29 1501l231 158l267 -404l-175 -118zM45 782v240h430v-1022h-295v782h-135z" />
<glyph unicode="&#xed;" horiz-adv-x="598" d="M80 1255l262 404l227 -158l-319 -364zM45 782v240h430v-1022h-295v782h-135z" />
<glyph unicode="&#xee;" horiz-adv-x="598" d="M45 782v240h430v-1022h-295v782h-135zM-70 1251l258 336h188l248 -336l-159 -112l-185 219l-186 -217z" />
<glyph unicode="&#xef;" horiz-adv-x="598" d="M-96 1350q0 68 40.5 115.5t120.5 47.5q78 0 119 -48t41 -115q0 -70 -41 -117t-119 -47q-80 0 -120.5 47t-40.5 117zM352 1350q0 68 40 115.5t122 47.5q78 0 118 -48t40 -115q0 -70 -40 -117t-118 -47q-82 0 -122 47t-40 117zM45 782v240h430v-1022h-295v782h-135z" />
<glyph unicode="&#xf0;" horiz-adv-x="1206" d="M74 471q0 121 34.5 215t95 160.5t147.5 101.5t190 35q76 0 144.5 -21.5t119.5 -60.5q-31 82 -84 143.5t-119.5 104.5t-146.5 71.5t-164 43.5l82 223q84 -14 166 -41t149 -66l203 136l145 -189l-137 -94q104 -115 170 -269.5t66 -375.5q0 -133 -34 -247t-101.5 -197 t-169 -130t-236.5 -47q-127 0 -224.5 37t-163 101.5t-99 157.5t-33.5 208zM377 471q0 -125 57.5 -194.5t173.5 -69.5q66 0 108 30.5t66.5 81t33.5 110.5t9 122q0 61 -6 113q-35 29 -98.5 54t-128.5 25q-90 0 -152.5 -63.5t-62.5 -208.5z" />
<glyph unicode="&#xf1;" horiz-adv-x="1202" d="M57 963l252 114l58 -104q72 35 146.5 58.5t174.5 23.5q113 0 189.5 -31t125 -86t68 -129t19.5 -158v-651h-295v629q0 98 -38 137t-118 39q-63 0 -114.5 -15.5t-98.5 -35.5v-754h-295v772zM217 1204q0 137 38.5 214t126.5 89q12 2 25 2h25q47 -4 98 -21.5t98 -35.5l49 -18 q29 -10 52.5 -17.5t38.5 -7.5q43 0 52 28.5t9 73.5h178q0 -152 -48 -229.5t-140 -77.5q-53 0 -110.5 20.5t-108.5 37.5l-54 20q-31 10 -56.5 18.5t-39.5 8.5q-41 0 -50 -28t-9 -77h-174z" />
<glyph unicode="&#xf2;" horiz-adv-x="1206" d="M72 512q0 115 35.5 214t102 172t166 115t230.5 42q139 0 239.5 -42t164 -115t95.5 -172t32 -214t-34 -214t-99.5 -174t-165 -117t-232.5 -42q-137 0 -237.5 42t-166 117t-98 174t-32.5 214zM375 512q0 -152 59.5 -228.5t171.5 -76.5q113 0 170.5 76.5t57.5 228.5 q0 303 -228 303q-113 0 -172 -76.5t-59 -226.5zM336 1501l231 158l267 -404l-175 -118z" />
<glyph unicode="&#xf3;" horiz-adv-x="1206" d="M72 512q0 115 35.5 214t102 172t166 115t230.5 42q139 0 239.5 -42t164 -115t95.5 -172t32 -214t-34 -214t-99.5 -174t-165 -117t-232.5 -42q-137 0 -237.5 42t-166 117t-98 174t-32.5 214zM375 512q0 -152 59.5 -228.5t171.5 -76.5q113 0 170.5 76.5t57.5 228.5 q0 303 -228 303q-113 0 -172 -76.5t-59 -226.5zM396 1255l262 404l227 -158l-319 -364z" />
<glyph unicode="&#xf4;" horiz-adv-x="1206" d="M72 512q0 115 35.5 214t102 172t166 115t230.5 42q139 0 239.5 -42t164 -115t95.5 -172t32 -214t-34 -214t-99.5 -174t-165 -117t-232.5 -42q-137 0 -237.5 42t-166 117t-98 174t-32.5 214zM375 512q0 -152 59.5 -228.5t171.5 -76.5q113 0 170.5 76.5t57.5 228.5 q0 303 -228 303q-113 0 -172 -76.5t-59 -226.5zM260 1251l258 336h188l248 -336l-159 -112l-185 219l-186 -217z" />
<glyph unicode="&#xf5;" horiz-adv-x="1206" d="M72 512q0 115 35.5 214t102 172t166 115t230.5 42q139 0 239.5 -42t164 -115t95.5 -172t32 -214t-34 -214t-99.5 -174t-165 -117t-232.5 -42q-137 0 -237.5 42t-166 117t-98 174t-32.5 214zM375 512q0 -152 59.5 -228.5t171.5 -76.5q113 0 170.5 76.5t57.5 228.5 q0 303 -228 303q-113 0 -172 -76.5t-59 -226.5zM207 1204q0 137 38.5 214t126.5 89q12 2 25 2h25q47 -4 98 -21.5t98 -35.5l49 -18q29 -10 52.5 -17.5t38.5 -7.5q43 0 52 28.5t9 73.5h178q0 -152 -48 -229.5t-140 -77.5q-53 0 -110.5 20.5t-108.5 37.5l-54 20 q-31 10 -56.5 18.5t-39.5 8.5q-41 0 -50 -28t-9 -77h-174z" />
<glyph unicode="&#xf6;" horiz-adv-x="1206" d="M72 512q0 115 35.5 214t102 172t166 115t230.5 42q139 0 239.5 -42t164 -115t95.5 -172t32 -214t-34 -214t-99.5 -174t-165 -117t-232.5 -42q-137 0 -237.5 42t-166 117t-98 174t-32.5 214zM375 512q0 -152 59.5 -228.5t171.5 -76.5q113 0 170.5 76.5t57.5 228.5 q0 303 -228 303q-113 0 -172 -76.5t-59 -226.5zM236 1350q0 68 40.5 115.5t120.5 47.5q78 0 119 -48t41 -115q0 -70 -41 -117t-119 -47q-80 0 -120.5 47t-40.5 117zM684 1350q0 68 40 115.5t122 47.5q78 0 118 -48t40 -115q0 -70 -40 -117t-118 -47q-82 0 -122 47t-40 117z " />
<glyph unicode="&#xf7;" horiz-adv-x="1343" d="M205 561v238h934v-238h-934zM518 309q0 68 38 114t118 46q78 0 115.5 -46t37.5 -114q0 -66 -37.5 -111.5t-115.5 -45.5q-80 0 -118 45.5t-38 111.5zM518 1059q0 70 38 116t118 46q78 0 115.5 -46.5t37.5 -115.5q0 -63 -37.5 -110.5t-115.5 -47.5q-80 0 -118 47.5 t-38 110.5z" />
<glyph unicode="&#xf8;" horiz-adv-x="1206" d="M72 512q0 117 34.5 216t101 172t168 115t236.5 42q43 0 83 -4t75 -15l86 156h244l-139 -250q90 -74 133 -183.5t43 -242.5q0 -115 -32 -216t-96.5 -176t-166 -118t-242.5 -43q-92 0 -164 19l-106 -193h-244l158 287q-92 74 -132 185.5t-40 248.5zM375 512q0 -92 22 -158 l250 459q-10 2 -20.5 3t-20.5 1q-113 0 -172 -77.5t-59 -227.5zM557 209q12 -4 23 -4h26q111 0 169.5 77.5t58.5 229.5q0 90 -23 156z" />
<glyph unicode="&#xf9;" horiz-adv-x="1196" d="M113 371v651h293v-633q0 -100 47 -137t120 -37q61 0 107.5 16.5t91.5 36.5v754h293v-789l92 -133l-211 -153l-104 104q-66 -33 -141.5 -59.5t-186.5 -26.5t-187.5 32t-124.5 86t-68.5 128t-20.5 160zM277 1501l231 158l267 -404l-175 -118z" />
<glyph unicode="&#xfa;" horiz-adv-x="1196" d="M113 371v651h293v-633q0 -100 47 -137t120 -37q61 0 107.5 16.5t91.5 36.5v754h293v-789l92 -133l-211 -153l-104 104q-66 -33 -141.5 -59.5t-186.5 -26.5t-187.5 32t-124.5 86t-68.5 128t-20.5 160zM377 1255l262 404l227 -158l-319 -364z" />
<glyph unicode="&#xfb;" horiz-adv-x="1196" d="M113 371v651h293v-633q0 -100 47 -137t120 -37q61 0 107.5 16.5t91.5 36.5v754h293v-789l92 -133l-211 -153l-104 104q-66 -33 -141.5 -59.5t-186.5 -26.5t-187.5 32t-124.5 86t-68.5 128t-20.5 160zM246 1251l258 336h188l248 -336l-159 -112l-185 219l-186 -217z" />
<glyph unicode="&#xfc;" horiz-adv-x="1196" d="M113 371v651h293v-633q0 -100 47 -137t120 -37q61 0 107.5 16.5t91.5 36.5v754h293v-789l92 -133l-211 -153l-104 104q-66 -33 -141.5 -59.5t-186.5 -26.5t-187.5 32t-124.5 86t-68.5 128t-20.5 160zM205 1350q0 68 40.5 115.5t120.5 47.5q78 0 119 -48t41 -115 q0 -70 -41 -117t-119 -47q-80 0 -120.5 47t-40.5 117zM653 1350q0 68 40 115.5t122 47.5q78 0 118 -48t40 -115q0 -70 -40 -117t-118 -47q-82 0 -122 47t-40 117z" />
<glyph unicode="&#xfd;" horiz-adv-x="1177" d="M31 985l286 66l170 -678q23 -84 47.5 -118t79.5 -34h33l213 830l289 -68l-297 -1153q-41 -152 -144.5 -216.5t-258.5 -64.5q-72 0 -157 13.5t-155 36.5l45 237q57 -16 115.5 -30.5t122.5 -14.5q49 0 88 21.5t53 85.5l21 71q-84 0 -145.5 17.5t-105.5 53.5t-73 90t-47 130 zM422 1255l262 404l227 -158l-319 -364z" />
<glyph unicode="&#xfe;" horiz-adv-x="1181" d="M123 -438v1886h289v-457q51 27 118.5 46.5t151.5 19.5q96 0 176 -35t135.5 -102.5t86 -168t30.5 -233.5q0 -119 -29.5 -220t-93 -175t-162 -116t-237.5 -42q-37 0 -84 6t-90 17v-426h-291zM414 236q35 -12 72.5 -19.5t86.5 -7.5t91.5 16.5t73 52t49 94t18.5 142.5 q0 158 -55.5 224.5t-151.5 66.5q-45 0 -89 -13.5t-95 -35.5v-520z" />
<glyph unicode="&#xff;" horiz-adv-x="1177" d="M31 985l286 66l170 -678q23 -84 47.5 -118t79.5 -34h33l213 830l289 -68l-297 -1153q-41 -152 -144.5 -216.5t-258.5 -64.5q-72 0 -157 13.5t-155 36.5l45 237q57 -16 115.5 -30.5t122.5 -14.5q49 0 88 21.5t53 85.5l21 71q-84 0 -145.5 17.5t-105.5 53.5t-73 90t-47 130 zM226 1350q0 68 40.5 115.5t120.5 47.5q78 0 119 -48t41 -115q0 -70 -41 -117t-119 -47q-80 0 -120.5 47t-40.5 117zM674 1350q0 68 40 115.5t122 47.5q78 0 118 -48t40 -115q0 -70 -40 -117t-118 -47q-82 0 -122 47t-40 117z" />
<glyph unicode="&#x131;" horiz-adv-x="602" d="M35 782v240h430v-1022h-295v782h-135z" />
<glyph unicode="&#x152;" horiz-adv-x="2240" d="M78 713q0 143 37 280t119.5 245t213 171.5t316.5 63.5q115 0 202 -28t150 -71v74h1041v-256h-744v-309h574v-256h-574v-373h758v-254h-1055v76q-61 -45 -152.5 -78t-209.5 -33q-180 0 -307.5 61.5t-210 164t-120.5 237.5t-38 285zM395 715q0 -102 23.5 -191.5t71 -155 t119 -103.5t169.5 -38q113 0 198 39t140 101v714q-63 63 -147 97t-187 34q-100 0 -172.5 -38.5t-120 -107.5t-71 -159t-23.5 -192z" />
<glyph unicode="&#x153;" horiz-adv-x="1871" d="M72 510q0 115 32.5 215t97 173t163 115t231.5 42q137 0 228 -49.5t147 -131.5q59 78 148 129.5t229 51.5q115 0 200.5 -38t142 -108.5t83 -172t26.5 -226.5l-86 -80h-586q4 -92 65.5 -154.5t176.5 -62.5q39 0 75 3t76 10t87 19.5t110 33.5l76 -228q-84 -33 -198.5 -59.5 t-247.5 -26.5q-145 0 -236.5 45t-146.5 123q-51 -76 -146.5 -122t-240.5 -46q-133 0 -230.5 42t-158 116t-89 173t-28.5 214zM375 510q0 -150 59.5 -228.5t171.5 -78.5q111 0 169.5 78.5t58.5 228.5q0 303 -228 303q-113 0 -172 -76.5t-59 -226.5zM1133 623h358 q-2 102 -50 148t-118 46q-84 0 -134 -55t-56 -139z" />
<glyph unicode="&#x178;" horiz-adv-x="1339" d="M12 1356l269 112l303 -651q23 -47 41 -60.5t45 -13.5q31 0 49 14.5t39 61.5l305 649l270 -108l-276 -592q-49 -106 -101.5 -176t-138.5 -103v-489h-303v487q-82 29 -131 94.5t-98 172.5zM293 1720q0 68 40.5 116t120.5 48q78 0 120 -48t42 -116t-42 -116t-120 -48 q-80 0 -120.5 48t-40.5 116zM743 1720q0 68 40 116t120 48q78 0 118 -48t40 -116t-40 -116t-118 -48q-80 0 -120 48t-40 116z" />
<glyph unicode="&#x2c6;" d="M127 1251l258 336h188l248 -336l-159 -112l-185 219l-186 -217z" />
<glyph unicode="&#x2da;" d="M221 1425q0 57 21.5 108.5t60.5 89.5t90 60.5t109 22.5q57 0 108.5 -22.5t90 -60.5t60 -89t21.5 -109q0 -59 -21.5 -110t-60 -89t-90 -59.5t-108.5 -21.5t-108.5 21.5t-90.5 59.5t-60.5 89t-21.5 110zM391 1425q0 -47 30 -81.5t81 -34.5t80.5 34.5t29.5 81.5 q0 45 -29.5 80t-80.5 35q-49 0 -80 -35t-31 -80z" />
<glyph unicode="&#x2dc;" d="M111 1204q0 137 38.5 214t126.5 89q12 2 25 2h25q47 -4 98 -21.5t98 -35.5l49 -18q29 -10 52.5 -17.5t38.5 -7.5q43 0 52 28.5t9 73.5h178q0 -152 -48 -229.5t-140 -77.5q-53 0 -110.5 20.5t-108.5 37.5l-54 20q-31 10 -56.5 18.5t-39.5 8.5q-41 0 -50 -28t-9 -77h-174z " />
<glyph unicode="&#x2000;" horiz-adv-x="1048" />
<glyph unicode="&#x2001;" horiz-adv-x="2097" />
<glyph unicode="&#x2002;" horiz-adv-x="1048" />
<glyph unicode="&#x2003;" horiz-adv-x="2097" />
<glyph unicode="&#x2004;" horiz-adv-x="698" />
<glyph unicode="&#x2005;" horiz-adv-x="524" />
<glyph unicode="&#x2006;" horiz-adv-x="348" />
<glyph unicode="&#x2007;" horiz-adv-x="348" />
<glyph unicode="&#x2008;" horiz-adv-x="262" />
<glyph unicode="&#x2009;" horiz-adv-x="417" />
<glyph unicode="&#x200a;" horiz-adv-x="114" />
<glyph unicode="&#x2010;" horiz-adv-x="942" d="M143 492v256h662v-256h-662z" />
<glyph unicode="&#x2011;" horiz-adv-x="942" d="M143 492v256h662v-256h-662z" />
<glyph unicode="&#x2012;" horiz-adv-x="942" d="M143 492v256h662v-256h-662z" />
<glyph unicode="&#x2013;" d="M0 481v236h1004v-236h-1004z" />
<glyph unicode="&#x2014;" horiz-adv-x="2007" d="M0 481v236h2007v-236h-2007z" />
<glyph unicode="&#x2018;" horiz-adv-x="509" d="M86 1026q0 20 4 44t15.5 59.5t31 90t53.5 136.5l50 108l178 -55l-78 -235q37 -16 67.5 -50t30.5 -92q0 -74 -43 -120t-133 -46t-133 48.5t-43 111.5z" />
<glyph unicode="&#x2019;" horiz-adv-x="509" d="M76 1307q0 72 43 117.5t131 45.5q92 0 135 -48t43 -109q0 -20 -4 -44t-15.5 -61t-32 -91t-52.5 -134l-50 -111l-178 58l78 233q-37 16 -67.5 51.5t-30.5 92.5z" />
<glyph unicode="&#x201a;" horiz-adv-x="509" d="M76 147q0 72 43 118t131 46q92 0 135 -48t43 -111q0 -18 -4 -43t-15.5 -61t-32 -90t-52.5 -134l-50 -111l-178 56l78 235q-37 16 -67.5 50t-30.5 93z" />
<glyph unicode="&#x201c;" horiz-adv-x="925" d="M502 1026q0 20 4 44t15.5 59.5t31 90t53.5 136.5l50 108l178 -55l-78 -235q37 -16 67.5 -50t30.5 -92q0 -74 -43 -120t-133 -46t-133 48.5t-43 111.5zM86 1026q0 20 4 44t15.5 59.5t31 90t53.5 136.5l50 108l178 -55l-78 -235q37 -16 67.5 -50t30.5 -92q0 -74 -43 -120 t-133 -46t-133 48.5t-43 111.5z" />
<glyph unicode="&#x201d;" horiz-adv-x="925" d="M492 1307q0 72 43 117.5t131 45.5q92 0 135 -48t43 -109q0 -20 -4 -44t-15.5 -61t-32 -91t-52.5 -134l-50 -111l-178 58l78 233q-37 16 -67.5 51.5t-30.5 92.5zM76 1307q0 72 43 117.5t131 45.5q92 0 135 -48t43 -109q0 -20 -4 -44t-15.5 -61t-32 -91t-52.5 -134 l-50 -111l-178 58l78 233q-37 16 -67.5 51.5t-30.5 92.5z" />
<glyph unicode="&#x201e;" horiz-adv-x="925" d="M492 147q0 72 43 118t131 46q92 0 135 -48t43 -111q0 -18 -4 -43t-15.5 -61t-32 -90t-52.5 -134l-50 -111l-178 56l78 235q-37 16 -67.5 50t-30.5 93zM76 147q0 72 43 118t131 46q92 0 135 -48t43 -111q0 -18 -4 -43t-15.5 -61t-32 -90t-52.5 -134l-50 -111l-178 56 l78 235q-37 16 -67.5 50t-30.5 93z" />
<glyph unicode="&#x2022;" d="M250 664q0 115 59.5 189.5t194.5 74.5q129 0 189.5 -75t60.5 -189q0 -113 -60.5 -188t-189.5 -75q-135 0 -194.5 75t-59.5 188z" />
<glyph unicode="&#x2026;" horiz-adv-x="1689" d="M1266 141q0 74 40 122t126 48q88 0 128 -48t40 -122q0 -78 -40 -126t-128 -48q-86 0 -126 48t-40 126zM678 141q0 74 40 122t126 48q88 0 128 -48t40 -122q0 -78 -40 -126t-128 -48q-86 0 -126 48t-40 126zM90 141q0 74 40 122t126 48q88 0 128 -48t40 -122 q0 -78 -40 -126t-128 -48q-86 0 -126 48t-40 126z" />
<glyph unicode="&#x202f;" horiz-adv-x="417" />
<glyph unicode="&#x2039;" horiz-adv-x="819" d="M113 541q0 76 46 127t117 104l304 225l139 -194l-297 -213q-25 -16 -25 -35q0 -16 19 -29l311 -225l-139 -197l-326 222q-74 49 -111.5 95t-37.5 120z" />
<glyph unicode="&#x203a;" horiz-adv-x="819" d="M94 801l139 196l324 -221q76 -49 114 -95t38 -120q0 -76 -46.5 -127t-117.5 -104l-303 -226l-140 195l299 219q25 16 25 35q0 16 -18 29z" />
<glyph unicode="&#x2044;" horiz-adv-x="190" d="M-473 0l872 1430h256l-870 -1430h-258z" />
<glyph unicode="&#x205f;" horiz-adv-x="524" />
<glyph unicode="&#x2074;" horiz-adv-x="903" d="M84 903q0 66 68 141l366 388h174v-506h127v-168h-127v-187h-209v187h-233q-84 0 -125 41t-41 104zM264 938q0 -12 17 -12h202v241l-209 -213q-10 -8 -10 -16z" />
<glyph unicode="&#x20ac;" horiz-adv-x="1398" d="M94 416v225h924v-225h-451q35 -98 106.5 -148.5t196.5 -50.5q45 0 85 5t84 16.5t94.5 30t115.5 44.5l86 -231q-111 -53 -222.5 -85t-256.5 -32q-137 0 -242.5 36t-181.5 95.5t-121 142.5t-61 177h-156zM94 737v226h154q25 109 77 198.5t129.5 152t180 98.5t231.5 36 q139 0 253 -33t206 -74l-88 -229q-61 27 -109.5 42t-90.5 24.5t-82 12.5t-83 3q-137 0 -211.5 -59.5t-103.5 -171.5h461v-226h-924z" />
<glyph unicode="&#x2122;" horiz-adv-x="1828" d="M76 1223v225h682v-225h-215v-584h-252v584h-215zM856 639v809h203l186 -344q14 -29 31 -29q16 0 33 29l180 344h205v-809h-230v377l-67 -107q-25 -41 -51.5 -58t-67.5 -17q-39 0 -66.5 18t-56.5 59l-70 105v-377h-229z" />
<glyph unicode="&#xe000;" horiz-adv-x="1065" d="M0 1065h1065v-1065h-1065v1065z" />
<glyph unicode="&#xfb01;" horiz-adv-x="1208" d="M49 780v238h127v102q0 74 23.5 139.5t74 112.5t126 74t184.5 27q125 0 227 -26t182 -58l-86 -220q-78 35 -156.5 53.5t-129.5 18.5q-84 0 -117 -36t-33 -97v-90h616v-1018h-294v780h-322v-780h-295v780h-127z" />
<glyph unicode="&#xfb02;" horiz-adv-x="1222" d="M49 780v238h127v104q0 74 20.5 139.5t67.5 111.5t126 73t198 27q141 0 278.5 -25t235.5 -59v-1389h-295v1217q-47 14 -101.5 20t-95.5 6q-76 0 -107.5 -36t-31.5 -107v-82h221v-238h-221v-780h-295v780h-127z" />
<glyph unicode="&#xfb03;" horiz-adv-x="1822" d="M49 780v238h127v104q0 74 21.5 139.5t68.5 111.5t121 73t180 27q57 0 113.5 -8.5t110.5 -20.5l-48 -223q-47 12 -78.5 17t-64.5 5q-70 0 -99.5 -36t-29.5 -107v-82h320v102q0 74 23.5 139.5t73.5 112.5t126 74t184 27q125 0 227.5 -26t182.5 -58l-86 -220 q-78 35 -157 53.5t-130 18.5q-84 0 -117 -36t-33 -97v-90h617v-1018h-295v780h-322v-780h-294v780h-320v-780h-295v780h-127z" />
<glyph unicode="&#xfb04;" horiz-adv-x="1845" d="M49 780v238h127v104q0 74 21.5 139.5t68.5 111.5t121 73t180 27q57 0 113.5 -8.5t110.5 -20.5l-48 -223q-47 12 -78.5 17t-64.5 5q-70 0 -99.5 -36t-29.5 -107v-82h328v104q0 74 20.5 139.5t67.5 111.5t126 73t197 27q141 0 278.5 -25t235.5 -59v-1389h-294v1217 q-47 14 -102.5 20t-94.5 6q-78 0 -108.5 -36t-30.5 -107v-82h221v-238h-221v-780h-295v780h-328v-780h-295v780h-127z" />
<glyph d="M111 1567q0 137 38.5 214t126.5 89q12 2 25 2h25q47 -4 97 -22.5t99 -34.5l49 -19q29 -10 52.5 -17t38.5 -7q43 0 52 29.5t9 72.5h178q0 -150 -48 -228.5t-140 -78.5q-53 0 -110.5 20.5t-108.5 38.5l-54 21q-31 8 -56.5 16t-39.5 8q-41 0 -50 -27.5t-9 -76.5h-174z" />
<glyph d="M221 1817q0 57 21.5 108t60.5 90t90 60.5t109 21.5q57 0 108.5 -21.5t90 -60.5t60 -90t21.5 -108q0 -59 -21.5 -110.5t-60 -89.5t-90 -59.5t-108.5 -21.5t-108.5 21.5t-90.5 59.5t-60.5 89.5t-21.5 110.5zM391 1817q0 -47 30 -81t81 -34t80.5 33.5t29.5 81.5 q0 45 -29.5 79.5t-80.5 34.5q-49 0 -80 -34.5t-31 -79.5z" />
<glyph d="M109 1720q0 68 40.5 116t120.5 48q78 0 120 -48t42 -116t-42 -116t-120 -48q-80 0 -120.5 48t-40.5 116zM559 1720q0 68 40 116t120 48q78 0 118 -48t40 -116t-40 -116t-118 -48q-80 0 -120 48t-40 116z" />
<glyph d="M139 1651l242 256h203l231 -254l-153 -119l-185 170l-182 -170z" />
<glyph d="M258 1663l328 350l188 -178l-362 -303z" />
<glyph d="M260 1835l191 178l323 -350l-149 -131z" />
</font>
</defs>
</svg>
